<?xml version="1.0" encoding="utf-8"?>
<!-- Generator: Adobe Illustrator 26.0.3, SVG Export Plug-In . SVG Version: 6.00 Build 0)  -->
<svg version="1.1" id="Capa_1" xmlns="http://www.w3.org/2000/svg" xmlns:xlink="http://www.w3.org/1999/xlink" x="0px" y="0px"
	 viewBox="0 0 200 200" style="enable-background:new 0 0 200 200;" xml:space="preserve">
<style type="text/css">
	.st0{fill:#DDB459;}
	.st1{fill:#6CC4EA;}
	.st2{fill:#FFFFFF;}
</style>
<g>
	<path class="st0" d="M186,1.73L15.96-0.18l-1.37,104.24c0,0.45,0.17,43.77,28.56,67.24c0.24,0.2,25.29,18.92,54.92,28.51l1.36,0.01
		c29.84-8.92,55.3-27.07,55.56-27.28c28.89-22.81,30.04-66.12,30.05-66.56C185.03,105.98,186,1.73,186,1.73L186,1.73z"/>
	<path class="st1" d="M46.21,164.64l0.21,0.17l0,0c2.21,1.83,25.08,20.37,51.94,29.06l0.11,0c28.32-8.46,52.53-27.84,52.79-28.05
		c27.03-21.16,28.13-61.62,28.14-62.02c0,0.01,0.12-12.48,0.27-28.59l-153.71,59.8C29.86,145.43,36.14,156.38,46.21,164.64
		L46.21,164.64z"/>
	<path class="st2" d="M180.39,8.13L20.41,70.36l-0.42,32.04c0,0.25-0.54,14.22,4.69,30.05l155-60.33
		C179.9,48.6,180.29,18.81,180.39,8.13L180.39,8.13z"/>
	<polygon class="st1" points="173.05,7.92 21.25,6.21 20.45,67.3 173.05,7.92 	"/>
	<path class="st0" d="M51.48,73.15l3.2-1.25l7.48,10.08l-3.72,2.85c-2.44-2.14-4.5-3.54-6.17-4.19c-2.31-0.88-4.47-0.93-6.47-0.15
		c-1.46,0.57-2.66,1.5-3.61,2.81c-0.95,1.31-1.49,2.89-1.62,4.76c-0.13,1.87,0.22,3.86,1.04,5.98c1.26,3.23,3.19,5.67,5.81,7.34
		c2.61,1.66,5.3,1.96,8.06,0.88c1.76-0.68,3.25-1.85,4.48-3.49c1.54-2.04,2.64-4.39,3.29-7.07l4.5,1.23
		c-1.06,3.98-2.29,6.94-3.69,8.89c-2.16,3.01-5.03,5.2-8.58,6.59c-2.96,1.15-5.91,1.49-8.85,1c-2.95-0.49-5.63-1.73-8.05-3.73
		c-2.42-2-4.22-4.5-5.4-7.52c-1.17-3-1.54-6.01-1.12-9.02c0.43-3.01,1.57-5.67,3.42-7.99c1.86-2.31,4.25-4.05,7.2-5.19
		c2.99-1.16,5.85-1.55,8.59-1.17L51.48,73.15L51.48,73.15z"/>
	<path class="st0" d="M74.47,91.15c1.16-0.45,2.3-0.43,3.44,0.07c1.14,0.5,1.93,1.33,2.38,2.48c0.45,1.16,0.42,2.3-0.07,3.44
		c-0.5,1.14-1.33,1.93-2.48,2.38c-1.17,0.46-2.33,0.44-3.46-0.06c-1.14-0.5-1.93-1.33-2.38-2.48c-0.45-1.16-0.43-2.3,0.07-3.44
		C72.46,92.4,73.3,91.61,74.47,91.15L74.47,91.15z"/>
	<path class="st0" d="M84.13,60.42l7.06-2.75l18.89,20.59c1.01,1.09,1.78,1.71,2.3,1.86c0.51,0.15,1.3,0,2.36-0.43l1.69,4.35
		l-14.87,5.8l-1.69-4.35l0.89-0.37c0.83-0.32,1.36-0.66,1.61-1c0.25-0.35,0.31-0.68,0.18-0.99c-0.11-0.27-0.46-0.77-1.08-1.5
		l-2.05-2.5l-9.55,3.72l0.06,3.64c0.02,0.77,0.07,1.26,0.16,1.47c0.09,0.24,0.26,0.42,0.51,0.55c0.25,0.13,0.59,0.16,1.01,0.1
		c0.28-0.04,1-0.28,2.15-0.74l1.69,4.35l-12.16,4.74l-1.69-4.35c0.78-0.31,1.32-0.59,1.63-0.87c0.31-0.28,0.52-0.59,0.65-0.96
		c0.13-0.36,0.19-0.97,0.19-1.81L84.13,60.42L84.13,60.42z M89.78,77.71L89.78,77.71l6.24-2.43l-6.4-7.44L89.78,77.71L89.78,77.71z"
		/>
	<path class="st0" d="M119.03,73.78c1.16-0.45,2.3-0.43,3.44,0.07c1.14,0.5,1.93,1.33,2.38,2.48c0.45,1.16,0.43,2.3-0.07,3.44
		c-0.5,1.14-1.33,1.93-2.48,2.38c-1.17,0.46-2.33,0.44-3.46-0.07c-1.14-0.5-1.93-1.33-2.38-2.48c-0.45-1.16-0.43-2.3,0.07-3.44
		C117.03,75.03,117.86,74.23,119.03,73.78L119.03,73.78z"/>
	<path class="st0" d="M119.09,45.58l2.97-1.16l0.73,0.94l17.71-6.9l-0.03-1.21l3-1.17l8.19,9.5l-3.62,3.1
		c-1.64-1.47-2.78-2.4-3.4-2.8c-1.22-0.79-2.48-1.29-3.76-1.52c-0.97-0.18-1.83-0.12-2.6,0.18c-0.36,0.14-0.57,0.32-0.64,0.55
		c-0.07,0.23,0.02,0.65,0.26,1.26l7.04,18.07c0.42,1.07,0.71,1.72,0.9,1.96c0.18,0.24,0.39,0.41,0.64,0.49
		c0.24,0.09,0.53,0.1,0.87,0.02c0.34-0.07,1.19-0.37,2.57-0.91l1.69,4.35l-15.34,5.98l-1.69-4.35l0.93-0.36
		c1.03-0.4,1.66-0.72,1.9-0.96c0.24-0.24,0.37-0.55,0.39-0.93c0.02-0.38-0.16-1.08-0.56-2.11l-7.2-18.47
		c-0.2-0.53-0.39-0.83-0.57-0.92c-0.17-0.09-0.45-0.06-0.84,0.1c-0.78,0.3-1.54,0.94-2.27,1.9c-0.74,0.96-1.27,2.12-1.6,3.48
		c-0.14,0.54-0.32,1.97-0.54,4.28l-4.69,0.14L119.09,45.58L119.09,45.58z"/>
	<path class="st0" d="M162.68,56.77c1.16-0.45,2.3-0.43,3.44,0.07c1.14,0.5,1.93,1.33,2.38,2.48c0.45,1.16,0.43,2.3-0.07,3.44
		c-0.5,1.14-1.33,1.93-2.48,2.38c-1.17,0.46-2.33,0.44-3.46-0.06c-1.14-0.5-1.93-1.33-2.38-2.48c-0.45-1.16-0.43-2.3,0.07-3.44
		C160.67,58.02,161.51,57.22,162.68,56.77L162.68,56.77z"/>
	<path class="st2" d="M50.78,168.19c6.04,4.54,17.66,12.65,31.72,19.31l0.84-74.79l-32.08,12.48L50.78,168.19L50.78,168.19z"/>
	<path class="st2" d="M115.91,187.23c15.22-6.98,27.49-15.52,32.67-19.36l0.91-80.91l-32.6,12.68L115.91,187.23L115.91,187.23z"/>
</g>
</svg>
