<?xml version="1.0" encoding="utf-8"?>
<!-- Generator: Adobe Illustrator 26.0.3, SVG Export Plug-In . SVG Version: 6.00 Build 0)  -->
<svg version="1.1" id="Capa_1" xmlns="http://www.w3.org/2000/svg" xmlns:xlink="http://www.w3.org/1999/xlink" x="0px" y="0px"
	 viewBox="0 0 200 200" style="enable-background:new 0 0 200 200;" xml:space="preserve">
<style type="text/css">
	.st0{fill-rule:evenodd;clip-rule:evenodd;fill:#BE9F56;}
	.st1{fill:#BE9F56;stroke:#BE9F56;stroke-width:1.2193;stroke-miterlimit:10;}
	.st2{fill-rule:evenodd;clip-rule:evenodd;fill:#FFFFFF;}
	.st3{fill:none;}
	.st4{fill:#BE9F56;}
	.st5{fill:#158E30;}
</style>
<g>
	<g>
		<polygon class="st0" points="86.74,7.02 94.81,7.9 88.82,13.41 90.41,21.43 83.37,17.33 76.08,21.3 77.92,13.41 71.91,7.94 
			79.99,7.02 83.37,-0.42 		"/>
		<polygon class="st0" points="121.78,7.02 129.86,7.9 123.85,13.41 125.45,21.43 118.42,17.33 111.12,21.3 112.96,13.41 
			106.95,7.94 115.03,7.02 118.42,-0.42 		"/>
		<g>
			<path class="st1" d="M135.16,35.51c5.17,5.8,9.69,8.54,13.95,8.54c4.07,0,7.93-2.51,11.92-7.23l0.04,106.82l-60.28,53.91
				l-61.28-53.91l0.04-106.82c3.99,4.72,8,7.23,12.23,7.23c4.44,0,9.11-2.74,14.27-8.54c6.01,5.76,11.71,8.41,17.27,8.41
				c5.91,0,11.67-3,17.47-8.41c5.81,5.42,11.47,8.41,17.29,8.41C123.55,43.93,129.16,41.27,135.16,35.51 M162.53,32.73l-2.64,3.13
				c-3.81,4.51-7.34,6.69-10.78,6.69c-3.82,0-8.01-2.63-12.84-8.04l-1.03-1.16l-1.12,1.09c-5.6,5.37-10.85,7.99-16.04,7.99
				c-5.17,0-10.49-2.62-16.27-8.01l-1.02-0.95l-1.02,0.96c-5.77,5.38-11.16,8-16.45,8c-5.31,0-10.62-2.62-16.23-7.99l-1.12-1.09
				l-1.03,1.16c-4.82,5.41-9.12,8.04-13.15,8.04c-3.64,0-7.27-2.18-11.08-6.69l-2.64-3.13v4.09l-0.05,106.83v0.67l0.51,0.45
				L99.8,198.7l1,0.88l1-0.88l60.27-53.93l0.5-0.45v-0.67l-0.04-106.83V32.73L162.53,32.73z"/>
			<path class="st2" d="M100.79,197.57l-61.28-53.91l0.04-106.82c8.17,9.67,16.39,10.03,26.5-1.32c12.39,11.9,23.48,10.5,34.74,0
				c11.28,10.5,21.98,11.9,34.37,0c10.1,11.34,17.7,10.99,25.87,1.32l0.04,106.82L100.79,197.57z"/>
			<path d="M70.55,106.36v2.16c-0.78,0.41-1.58,0.72-2.39,0.94c-0.81,0.22-1.62,0.32-2.42,0.32c-0.76,0-1.49-0.1-2.18-0.3
				c-0.69-0.2-1.35-0.5-1.98-0.89c-0.99-0.65-1.76-1.48-2.32-2.49c-0.55-1.01-0.83-2.1-0.83-3.29c0-0.9,0.2-1.77,0.55-2.62
				c0.36-0.85,0.89-1.58,1.55-2.22c0.71-0.66,1.52-1.18,2.39-1.5c0.89-0.34,1.87-0.51,2.96-0.51c0.75,0,1.48,0.09,2.24,0.26
				c0.73,0.17,1.5,0.44,2.32,0.81v2.08c-0.85-0.46-1.65-0.8-2.39-1.02c-0.75-0.22-1.46-0.33-2.17-0.33c-1.58,0-2.86,0.48-3.88,1.46
				c-1.02,0.97-1.51,2.19-1.51,3.65c0,1.44,0.49,2.66,1.48,3.62c1.02,0.98,2.27,1.47,3.79,1.47c0.78,0,1.56-0.13,2.36-0.38
				C68.93,107.28,69.74,106.89,70.55,106.36z"/>
			<path d="M94.24,109.54l5.79-13.39h1.4l5.87,13.39h-1.98l-1.71-3.94h-5.7l-1.71,3.94H94.24z M98.64,103.87h4.18l-2.12-4.82
				L98.64,103.87z"/>
			<path d="M132.36,109.54V96.15h3.91c1.34,0,2.36,0.31,3.08,0.91c0.72,0.61,1.08,1.47,1.08,2.58c0,0.7-0.16,1.27-0.48,1.73
				c-0.31,0.46-0.83,0.81-1.49,1.06c0.97,0.23,1.72,0.65,2.26,1.25c0.52,0.61,0.8,1.35,0.8,2.21c0,1.11-0.41,2-1.22,2.66
				c-0.82,0.65-1.91,0.99-3.31,0.99H132.36z M134.25,101.89h1.29c0.98,0,1.7-0.18,2.18-0.52c0.47-0.35,0.7-0.89,0.7-1.61
				c0-0.65-0.19-1.14-0.56-1.44c-0.36-0.29-0.97-0.45-1.78-0.45h-1.83V101.89z M134.25,103.65v4.14h2.54c0.94,0,1.62-0.17,2.04-0.5
				c0.43-0.32,0.64-0.84,0.64-1.54c0-0.73-0.24-1.26-0.72-1.61c-0.49-0.34-1.23-0.5-2.27-0.5H134.25z"/>
			<g>
				<path class="st3" d="M66.05,35.51c-3.56,4.01-6.91,6.55-10.09,7.74v114.88l17.02,14.96V40.88
					C70.71,39.55,68.41,37.77,66.05,35.51z"/>
				<path class="st3" d="M100.79,35.51c-2.67,2.49-5.32,4.45-7.97,5.87v149.18l7.97,7.01l7.7-6.87V41.25
					C105.93,39.85,103.36,37.93,100.79,35.51z"/>
				<path class="st3" d="M135.16,35.51c-2.34,2.24-4.61,4.01-6.84,5.34v132.09l16.51-14.77V43.16
					C141.82,41.93,138.64,39.42,135.16,35.51z"/>
				<path class="st4" d="M55.3,43.49v114.06l0.66,0.58V43.25C55.74,43.34,55.52,43.41,55.3,43.49z"/>
				<path class="st5" d="M39.56,36.83l-0.04,106.82l15.79,13.89V43.49C49.74,45.25,44.64,42.84,39.56,36.83z"/>
				<path class="st4" d="M73.64,41.25c-0.23-0.13-0.45-0.24-0.66-0.38v132.22l0.66,0.59V41.25z"/>
				<path class="st4" d="M92.14,41.72v148.25l0.68,0.59V41.38C92.59,41.49,92.36,41.61,92.14,41.72z"/>
				<path class="st5" d="M73.64,41.25v132.43l18.5,16.28V41.72C86.12,44.7,80.02,44.75,73.64,41.25z"/>
				<path class="st4" d="M109.15,41.61c-0.23-0.12-0.44-0.24-0.66-0.36v149.44l0.66-0.6V41.61z"/>
				<path class="st4" d="M127.66,41.23v132.3l0.66-0.59V40.86C128.11,40.98,127.87,41.11,127.66,41.23z"/>
				<path class="st5" d="M109.15,41.61V190.1l18.51-16.56V41.23C121.25,44.81,115.21,44.71,109.15,41.61z"/>
				<path class="st4" d="M145.5,43.41c-0.24-0.07-0.45-0.16-0.67-0.25v115.02l0.67-0.6V43.41z"/>
				<path class="st5" d="M161.07,143.65l-0.04-106.82c-5.15,6.09-10.06,8.48-15.53,6.58v114.17L161.07,143.65z"/>
			</g>
		</g>
	</g>
</g>
</svg>
