<?xml version="1.0" encoding="utf-8"?>
<!-- Generator: Adobe Illustrator 26.0.3, SVG Export Plug-In . SVG Version: 6.00 Build 0)  -->
<svg version="1.1" id="Capa_1" xmlns="http://www.w3.org/2000/svg" xmlns:xlink="http://www.w3.org/1999/xlink" x="0px" y="0px"
	 viewBox="0 0 200 200" style="enable-background:new 0 0 200 200;" xml:space="preserve">
<style type="text/css">
	.st0{fill-rule:evenodd;clip-rule:evenodd;fill:#E30613;}
	.st1{fill-rule:evenodd;clip-rule:evenodd;fill:#FFFFFF;}
	.st2{fill-rule:evenodd;clip-rule:evenodd;fill:#009C40;}
</style>
<g>
	<path class="st0" d="M31.8,67.81v0.25c0.44,0.26,1.25,1.18,1.69,1.61c0.51,0.5,1.01,1.18,1.48,1.8c5.42,7.16,6.37,18.11,4.71,26.76
		c-0.36,1.85-0.87,3.49-1.29,5.27c-0.43,1.8-0.84,3.6-1.25,5.42c-3.45,15.01-4.61,30.36,2.88,44.33c1.54,2.87,3.2,5.72,5.05,8.08
		l4.45,5.4c0.5,0.63,1.09,1.07,1.6,1.68c1.01,1.24,1.65,1.61,2.48,2.44c1.31,1.31,2.88,2.73,4.32,3.89
		c2.74,2.24,4.43,3.61,7.47,5.77c7.73,5.5,16.19,10.31,24.89,14.6c2.84,1.4,5.97,2.96,9,4.24c1.43,0.6,0.87,0.51,2.3-0.12
		c0.77-0.34,1.49-0.68,2.24-1.04c7.89-3.77,13.88-7.01,21.28-11.53c4.63-2.82,12-8.06,16.19-11.82c1.83-1.64,2.38-2.09,4.25-3.96
		c5.32-5.31,9.24-10.01,12.88-16.88c7.45-14.04,7.06-28.07,3.92-44.54c-1.57-8.27-3.21-14.63-2.11-23.59
		c0.75-6.1,2.69-11.85,6.79-16.2c0.26-0.27,1.49-1.46,1.79-1.59v-0.26c-0.27-0.22-8.03-12.74-8.42-13.36
		c-1.39-2.25-2.77-4.5-4.2-6.71c-1.42-2.2-2.74-4.54-4.19-6.74l-5.26-0.01l-4.07,0.02l-0.49-0.02l-0.71,0.02l-0.27-0.01L138.3,41
		l-4.97,0.03l-2.42,0.02c-3.02,0.15-6.4,0.02-9.47,0.02h-14.06c-1.04-0.01-1.2-0.16-1.75,0.54c-0.57,0.73-4.98,5.96-5.38,6.29
		c-0.28-0.4-0.69-0.82-1.07-1.25l-3.22-3.81c-1.77-1.95-0.93-1.77-2.87-1.76c-7.64,0.02-15.94,0.16-23.42-0.01l-2.41,0.01L62.03,41
		c-0.67,0.15-2.17,0.12-2.86,0.03l-0.27,0.01l-0.73-0.01l-0.5,0.01l-4.07-0.01l-4.82,0c-0.47,0.1-4.14,6.32-4.35,6.66
		c-3.51,5.5-7.03,11.45-10.54,16.87C33.5,65.16,32.2,67.46,31.8,67.81z"/>
	<path class="st1" d="M92.85,193.7c0.86,0.43,7.01,3.42,7.49,3.39c0.45-0.04,6.58-3.09,7.4-3.51l-0.01-150.1
		c-0.85,0-1.12,0.81-2.04,1.82c-0.37,0.41-0.47,0.56-0.87,1.01c-0.67,0.76-4.16,4.87-4.41,5.31c-0.52-0.26-4.66-5.38-5.44-6.26
		c-0.36-0.41-0.6-0.66-0.93-1.06c-0.36-0.44-0.4-0.81-1.18-0.81L92.85,193.7z"/>
	<path class="st0" d="M77.98,185.73c0.46,0.44,2.77,1.66,3.53,2.09c1.24,0.69,2.47,1.33,3.72,2.02c2.34,1.29,5.14,2.76,7.62,3.86
		l0.01-150.23h-14.9L77.98,185.73z"/>
	<path class="st0" d="M107.73,193.57c2.59-1.2,5.12-2.67,7.6-3.99c1.25-0.66,2.4-1.35,3.67-2.08c0.96-0.55,2.92-1.59,3.62-2.2
		l-0.01-141.83l-14.89,0L107.73,193.57z"/>
	<path class="st1" d="M63.11,175.77c0.88,0.88,2.41,1.86,3.51,2.67c1.2,0.88,2.4,1.69,3.67,2.54c1.22,0.81,2.47,1.63,3.78,2.44
		c0.82,0.5,3.23,2.03,3.91,2.31L77.96,43.47H63.1L63.11,175.77z"/>
	<path class="st1" d="M122.62,185.29c0.62-0.28,1.44-0.84,1.99-1.2c0.66-0.43,1.29-0.82,1.93-1.24c1.64-1.07,10.21-6.99,10.92-8.05
		l0.01-131.34l-14.86,0L122.62,185.29z"/>
	<path class="st0" d="M48.19,46.36l0.01,115c0.64,1.35,5.67,6.45,6.99,7.67l1.87,1.76c0.76,0.79,5.49,4.76,6.05,4.99L63.1,43.47
		l-13.02-0.01C49.75,43.64,48.31,45.96,48.19,46.36z"/>
	<path class="st0" d="M137.47,174.81c1.14-0.52,7.22-6.4,8.01-7.23c1.19-1.28,2.41-2.61,3.58-4.03c0.62-0.76,3.04-3.68,3.32-4.42
		l0-112.75c-0.25-0.78-1.33-2.1-1.72-2.91l-13.2,0.01L137.47,174.81z"/>
	<path class="st1" d="M69.67,41.06c7.48,0.17,15.78,0.03,23.42,0.01c1.94-0.01,1.1-0.19,2.87,1.76l3.22,3.81
		c0.38,0.43,0.79,0.85,1.07,1.25c0.4-0.33,4.81-5.56,5.38-6.29c0.54-0.7,0.7-0.54,1.75-0.54h14.06c3.06,0,6.44,0.13,9.47-0.02
		c0.17-5.1-0.44-9.25-2.19-13.52c-1.56-3.8-3.9-7.32-6.23-9.58c-1.5-1.45-2.3-2.36-4.16-3.69c-1.49-1.07-3.13-2.09-5.01-2.96
		c-12.72-5.81-26.99-2.39-35.17,6.57c-2.78,3.04-4.56,5.48-6.25,9.57C70.16,31.61,69.46,36.05,69.67,41.06z"/>
	<path class="st1" d="M48.2,161.36l-0.01-115c-0.41,0.43-6.13,9.75-6.67,10.59l-5,8.01c-0.48,0.79-1.28,1.88-1.63,2.64
		c0.44,0.66,1.67,1.66,3.2,4.16c5.41,8.82,5.92,21.1,3.03,30.85c-0.75,2.54-2.21,9.38-2.74,12.15c-3.3,17.29-1.75,30.6,8.17,44.51
		C47.03,159.91,47.67,160.86,48.2,161.36z"/>
	<path class="st1" d="M152.38,159.12c1.35-1.39,4.34-6.95,5.2-8.97c5.36-12.52,5.32-23.33,2.99-36.82
		c-1.51-8.74-3.68-15.83-2.99-25.33c0.31-4.26,1.1-8.06,2.52-11.74c1-2.59,2.23-4.71,3.88-6.79c0.41-0.52,1.46-1.55,1.67-1.98
		l-13.25-21.13L152.38,159.12z"/>
	<path class="st2" d="M141.45,41.03l0.71-0.02l0.44-3.63c0.11-0.54-0.19,0.09,0.98-0.6c1.08-0.63,1.97-1.44,2.56-2.72
		c0.61-1.32,1.07-4.53,0.37-5.96c-1.21,0.41-2.74,2.04-3.38,3.18c-0.25,0.45-0.44,1.04-0.66,1.45l-0.63-4.17
		c4.58-3.64,1.7-9.49,0.97-9.89c-0.96,1.6-2.28,2.63-2.33,5.55c-0.6-1.17-1.11-2.43-1.75-3.62c0.86-1.39,1.92-2.27,1.65-4.98
		c-0.2-1.92-1.09-3.56-1.92-4.74c-0.65,0.53-1.27,1.93-1.54,2.71c-0.46,1.38-0.42,2.22-0.25,3.72l-2.76-3.28
		c1.14-2.7,1.59-4.47-0.43-7.58c-0.33-0.52-1.12-1.55-1.49-1.77c-0.47,0.69-0.98,2.22-1.1,3.24c-0.21,1.75,0.13,2.32,0.5,3.81
		c-0.67-0.48-1.23-0.93-1.91-1.41c-0.67-0.47-1.35-0.84-2-1.33c0.7-2.01,1.13-3.3,0.22-5.44c-0.33-0.78-0.77-1.51-1.21-2.07
		c-0.36-0.46-1.28-1.26-1.63-1.75h-0.14c-0.53,1.53-0.93,2.8-0.69,4.56c0.25,1.85,0.9,2.53,1.63,3.72
		c-1.76-0.73-1.04-0.47-1.77-1.34c-0.22-0.26-0.29-0.34-0.48-0.57c-2.34-2.78-8.04-2.6-9.48-1.56c0.95,1.7,3.46,3.83,6.35,4.11
		c2.58,0.26,3.49-0.67,4.32-0.35c0.96,0.37,2.65,1.33,3.33,1.87c-1.92-0.05-4.32,0.13-5.68,1.16c0.51,0.99,2.82,2.22,4.17,2.54
		c2.55,0.59,3.69-0.26,5.35-0.84c0.29,0.32,0.58,0.5,0.9,0.81c0.52,0.51,2.31,2.31,2.49,2.78c-1.16-0.55-1.97-0.92-3.5-0.97
		c-1.07-0.03-2.85,0.19-3.72,0.62c0.2,0.5,1.16,1.49,1.56,1.8c3.04,2.3,4.31,2,7.69,1.26c0.58,1.01,1.69,2.69,2.09,3.98
		c-0.26-0.14-0.54-0.39-0.77-0.55c-0.28-0.19-0.42-0.29-0.72-0.44c-1.63-0.8-5.06-1.09-5.96-0.44c0.43,1.23,1.94,2.65,3.15,3.37
		c1.95,1.17,3.1,0.92,5.36,0.77c0.54,0.81,1.25,4.7,1.37,5.85c-0.78-1.6-1.32-2.42-2.69-3.28c-1.13-0.71-2.92-1.37-4.51-1.38
		c-0.15,1.42,1.69,3.98,2.3,4.53c1.13,1,2.94,1.88,5.05,1.9C142.17,36.1,141.76,38.68,141.45,41.03z"/>
	<path class="st2" d="M58.17,41.03l0.73,0.01c-0.31-1.91-0.75-5.42-0.39-7.37c2.27-0.02,3.78-0.85,5.04-1.91
		c0.64-0.53,2.43-3.07,2.31-4.52c-3.46,0.03-6.34,2.12-7.19,4.72c0-1.13,0.83-5.13,1.37-5.91c2.08,0.24,3.68,0.29,5.38-0.75
		c1.16-0.71,2.6-2.09,3.12-3.38c-0.72-0.52-3.37-0.33-4.29-0.13c-1.83,0.39-2.1,0.88-3.22,1.63c0.31-0.91,1.6-3.36,2.18-4.04
		c1.05,0.19,1.47,0.5,2.81,0.51c2.26,0.01,3.3-0.65,4.9-1.85c0.45-0.34,1.2-1.19,1.5-1.72c-1.96-1.03-5.68-0.71-7.3,0.4
		c0.55-1.05,2.74-2.89,3.47-3.64c1.72,0.77,3.21,1.38,5.44,0.82c1.2-0.3,3.68-1.63,4.04-2.51c-1.52-1.02-3.58-1.23-5.64-1.16
		c0.49-0.47,3.06-1.82,3.4-1.92c0.76-0.22,1.79,0.68,4.35,0.39c2.42-0.27,5.31-2.24,6.23-4.1c-1.45-1-5.43-0.76-7.11-0.08
		c-1.04,0.42-1.93,1.13-2.47,1.76c-0.75,0.86-0.81,1.43-2.21,1.81c0.63-0.59,1.5-2.34,1.69-3.64c0.26-1.88-0.18-3.09-0.69-4.65
		h-0.13c-0.76,1.09-1.77,1.3-2.84,3.82c-1.09,2.55-0.22,3.93,0.19,5.44c-0.33,0.32-1.51,1.02-1.97,1.33
		c-0.72,0.49-1.24,0.95-1.94,1.4c0.95-3.1,0.71-4.33-0.56-7.04c-0.45,0.25-1.16,1.24-1.55,1.82c-1.98,2.96-1.5,4.97-0.39,7.53
		l-2.73,3.25c0.04-1.54,0.23-2.14-0.28-3.69c-0.32-0.99-0.88-2.14-1.49-2.68c-0.84,0.75-1.83,3.21-1.97,4.68
		c-0.14,1.53,0.18,2.82,0.94,4.04c0.23,0.37,0.5,0.6,0.69,0.97c-0.46,1.12-1.29,2.39-1.71,3.61c-0.24-2.27-0.65-3.31-2.03-5.03
		c-0.27-0.35-0.22-0.33-0.49-0.47c-0.88,1.14-1.55,3.79-1.36,5.5c0.12,0.98,0.41,1.88,0.88,2.61c0.63,0.96,0.82,1.11,1.64,1.75
		c-0.09,0.68-0.56,3.64-0.7,4.09c-0.28-0.45-0.44-1.04-0.7-1.51c-0.6-1.08-2.23-2.71-3.35-3.06c-0.44,2.03-0.41,4.06,0.4,5.9
		c0.55,1.24,2.1,2.92,3.56,3.18L58.17,41.03z"/>
	<path class="st2" d="M59.17,41.02c0.69,0.1,2.19,0.12,2.86-0.03c2.02-1.61,3.19-3.06,3.38-6.69c-1.46,0.02-3.55,1.57-4.24,2.21
		C60.17,37.44,59.21,38.98,59.17,41.02z"/>
	<path class="st2" d="M138.3,41l2.88,0.02c-0.22-2.04-0.89-3.53-2.01-4.5c-0.74-0.65-2.73-2.13-4.23-2.22
		C134.98,39.03,137.52,40.11,138.3,41z"/>
	<path class="st2" d="M53.61,41.02l4.07,0.01c-0.26-0.68-1.25-1.49-1.86-1.9c-0.53-0.35-1.77-1.18-2.53-1.14
		C53.26,39.15,53.44,39.95,53.61,41.02z"/>
	<path class="st2" d="M142.65,41.04l4.07-0.02c0.2-1.18,0.32-1.77,0.3-3.07C145.41,38.28,143.07,40.01,142.65,41.04z"/>
	<g>
		<path class="st0" d="M67.26,41.06l2.41-0.01c-0.21-5.01,0.49-9.45,2.22-13.62c1.69-4.08,3.47-6.52,6.25-9.57
			c8.19-8.96,22.46-12.39,35.17-6.57c1.88,0.86,3.53,1.89,5.01,2.96c1.86,1.33,2.66,2.25,4.16,3.69c2.33,2.26,4.68,5.79,6.23,9.58
			c1.75,4.27,2.36,8.43,2.19,13.52l2.42-0.02c0-2.89,0.04-5.12-0.48-7.91c-1.26-6.76-4.26-12.36-8.63-16.91
			C114.38,6,99.34,3.04,86.32,9.05c-3.35,1.55-7.44,4.35-9.89,7.1c-0.33,0.37-0.77,0.73-1.09,1.13c-1.16,1.51-1.41,1.69-2.72,3.61
			C69.02,26.16,66.58,34.44,67.26,41.06z"/>
		<polygon class="st0" points="99.49,27 80.78,27.03 80.79,28.61 99.48,28.62 99.49,40.47 101.08,40.48 101.08,28.65 120.71,28.62 
			120.72,27.06 101.13,27.02 101.08,15.11 99.49,15.11 		"/>
		<path class="st0" d="M87.75,39.55c3.2,0,8.57,0.91,8.26-3.1c-0.09-1.22-0.8-1.78-1.77-2.11c0.59-0.54,1.26-0.9,1.29-2.11
			c0.1-3.33-4.67-2.56-7.76-2.56L87.75,39.55z"/>
		<path class="st0" d="M104.37,25.84l2.05,0.05l0.88-2.24l3.88-0.01l0.92,2.23l2.13,0.02c-0.16-0.84-3.76-9.55-3.94-9.89l-2.06,0
			L104.37,25.84z"/>
		<path class="st0" d="M113.58,36.87l-1.85-0.59c-0.32,0.54-0.76,2.56-2.9,1.99c-2.37-0.64-2.38-5.67-0.28-6.53
			c1.47-0.6,2.77,0.19,3.03,1.46l1.97-0.45c-0.77-4.14-8.63-4.38-8.54,2.41C105.08,41.3,112.59,41.56,113.58,36.87z"/>
		<path class="st0" d="M95.37,23.23c-0.48-0.31-1.19-0.46-1.81-0.62l-0.09,0.16c-0.29,0.59-0.23,0.84-0.85,1.4
			c-0.94,0.85-3.64,1.03-3.75-2.7c-0.1-3.47,2.1-4.08,3.49-3.38c0.72,0.36,0.69,0.66,1.07,1.37l1.92-0.39
			c-0.82-4.23-8.66-4.32-8.55,2.4C86.91,27.67,94.52,27.75,95.37,23.23z"/>
		<path class="st1" d="M89.75,37.88h1.81c1.23,0,2.51,0,2.39-1.44c-0.12-1.32-1.56-1.2-2.74-1.2h-1.46L89.75,37.88z"/>
		<path class="st1" d="M89.75,33.55c1.24,0.23,3.82,0.31,3.84-1.09c0.01-0.87-0.52-1.1-1.35-1.14c-0.61-0.03-1.92-0.07-2.48,0.04
			L89.75,33.55z"/>
		<polygon class="st1" points="107.47,22.51 110.11,22.53 108.83,19 		"/>
	</g>
</g>
</svg>
