<?xml version="1.0" encoding="utf-8"?>
<!-- Generator: Adobe Illustrator 26.5.0, SVG Export Plug-In . SVG Version: 6.00 Build 0)  -->
<svg version="1.1" id="Capa_1" xmlns="http://www.w3.org/2000/svg" xmlns:xlink="http://www.w3.org/1999/xlink" x="0px" y="0px"
	 viewBox="0 0 200 200" style="enable-background:new 0 0 200 200;" xml:space="preserve">
<style type="text/css">
	.st0{fill-rule:evenodd;clip-rule:evenodd;fill:#1A171B;}
	.st1{fill-rule:evenodd;clip-rule:evenodd;fill:#FFFFFF;}
	.st2{fill-rule:evenodd;clip-rule:evenodd;fill:#009DDF;}
	.st3{fill:#1A171B;}
</style>
<g>
	
		<ellipse transform="matrix(0.2298 -0.9732 0.9732 0.2298 -20.6698 175.4338)" class="st0" cx="100.5" cy="100.8" rx="99.2" ry="99.2"/>
	<ellipse transform="matrix(0.7071 -0.7071 0.7071 0.7071 -41.8233 100.5811)" class="st1" cx="100.5" cy="100.8" rx="93" ry="93"/>
	<path class="st2" d="M100.5,34.1c37,0,67,30,67,67c0,37-30,67-67,67c-37,0-67-30-67-67C33.5,64.1,63.5,34.1,100.5,34.1z"/>
	<path class="st3" d="M58,173.7l-1.5,1.3c-1.3-0.2-2.7-0.8-4.1-1.8c-0.7-0.5-1.4-1.1-2.2-2c-0.5-0.5-0.9-1.3-1.3-2.3
		c-0.2-0.7-0.4-1.4-0.4-2.2c0-1.6,0.5-3,1.5-4.4c0.8-1.1,1.6-1.9,2.6-2.5c0.9-0.6,2-1,3.2-1.1c2-0.2,4.1,0.5,6.2,2.1
		c1.4,1,2.4,2.1,3,3.5c-0.2,0.2-0.5,0.4-0.8,0.7c-0.3,0.3-0.6,0.6-0.9,0.8l-0.2-0.2c0-0.7-0.1-1.4-0.5-2.1c-0.3-0.7-0.8-1.2-1.4-1.7
		c-0.9-0.7-1.9-1-2.9-0.9c-1,0.1-2,0.4-2.8,1c-0.9,0.6-1.7,1.4-2.3,2.3c-1.1,1.5-1.6,2.9-1.6,4.4c0,0.8,0.2,1.5,0.6,2.2
		c0.4,0.7,0.9,1.2,1.5,1.7c0.5,0.4,1.2,0.7,2,0.9c0.8,0.2,1.5,0.2,2.2,0.2L58,173.7L58,173.7z M84.5,180.2c-0.2-0.7-0.4-1.1-0.4-1.2
		c0-0.1-0.1-0.2-0.1-0.2c-0.1,0-0.1,0-0.1,0.1c-0.1,0.4-0.2,1.1-0.3,1.9c-0.1,0.9-0.3,1.5-0.3,1.9l-0.1,0.6
		c-0.1,0.6-0.2,1.4-0.3,2.3c-0.2-0.1-0.5-0.1-0.9-0.2c-0.4-0.1-0.7-0.2-0.9-0.2c-0.2,0-0.5-0.1-0.9-0.1c-0.4-0.1-0.7-0.1-0.9-0.1
		l0.1-0.4c0-0.2,0.1-0.3,0.1-0.5c0-0.2,0.1-0.3,0.1-0.4c0-0.1,0.1-0.3,0.1-0.5c0.2-0.9,0.6-2.3,0.9-4.3c0.1-0.4,0.2-1.1,0.4-2
		c0.2-0.9,0.3-1.5,0.4-2c0.2-1,0.5-2.6,0.8-4.8l1.5,0.4c0.3,0.1,0.9,0.2,1.6,0.3c0.7,0.1,1.2,0.2,1.6,0.3c1.7,0.3,2.9,0.7,3.4,1.1
		c1.1,1,1.6,2.2,1.3,3.6c-0.2,1-0.7,1.8-1.4,2.4c-0.7,0.6-1.7,0.8-2.7,0.9c0.4,1.1,1.2,3.4,2.7,6.9l0.5,1.4c-0.2-0.1-0.5-0.1-1-0.2
		c-0.4-0.1-0.8-0.2-1-0.2c-0.6-0.1-1.3-0.2-2-0.3l-1.6-4.9L84.5,180.2L84.5,180.2z M84.7,174.6l-0.3,1.7c-0.1,0.7-0.2,1.2-0.3,1.6
		c1.2,0.2,2.1,0.1,2.7-0.3c0.6-0.4,1.1-1.1,1.3-2.2c0.1-0.4,0.1-0.8,0.1-1.1c0-0.4-0.1-0.8-0.3-1.1c-0.2-0.3-0.4-0.5-0.6-0.6
		c-0.3-0.1-0.6-0.3-1-0.3c-0.4-0.1-0.7-0.2-1.1-0.2L84.7,174.6L84.7,174.6z M96.4,172.5c0.2,0,0.6,0,1.1-0.1c0.5,0,0.9-0.1,1.2-0.1
		c1.1,0,1.9,0,2.4,0c1.3,0.1,2.3,0.2,3.1,0.5c0.9,0.3,1.6,0.8,2.1,1.4c1.3,1.3,1.9,3,2,5c0,1.3-0.1,2.4-0.5,3.4
		c-0.4,1-1,1.9-1.9,2.8c-0.8,0.7-1.6,1.3-2.5,1.6c-0.9,0.3-1.9,0.5-3.1,0.5c-1.6,0.1-2.8,0.1-3.6,0.1c-0.1,0-0.3,0-0.5,0
		c-0.4,0-1.1,0.1-1.9,0.1c0-2.6,0-5.2-0.1-7.7l-0.1-2.2c0-0.4,0-0.9-0.1-1.6c-0.1-0.7-0.1-1.3-0.1-1.6c0-0.3-0.1-0.7-0.1-1
		c0-0.3-0.1-0.6-0.1-1C94.9,172.5,95.8,172.5,96.4,172.5L96.4,172.5z M99.3,186.2c1.1,0,2-0.2,2.7-0.5c0.7-0.3,1.3-0.8,1.8-1.7
		c0.8-1.2,1.1-2.8,1.1-4.7c0-0.8-0.2-1.6-0.4-2.4c-0.3-0.8-0.6-1.4-1.1-2c-0.5-0.6-1.2-1-1.8-1.1c-0.7-0.2-1.5-0.3-2.4-0.2
		c-0.2,0-0.4,0-0.8,0.1c-0.3,0-0.6,0.1-0.8,0.1c0,2.5,0.1,6.2,0.3,11.1l0,1.4C98,186.3,98.5,186.2,99.3,186.2L99.3,186.2z
		 M125.8,182c-1.3,1.7-3.1,2.9-5.5,3.4c-2.5,0.6-4.6,0.3-6.4-0.8c-1.7-1-2.9-2.7-3.4-5.1c-0.6-2.4-0.1-4.5,1.2-6.4
		c1.3-1.7,3.1-2.8,5.5-3.4c2-0.5,3.8-0.4,5.4,0.3c1.3,0.6,2.3,1.3,3,2.3c0.7,0.9,1.2,2,1.5,3.3c0.3,1.1,0.3,2.2,0.1,3.3
		C126.9,180.1,126.5,181.1,125.8,182L125.8,182z M123.5,180.8c0.4-1.3,0.3-2.9-0.1-4.7c-0.2-1-0.6-1.9-1.1-2.8
		c-0.5-0.9-1.2-1.5-2-1.9c-0.8-0.4-1.7-0.5-2.8-0.3c-0.9,0.2-1.7,0.6-2.3,1.3c-0.6,0.6-0.9,1.3-1.1,2.1c-0.3,1.3-0.2,2.9,0.2,4.8
		c0.2,1,0.6,1.9,1.1,2.7c0.5,0.8,1.2,1.4,2,1.8c0.8,0.4,1.7,0.5,2.7,0.2C121.8,183.7,122.9,182.6,123.5,180.8L123.5,180.8z
		 M135,171.6l-0.1-0.1c0.9-0.6,1.5-1.3,1.8-2.1c0.4-0.8,0.3-1.7-0.1-2.6c-0.4-0.8-0.8-1.3-1.4-1.6c-0.6-0.3-1.2-0.4-1.9-0.3
		c-0.7,0.1-1.4,0.3-2.1,0.6c-0.3,0.1-0.8,0.4-1.4,0.7c-0.6,0.3-1.1,0.6-1.4,0.7c-0.5,0.2-1.2,0.6-2.3,1c1.5,3,2.4,4.8,2.7,5.4
		c0.6,1.2,1.4,3.1,2.5,5.5c0.5,1.3,0.9,2.2,1.1,2.9c0.8-0.4,1.3-0.7,1.7-0.9c0.3-0.2,0.8-0.4,1.5-0.7c0.7-0.3,1.2-0.5,1.5-0.6
		c0.6-0.3,1-0.5,1.3-0.7c1-0.8,1.7-1.5,1.9-2.3c0.3-1.1,0.3-2.2-0.2-3.2c-0.4-1-1.2-1.6-2.2-1.9C137,171,136,171.1,135,171.6
		L135,171.6z M134,170.8c-0.2,0.4-0.5,0.6-0.8,0.9c-0.3,0.2-0.8,0.5-1.3,0.7l-1-2.1c-0.3-0.6-0.7-1.5-1.2-2.7
		c0.2-0.1,0.5-0.3,0.9-0.5c0.6-0.3,1.2-0.3,1.8-0.2c0.2,0,0.5,0.2,0.8,0.6c0.3,0.3,0.5,0.6,0.7,0.9C134.3,169.2,134.4,170,134,170.8
		L134,170.8z M136,178.5c-0.1,0-0.3,0.1-0.5,0.2c-0.2,0.1-0.4,0.2-0.5,0.2c-0.1-0.3-0.3-0.7-0.6-1.3c-0.3-0.6-0.5-1-0.6-1.3
		c-0.6-1.3-1-2.3-1.3-2.9c0.2-0.1,0.4-0.2,0.7-0.3c1.8-0.8,3.1-0.3,4,1.6c0.3,0.6,0.4,1.3,0.3,2C137.3,177.6,136.8,178.2,136,178.5
		L136,178.5z M145,175.5l-0.9-4c-1-4.6-2-8.6-2.9-11.9c0.1,0,0.1-0.1,0.2-0.1c0.1,0,0.2-0.1,0.3-0.1c0.1-0.1,0.2-0.1,0.2-0.1
		c0.1-0.1,0.2-0.2,0.3-0.3c0.1-0.1,0.2-0.2,0.3-0.3l0.4,0.2c4.3,2.8,8.7,5.6,13.2,8.3l0.2,0.1l0.1,0.2c-0.2,0.1-0.4,0.3-0.8,0.5
		c-0.4,0.2-0.6,0.4-0.8,0.5c-0.5,0.4-1,0.8-1.4,1.2c-1.7-1.3-3-2.2-3.9-2.8c-0.2,0.2-0.6,0.4-1,0.7c-0.5,0.3-0.8,0.5-1,0.7
		c-0.5,0.3-1.2,0.9-2.1,1.6l0.1,0.3c0.2,0.7,0.4,1.4,0.6,2.2c0.2,0.8,0.5,1.4,0.7,2c-0.3,0.1-0.6,0.3-0.9,0.5
		c-0.3,0.2-0.5,0.4-0.8,0.7L145,175.5L145,175.5z M145,168.5l3.3-2.4c-1.2-0.8-2.7-1.8-4.6-3c0.4,1.9,0.9,3.7,1.3,5.2L145,168.5z"/>
	<path class="st3" d="M29.8,121.9l2-0.2c1,0.9,1.8,2.2,2.4,3.8c0.3,0.8,0.5,1.7,0.8,2.8c0.1,0.7,0.1,1.6-0.2,2.7
		c-0.2,0.7-0.5,1.4-0.9,2.1c-0.8,1.3-2,2.3-3.6,2.9c-1.3,0.5-2.4,0.7-3.5,0.7c-1.1,0-2.2-0.3-3.3-0.9c-1.8-1-3.2-2.7-4.1-5.1
		c-0.6-1.6-0.8-3.1-0.6-4.6c0.3,0,0.6-0.1,1-0.1c0.4-0.1,0.8-0.1,1.2-0.2l0.1,0.3c-0.4,0.6-0.6,1.3-0.7,2c-0.1,0.8,0,1.5,0.2,2.1
		c0.4,1.1,1.1,1.9,1.9,2.4c0.9,0.5,1.9,0.7,2.9,0.7c1.1,0,2.1-0.2,3.2-0.6c1.7-0.7,2.9-1.6,3.7-2.8c0.4-0.7,0.6-1.4,0.7-2.2
		c0-0.8-0.1-1.5-0.3-2.2c-0.2-0.6-0.6-1.2-1.2-1.8c-0.6-0.6-1.1-1-1.8-1.3L29.8,121.9L29.8,121.9z M16.6,121.2
		c-0.1-0.9-0.1-1.5-0.2-1.8c-0.1-0.3-0.2-0.9-0.4-1.8c0.4-0.1,1.1-0.1,1.9-0.2c0.8-0.1,1.5-0.2,2-0.3c0.6-0.1,1.4-0.2,2.6-0.4
		l4.1-0.7c0.3-0.1,0.7-0.1,1.4-0.3c0.6-0.1,1.1-0.2,1.4-0.3l-0.3-1.2c-0.1-0.6-0.4-1.8-0.9-3.8c0.2,0,0.5,0,0.9-0.1
		c0.4-0.1,0.7-0.2,0.9-0.2l0.5,3.7c0.1,0.3,0.2,0.8,0.3,1.5c0.1,0.7,0.2,1.1,0.3,1.5c0.1,0.4,0.2,1,0.4,1.8c-1.9,0.2-4.3,0.5-7.1,1
		c-0.3,0.1-0.7,0.1-1.3,0.2c-0.6,0.1-1,0.2-1.3,0.2c-0.5,0.1-1.3,0.3-2.4,0.5c-1.1,0.2-1.8,0.4-2.4,0.5L16.6,121.2L16.6,121.2z
		 M17.8,93.6c0.2,0,0.6,0,1.1,0.1c0.5,0,0.9,0,1.1,0.1c0.3,0,0.7,0,1.2,0.1c0.5,0,1,0.1,1.2,0.1c1.7,0.1,3,0.3,3.9,0.6
		c0.9,0.3,1.7,0.9,2.4,2c0.7,1.1,1.1,2.5,1,4.2c0,1-0.2,1.9-0.4,2.7c-0.3,0.9-0.7,1.6-1.2,2.2c-0.6,0.6-1.3,1.1-2.3,1.3
		c-0.3,0.1-0.6,0.1-1.2,0.2c-0.3,0-0.8,0-1.5,0c-0.5,0-0.9,0-1.5,0c-0.5,0-0.9,0-1.3,0l-2.8-0.1c-0.3,0-0.7,0-1.3,0
		c-0.6,0-1,0-1.3,0c-0.1,0-0.3,0-0.5,0c-0.2,0-0.4,0-0.5,0c0.1-0.9,0.2-1.5,0.2-1.8c0-0.4,0-1-0.1-1.8c0.1,0,0.3,0,0.5,0.1
		c0.2,0,0.4,0.1,0.6,0.1c1.9,0.2,3.7,0.3,5.2,0.3c2,0.1,3.4,0.1,4.2,0c0.7-0.1,1.2-0.2,1.5-0.4c0.4-0.1,0.7-0.4,1-0.7
		c0.7-0.6,1-1.5,1-2.5c0-1-0.1-1.8-0.5-2.5c-0.4-0.6-1.1-1.2-2-1.6c-0.6-0.3-2.2-0.5-4.6-0.5c-3-0.1-5.2-0.1-6.7-0.1
		c0.1-0.5,0.2-0.9,0.2-1.1c0-0.2,0-0.6-0.1-1.1c0.2,0,0.4,0.1,0.7,0.1c0.3,0,0.6,0.1,0.9,0.1c0.3,0,0.6,0,0.8,0.1
		C17.2,93.5,17.5,93.6,17.8,93.6L17.8,93.6z M23.8,82.1c0.2-1,0.8-1.8,1.6-2.5c0.9-0.6,1.8-0.8,2.9-0.6c1.1,0.2,2,0.9,2.6,1.8
		c0.4,0.6,0.7,1.6,0.6,2.9c0,0.4-0.1,0.9-0.2,1.5c-0.1,0.3-0.2,0.9-0.4,1.6c-0.2,0.7-0.3,1.2-0.4,1.6c-0.1,0.4-0.2,1.1-0.4,1.9
		c-0.6-0.2-1.6-0.5-3-0.9c-2.6-0.6-4.6-1.1-5.9-1.4c-0.6-0.1-2.6-0.5-5.9-1.2c0.3-1.1,0.5-1.9,0.6-2.4c0.1-0.4,0.2-0.9,0.3-1.6
		c0.1-0.7,0.2-1.2,0.3-1.6c0.2-0.8,0.5-1.5,0.8-2.1c0.4-0.6,0.8-1,1.4-1.3c0.6-0.3,1.3-0.3,2.1-0.1c1,0.2,1.7,0.7,2.1,1.5
		c0.4,0.8,0.6,1.7,0.5,2.8L23.8,82.1L23.8,82.1z M22.6,82.4c-0.4-0.7-1-1.2-2-1.4c-0.3-0.1-0.7-0.1-1.1,0c-0.4,0-0.8,0.1-0.9,0.3
		c-0.5,0.4-0.8,0.9-0.9,1.5c-0.1,0.4-0.2,0.8-0.2,1c1.3,0.3,2.2,0.6,2.9,0.7l2.2,0.5c0.1-0.6,0.2-1.1,0.2-1.5
		C22.8,83.2,22.7,82.8,22.6,82.4L22.6,82.4z M29.9,85.6c0.2-0.9,0-1.6-0.5-2.2c-0.5-0.5-1.1-0.9-1.8-1c-2-0.5-3.3,0.2-3.7,2.2
		c-0.1,0.3-0.1,0.6-0.1,0.7c0.7,0.2,1.7,0.4,3.1,0.8c0.3,0.1,0.7,0.2,1.4,0.3c0.6,0.1,1.1,0.2,1.4,0.3c0-0.1,0.1-0.3,0.1-0.5
		C29.9,85.9,29.9,85.7,29.9,85.6L29.9,85.6z M35.5,71.5L33,68.2c-2.8-3.8-5.3-7-7.5-9.6c0-0.1,0.1-0.1,0.2-0.2
		c0.1-0.1,0.1-0.2,0.2-0.2c0.1-0.1,0.1-0.2,0.2-0.2c0.1-0.1,0.1-0.2,0.2-0.4c0.1-0.1,0.1-0.3,0.2-0.4l0.4,0
		c5.1,0.8,10.2,1.6,15.4,2.2l0.3,0l0.2,0.1c-0.1,0.2-0.3,0.4-0.5,0.8c-0.2,0.3-0.4,0.6-0.5,0.8c-0.3,0.5-0.6,1.1-0.8,1.6
		c-2.1-0.5-3.6-0.8-4.7-0.9c-0.1,0.2-0.4,0.6-0.6,1c-0.3,0.5-0.5,0.8-0.6,1.1c-0.3,0.5-0.7,1.3-1.3,2.4l0.2,0.2
		c0.5,0.6,1,1.1,1.5,1.7c0.5,0.6,1,1.1,1.5,1.6c-0.2,0.3-0.4,0.5-0.6,0.9c-0.2,0.3-0.3,0.6-0.4,0.9L35.5,71.5L35.5,71.5z M32.6,65
		l2-3.5c-1.4-0.3-3.2-0.5-5.5-0.9c1.2,1.6,2.3,3,3.3,4.2L32.6,65L32.6,65z M39.2,45.1c0.5,0.4,1.2,1,2.1,1.8
		c0.9,0.8,1.6,1.4,2.1,1.8c0.2,0.2,0.6,0.5,1.1,0.9c0.5,0.4,0.8,0.7,1.1,0.9c0.3,0.3,0.7,0.6,1.4,1.1c0.6,0.5,1.1,0.9,1.4,1.1
		c-0.1,0.1-0.3,0.3-0.6,0.6c-0.3,0.3-0.5,0.5-0.6,0.7c-0.1,0.1-0.3,0.4-0.5,0.7c-0.2,0.3-0.4,0.6-0.6,0.7c-0.3-0.2-0.6-0.6-1.1-1.1
		c-0.5-0.5-0.9-0.8-1.1-1.1c-2.3-2.2-4.2-3.8-5.6-5c-0.5-0.4-1.2-1-2.2-1.8c-0.3,0.3-0.7,0.8-1.2,1.5c-0.5,0.7-0.9,1.3-1.2,1.8
		c-0.1-0.2-0.3-0.4-0.6-0.7c-0.3-0.2-0.5-0.4-0.6-0.5c0,0-0.1,0-0.1-0.1c-0.1,0-0.1-0.1-0.1-0.1c0.5-0.5,0.9-0.9,1.1-1.2
		c1.1-1.2,2-2.2,2.7-3l1.5-1.7c0.2-0.3,0.6-0.7,1-1.3c0.4-0.6,0.8-1,1.1-1.4c0.2,0.3,0.4,0.5,0.6,0.7c0.3,0.2,0.6,0.4,0.9,0.6
		c-1,0.9-2,1.8-2.8,2.8L39.2,45.1L39.2,45.1z M42.9,36.7l0.3,0.3c0.3,0.4,0.9,1,1.6,1.9c0.7,0.8,1.2,1.5,1.6,1.9
		c0.2,0.2,0.5,0.6,0.8,1.1c0.4,0.5,0.6,0.8,0.8,1.1c1.8,2.3,3.2,4.2,4.3,5.8c0.6-0.5,1.1-0.9,1.4-1.2c0.3-0.2,0.6-0.5,1.2-0.9
		c0.5-0.4,0.9-0.7,1.2-0.9l3-2.2c-0.2-0.1-0.4-0.4-0.6-0.7c-0.3-0.3-0.4-0.6-0.5-0.8c-1.5,1.3-2.4,2.2-2.9,2.6L54,45.2
		c-0.2-0.2-0.5-0.6-0.9-1.1c-0.4-0.5-0.7-0.8-0.9-1.1l-2.6-3.3c-0.7-0.9-1.2-1.6-1.6-2.1c-0.3-0.4-0.7-1-1.2-1.7
		c-0.5-0.7-0.8-1.2-1.1-1.6c-0.6,0.6-1.1,1-1.3,1.2C44.2,35.9,43.7,36.2,42.9,36.7L42.9,36.7z M53.8,28.4c0.4-0.2,0.9-0.4,1.5-0.8
		c0.7-0.3,1.2-0.6,1.6-0.8c0.7-0.4,1.4-0.8,2.3-1.3c0.9-0.5,1.6-0.9,2-1.2c0.2,0.3,0.4,0.8,0.8,1.5c0.1,0,0.1,0.1,0.2,0.2
		c-2,0.9-3.5,1.6-4.6,2.2c0.2,0.5,0.6,1.1,1.1,2c0.1,0.2,0.3,0.6,0.6,1.1c0.3,0.5,0.4,0.8,0.6,1.1l4.3-2.6c0.1,0.4,0.3,0.8,0.4,1
		c0.1,0.2,0.3,0.4,0.5,0.7c-1.3,0.6-2.5,1.2-3.5,1.8c-0.1,0.1-0.3,0.1-0.5,0.2c-0.2,0.1-0.4,0.2-0.5,0.3l1.4,2.5l1.4,2.4
		c1.2-0.7,2.6-1.6,4.3-2.7c0.2,0.3,0.4,0.8,0.8,1.4c0.1,0,0.1,0.1,0.2,0.2c-0.4,0.2-1,0.5-1.8,0.9c-0.8,0.4-1.4,0.7-1.8,0.9
		c-0.3,0.1-0.6,0.4-1.1,0.7c-0.5,0.3-0.9,0.5-1.1,0.7c-0.4,0.2-0.9,0.5-1.7,1c-0.1-0.1-0.1-0.3-0.3-0.6c-0.1-0.3-0.2-0.4-0.3-0.6
		c-0.2-0.4-0.5-1-0.9-1.8c-0.4-0.8-0.8-1.5-1-1.9c-0.2-0.3-0.4-0.8-0.8-1.5c-0.4-0.7-0.6-1.2-0.8-1.5l-1.3-2.3
		c-0.2-0.3-0.5-0.8-0.9-1.5c-0.4-0.7-0.7-1.2-0.9-1.5L53.8,28.4L53.8,28.4z M72.4,23.1l-0.5-1.5c1.2-0.5,2.5-0.8,3.8-1.1
		c-0.2-0.3-0.4-0.7-0.5-1c-0.1-0.3-0.2-0.6-0.2-0.9c-0.4,0.2-1,0.4-1.6,0.7c-0.7,0.3-1.2,0.5-1.5,0.7l-2.1,0.8
		c-1,0.4-2.3,0.8-3.8,1.4c-0.4,0.1-0.9,0.3-1.6,0.5c0,0,0,0.1,0.1,0.1c0,0.1,0.1,0.1,0.1,0.1c0.1,0.1,0.2,0.4,0.3,0.7
		c0.1,0.4,0.2,0.7,0.2,0.9c0.5-0.3,1.2-0.6,1.9-1c0.8-0.4,1.4-0.6,1.8-0.8c0.5,1.1,0.8,2,1.1,2.6c0.7,1.7,1.5,4.1,2.6,7.1
		c0.1,0.3,0.3,0.8,0.5,1.5c0.2,0.7,0.4,1.2,0.5,1.5c0.2-0.1,0.5-0.2,0.8-0.4c0.4-0.2,0.6-0.3,0.8-0.4c0.2-0.1,0.5-0.2,0.9-0.3
		c0.4-0.1,0.7-0.2,0.8-0.3c-0.1-0.4-0.4-0.9-0.7-1.6c-0.3-0.7-0.5-1.3-0.7-1.6c-0.1-0.3-0.3-0.8-0.5-1.3c-0.2-0.6-0.4-1-0.5-1.3
		c-0.2-0.6-0.5-1.4-1-2.6C73,24.6,72.6,23.7,72.4,23.1L72.4,23.1z M83.6,19.6c0.1,0.5,0.2,1.1,0.4,2c0.1,0.9,0.3,1.6,0.4,2.2
		c0.1,0.6,0.3,1.4,0.6,2.3c0.2,0.9,0.4,1.6,0.5,2.1c0.1,0.4,0.2,0.9,0.4,1.6c0.2,0.7,0.3,1.2,0.4,1.6c-0.2,0-0.5,0.1-0.9,0.1
		c-0.4,0.1-0.7,0.1-0.9,0.1c-0.7,0.1-1.3,0.3-1.9,0.5c-0.3-2.4-0.8-5-1.4-8L81,23c-0.1-0.5-0.2-1-0.3-1.5c-0.1-0.5-0.2-1-0.3-1.2
		c-0.3-1.3-0.6-2.2-0.8-2.9c0.9-0.1,1.5-0.2,1.8-0.2c0.3-0.1,0.9-0.2,1.7-0.5C83.3,17.9,83.5,18.9,83.6,19.6L83.6,19.6z M101.6,27
		l-0.3,1.9c-1.1,0.7-2.6,1.1-4.3,1.2c-0.8,0.1-1.8,0-2.9-0.1c-0.7-0.1-1.5-0.4-2.5-0.9c-0.6-0.4-1.2-0.9-1.7-1.5
		c-1-1.2-1.6-2.6-1.7-4.3c-0.1-1.3,0-2.5,0.3-3.6c0.3-1,0.9-2,1.8-2.9c1.5-1.4,3.5-2.3,6.1-2.4c1.7-0.1,3.2,0.1,4.6,0.7
		c0,0.3-0.1,0.6-0.2,1c-0.1,0.4-0.1,0.9-0.2,1.2l-0.3,0c-0.5-0.6-1-1-1.7-1.3c-0.7-0.3-1.4-0.4-2.1-0.4c-1.2,0.1-2.1,0.5-2.8,1.2
		c-0.7,0.7-1.2,1.6-1.5,2.6c-0.3,1-0.4,2.1-0.3,3.2c0.1,1.8,0.7,3.3,1.6,4.4c0.5,0.6,1.1,1,1.9,1.3c0.7,0.3,1.5,0.4,2.2,0.3
		c0.7,0,1.4-0.2,2.1-0.6c0.7-0.4,1.3-0.8,1.8-1.3L101.6,27L101.6,27z M118,30.2c-1.8,1.1-4,1.4-6.4,1c-2.5-0.4-4.4-1.5-5.6-3.2
		c-1.2-1.6-1.6-3.6-1.2-6c0.4-2.4,1.6-4.2,3.6-5.4c1.9-1.1,4-1.4,6.4-1c2,0.4,3.6,1.1,4.8,2.4c1,1,1.6,2.1,1.9,3.2
		c0.3,1.1,0.3,2.3,0.1,3.6c-0.2,1.1-0.6,2.1-1.2,3.1C119.8,28.8,119,29.6,118,30.2L118,30.2z M116.4,28.1c0.8-1.1,1.4-2.5,1.7-4.3
		c0.2-1,0.2-2,0-3c-0.2-1-0.5-1.8-1.1-2.6c-0.6-0.7-1.4-1.2-2.4-1.3c-1-0.2-1.8-0.1-2.6,0.3c-0.8,0.4-1.4,0.9-1.9,1.5
		c-0.8,1-1.3,2.6-1.7,4.5c-0.2,1-0.2,2,0,2.9c0.2,0.9,0.5,1.8,1.1,2.4c0.6,0.7,1.4,1.1,2.4,1.3C113.7,30.1,115.1,29.5,116.4,28.1
		L116.4,28.1z M139.1,31.9c0.9,0.5,1.6,1.2,2,2.2c0.4,1,0.4,2-0.1,2.9c-0.5,1-1.3,1.7-2.4,2.1c-0.7,0.3-1.7,0.2-3-0.1
		c-0.4-0.1-0.8-0.3-1.4-0.6c-0.3-0.2-0.8-0.4-1.4-0.8c-0.6-0.3-1.1-0.6-1.4-0.8c-0.4-0.2-1-0.5-1.8-0.8c0.4-0.6,0.9-1.4,1.6-2.6
		c1.3-2.4,2.2-4.2,2.8-5.4c0.3-0.6,1.2-2.4,2.6-5.5c1,0.6,1.7,1,2.2,1.2c0.3,0.2,0.8,0.4,1.5,0.7c0.6,0.3,1.1,0.5,1.4,0.7
		c0.7,0.4,1.3,0.8,1.8,1.3c0.5,0.5,0.8,1.1,0.9,1.7c0.1,0.6,0,1.3-0.4,2.1c-0.4,0.9-1.1,1.4-2,1.7c-0.9,0.2-1.8,0.2-2.8-0.1
		L139.1,31.9L139.1,31.9z M139.1,30.6c0.8-0.2,1.4-0.7,1.9-1.6c0.1-0.3,0.2-0.6,0.3-1.1c0.1-0.4,0-0.8-0.1-1c-0.3-0.6-0.7-1-1.2-1.3
		c-0.4-0.2-0.7-0.3-1-0.4c-0.6,1.2-1.1,2-1.4,2.6l-1,2c0.5,0.3,1,0.5,1.4,0.6C138.3,30.7,138.7,30.7,139.1,30.6L139.1,30.6z
		 M134.2,37c0.8,0.4,1.5,0.4,2.2,0c0.7-0.4,1.1-0.9,1.4-1.5c0.9-1.9,0.6-3.2-1.2-4.1c-0.3-0.1-0.5-0.2-0.7-0.3
		c-0.3,0.6-0.8,1.6-1.5,2.8c-0.1,0.3-0.3,0.7-0.6,1.2c-0.3,0.6-0.5,1-0.6,1.3c0.1,0.1,0.3,0.1,0.5,0.3
		C133.9,36.8,134.1,36.9,134.2,37L134.2,37z M150.6,30.5l-0.2,0.2c-0.2,0.3-0.6,0.8-1,1.4c-0.5,0.6-0.8,1.1-1,1.4l-1.6,2
		c-0.2,0.3-0.6,0.7-1,1.3c-0.5,0.6-0.8,1-1,1.3c-0.3,0.4-0.7,0.9-1.3,1.6c-0.6,0.7-1,1.2-1.3,1.6c-0.1,0.1-0.2,0.3-0.4,0.5
		c-0.2,0.2-0.3,0.4-0.4,0.5c0.7,0.5,1.3,0.9,1.6,1.2c0.2,0.2,0.6,0.4,1,0.8c0.5,0.3,0.8,0.6,1.1,0.8c0.3,0.3,0.9,0.7,1.5,1.3
		c0.7,0.6,1.2,1,1.5,1.3c0.1-0.1,0.1-0.2,0.1-0.2c0.4-0.6,0.8-1,1-1.3c-1.7-1.1-3.1-2.1-4.2-2.9l1.7-2.2l1.7-2.2
		c0.1,0.1,0.2,0.2,0.4,0.4c0.2,0.2,0.3,0.3,0.4,0.3c0.9,0.7,1.9,1.6,3,2.6c0.2-0.3,0.3-0.6,0.4-0.8c0.1-0.2,0.4-0.4,0.7-0.7l-4.1-3
		c0.2-0.2,0.4-0.5,0.8-1c0.3-0.4,0.6-0.7,0.8-1c0.6-0.8,1.1-1.4,1.5-1.8c0.9,0.7,2.2,1.9,3.8,3.3c0.1-0.1,0.1-0.2,0.1-0.2
		c0.4-0.6,0.8-1,1-1.3c-0.4-0.3-1.1-0.8-1.9-1.4c-0.8-0.6-1.5-1.1-2.1-1.6c-0.4-0.3-0.8-0.7-1.4-1.2
		C151.3,31.1,150.9,30.8,150.6,30.5L150.6,30.5z M160.7,39.3c0.5,0.7,0.9,1.1,1.2,1.4c0.2,0.2,0.7,0.6,1.4,1.2
		c-0.3,0.3-0.8,0.7-1.5,1.3c-0.6,0.5-1.2,1-1.5,1.4c-0.4,0.4-1,1-1.9,1.8l-3,2.9c-0.2,0.2-0.5,0.5-1,1c-0.4,0.4-0.8,0.8-1,1l0.9,0.8
		c0.4,0.4,1.4,1.3,2.8,2.6c-0.2,0.1-0.4,0.3-0.7,0.6c-0.3,0.3-0.5,0.5-0.6,0.7l-2.5-2.8c-0.2-0.2-0.6-0.6-1.1-1.1
		c-0.5-0.5-0.8-0.8-1.1-1c-0.3-0.3-0.7-0.7-1.3-1.3c1.5-1.2,3.2-2.8,5.3-4.8c0.2-0.2,0.5-0.5,1-0.9c0.4-0.4,0.8-0.7,1-0.9
		c0.4-0.4,1-1,1.7-1.7c0.7-0.8,1.3-1.4,1.7-1.7L160.7,39.3L160.7,39.3z M174.4,62.2l0.2,0.3c0.5-0.2,1.2-0.4,2.2-0.7
		c-0.1-1.8-0.7-3.5-1.8-5.2c-0.7-1.1-1.5-2-2.4-2.7c-0.9-0.7-1.9-1.3-2.9-1.6c-1-0.3-2.1-0.4-3.2-0.2c-1.1,0.2-2.2,0.6-3.3,1.3
		c-1,0.7-1.8,1.5-2.4,2.4c-0.5,0.9-0.8,1.9-0.9,2.9c-0.1,1,0.1,2.1,0.4,3.1c0.3,1.1,0.8,2.1,1.5,3.1c0.8,1.3,2.2,2.7,4,4.3
		c0.9-0.6,1.6-1.1,2-1.4c1.2-0.8,2.2-1.4,3.1-1.8c-0.4-0.4-0.7-0.9-1.1-1.4c-0.3-0.5-0.6-1-0.8-1.5c-1.2,0.9-2.1,1.5-2.8,2l-1.4,0.9
		c0,0,0,0-0.1,0c-0.1,0-0.1,0-0.1,0c-0.1,0-0.2-0.1-0.3-0.3c-0.2-0.2-0.3-0.3-0.3-0.4c-0.4-0.4-0.7-0.8-1-1.2
		c-0.1-0.2-0.3-0.6-0.5-1c-0.2-0.5-0.3-1-0.3-1.3c0-0.3,0-0.7,0-1.2c0.1-0.8,0.4-1.6,1-2.4c0.6-0.8,1.3-1.4,2-1.9
		c1.5-1,3-1.5,4.5-1.5c1.9,0.1,3.4,0.9,4.3,2.4C174.9,58.9,175.1,60.5,174.4,62.2L174.4,62.2z M173,74.8c0.5-0.5,0.8-0.9,0.9-1
		c0.1-0.1,0.1-0.2,0.1-0.2c0-0.1-0.1-0.1-0.2-0.1c-0.4,0.1-1,0.4-1.8,0.7c-0.8,0.3-1.4,0.5-1.8,0.7l-0.6,0.2
		c-0.6,0.2-1.3,0.5-2.1,0.9c-0.1-0.2-0.1-0.5-0.2-0.9c-0.1-0.4-0.2-0.7-0.2-0.9c-0.1-0.2-0.2-0.5-0.3-0.8c-0.2-0.4-0.3-0.7-0.3-0.8
		l0.4-0.1c0.2-0.1,0.3-0.1,0.5-0.2c0.2-0.1,0.3-0.1,0.4-0.1c0.1,0,0.3-0.1,0.5-0.1c0.9-0.2,2.3-0.7,4.2-1.3c0.4-0.1,1-0.4,1.9-0.7
		c0.9-0.3,1.5-0.5,1.9-0.7c1-0.3,2.5-0.9,4.6-1.7l0.4,1.5c0.1,0.3,0.3,0.8,0.5,1.5c0.2,0.7,0.4,1.2,0.5,1.5c0.6,1.7,0.8,2.9,0.7,3.5
		c-0.3,1.5-1.1,2.4-2.4,2.9c-1,0.3-1.9,0.3-2.8,0c-0.9-0.4-1.6-1-2.1-1.9c-0.8,0.9-2.3,2.8-4.6,5.7l-0.9,1.1c-0.1-0.2-0.2-0.5-0.3-1
		c-0.1-0.4-0.2-0.8-0.3-1c-0.2-0.6-0.5-1.2-0.7-1.9l3.5-3.9L173,74.8L173,74.8z M178,72.2l-1.6,0.6c-0.7,0.2-1.2,0.4-1.5,0.5
		c0.4,1.1,0.9,1.9,1.6,2.2c0.7,0.4,1.5,0.4,2.5,0c0.4-0.1,0.8-0.3,1-0.5c0.4-0.2,0.6-0.5,0.8-0.8c0.2-0.3,0.2-0.6,0.2-0.9
		c0-0.3-0.1-0.6-0.2-1c-0.1-0.4-0.2-0.7-0.3-1.1L178,72.2L178,72.2z M170.2,84.3l4,1.1c4.6,1.3,8.5,2.3,11.8,3c0,0.1,0,0.2,0,0.3
		c0,0.1,0,0.2,0,0.3c0,0.1,0,0.2,0,0.3c0,0.1,0,0.3,0.1,0.4c0,0.1,0.1,0.3,0.1,0.4l-0.3,0.2c-4.5,2.5-9,5.1-13.5,7.8l-0.2,0.2
		l-0.2,0c0-0.2,0-0.5-0.1-0.9c0-0.4-0.1-0.7-0.1-1c-0.1-0.6-0.2-1.2-0.4-1.8c1.9-0.9,3.3-1.6,4.3-2.2c0-0.3-0.1-0.7-0.1-1.2
		c-0.1-0.5-0.1-0.9-0.1-1.2c-0.1-0.6-0.2-1.4-0.4-2.7l-0.3-0.1c-0.7-0.2-1.5-0.3-2.2-0.5c-0.8-0.2-1.5-0.3-2.1-0.3
		c0-0.3,0-0.7,0-1.1c0-0.3-0.1-0.7-0.2-1L170.2,84.3L170.2,84.3z M176.5,87.6l0.6,4c1.3-0.7,2.9-1.6,4.8-2.7c-1.9-0.5-3.6-1-5.2-1.3
		L176.5,87.6L176.5,87.6z M171.7,102.3c0.1-0.3,0.1-0.6,0.1-0.9c0-0.3,0-0.7,0-1c1.6,0.3,3.2,0.5,4.9,0.7c1.7,0.2,3.6,0.3,5.6,0.5
		c0.4,0,1,0.1,1.8,0.1c0.8,0,1.4,0.1,1.8,0.1c0.5,0,0.8,0,1.1,0c-0.1,0.5-0.2,0.8-0.2,1c0,0.2,0,0.5,0.1,1c-1,0.8-2,1.6-2.8,2.3
		c-0.9,0.7-1.8,1.5-2.9,2.4c-1.1,0.9-2,1.6-2.8,2.2c-0.8,0.6-1.6,1.3-2.6,2l4.9,0.3l2.5,0.2c0.4,0,0.8,0,1.4,0c0.6,0,1,0,1.3,0
		l0.4,0c-0.1,0.5-0.2,0.8-0.2,1c0,0.1,0,0.3,0,0.5c0,0.2,0,0.4,0,0.5c-0.6-0.1-1-0.1-1.2-0.2c-1.1-0.2-2-0.3-2.8-0.4
		c-0.5,0-0.8-0.1-1.1-0.1c-0.3,0-0.6-0.1-1-0.1c-0.4,0-0.8-0.1-1.1-0.1c-0.3,0-0.6-0.1-0.9-0.1l-2.2-0.2l-4.7-0.3c0,0,0-0.1,0.1-0.2
		c0-0.1,0.1-0.3,0.1-0.6c0-0.4,0-0.7,0-1c3.4-2.5,6.2-4.7,8.6-6.7l2.7-2.2c-1.4-0.1-2.3-0.2-2.9-0.3l-2-0.1
		c-2.5-0.2-4.4-0.3-5.7-0.3L171.7,102.3z"/>
	<path class="st3" d="M167.3,131c-0.8-2-0.8-4.1-0.1-6.5c0.8-2.4,2.1-4.1,4-5.1c1.8-0.9,3.8-1.1,6.1-0.3c2.3,0.8,3.9,2.2,4.8,4.3
		c0.8,2,0.8,4.1,0.1,6.4c-0.6,1.9-1.6,3.4-3,4.4c-1.2,0.8-2.3,1.3-3.5,1.4c-1.2,0.1-2.4,0-3.6-0.4c-1.1-0.3-2-0.9-2.9-1.6
		C168.4,132.9,167.7,132,167.3,131L167.3,131z M169.6,129.7c0.9,1,2.3,1.8,4,2.3c1,0.3,1.9,0.5,2.9,0.4c1,0,1.9-0.3,2.7-0.8
		c0.8-0.5,1.3-1.2,1.7-2.2c0.3-0.9,0.3-1.8,0.1-2.6c-0.3-0.8-0.7-1.5-1.3-2.1c-0.9-0.9-2.3-1.7-4.2-2.3c-1-0.3-1.9-0.5-2.9-0.4
		c-1,0-1.8,0.3-2.6,0.8c-0.8,0.5-1.3,1.2-1.6,2.2C167.9,126.7,168.3,128.2,169.6,129.7z"/>
	<path class="st0" d="M38.1,144.5c2.2,0,3.9,1.8,3.9,3.9c0,2.2-1.8,3.9-3.9,3.9c-2.2,0-3.9-1.8-3.9-3.9
		C34.2,146.3,35.9,144.5,38.1,144.5z"/>
	<path class="st0" d="M166.1,144.5c2.2,0,3.9,1.8,3.9,3.9c0,2.2-1.8,3.9-3.9,3.9c-2.2,0-3.9-1.8-3.9-3.9
		C162.2,146.3,164,144.5,166.1,144.5z"/>
	<path class="st1" d="M70,127.2c-6-7-9.6-16.1-9.6-26.1C60.3,79.7,77,62.3,98,61c0,21.8,0,43.6,0,65.4H85.6v-20.4H73.2
		c0.9,4.9,3.1,9.4,6.2,13.1L70,127.2L70,127.2z M85.6,96.1V77.7c-6.4,4.1-11,10.7-12.4,18.4H85.6z"/>
	<path class="st1" d="M144.4,117.3c0.3-0.8,0.4-1.7,0.4-2.6c0-4.7-3.8-8.6-8.6-8.6h-20.8v39.4C128.8,140.9,139.5,130.5,144.4,117.3
		L144.4,117.3z M103,41.9c21.8,0.9,40.5,13.5,50,31.8c1.5,2.8,3.5,7.2,4,10.4c1.4,8.9-4.9,17-12.1,17c7.4,0,13.5,8.1,12.1,17
		c-0.4,2.4-1.7,5.8-2.8,8c-9.1,19.5-28.5,33.2-51.2,34.1C103,120.8,103,81.4,103,41.9L103,41.9z M115.4,56.7v39.4h20.8
		c4.7,0,8.6-3.9,8.6-8.6c0-0.9-0.1-1.8-0.4-2.6C139.5,71.6,128.8,61.2,115.4,56.7L115.4,56.7z M98,160.3
		c-31.6-1.3-56.7-27.3-56.7-59.2c0-31.9,25.2-57.9,56.7-59.2v12.4c-24.7,1.3-44.3,21.7-44.3,46.7c0,25,19.6,45.4,44.3,46.7V160.3z"
		/>
	<path class="st3" d="M73.7,181.7c-2,0.7-4.2,0.6-6.4-0.3c-2.4-0.9-4-2.3-4.8-4.3c-0.8-1.8-0.8-3.9,0-6.1c0.9-2.3,2.4-3.8,4.6-4.6
		c2-0.7,4.2-0.6,6.4,0.3c1.9,0.7,3.3,1.8,4.2,3.3c0.8,1.2,1.2,2.4,1.2,3.5c0,1.2-0.2,2.3-0.6,3.5c-0.4,1.1-1,2-1.8,2.8
		C75.6,180.7,74.7,181.3,73.7,181.7L73.7,181.7z M72.4,179.3c1-0.9,1.9-2.2,2.6-3.9c0.4-0.9,0.6-1.9,0.6-2.9c0-1-0.2-1.9-0.6-2.7
		c-0.4-0.8-1.1-1.4-2.1-1.8c-0.9-0.4-1.8-0.4-2.6-0.2c-0.8,0.2-1.5,0.6-2.1,1.1c-1,0.9-1.8,2.2-2.5,4.1c-0.4,1-0.6,1.9-0.6,2.9
		c0,1,0.2,1.8,0.6,2.6c0.4,0.8,1.2,1.4,2.1,1.7C69.4,180.8,70.9,180.5,72.4,179.3z"/>
</g>
</svg>
