<?xml version="1.0" encoding="utf-8"?>
<!-- Generator: Adobe Illustrator 26.0.3, SVG Export Plug-In . SVG Version: 6.00 Build 0)  -->
<svg version="1.1" id="Capa_1" xmlns="http://www.w3.org/2000/svg" xmlns:xlink="http://www.w3.org/1999/xlink" x="0px" y="0px"
	 viewBox="0 0 200 200" style="enable-background:new 0 0 200 200;" xml:space="preserve">
<style type="text/css">
	.st0{fill:#023F87;}
	.st1{fill:#F9B000;}
</style>
<g>
	<path class="st0" d="M100.02,191.1c0,0-76.89-37.58-76.62-154.96l37.63-27.6c0,0,13.66,13.89,39.27,13.95l0.21-0.01
		c25.64,0.05,39.38-13.76,39.38-13.76l37.46,27.81C177.09,153.92,100.02,191.1,100.02,191.1z"/>
	<g>
		<path class="st1" d="M181.31,31.56L144.17,4.02l-5.43-3.97l-4.8,4.75l0.07-0.06c-0.49,0.48-11.95,11.41-33.48,11.36h-0.2
			C78.82,16.05,67.38,5.05,66.91,4.58l0.02,0.06l-4.76-4.81L56.72,3.8L19.48,31.16l-3.25,2.39l-0.01,4.02
			c-0.29,119.94,76.97,159.05,80.25,160.64L98.1,199l1.89,0.83l1.89-0.81l1.63-0.77c3.29-1.61,80.7-40.34,80.98-160.24l0.04-4.07
			L181.31,31.56z M100.02,191.1c0,0-76.18-37.23-75.91-153.52l37.28-27.35c0,0,13.53,13.76,38.91,13.82l0.2-0.01
			c25.4,0.05,39.01-13.63,39.01-13.63l37.11,27.56C176.37,154.27,100.02,191.1,100.02,191.1z"/>
		<polygon class="st1" points="100.38,158.85 101.77,162.88 105.99,163 102.62,165.55 103.83,169.66 100.37,167.21 96.89,169.63 
			98.11,165.55 94.75,162.97 98.98,162.89 		"/>
		<polygon class="st1" points="139.75,15.75 141.15,19.78 145.4,19.88 142.01,22.48 143.21,26.56 139.75,24.12 136.28,26.55 
			137.48,22.46 134.13,19.85 138.36,19.78 		"/>
		<g>
			<polygon class="st1" points="90.78,41.22 92.17,45.26 96.41,45.35 93.03,47.94 94.23,52.04 90.76,49.57 87.3,52 88.53,47.92 
				85.15,45.33 89.4,45.24 			"/>
			<polygon class="st1" points="129.19,41.23 130.59,45.24 134.79,45.37 131.42,47.92 132.64,52.03 129.18,49.58 125.7,52 
				126.92,47.92 123.57,45.34 127.79,45.25 			"/>
			<polygon class="st1" points="167.6,41.22 168.97,45.23 173.2,45.36 169.82,47.94 171.03,52.03 167.58,49.58 164.09,52.01 
				165.33,47.93 161.97,45.33 166.18,45.24 			"/>
			<polygon class="st1" points="71.59,41.22 72.97,45.25 77.21,45.38 73.8,47.94 75.05,52.03 71.54,49.58 68.08,52 69.3,47.92 
				65.95,45.33 70.19,45.25 			"/>
			<polygon class="st1" points="33.18,41.22 34.57,45.24 38.82,45.35 35.44,47.93 36.62,52.04 33.18,49.57 29.7,52 30.92,47.92 
				27.55,45.32 31.77,45.24 			"/>
			<polygon class="st1" points="148.39,41.23 149.76,45.24 153.99,45.35 150.61,47.92 151.84,52.03 148.37,49.59 144.9,52.01 
				146.14,47.93 142.77,45.32 146.99,45.24 			"/>
			<polygon class="st1" points="52.39,41.23 53.8,45.25 58.01,45.37 54.64,47.95 55.84,52.02 52.37,49.58 48.89,52.02 50.13,47.94 
				46.75,45.34 51,45.25 			"/>
			<polygon class="st1" points="110,41.23 111.39,45.27 115.62,45.38 112.24,47.96 113.43,52.02 109.98,49.6 106.5,52.01 
				107.74,47.94 104.35,45.34 108.59,45.27 			"/>
		</g>
		<g>
			<polygon class="st1" points="72.67,55.58 74.06,59.59 78.29,59.71 74.92,62.31 76.14,66.37 72.64,63.93 69.18,66.36 70.41,62.26 
				67.05,59.67 71.28,59.59 			"/>
			<polygon class="st1" points="128.1,55.58 129.48,59.6 133.72,59.7 130.32,62.28 131.55,66.37 128.09,63.93 124.61,66.36 
				125.82,62.27 122.46,59.67 126.69,59.6 			"/>
			<polygon class="st1" points="54.21,55.58 55.61,59.6 59.82,59.71 56.45,62.3 57.65,66.37 54.18,63.93 50.72,66.37 51.95,62.29 
				48.57,59.69 52.81,59.6 			"/>
			<polygon class="st1" points="35.75,55.58 37.13,59.62 41.36,59.73 37.99,62.3 39.18,66.37 35.72,63.94 32.24,66.36 33.48,62.29 
				30.09,59.69 34.33,59.62 			"/>
			<polygon class="st1" points="165.01,55.57 166.41,59.62 170.65,59.72 167.27,62.3 168.5,66.38 165,63.93 161.54,66.35 
				162.76,62.28 159.41,59.68 163.63,59.59 			"/>
			<polygon class="st1" points="146.54,55.57 147.94,59.62 152.18,59.72 148.79,62.3 150.03,66.38 146.53,63.93 143.06,66.35 
				144.29,62.28 140.94,59.68 145.15,59.59 			"/>
			<polygon class="st1" points="91.15,55.58 92.56,59.6 96.77,59.71 93.4,62.3 94.6,66.37 91.13,63.93 87.66,66.37 88.89,62.29 
				85.52,59.69 89.76,59.6 			"/>
			<polygon class="st1" points="109.59,55.57 110.99,59.62 115.23,59.72 111.85,62.3 113.08,66.38 109.58,63.93 106.12,66.35 
				107.34,62.28 103.99,59.68 108.21,59.59 			"/>
		</g>
		<polygon class="st1" points="60.35,15.99 61.74,20.03 65.99,20.13 62.61,22.73 63.81,26.81 60.35,24.37 56.88,26.8 58.07,22.71 
			54.73,20.1 58.95,20.03 		"/>
		<g>
			<polygon class="st1" points="45.36,27.58 46.74,31.61 50.98,31.73 47.59,34.29 48.81,38.39 45.31,35.94 41.85,38.36 43.07,34.28 
				39.72,31.68 43.96,31.61 			"/>
			<polygon class="st1" points="89.36,27.59 90.76,31.6 94.98,31.72 91.62,34.31 92.84,38.38 89.33,35.93 85.88,38.37 87.11,34.27 
				83.75,31.68 87.98,31.59 			"/>
			<polygon class="st1" points="155.4,27.59 156.78,31.61 161.02,31.71 157.62,34.29 158.85,38.38 155.4,35.94 151.91,38.37 
				153.12,34.28 149.76,31.68 154,31.61 			"/>
			<polygon class="st1" points="133.38,27.59 134.77,31.61 139.01,31.71 135.62,34.29 136.85,38.38 133.37,35.94 129.91,38.37 
				131.12,34.28 127.75,31.68 131.98,31.61 			"/>
			<polygon class="st1" points="67.37,27.59 68.78,31.61 72.99,31.72 69.62,34.31 70.82,38.38 67.35,35.94 63.87,38.38 65.11,34.3 
				61.73,31.7 65.98,31.61 			"/>
			<polygon class="st1" points="111.38,27.59 112.77,31.61 117,31.71 113.61,34.29 114.84,38.38 111.36,35.94 107.9,38.37 
				109.11,34.28 105.75,31.68 109.98,31.61 			"/>
		</g>
		<g>
			<polygon class="st1" points="117.32,161.22 118.71,165.25 122.95,165.34 119.56,167.93 120.79,172.01 117.31,169.58 113.84,172 
				115.06,167.91 111.69,165.32 115.92,165.25 			"/>
			<polygon class="st1" points="83.43,161.22 84.8,165.26 89.03,165.37 85.67,167.92 86.89,172.02 83.41,169.58 79.91,171.99 
				81.15,167.92 77.79,165.33 82.03,165.24 			"/>
		</g>
		<g>
			<polygon class="st1" points="100.39,174.32 101.76,178.35 105.99,178.47 102.63,181.02 103.85,185.12 100.36,182.68 
				96.87,185.09 98.11,181.02 94.75,178.43 98.99,178.34 			"/>
		</g>
		<g>
			<polygon class="st1" points="100.39,134.04 101.76,138.07 105.99,138.18 102.63,140.74 103.85,144.83 100.36,142.4 96.86,144.81 
				98.1,140.74 94.75,138.15 98.98,138.04 			"/>
			<polygon class="st1" points="80.51,135.02 81.87,139.08 86.12,139.15 82.71,141.73 83.93,145.82 80.5,143.39 77.01,145.81 
				78.23,141.73 74.85,139.12 79.09,139.06 			"/>
			<polygon class="st1" points="120.27,135.02 121.62,139.08 125.88,139.15 122.48,141.73 123.67,145.82 120.25,143.39 
				116.76,145.81 117.99,141.73 114.61,139.12 118.84,139.06 			"/>
			<polygon class="st1" points="60.62,135.03 62.01,139.06 66.23,139.13 62.87,141.74 64.08,145.82 60.6,143.37 57.14,145.8 
				58.36,141.71 54.99,139.13 59.23,139.07 			"/>
			<polygon class="st1" points="140.15,135.03 141.53,139.06 145.76,139.16 142.36,141.73 143.6,145.82 140.13,143.4 136.64,145.8 
				137.87,141.73 134.49,139.13 138.76,139.06 			"/>
		</g>
		<g>
			<polygon class="st1" points="72.34,148.12 73.73,152.14 77.97,152.24 74.59,154.84 75.81,158.92 72.34,156.48 68.85,158.89 
				70.07,154.83 66.7,152.22 70.95,152.16 			"/>
			<polygon class="st1" points="128.43,148.12 129.81,152.16 134.04,152.27 130.66,154.83 131.88,158.92 128.4,156.48 
				124.91,158.89 126.15,154.83 122.8,152.23 127.03,152.14 			"/>
			<g>
				<polygon class="st1" points="109.74,146.48 111.12,150.51 115.35,150.62 111.99,153.18 113.21,157.27 109.72,154.83 
					106.22,157.25 107.46,153.18 104.11,150.59 108.34,150.49 				"/>
			</g>
			<polygon class="st1" points="91.06,146.47 92.43,150.5 96.65,150.6 93.27,153.21 94.5,157.28 91.05,154.83 87.56,157.27 
				88.78,153.19 85.41,150.59 89.65,150.5 			"/>
		</g>
		<g>
			<polygon class="st1" points="71.91,121.93 73.32,125.95 77.55,126.03 74.17,128.64 75.39,132.72 71.91,130.3 68.44,132.7 
				69.66,128.62 66.28,126.02 70.52,125.95 			"/>
			<polygon class="st1" points="128.85,121.93 130.22,125.96 134.46,126.07 131.08,128.64 132.3,132.72 128.81,130.28 125.33,132.7 
				126.57,128.64 123.21,126.04 127.44,125.93 			"/>
			<polygon class="st1" points="52.94,121.92 54.35,125.97 58.56,126.08 55.2,128.66 56.41,132.73 52.94,130.3 49.44,132.72 
				50.69,128.63 47.32,126.04 51.55,125.97 			"/>
			<polygon class="st1" points="147.84,121.94 149.2,125.95 153.42,126.05 150.05,128.65 151.27,132.71 147.82,130.28 144.33,132.7 
				145.56,128.63 142.19,126.02 146.41,125.95 			"/>
			<polygon class="st1" points="90.93,121.91 92.28,125.97 96.51,126.07 93.13,128.66 94.35,132.74 90.89,130.28 87.42,132.73 
				88.63,128.64 85.26,126.03 89.5,125.96 			"/>
			<polygon class="st1" points="109.89,121.92 111.26,125.97 115.48,126.06 112.11,128.65 113.35,132.73 109.85,130.27 
				106.37,132.73 107.6,128.63 104.24,126.05 108.46,125.96 			"/>
		</g>
		<g>
			<polygon class="st1" points="153.76,108.82 155.15,112.85 159.4,112.96 156.02,115.55 157.22,119.63 153.76,117.19 
				150.28,119.62 151.48,115.54 148.14,112.92 152.37,112.85 			"/>
			<polygon class="st1" points="46.96,108.82 48.35,112.85 52.6,112.96 49.22,115.55 50.42,119.63 46.96,117.19 43.49,119.62 
				44.69,115.54 41.34,112.92 45.57,112.85 			"/>
			<polygon class="st1" points="136,108.83 137.36,112.87 141.59,112.96 138.21,115.55 139.45,119.63 135.96,117.18 132.48,119.63 
				133.7,115.54 130.36,112.95 134.58,112.86 			"/>
			<polygon class="st1" points="64.75,108.81 66.15,112.87 70.41,112.96 67.03,115.55 68.22,119.64 64.75,117.18 61.26,119.62 
				62.5,115.55 59.14,112.94 63.37,112.86 			"/>
			<polygon class="st1" points="82.57,108.82 83.93,112.87 88.19,112.98 84.8,115.56 86.02,119.63 82.55,117.19 79.08,119.63 
				80.3,115.54 76.96,112.94 81.16,112.87 			"/>
			<polygon class="st1" points="118.18,108.83 119.57,112.88 123.78,112.97 120.41,115.56 121.63,119.63 118.16,117.19 
				114.69,119.62 115.9,115.56 112.56,112.94 116.78,112.85 			"/>
			<polygon class="st1" points="100.4,108.83 101.76,112.87 105.99,112.96 102.62,115.55 103.85,119.63 100.36,117.18 96.88,119.63 
				98.1,115.54 94.75,112.95 98.99,112.86 			"/>
		</g>
		<g>
			<polygon class="st1" points="65.96,83.6 56.73,83.59 56.73,79.27 55.7,78.16 50.78,78.15 49.7,79.24 49.65,95.74 50.73,96.79 
				55.65,96.81 56.7,95.76 56.7,91.68 65.93,91.7 65.93,99.07 60.54,104.47 45.76,104.43 40.41,99.02 40.48,75.92 45.85,70.53 
				60.62,70.57 65.97,75.98 			"/>
			<path class="st1" d="M94.91,70.64l-0.01,7.62l-1.71-0.01l7.36,18.67l2,0l-0.03,7.66l-12.9-0.05l0.03-7.63l1.09-0.02l-0.47-1.54
				l-8.91-0.02l-0.54,1.54l1.07,0.02v7.64l-12.86-0.03l0.02-7.67l2.01,0.04l7.43-18.63l-1.45,0l0.04-7.62L94.91,70.64z M83.66,88.84
				l4.26,0.02l-2.12-5.37L83.66,88.84z"/>
			<path class="st1" d="M131.71,89.28l-0.01,9.95l-5.38,5.39l-20.8-0.05l0.02-7.65l1.99,0.01l0.05-18.64l-1.98,0l-0.01-7.63
				l20.8,0.06l5.35,5.44l-0.01,8.66l-2.23,2.24L131.71,89.28z M122.47,91.94l-1.1-1.1l-4.57,0l-0.02,6.1l4.59,0.01l1.1-1.05V91.94z
				 M122.5,79.4l-1.1-1.08l-4.57-0.01l-0.03,4.92l4.58,0l1.11-1.1V79.4z"/>
			<polygon class="st1" points="158.29,78.42 158.25,99.28 152.87,104.67 140.57,104.63 135.23,99.23 135.23,91 144.46,91.02 
				144.46,95.96 145.56,97.01 147.93,97.02 149,95.97 149.06,78.37 146.19,78.37 146.21,70.76 160.33,70.8 160.31,78.41 			"/>
		</g>
	</g>
</g>
</svg>
