<?xml version="1.0" encoding="utf-8"?>
<!-- Generator: Adobe Illustrator 26.0.3, SVG Export Plug-In . SVG Version: 6.00 Build 0)  -->
<svg version="1.1" id="Capa_1" xmlns="http://www.w3.org/2000/svg" xmlns:xlink="http://www.w3.org/1999/xlink" x="0px" y="0px"
	 viewBox="0 0 200 200" style="enable-background:new 0 0 200 200;" xml:space="preserve">
<style type="text/css">
	.st0{fill:#010100;}
	.st1{fill:#FFFFFF;}
	.st2{fill:#010000;}
</style>
<g>
	<path class="st0" d="M6.92,29.69c0.85,0.73,1.49,1.51,2.15,2.29c1.18,1.43,2.36,2.86,3.86,4.01c1.54,1.17,3.06,2.36,4.8,3.21
		c1.78,0.86,3.65,1.48,5.61,1.86c1.39,0.27,2.78,0.49,4.19,0.62c1.65,0.16,3.31,0.14,4.95,0.06c1.82-0.09,3.62-0.42,5.4-0.85
		c2.54-0.61,4.96-1.57,7.38-2.52c2.83-1.11,5.49-2.55,7.97-4.31c1.16-0.83,2.27-1.73,3.42-2.59c0.66-0.49,1.28-1.03,2.02-1.42
		c0.29-0.15,0.32-0.51,0.54-0.74c0.64-0.68,1.34-1.27,2-1.92c0.68-0.66,1.27-1.43,1.89-2.17c0.96-1.16,1.93-2.32,2.71-3.62
		c1.21-2.02,2.56-3.95,3.5-6.11c0.85-1.96,1.49-3.99,1.96-6.08C71.5,8.24,71.7,7.07,71.9,5.9c0.12-0.67,0.19-1.36,0.22-2.05
		c0.06-1.24,0.17-2.48,0.1-3.73c-0.01-0.25,0.04-0.39,0.33-0.33c0.06,0.01,0.13,0,0.2,0c18.33,0,36.66,0,55-0.01
		c0.42,0,0.53,0.09,0.51,0.51c-0.03,1.17-0.01,2.34-0.01,3.51c0,1.72,0.36,3.38,0.75,5.04c0.5,2.09,1.19,4.12,2,6.11
		c0.64,1.56,1.39,3.08,2.3,4.52c1.04,1.65,2.15,3.24,3.31,4.8c0.35,0.48,0.74,0.92,1.14,1.37c1.49,1.64,3.03,3.24,4.66,4.73
		c2.08,1.91,4.38,3.53,6.81,4.97c1.4,0.83,2.84,1.6,4.31,2.29c2.36,1.1,4.78,2.01,7.31,2.71c1.61,0.44,3.25,0.79,4.9,1.08
		c0.77,0.13,1.57,0.17,2.35,0.25c1.52,0.14,3.03,0.1,4.54,0.06c1.52-0.04,3.03-0.3,4.52-0.65c1.47-0.34,2.89-0.79,4.3-1.33
		c1.62-0.62,3.08-1.5,4.49-2.48c1.24-0.87,2.48-1.75,3.49-2.89c0.86-0.97,1.65-2,2.5-2.99c0.42-0.5,0.88-0.96,1.32-1.44
		c0.08-0.09,0.17-0.16,0.31-0.11c0.14,0.06,0.06,0.18,0.06,0.26c0,4.13,0.06,8.25-0.03,12.37c-0.03,1.56,0.01,3.13-0.08,4.69
		c-0.09,1.58-0.14,3.17-0.21,4.75c-0.07,1.4-0.15,2.79-0.2,4.2c-0.05,1.33-0.15,2.66-0.2,3.99c-0.04,1.13-0.17,2.26-0.3,3.39
		c-0.14,1.21-0.39,2.41-0.49,3.62c-0.06,0.8-0.15,1.61-0.22,2.41c-0.09,1.02-0.21,2.04-0.38,3.05c-0.1,0.61-0.17,1.23-0.22,1.85
		c-0.13,1.57-0.34,3.12-0.7,4.66c-0.12,0.53-0.2,1.09-0.21,1.64c-0.01,0.76-0.2,1.48-0.34,2.21c-0.16,0.78-0.23,1.56-0.38,2.34
		c-0.2,1.08-0.31,2.18-0.52,3.25c-0.23,1.22-0.51,2.43-0.82,3.64c-0.44,1.77-0.63,3.59-1.12,5.35c-0.27,0.99-0.64,1.95-0.9,2.94
		c-0.44,1.59-0.84,3.19-1.23,4.8c-0.54,2.31-1.23,4.57-2.09,6.79c-0.74,1.91-1.31,3.88-1.99,5.81c-0.61,1.72-1.3,3.41-1.99,5.09
		c-0.93,2.24-2.02,4.41-3.04,6.61c-1.07,2.32-2.05,4.67-3.28,6.91c-1.38,2.53-2.84,5.02-4.51,7.37c-1.16,1.64-2.07,3.45-3.26,5.08
		c-0.96,1.32-1.94,2.64-2.93,3.94c-1.1,1.46-2.2,2.9-3.33,4.34c-0.56,0.72-1.15,1.41-1.77,2.08c-1.17,1.27-2.42,2.48-3.55,3.78
		c-1.82,2.11-3.79,4.09-5.84,5.97c-1.58,1.45-3.09,2.99-4.83,4.3c-0.95,0.72-1.78,1.6-2.7,2.36c-0.84,0.69-1.72,1.33-2.59,1.99
		c-1.12,0.86-2.26,1.7-3.38,2.57c-1.42,1.12-2.92,2.14-4.41,3.17c-1.29,0.9-2.57,1.81-3.89,2.67c-1.47,0.95-2.92,1.93-4.47,2.76
		c-1.97,1.07-3.95,2.16-5.88,3.3c-1.35,0.8-2.74,1.52-4.11,2.26c-1.84,1-3.65,2.02-5.5,2.98c-1.58,0.82-3.17,1.6-4.84,2.24
		c-0.91,0.35-1.61-0.04-2.31-0.35c-1.61-0.71-3.19-1.51-4.75-2.33c-2.11-1.12-4.21-2.26-6.29-3.43c-1.5-0.84-3.01-1.67-4.51-2.52
		c-2.26-1.29-4.53-2.56-6.74-3.96c-2.19-1.38-4.36-2.79-6.5-4.25c-1.22-0.83-2.37-1.77-3.55-2.65c-1.09-0.81-2.2-1.61-3.28-2.43
		c-0.95-0.73-1.91-1.44-2.81-2.22c-1.25-1.09-2.54-2.14-3.81-3.22c-0.4-0.34-0.77-0.69-1.15-1.04c-1.67-1.6-3.22-3.32-5.05-4.78
		c-1.01-0.8-1.79-1.87-2.61-2.88c-0.07-0.08-0.14-0.15-0.21-0.22c-1.74-1.67-3.24-3.55-4.84-5.33c-1.59-1.76-3.07-3.6-4.46-5.51
		c-1.57-2.15-3.08-4.34-4.51-6.59c-0.96-1.51-1.91-3.02-2.85-4.54c-0.83-1.34-1.58-2.71-2.36-4.07c-1.04-1.84-2.04-3.71-2.96-5.62
		c-1.07-2.21-2.11-4.43-3.06-6.69c-1.33-3.18-2.59-6.38-3.74-9.63c-0.77-2.17-1.52-4.35-2.19-6.55c-1-3.3-1.89-6.64-2.76-9.98
		c-0.49-1.88-0.84-3.8-1.24-5.71c-0.38-1.8-0.76-3.6-1.12-5.41c-0.21-1.06-0.31-2.14-0.52-3.2c-0.26-1.31-0.46-2.63-0.69-3.94
		c-0.14-0.78-0.24-1.57-0.34-2.36C9.56,77.14,9.34,76.08,9.2,75c-0.07-0.58-0.14-1.16-0.22-1.74c-0.14-1.03-0.33-2.06-0.4-3.1
		c-0.05-0.76-0.16-1.51-0.22-2.26c-0.11-1.29-0.27-2.57-0.4-3.86c-0.04-0.44-0.06-0.89-0.08-1.33c-0.02-0.8-0.11-1.6-0.14-2.4
		c-0.05-1.16-0.14-2.32-0.2-3.48c-0.07-1.35-0.13-2.7-0.2-4.04c-0.06-1.16,0-2.33-0.11-3.47c-0.08-0.84-0.04-1.67-0.07-2.51
		c-0.15-3.06-0.01-6.12-0.14-9.17C6.91,35.01,7.04,32.4,6.92,29.69z"/>
	<path class="st1" d="M113.28,33.46c0,9.98,0,19.96-0.01,29.94c0,0.34,0.07,0.51,0.42,0.64c1.39,0.52,2.71,1.19,4.04,1.85
		c1.88,0.94,3.64,2.07,5.29,3.37c1.37,1.09,2.72,2.21,3.9,3.51c1.88,2.06,3.84,4.07,5.26,6.49c1.15,1.94,2.12,3.96,2.91,6.09
		c0.63,1.69,1.2,3.39,1.63,5.14c0.24,1,0.43,2.01,0.61,3.01c0.54,2.92,0.39,5.86,0.38,8.8c-0.01,1.14-0.24,2.29-0.5,3.41
		c-0.51,2.18-1.06,4.34-1.83,6.44c-0.33,0.9-0.73,1.78-1.12,2.65c-0.85,1.92-1.89,3.73-3.06,5.47c-0.88,1.28-1.83,2.51-2.87,3.67
		c-0.66,0.74-1.36,1.44-2.07,2.14c-1.67,1.64-3.54,3.02-5.42,4.4c-1.82,1.34-3.94,2.07-5.94,3.05c-0.07,0.03-0.14,0.07-0.21,0.1
		c-1.05,0.39-1.46,1.05-1.45,2.26c0.05,17.77,0.03,35.54,0.05,53.31c0,0.33-0.13,0.47-0.41,0.59c-2.22,0.99-4.33,2.21-6.47,3.38
		c-1.89,1.03-3.8,2.05-5.83,2.81c-0.48,0.18-0.87,0.01-1.23-0.18c-2.05-1.03-4.15-1.92-6.14-3.05c-1.51-0.86-3.04-1.7-4.56-2.53
		c-0.29-0.16-0.6-0.31-0.91-0.39c-0.56-0.13-0.65-0.45-0.65-0.99c0.02-17.99,0.02-35.99,0.03-53.98c0-0.4-0.16-0.61-0.5-0.76
		c-0.96-0.43-1.93-0.86-2.88-1.3c-1.3-0.6-2.53-1.33-3.71-2.14c-1.05-0.72-2.11-1.41-3.14-2.15c-0.51-0.37-0.98-0.79-1.44-1.22
		c-0.93-0.88-1.87-1.75-2.77-2.67c-1.71-1.74-2.98-3.79-4.33-5.81c-1.71-2.56-2.95-5.33-3.83-8.27c-0.52-1.73-1.01-3.48-1.33-5.26
		c-0.16-0.86-0.29-1.73-0.34-2.62c-0.07-1.33-0.22-2.66-0.18-3.99c0.03-1.33,0.07-2.67,0.21-3.99c0.32-3.02,1.02-5.97,2.16-8.79
		c0.77-1.93,1.69-3.81,2.78-5.59c0.96-1.57,1.86-3.18,3-4.62c0.48-0.61,0.97-1.22,1.51-1.77c1.14-1.18,2.28-2.34,3.52-3.43
		c1.26-1.11,2.68-2.04,4.09-2.95c1.67-1.07,3.35-2.12,5.16-2.93c0.58-0.26,1.17-0.48,1.78-0.64c0.23-0.06,0.26-0.13,0.24-0.31
		c-0.01-0.1,0-0.2,0-0.31c0-19.93,0-39.85-0.02-59.78c0-0.45,0.11-0.53,0.55-0.53c8.39,0.02,16.77,0.02,25.15,0
		c0.44,0,0.5,0.12,0.5,0.52C113.27,13.53,113.28,23.49,113.28,33.46z"/>
	<path class="st1" d="M60.82,171.39c-0.66-0.29-1.16-0.76-1.67-1.21c-1-0.87-1.95-1.79-2.92-2.69c-2.35-2.18-4.56-4.48-6.82-6.76
		c-1.67-1.69-3.21-3.5-4.64-5.41c-0.74-0.99-1.61-1.88-2.4-2.84c-0.82-1-1.57-2.06-2.31-3.12c-1.43-2.05-2.95-4.04-4.29-6.14
		c-0.4-0.62-0.8-1.25-1.06-1.96c-0.06-0.16-0.05-0.29-0.05-0.44c0-31.83,0-63.65-0.01-95.47c0-0.76,0.58-0.57,0.9-0.63
		c1.94-0.33,3.87-0.68,5.75-1.29c1.5-0.49,3.02-0.91,4.48-1.5c1.01-0.4,1.96-0.94,2.94-1.42c2.17-1.06,4.33-2.13,6.28-3.56
		c1.38-1.02,2.82-1.98,4.12-3.11c0.54-0.47,1.03-1.02,1.71-1.37C60.82,78.8,60.82,125.08,60.82,171.39z"/>
	<path class="st1" d="M139.57,171.49c0-46.3,0-92.59,0-138.94c1.04,0.64,1.97,1.35,2.86,2.08c1.54,1.26,3.16,2.41,4.84,3.47
		c1.61,1.01,3.26,1.96,5,2.74c2.21,0.99,4.46,1.89,6.77,2.62c1.5,0.47,3.03,0.86,4.58,1.15c0.57,0.11,1.17,0.08,1.75,0.19
		c0.22,0.04,0.29,0.08,0.26,0.3c-0.02,0.1,0,0.2,0,0.3c0,31.91,0,63.82,0,95.73c0,0.55-0.29,0.99-0.55,1.41
		c-1.43,2.33-3.07,4.52-4.66,6.76c-0.83,1.18-1.7,2.33-2.59,3.46c-0.63,0.81-1.33,1.57-2.01,2.33c-0.83,0.91-1.55,1.91-2.32,2.87
		c-0.35,0.43-0.68,0.88-1.04,1.3c-0.47,0.54-0.98,1.05-1.47,1.58c-1.29,1.43-2.68,2.77-4.04,4.13c-1.66,1.67-3.5,3.16-5.21,4.78
		c-0.58,0.55-1.17,1.12-1.85,1.56C139.79,171.38,139.67,171.43,139.57,171.49z"/>
	<path class="st2" d="M100.62,134.54c-1.6,0-2.85,0.03-4.11-0.01c-1.33-0.04-2.64-0.3-3.95-0.56c-1.64-0.33-3.2-0.87-4.75-1.47
		c-1.52-0.58-2.96-1.31-4.39-2.08c-0.98-0.53-1.95-1.08-2.86-1.7c-1.02-0.7-2.02-1.41-2.98-2.2c-1.15-0.94-2.26-1.93-3.28-3.01
		c-1.76-1.86-3.28-3.91-4.62-6.09c-1.58-2.54-2.72-5.26-3.58-8.11c-0.47-1.53-0.83-3.07-1.11-4.65c-0.54-3.12-0.25-6.27-0.26-9.4
		c0-1.29,0.34-2.57,0.64-3.85c0.51-2.21,1.23-4.35,2.11-6.43c1.01-2.39,2.29-4.64,3.84-6.74c1.47-1.99,3.13-3.8,4.92-5.5
		c1.62-1.53,3.44-2.83,5.33-4.01c1.32-0.82,2.69-1.53,4.1-2.17c2.19-1.01,4.44-1.81,6.8-2.32c1.9-0.41,3.79-0.65,5.72-0.74
		c1.38-0.06,2.76-0.09,4.13-0.05c2.21,0.06,4.39,0.42,6.51,1.01c2.5,0.7,4.97,1.53,7.28,2.74c2.29,1.2,4.49,2.52,6.49,4.16
		c0.91,0.75,1.79,1.54,2.62,2.37c1.39,1.38,2.67,2.88,3.8,4.48c1.47,2.08,2.77,4.26,3.83,6.58c0.89,1.96,1.63,3.97,2.11,6.07
		c0.29,1.23,0.47,2.47,0.63,3.72c0.13,1.08,0.06,2.15,0.08,3.22c0.03,1.49-0.01,2.99,0.01,4.48c0.02,1.34-0.23,2.63-0.52,3.91
		c-0.39,1.71-0.9,3.39-1.49,5.05c-0.66,1.85-1.46,3.62-2.45,5.32c-0.88,1.51-1.84,2.96-2.89,4.36c-1.07,1.44-2.34,2.71-3.63,3.95
		c-2.04,1.95-4.27,3.65-6.73,5.06c-2.36,1.36-4.87,2.37-7.45,3.2c-1.56,0.5-3.15,0.91-4.76,1.19
		C103.93,134.67,102.1,134.45,100.62,134.54z"/>
	<path class="st1" d="M133.74,98.2c0,1.43,0.05,2.38-0.01,3.33c-0.09,1.36-0.24,2.72-0.47,4.07c-0.34,1.99-0.93,3.89-1.67,5.74
		c-0.67,1.7-1.54,3.32-2.49,4.89c-0.88,1.45-1.91,2.79-2.94,4.14c-0.44,0.58-0.93,1.12-1.44,1.65c-0.82,0.86-1.62,1.75-2.52,2.54
		c-1.36,1.21-2.83,2.29-4.38,3.24c-1.28,0.78-2.6,1.48-3.99,2.07c-1.5,0.64-3.02,1.18-4.59,1.61c-0.98,0.27-1.97,0.57-2.97,0.7
		c-0.94,0.12-1.88,0.24-2.82,0.35c-1.79,0.19-3.58,0.23-5.36,0.16c-1.56-0.06-3.11-0.28-4.65-0.57c-2.06-0.38-4.04-0.98-5.95-1.78
		c-2.26-0.94-4.4-2.12-6.39-3.57c-1.73-1.26-3.37-2.62-4.85-4.16c-1.41-1.47-2.68-3.05-3.82-4.74c-0.83-1.23-1.58-2.5-2.24-3.83
		c-1.15-2.32-2.06-4.73-2.66-7.26c-0.37-1.57-0.64-3.16-0.82-4.76c-0.18-1.57-0.27-3.14-0.16-4.7c0.09-1.45,0.28-2.9,0.56-4.34
		c0.48-2.39,1.18-4.69,2.12-6.94c1.18-2.83,2.66-5.48,4.55-7.91c1.12-1.44,2.4-2.69,3.77-3.88c1.88-1.63,3.89-3.07,6.02-4.34
		c2.21-1.31,4.55-2.4,7.01-3.15c1.4-0.43,2.84-0.74,4.29-0.98c2.62-0.43,5.25-0.31,7.87-0.25c1.67,0.04,3.33,0.38,4.98,0.75
		c2.45,0.55,4.78,1.41,7.03,2.49c2.09,1.01,4.06,2.22,5.9,3.64c1.2,0.93,2.34,1.91,3.39,3c1.93,2.01,3.71,4.15,5.1,6.56
		c1.2,2.07,2.18,4.25,2.98,6.52c0.6,1.68,1.07,3.39,1.4,5.14C133.84,95.28,133.76,96.98,133.74,98.2z"/>
	<path class="st2" d="M91.58,108.57c0-1.9,0-3.8,0.01-5.7c0-0.31-0.05-0.42-0.4-0.42c-2.56,0.02-5.13,0.02-7.69,0
		c-0.45-0.01-0.42,0.24-0.38,0.49c0.19,0.97,0.55,1.88,1.09,2.71c0.54,0.81,1.1,1.62,1.62,2.45c0.18,0.29,0.38,0.58-0.16,0.86
		c-0.73,0.39-1.27,1.07-1.96,1.53c-0.76,0.5-0.83,0.48-1.27-0.31c-0.71-1.27-1.48-2.52-2.15-3.81c-0.59-1.12-0.93-2.34-1.24-3.57
		c-0.51-1.99-0.36-4.03-0.27-6.04c0.09-1.92,0.66-3.79,1.42-5.57c0.7-1.66,1.55-3.24,2.65-4.66c0.79-1.02,1.74-1.9,2.71-2.76
		c0.81-0.72,1.62-1.41,2.57-1.94c1.26-0.72,2.58-1.33,3.92-1.88c0.77-0.32,1.57-0.56,2.38-0.77c0.25-0.06,0.5-0.02,0.74-0.05
		c0.19-0.02,0.19,0.08,0.18,0.22c-0.01,0.14,0,0.27,0,0.41c0,3.68-0.09,7.37,0.03,11.05c0.11,3.54-0.06,7.07,0.1,10.6
		c0.14,3.47-0.01,6.93,0.1,10.4c0.03,0.85,0.06,1.7,0.09,2.56c0.01,0.27-0.07,0.33-0.33,0.33c-1.13-0.02-2.27-0.02-3.41,0
		c-0.3,0-0.35-0.1-0.34-0.37C91.59,112.4,91.58,110.48,91.58,108.57z"/>
	<path class="st2" d="M111.45,72.88c-0.45,1.08-0.89,2.18-1.35,3.26c-0.23,0.54-0.64,0.15-0.89,0.08c-1.01-0.3-1.98-0.7-2.99-1.04
		c-0.83-0.29-1.71-0.38-2.59-0.52c-0.79-0.13-1.57-0.21-2.36-0.2c-0.27,0-0.34,0.06-0.33,0.33c0.01,1.36,0.01,2.72,0.01,4.07
		c0,14.77,0,29.53-0.01,44.3c0,0.42,0.09,0.51,0.51,0.51c1.6-0.01,3.16-0.32,4.68-0.77c1.42-0.42,2.81-0.94,4.25-1.32
		c0.25-0.06,0.27,0.01,0.34,0.17c0.44,1.03,0.87,2.06,1.34,3.07c0.12,0.27-0.06,0.22-0.17,0.26c-1.06,0.34-2.12,0.64-3.15,1.03
		c-1.34,0.5-2.71,0.89-4.1,1.19c-0.32,0.07-0.67,0.13-1.02,0.13c-2.02,0-4.03-0.01-6.06,0.01c-0.35,0-0.39-0.11-0.39-0.42
		c0.01-18.6,0.01-37.2-0.01-55.8c0-0.42,0.22-0.5,0.51-0.51c1.75-0.06,3.5-0.19,5.25-0.09c0.92,0.05,1.85,0.23,2.75,0.49
		c0.9,0.26,1.84,0.36,2.72,0.71c0.86,0.34,1.75,0.62,2.61,0.97C111.15,72.82,111.31,72.76,111.45,72.88z"/>
	<path class="st2" d="M95.35,73c0,0.51-0.03,1.02,0.01,1.53c0.03,0.37-0.17,0.49-0.44,0.53c-2.43,0.32-4.53,1.47-6.62,2.63
		c-1.41,0.78-2.72,1.71-3.99,2.68c-1.2,0.93-2.3,1.98-3.18,3.25c-0.77,1.12-1.57,2.23-2.27,3.4c-1.2,1.99-2.13,4.08-2.66,6.35
		c-0.28,1.17-0.43,2.36-0.53,3.56c-0.12,1.3-0.12,2.59-0.06,3.88c0.08,1.79,0.37,3.56,0.9,5.28c0.95,3.04,2.54,5.73,4.41,8.28
		c0.51,0.7,0.98,1.44,1.63,2.03c1.5,1.35,3.12,2.53,4.84,3.59c1.29,0.8,2.62,1.52,4.03,2.11c1.15,0.48,2.32,0.93,3.59,0.94
		c0.27,0,0.35,0.11,0.35,0.36c-0.01,1.12-0.02,2.24,0,3.36c0,0.26-0.11,0.26-0.3,0.26c-0.72,0-1.4-0.2-2.09-0.39
		c-2.04-0.57-3.95-1.47-5.87-2.36c-2.04-0.94-3.83-2.2-5.53-3.64c-0.72-0.61-1.45-1.23-2.11-1.91c-0.9-0.93-1.6-2.02-2.34-3.06
		c-1.13-1.58-2.14-3.23-2.97-5c-0.78-1.67-1.37-3.39-1.72-5.21c-0.23-1.21-0.42-2.43-0.53-3.66c-0.15-1.82-0.12-3.64-0.05-5.46
		c0.05-1.52,0.45-3.01,0.85-4.48c0.58-2.14,1.31-4.21,2.38-6.16c0.75-1.37,1.64-2.65,2.6-3.88c0.81-1.05,1.56-2.17,2.56-3.07
		c1.69-1.52,3.43-2.96,5.41-4.06c1.99-1.11,4.1-1.98,6.25-2.77c1.02-0.37,2.05-0.65,3.1-0.9c0.25-0.06,0.37,0.07,0.36,0.33
		C95.34,71.89,95.35,72.45,95.35,73z"/>
	<path class="st2" d="M118.28,115.57c0.88-0.59,1.36-1.39,1.89-2.13c0.85-1.17,1.57-2.4,2.23-3.67c0.12-0.22,0.14-0.57,0.31-0.66
		c0.21-0.12,0.45,0.19,0.68,0.26c0.79,0.24,1.5,0.66,2.23,1.01c0.42,0.2,0.52,0.49,0.36,0.88c-0.4,1.02-1.01,1.91-1.62,2.8
		c-1.18,1.7-2.27,3.48-3.77,4.91c-1.61,1.55-3.32,2.99-5.16,4.27c-0.27,0.19-0.57,0.34-0.86,0.51c-0.19-0.09-0.09-0.25-0.09-0.37
		c0-16.21,0-32.42,0-48.62c0-0.13-0.02-0.35,0.04-0.37c0.15-0.07,0.28,0.08,0.42,0.16c1.5,0.94,2.85,2.07,4.17,3.24
		c1.7,1.5,3.17,3.17,4.45,5.03c0.74,1.08,1.47,2.17,2.07,3.34c0.23,0.45,0.41,0.92,0.57,1.4c0.06,0.16,0.04,0.35-0.2,0.44
		c-1.01,0.4-2.02,0.8-3.01,1.24c-0.25,0.11-0.26,0.08-0.37-0.17c-0.83-1.92-1.84-3.74-3.12-5.4c-0.34-0.45-0.7-0.88-1.22-1.17
		C118.28,93.51,118.28,104.49,118.28,115.57z"/>
	<path class="st1" d="M91.48,91.61c0,2.22-0.01,4.44,0.01,6.67c0,0.3-0.04,0.42-0.4,0.42c-2.7-0.02-5.4-0.01-8.1-0.01
		c-0.32,0-0.48-0.05-0.49-0.43c-0.06-2.56,0.75-4.84,2-7.03c0.97-1.68,2.09-3.23,3.48-4.56c0.91-0.86,1.9-1.64,3.13-2.06
		c0.45-0.15,0.36,0.05,0.36,0.29C91.48,87.13,91.48,89.37,91.48,91.61z"/>
</g>
</svg>
