<?xml version="1.0" encoding="utf-8"?>
<!-- Generator: Adobe Illustrator 26.0.3, SVG Export Plug-In . SVG Version: 6.00 Build 0)  -->
<svg version="1.1" id="Capa_1" xmlns="http://www.w3.org/2000/svg" xmlns:xlink="http://www.w3.org/1999/xlink" x="0px" y="0px"
	 viewBox="0 0 200 200" style="enable-background:new 0 0 200 200;" xml:space="preserve">
<style type="text/css">
	.st0{fill-rule:evenodd;clip-rule:evenodd;fill:#007535;}
	.st1{fill-rule:evenodd;clip-rule:evenodd;fill:#FFDD00;}
	
		.st2{clip-path:url(#SVGID_00000148639306777466684560000008326787529237695151_);fill:url(#SVGID_00000072989365230131638040000011513522391417321871_);}
	
		.st3{clip-path:url(#SVGID_00000061431629455497336990000013705645320674814854_);fill:url(#SVGID_00000072993032061511262840000013952070177497757853_);}
</style>
<g>
	<g>
		<path class="st0" d="M50.11,26.35c6.16,11.69,28.27,20.18,50.19,20.18c21.91,0,44.02-8.49,50.19-20.18
			c5.42,7.72,18.68,12.49,27.83,10.98c-2.55,8.75,1.51,19.37,8.76,24.88c-48.06,43.33,9.91,99.42-49.49,125.21
			c-24.65,10.7-35.68,11.17-37.29,13.68c-1.61-2.51-12.64-2.98-37.29-13.68c-59.4-25.78-1.43-81.87-49.49-125.21
			c7.25-5.51,11.31-16.12,8.76-24.88C31.43,38.84,44.69,34.07,50.11,26.35"/>
		<path class="st1" d="M150.89,32.08c-4.66,5.57-11.87,9.53-18.28,12.07c-10.06,3.99-21.51,5.96-32.32,5.96
			c-10.81,0-22.26-1.97-32.32-5.96c-6.41-2.54-13.62-6.5-18.28-12.07c-2.05,1.81-4.42,3.33-6.75,4.56
			c-4.33,2.28-10.81,4.66-15.76,4.66c-0.15,0-0.3,0-0.47,0c0.03,0.76,0.02,1.51,0.02,2.23c0,4.78-2.5,10.78-5.04,14.76
			c-0.87,1.37-1.86,2.7-2.96,3.92c14.27,14.18,19.32,30.29,19.47,50.63c0.06,8.46-0.68,16.87-0.87,25.32
			c-0.16,7.25,0.08,14.88,2.34,21.83c3.96,12.15,13.38,19.19,24.75,24.12c8.82,3.83,17.65,7.06,26.86,9.76
			c2.36,0.69,4.8,1.33,7.12,2.13c0.63,0.21,1.26,0.45,1.88,0.73c0.61-0.28,1.25-0.52,1.88-0.73c2.32-0.8,4.76-1.43,7.12-2.13
			c9.22-2.7,18.05-5.93,26.86-9.76c11.36-4.93,20.79-11.97,24.75-24.12c2.26-6.95,2.51-14.58,2.34-21.83
			c-0.19-8.45-0.93-16.86-0.87-25.32c0.15-20.34,5.2-36.46,19.47-50.63c-1.1-1.22-2.09-2.55-2.96-3.92
			c-2.53-3.98-5.04-9.97-5.04-14.76c0-0.72-0.01-1.47,0.02-2.23c-0.16,0-0.32,0-0.47,0c-4.95,0-11.43-2.38-15.76-4.66
			C155.31,35.41,152.94,33.89,150.89,32.08"/>
		<path class="st0" d="M49.17,39.21c-1.2,0.79-2.45,1.52-3.72,2.19c-3.85,2.03-8.81,3.96-13.52,4.82c-0.65,5.19-3.05,10.8-5.7,14.97
			c-0.14,0.23-0.29,0.45-0.44,0.68c11.23,12.58,16.24,26.67,17.47,43.12l125.39-58.77c-4.71-0.86-9.67-2.79-13.52-4.82
			c-1.27-0.67-2.51-1.39-3.72-2.19c-4.86,4.33-10.94,7.6-16.83,9.93c-10.72,4.25-22.78,6.34-34.3,6.34
			c-11.51,0-23.58-2.09-34.3-6.34C60.11,46.8,54.03,43.54,49.17,39.21 M44.89,158.65c3.52,10.43,11.91,16.32,21.68,20.56
			c8.55,3.71,17.28,6.91,26.23,9.53c2.46,0.72,4.93,1.37,7.35,2.2c0.05,0.02,0.09,0.03,0.14,0.05c0.05-0.02,0.09-0.03,0.14-0.05
			c2.42-0.83,4.9-1.48,7.35-2.2c8.95-2.62,17.68-5.82,26.23-9.53c9.86-4.28,18.32-10.24,21.78-20.86
			c2.06-6.32,2.23-13.44,2.08-20.04c-0.19-8.5-0.93-16.97-0.87-25.48c0.02-2.32,0.1-4.6,0.24-6.83L44.89,158.65z"/>
		<path class="st0" d="M58.8,139.38l11.58-5.43c10.85-5.09,18.83-12.98,18.83-24.88c0-12.31-7.75-12.14-18.83-6.94l-11.58,5.43
			V139.38z M67.28,109.88l3.28-1.54c6.2-2.91,9.89-1.36,9.89,4.98c0,6.34-3.56,11.29-9.89,14.26l-3.28,1.54V109.88z"/>
		<path class="st0" d="M122.26,109.4c1.46-0.32,3.37-0.72,5.24-1.59c8.61-4.04,11.4-10.04,11.4-16.88V70.09l-8.48,3.98v18.28
			c0,5.2-1.82,7.83-4.33,9.01c-1.46,0.68-2.78,1.03-3.83,1.02V109.4z"/>
		<path class="st0" d="M96.4,105.1l3.77,8.58c0.51,1.41,1.59,3.05,1.59,4.16c0,0.77-0.82,1.78-2.24,2.44
			c-0.99,0.47-1.56,0.62-2.13,0.71v4.2c1.39-0.43,2.81-0.81,4.68-1.69c5.59-2.62,6.92-7.3,8.34-12.62l3.91-14.2l-6.86,3.22
			l-1.76,9.9l-0.06,0.03l-1.84-8.21L96.4,105.1z"/>
	</g>
	<g>
		<defs>
			<path id="SVGID_1_" d="M83.14,1.23C83.01,1.35,83,1.4,82.91,1.55l-4.13,6.9c-0.08,0.08-0.75,0.2-0.88,0.23
				c-1.21,0.27-2.39,0.54-3.59,0.82c-1.13,0.26-2.49,0.54-3.59,0.82c-0.16,0.04-0.26,0.09-0.35,0.21c-0.31,0.41,0.05,0.78,0.32,1.06
				l0.52,0.59c0.36,0.36,1.03,1.21,1.41,1.62l1.55,1.76c0.06,0.07,0.06,0.09,0.12,0.15l0.78,0.88c0.16,0.16,0.66,0.79,0.78,0.87
				c-0.05,0.62-0.13,1.25-0.18,1.89l-0.27,2.87c-0.03,0.34-0.04,0.65-0.08,0.99l-0.13,1.42c-0.02,0.41-0.18,1.16-0.03,1.41
				c0.32,0.56,0.89,0.18,1.4-0.04c0.26-0.11,0.48-0.21,0.75-0.32l5.86-2.51c0.41-0.17,0.33-0.13,0.74,0.05l2.22,0.95
				c0.49,0.22,0.99,0.43,1.48,0.63c0.46,0.18,3.48,1.53,3.69,1.55c0.31,0.02,0.58-0.29,0.58-0.47c0-0.71-0.14-1.41-0.17-2.1
				c-0.01-0.33-0.08-0.72-0.1-1.04c-0.08-1.01-0.23-2.22-0.28-3.17l-0.14-1.58c-0.01-0.14-0.03-0.39-0.06-0.52
				c0.16-0.1,0.6-0.67,0.77-0.85l4.12-4.71c0.2-0.21,0.67-0.68,0.72-0.94c0.07-0.34-0.19-0.56-0.44-0.63
				c-0.59-0.16-1.22-0.27-1.79-0.41c-0.85-0.21-6.15-1.37-6.26-1.43c-0.05-0.03-0.03-0.01-0.07-0.07l-3.65-6.14
				c-0.13-0.24-0.27-0.45-0.41-0.69c-0.15-0.24-0.35-0.5-0.62-0.5C83.39,1.09,83.27,1.13,83.14,1.23"/>
		</defs>
		<clipPath id="SVGID_00000138545013025390406390000017646777094876139957_">
			<use xlink:href="#SVGID_1_"  style="overflow:visible;"/>
		</clipPath>
		
			<linearGradient id="SVGID_00000090270249626645391740000012653011508349749921_" gradientUnits="userSpaceOnUse" x1="-360.8416" y1="772.8012" x2="-360.5498" y2="772.8012" gradientTransform="matrix(-12.8625 -76.4893 -76.4893 12.8625 54555.1016 -37515.1484)">
			<stop  offset="0" style="stop-color:#C1A212"/>
			<stop  offset="1" style="stop-color:#D3B100"/>
		</linearGradient>
		
			<polygon style="clip-path:url(#SVGID_00000138545013025390406390000017646777094876139957_);fill:url(#SVGID_00000090270249626645391740000012653011508349749921_);" points="
			70.8,30.97 65.9,1.79 96.06,-3.28 100.97,25.9 		"/>
	</g>
	<g>
		<defs>
			<path id="SVGID_00000161619303460062568550000018403145303671119284_" d="M119.13,1.23c-0.14,0.11-0.14,0.17-0.23,0.32l-4.13,6.9
				c-0.08,0.08-0.75,0.2-0.88,0.23c-1.21,0.27-2.39,0.54-3.59,0.82c-1.13,0.26-2.49,0.54-3.59,0.82c-0.16,0.04-0.26,0.09-0.35,0.21
				c-0.31,0.41,0.05,0.78,0.32,1.06l0.52,0.59c0.36,0.36,1.03,1.21,1.41,1.62l1.55,1.76c0.06,0.07,0.06,0.09,0.12,0.15l0.78,0.88
				c0.16,0.16,0.66,0.79,0.78,0.87c-0.05,0.62-0.13,1.25-0.18,1.89l-0.27,2.87c-0.03,0.34-0.04,0.65-0.08,0.99l-0.13,1.42
				c-0.02,0.41-0.18,1.16-0.03,1.41c0.32,0.56,0.89,0.18,1.4-0.04c0.26-0.11,0.48-0.21,0.75-0.32l5.86-2.51
				c0.41-0.17,0.33-0.13,0.74,0.05l2.22,0.95c0.49,0.22,0.99,0.43,1.48,0.63c0.46,0.18,3.48,1.53,3.69,1.55
				c0.31,0.02,0.58-0.29,0.58-0.47c0-0.71-0.14-1.41-0.17-2.1c-0.01-0.33-0.08-0.72-0.1-1.04c-0.08-1.01-0.23-2.22-0.28-3.17
				l-0.14-1.58c-0.01-0.14-0.03-0.39-0.06-0.52c0.16-0.1,0.6-0.67,0.77-0.85L132,11.9c0.2-0.21,0.67-0.68,0.72-0.94
				c0.07-0.34-0.19-0.56-0.44-0.63c-0.59-0.16-1.22-0.27-1.79-0.41c-0.85-0.21-6.15-1.37-6.26-1.43c-0.05-0.03-0.03-0.01-0.07-0.07
				l-3.65-6.14c-0.14-0.24-0.27-0.45-0.41-0.69c-0.15-0.24-0.35-0.5-0.62-0.5C119.37,1.09,119.26,1.13,119.13,1.23"/>
		</defs>
		<clipPath id="SVGID_00000183955644665578451410000003416754695877362072_">
			<use xlink:href="#SVGID_00000161619303460062568550000018403145303671119284_"  style="overflow:visible;"/>
		</clipPath>
		
			<linearGradient id="SVGID_00000069391332981414438130000001229301341452523693_" gradientUnits="userSpaceOnUse" x1="-360.9186" y1="772.3437" x2="-360.6268" y2="772.3437" gradientTransform="matrix(-12.8625 -76.4893 -76.4893 12.8625 54555.1016 -37515.1484)">
			<stop  offset="0" style="stop-color:#C1A212"/>
			<stop  offset="1" style="stop-color:#D3B100"/>
		</linearGradient>
		
			<polygon style="clip-path:url(#SVGID_00000183955644665578451410000003416754695877362072_);fill:url(#SVGID_00000069391332981414438130000001229301341452523693_);" points="
			106.79,30.97 101.88,1.79 132.05,-3.28 136.96,25.9 		"/>
	</g>
</g>
</svg>
