<?xml version="1.0" encoding="utf-8"?>
<!-- Generator: Adobe Illustrator 26.0.3, SVG Export Plug-In . SVG Version: 6.00 Build 0)  -->
<svg version="1.1" id="Capa_1" xmlns="http://www.w3.org/2000/svg" xmlns:xlink="http://www.w3.org/1999/xlink" x="0px" y="0px"
	 viewBox="0 0 200 200" style="enable-background:new 0 0 200 200;" xml:space="preserve">
<style type="text/css">
	.st0{fill:#E30613;}
	.st1{fill:#FFFFFF;}
	.st2{fill:#030100;}
	.st3{fill:#F2D681;}
	.st4{clip-path:url(#SVGID_00000109004269406914385560000002038253664489372350_);fill:#FFFFFF;}
</style>
<g>
	<path class="st0" d="M156.61,161.64c-0.02,2.77,0.11,5.56-0.26,8.31c-0.35,1.98-1.03,3.91-2,5.67c-2.19,3.47-5.98,5.6-9.88,6.59
		c-6.87,1.92-14.07,1.98-21.07,3.21c-6.68,1.15-13.65,3.24-18.49,8.26c-1.92,1.76-3.07,4.13-4.68,6.14
		c-1.25-1.96-2.5-3.94-4.09-5.64c-2.31-2.69-5.43-4.57-8.68-5.9c-1.83-0.89-3.8-1.4-5.75-1.96c-4.69-1-9.44-1.74-14.22-2.14
		c-2.68-0.33-5.36-0.72-8.03-1.14c-1.7-0.03-3.21-0.87-4.84-1.24c-1.77-0.68-3.54-1.44-5.05-2.6c-1.45-1.01-2.57-2.42-3.54-3.88
		c-0.8-1.71-1.59-3.48-1.8-5.38c-0.36-1.94-0.27-3.93-0.28-5.9V61.97h112.66L156.61,161.64z"/>
	<rect x="50.52" y="69.14" class="st1" width="99.53" height="25.01"/>
	<g>
		<path class="st0" d="M55.65,74.25h11.17v2.35h-8.46v4.07h7.83v2.22h-7.83v4.54h8.61v2.35H55.65V74.25z"/>
		<path class="st0" d="M69.19,86.84h3.02v2.93h-3.02V86.84z"/>
		<path class="st0" d="M91.67,89.77h-2.35v-1.52h-0.04c-0.65,1.28-2.07,1.83-3.48,1.83c-3.54,0-5.26-2.63-5.26-6
			c0-4.06,2.41-5.85,4.87-5.85c1.41,0,2.98,0.52,3.74,1.76h0.04v-5.74h2.48V89.77z M86.12,88.12c2.22,0,3.15-2.02,3.15-3.98
			c0-2.48-1.2-3.96-3.11-3.96c-2.33,0-3.15,2.07-3.15,4.09C83.01,86.21,83.97,88.12,86.12,88.12z"/>
		<path class="st0" d="M96.3,84.8c0,1.76,0.96,3.33,3.02,3.33c1.43,0,2.3-0.63,2.74-1.87h2.35c-0.54,2.46-2.63,3.83-5.09,3.83
			c-3.52,0-5.5-2.46-5.5-5.91c0-3.2,2.09-5.93,5.43-5.93c3.54,0,5.72,3.2,5.3,6.56H96.3z M102.08,83.17
			c-0.09-1.56-1.15-2.98-2.82-2.98c-1.72,0-2.89,1.3-2.96,2.98H102.08z"/>
		<path class="st0" d="M112.84,74.25h2.72v13.17h7.89v2.35h-10.61V74.25z"/>
		<path class="st0" d="M125.16,86.84h3.02v2.93h-3.02V86.84z"/>
		<path class="st0" d="M131.35,74.25h6.85c4.43,0,5.28,2.87,5.28,4.8c0,1.91-0.85,4.78-5.28,4.76h-4.13v5.96h-2.72V74.25z
			 M134.07,81.6h3.98c1.22,0,2.72-0.61,2.72-2.57c0-2.04-1.24-2.56-2.67-2.56h-4.02V81.6z"/>
		<path class="st0" d="M142.03,86.84h3.02v2.93h-3.02V86.84z"/>
	</g>
	<path class="st2" d="M100.56-0.18c2.17,6.95,4.38,13.89,6.52,20.85c2.45,0.02,4.89,0.05,7.34-0.05c4.64,0,9.27-0.01,13.91,0
		c-5.74,4.26-11.46,8.54-17.2,12.81c2.19,6.94,4.4,13.88,6.6,20.81c-5.74-4.28-11.46-8.59-17.17-12.9
		c-5.72,4.31-11.46,8.61-17.18,12.92c2.19-6.94,4.4-13.88,6.6-20.82c-5.74-4.28-11.45-8.59-17.23-12.82
		c7.07-0.05,14.15,0.02,21.22,0.08C96.22,13.76,98.31,6.77,100.56-0.18L100.56-0.18z"/>
	<path class="st3" d="M91.56,32.94l-5.97-4.46c-2.9-2.17-5.81-4.35-8.72-6.5c0.33,0,0.67,0,1,0c4.49,0,8.98,0.04,13.47,0.07
		l3.62,0.03l0.31-0.95c1.14-3.5,2.23-7.02,3.33-10.53c0.65-2.09,1.3-4.18,1.96-6.27c0.35,1.11,0.7,2.22,1.05,3.34
		c1.4,4.47,2.81,8.94,4.19,13.41l0.29,0.95l1.82,0.01c0.87,0.01,1.74,0.01,2.6,0.01c1.33,0,2.65-0.02,3.98-0.07c0,0,9.32,0,9.75,0
		c-2.03,1.51-14.69,10.94-14.69,10.94l0.29,0.92c1.76,5.6,3.54,11.19,5.32,16.78c-4.6-3.44-9.19-6.9-13.78-10.36l-0.82-0.62
		c0,0-12.08,9.08-14.61,10.98C86.81,47.93,91.56,32.94,91.56,32.94z"/>
	<g>
		<defs>
			<path id="SVGID_1_" d="M100.26,192.73c-0.35-0.43-0.71-0.85-1.1-1.27c-2.46-2.84-5.84-5.16-10.05-6.9
				c-1.87-0.9-3.74-1.43-5.54-1.94l-0.88-0.25l-0.14-0.03c-4.99-1.07-9.91-1.81-14.65-2.21c-2.44-0.3-4.99-0.66-7.81-1.11
				l-0.28-0.04l-0.28-0.01c-0.44-0.01-1.11-0.24-1.82-0.48c-0.56-0.19-1.19-0.4-1.88-0.58c-1.29-0.51-2.72-1.12-3.79-1.94l-0.14-0.1
				c-0.75-0.53-1.49-1.34-2.32-2.55c-0.63-1.35-1.18-2.65-1.31-3.82l-0.02-0.15l-0.03-0.15c-0.22-1.21-0.22-2.58-0.21-4.04V66.05
				h104.51l-0.01,95.6c-0.01,0.64,0,1.31,0,1.98c0.01,2.01,0.02,3.91-0.22,5.71c-0.27,1.48-0.77,2.9-1.48,4.22
				c-1.92,2.95-5.44,4.23-7.38,4.72c-3.99,1.11-8.06,1.56-12.37,2.03c-2.74,0.3-5.58,0.61-8.4,1.11
				c-5.95,1.03-14.56,3.11-20.64,9.36C101.37,191.39,100.79,192.06,100.26,192.73z"/>
		</defs>
		<clipPath id="SVGID_00000004541089841474974410000003923671643164321976_">
			<use xlink:href="#SVGID_1_"  style="overflow:visible;"/>
		</clipPath>
		
			<rect x="62.97" y="98.9" style="clip-path:url(#SVGID_00000004541089841474974410000003923671643164321976_);fill:#FFFFFF;" width="16.41" height="91.61"/>
		
			<rect x="92.47" y="98.9" style="clip-path:url(#SVGID_00000004541089841474974410000003923671643164321976_);fill:#FFFFFF;" width="16.41" height="97.61"/>
		
			<rect x="121.98" y="98.9" style="clip-path:url(#SVGID_00000004541089841474974410000003923671643164321976_);fill:#FFFFFF;" width="16.4" height="97.61"/>
	</g>
	<g>
		<path d="M94.52,27.07c1.18,0.01,2.29-0.39,2.5-1.42h1.14v8.58h-1.53v-6.06h-2.11V27.07z"/>
		<path d="M101.34,27.07c1.18,0.01,2.29-0.39,2.5-1.42h1.14v8.58h-1.53v-6.06h-2.11V27.07z"/>
	</g>
</g>
</svg>
