<?xml version="1.0" encoding="utf-8"?>
<!-- Generator: Adobe Illustrator 26.0.3, SVG Export Plug-In . SVG Version: 6.00 Build 0)  -->
<svg version="1.1" id="Capa_1" xmlns="http://www.w3.org/2000/svg" xmlns:xlink="http://www.w3.org/1999/xlink" x="0px" y="0px"
	 viewBox="0 0 200 200" style="enable-background:new 0 0 200 200;" xml:space="preserve">
<style type="text/css">
	.st0{fill:#FFFFFF;}
	.st1{fill:#25456E;}
	.st2{fill:#FEFEFE;}
	.st3{fill:#C4C36C;}
	.st4{fill:#00A158;}
</style>
<g id="g3141" transform="matrix(0.64741936,0,0,0.64741936,9.143772,7.28304)">
	<path id="path3143" class="st0" d="M116.02,81.56c1.31,0,1.22-0.6,2.11-0.6c0.03,0,8.65,7.44,9.94,8.23
		c1.29,0.79,9.34,6.58,11.52,6.88c1.19,0,9.94-6.03,11.42-7.01c1.3-0.86,10.1-8.1,10.33-8.1c1.32,0,1.1,0.6,2.42,0.6h0.3
		c1.72,0,3.63-4.3,3.63-6.34l0.37-3.32L168,70.68c0-0.7-0.21-0.91-0.91-0.91h-0.3c-1.32,0-1.1,0.61-2.42,0.61
		c-0.03,0-22.26-16.62-24.78-16.62c-0.53,0-11.16,7.15-12.8,8.05c-3.71,2.03-8.22,6.58-11.98,8.57l-2.99-0.74l-0.64,0.74
		C110.7,73.3,112.22,81.56,116.02,81.56L116.02,81.56z"/>
	<path id="path3145" class="st1" d="M168.29,76.43l0.02-1.22l-0.61,0c0,2.04-1.92,6.35-3.64,6.35h-0.3c-1.32,0-1.1-0.6-2.42-0.6
		c-0.24,0-9.03,7.24-10.33,8.1c-1.48,0.98-10.24,7.01-11.43,7.01c-0.49,0-10.02-6.34-11.3-7.13c-1.29-0.79-10.12-7.98-10.15-7.98
		c-0.9,0-0.81,0.6-2.12,0.6c-3.45,0-4.82-7.27-4.82-9.68v-1.51h0.6l0.03-0.74l2.99,0.74c3.76-1.99,8.26-6.53,11.98-8.57
		c1.64-0.9,12.27-8.05,12.8-8.05c2.52,0,24.74,16.62,24.78,16.62c1.32,0,1.1-0.6,2.42-0.6h0.3c0.7,0,0.91,0.21,0.91,0.91l0.07,1.22
		l-0.37,3.32l0.6,0L168.29,76.43c0.52-0.82,0.92-2.08,0.92-3.33v-2.11c0-1.46-0.96-2.42-2.42-2.42h-0.91
		c0-4.09-3.02-10.33-3.02-12.09c0-1.61,3.43-3.14,4.54-3.92c2.02-1.43,2.57-3.03,5.74-3.03h0.61c0.48,0,2.21,1.27,3.38,1.46
		c1.72,0.27,3.27,0.08,3.27,1.87v0.3c0,1.45-0.91,1.57-0.91,3.02c0,1.64,0.57,1.62,0.6,3.32h-1.21c-1.51,0-2.96,1.47-3.93,2.12
		l-3.93-0.01l-1.2,0.61v1.51c0,1.88,6.52,7.86,8.46,7.86c1.25,0,1.9-0.61,3.63-0.61c2.09,0,2.8,1.21,4.53,1.21
		c0.99,0,2.59-2.25,3.98-2.67c2.02-0.6,2.58-1.59,3.57-3.08c1.92,0,2.88-0.67,3.33-2.11c0.98-3.13,1.41-0.04,2.83-2.91
		c0.74-1.49,0.5-2.92,0.48-4.96c-0.02-2.89,0.91-2.67,0.91-4.83v-0.61c0-0.75-0.75-1.14-1.21-1.81c0.1-1.24,0.3-0.67,0.3-1.81
		c0-1.4-1.66-2.33-2.07-3.68c-0.58-1.95-0.59-2.53-1.78-3.96c-1.3-1.55-0.24-2.12-2.97-2.77c-2.73-0.64-1.24-1.12-3.45-2.6
		l-1.44-0.07l-1.58-1.39l-7.25-0.36l-0.01,0.66l-3.62-0.36c-0.04-0.01-4.76,2.49-5.05,2.8c-1.29,1.33-2.32,0.82-4.54,3.32
		c-1.89,2.14-2.15,1.08-3.84,4.02c-0.8,1.39-3,2.54-3.49,4.37c-0.66-0.18-3.93-5.02-3.93-5.74v-0.3c0-0.25,3.41-7.85,3.63-8.16
		l0.02-3.61l3.91-4.85c4.14,0,4.02,0.16,5.74-2.42c2.24,0,1.99-0.6,3.33-0.6h4.23c0.66,0,2.08,1.63,2.95,2.19
		c1.29,0.82,2.95,0.53,4.91,0.53c0.99,0.66,0.96,1.03,1.86,1.77c1.07,0.89,1.91,0.67,2.57,1.36c1.3,1.37,1.49,3.82,3.74,3.82h0.6
		c1.36,0,5.14-4.14,5.14-5.74c0-1.91-0.91-2.24-0.91-3.63v-1.21c0.93-0.25,1.21-0.59,1.21-1.81c0-1.3-1.53-3.06-2.12-3.93l0.08-1.59
		l-2.28-2.25l-0.22,0.22c-0.09-1.1-1.35-3.19-2.04-3.7c-1.12-0.81-0.83-0.05-1.84-1.18c-0.6-0.67-0.82-0.98-1.55-1.47h-1.51
		c-2.25-1.51-1.16-1.81-5.14-1.81c-0.84-0.56-1.04-1.21-2.42-1.21l-2.98,0.27l-5.21,0.6L167.7,6c-3.59,0-3.55,1.14-5.36,2.81
		c-1.51,1.39-3.88,0.7-4.62,3.84c-1.93,0.04-2.88,1.55-3.02,3.32c-4.05,0.34-1.02,4.99-3.85,6.05l-0.48,7.26l0.71,7.24
		c-2.09-0.56-7.12-5.68-11.48-6.04v-0.91c0-2.78,1.37-4.18,2.08-6.39c1.19-3.71,2.46-1.15,2.46-6.31c1.39-0.73,2.77-1.06,3.37-2.67
		c1.2-3.17,1.96-1.23,3.14-3.21c0.74-1.25,5.68-4.35,7.09-5.3l3.06,0.04l0.87-0.66l2.42,0.31c1.18,0.19,1.81-1.82,1.81-3.02V0.57
		c0-2.64-2.73-5.15-4.52-6.05c-1.56-0.77-2.12-0.74-3.41-2.03c-0.72-0.72-2.01-2.2-3.24-2.2c-0.69,0-0.35,0.1-1.16,0.27l-0.95-1.48
		h-3.02c-0.54-0.36-0.53-0.6-1.21-0.6c-2.26,0-5.25,1.78-6.65,2.72c-7.24,0-3.58,2.57-6.68,3.9c-3.98,1.71-0.91,0.52-2.93,2.51
		c-1.3,1.28-1.57,1.34-1.57,3.87c-0.87,1.29-1.37,1.06-1.51,3.32c-0.14,2.12,0.77,3.46-1.21,3.63c0.28-1.05,0.6-0.79,0.5-1.21
		l0.07-7.86l0.34,0v-1.21c0-2.59-2.12,0.83-2.17-3.27l-1.46-1.27h-2.42c-1.27-0.85-1.04-1.81-3.02-1.81c-2.02,0-2.73,1.62-4.42,2.23
		c-2.88,1.03-2.96-0.89-4.65,2.3l-1.94,0.22l-6.82,5.23v4.53c0,1.11-1.21,0.9-1.21,2.72v3.02c-1.2,0.1-1.51,0.58-1.51,1.81v1.21
		c0,0.92,0.29,1.22,0.6,1.81c-0.47,0.89-1.21,1.58-1.21,2.72c0,1.19,1.66,6.57,2.08,7.59c0.81,1.96,2.15,5.35,2.15,7.82
		c1.25,1.87,3.01,2.02,4.12,3.44c1.53,1.96,1.59,2.38,3.68,3.87c1.41,1.01,8.27,5.68,9.55,6.04l-1.63,3.57
		c-1.58-1.06-6.58-6.46-8.38-8.24c-1.6-1.59-3.03-2.19-5.41-3.04c-1.83-0.65-3.25-2.32-6.15-2.32h-1.51c-0.79,0-5.73,0.91-6.3,1.26
		c-0.79,0.49-1.37,1.05-2.16,1.47c-0.92,0.49-1.82,0.53-2.66,1.27c-0.86,0.76-0.84,1.3-1.4,2.23c-0.77,1.26-1.51,0.4-2.35,1.57
		c-1.08,1.49-2.66,3.25-2.66,5.2c-0.93,0.25-1.21,0.59-1.21,1.81v0.61c0,1.06,0.91,2.47,0.91,4.23c0,1.15-1.51,2.05-1.51,4.53
		c0,0.36,1.73,1.68,2.08,2.45c0.55,1.24,0.68,2.23,2.45,2.38c0.05,2.41,0.82,2.98,2.51,3.83c2.05,1.03,1.87,2.52,3.16,3.49
		c1.54,1.15,7.07,3.25,9.74,3.25h1.81c1.56,0,3.33-1.65,3.33-3.63c0-1.09-1.22-1.78-1.54-3.9c-0.33-2.21-1.79-2.85-1.79-3.65v-0.91
		c0-1.18,0.98-2.23,1.51-3.02c0-2.02,2.01-4.64,3.01-5.45c0.89-0.71,3.53-3.92,4.54-3.92l0.28,0.18l6.19,0.32l1.67,2.21l-3,12.4
		h-0.91c-1.7,0-2.42,1.42-2.42,3.02c0.04,2.84,1.4,11.19,5.43,11.19c0.88,0,1.57-0.41,2.42-0.6c1.09,2.07,2.34,3.86,3.38,5.99
		c1.37,2.8,3.87,6.45,3.87,9.73v0.61c0,2.76-2.44,6.69-4.53,7.25c-1.54-3.21-7.72-14.04-10.63-14.82l-2.06,11.8l-0.36-0.23
		l-6.59-6.41c-1.56,3.26-1.51,11.78-1.66,17.01l-5.58-9.12l-12.1,6.32C81.2,107.81,74,98.53,74,97.28v-0.3c0-1.07,1.93-2,2.72-2.42
		c0.84,0.56,1.04,1.21,2.42,1.21h1.21c1.28,0,2.42-1.13,2.42-2.12v-3.02c0-1.79-1.62-3.33-3.33-3.33c-3.52,0-5.96,2.56-7.86,2.72
		c-0.39-4.64-4.07-10.3-5.63-14.02c-1.97-4.7-5.35-8.05-7.97-11.97c0.21-0.43,0.3-0.5,0.3-1.21v-1.51c0-2.08-2.18-4.53-3.63-4.53
		h-1.51v-0.91c0-1.8-1.77-3.93-3.63-3.93h-0.61c-1.42,0-3.63,1.82-3.63,3.02v1.51c0,1.79,1.49,2.97,3.02,3.32
		c-0.09,1.08-0.4,1-0.36,1.82l0.36,3.62c-2.76,1.46-4.62,4.88-5.63,8.27c-0.69,2.33-1.03,2.91-1.02,5.93c0,0.96,0.11,2.74-0.01,3.62
		c-0.16,1.24-0.9,1.36-0.9,2.73v1.51c0,2.09,1.97,4.01,3.63,4.53c1.6,0.5,3.09,2.97,4.25,4.21c2.5,2.69,6.51,5.16,11.77,5.16h0.6
		c3.61,0,6.23-1.88,8.88-2.02l7.12,14.08l-12.37,6.68c0.05,0.61,6.87,12.85,7.86,14.81c1.24,2.48,6.34,13.48,6.34,16.32
		c-0.92-0.67-3.83-6.2-4.96-7.74c-1.84-2.53-3.95-4.77-5.62-7.07c-2.14-2.94-10.24-10.01-13.6-11.79
		c0,14.54,10.02,32.64,25.99,32.64c1.39,2.63,3.32,17.41,3.32,22.06c-0.28-0.21-4.53-8.63-5.44-9.97c-2.41-3.55-3.8-5.56-6.57-8.84
		c-3.09-3.66-12.76-12.39-17.61-13.52v3.02c0,10.11,4.13,16.98,9.3,22.13c2.79,2.79,5.57,4.59,9.18,6.53
		c1.59,0.85,3.86,1.53,5.66,2.2c1.17,0.44,5.48,1.27,5.48,2.38l0.18,0.62l-1.09,15.1c-0.46-0.34-5.26-9.02-6.16-10.46
		c-2.13-3.42-4.76-6.62-7.35-9.57c-4.42-5.02-12.71-12-21.84-12c0,2.99,3.3,10.04,4.44,12.49c2.08,4.44,3.87,6.94,6.69,10.53
		c4.32,5.52,13.8,10.82,23.63,10.82l0.39,0.09l-3.11,13.21c-0.88-0.64-3.18-5.46-4.28-6.9c-1.72-2.26-2.99-4.15-5.01-6.17
		c-3.26-3.26-8.84-7.18-15.19-7.18l-2.73-0.07l-3.31,0.37c0.07,3.13,4.56,10.69,6.16,12.88c5.12,7.54,14.3,11.34,23.45,10.09
		c-0.11,1.31-3.3,10.12-3.92,11.49c-0.62,1.36-4.47,10.06-4.54,10.87l2.42,0.31c1.24,0.83,7.4,2.52,9.47,3.23
		c2.99,1.02,6.39,2.8,9.06,3.94c2.44,1.04,6.39,2.92,8.43,4.27c1.02,0.68,7.48,4.73,8.3,5.01L85.27,297.4l27.42-37.53
		c4.59,3.07,11.66,10.35,15.17,14.75c2.3,2.89,4.27,5.65,6.35,8.76c0.99,1.49,4.86,8.83,5.98,9.13c0.91-3.92,9.12-14.91,11.73-18.19
		c1.86-2.33,13.08-14.25,15.25-14.28l25.77,35.6l0.32-0.2l-21.64-39.49c0.66-0.18,9.94-5.8,11.89-6.85
		c1.52-0.81,11.75-5.85,12.89-5.85l0.96-0.43l11.73-3.5c-0.14-1.69-3.67-8.86-4.45-10.66c-0.7-1.59-3.68-10.19-3.71-11.75l4.53,0.35
		c6.15,0.58,13.64-4.43,16.32-7.55c2.29-2.66,8.36-11.09,8.46-15.42c-1.08-0.25-1.42-0.6-2.72-0.6c-7.18,0-14.94,2.09-19.52,8.28
		c-1.44,1.95-3.06,3.54-4.35,5.63c-0.98,1.58-2.63,5.17-4.11,6.07l-2.61-12.96l0.37-0.08h1.51c7.01,0,15.7-4.63,19.27-8.23
		c2.56-2.58,4.27-4.42,6.29-7.61c0.88-1.39,1.85-2.95,2.58-4.37c2.2-4.28,3.6-8.93,5.1-13.54l-0.3-0.1
		c-9.61,0-16.73,6.94-21.69,11.86c-2.76,2.73-4.87,6.23-7.25,9.37c-1.34,1.77-5.08,10.01-6.46,10.5l-0.87-14.81v-1.21
		c14.99-3.49,29.62-13.74,29.62-32.03v-3.63c-2.24,0.52-7.54,4.4-9.37,5.74c-3.49,2.58-5,4.44-7.93,7.49
		c-2.57,2.68-4.47,5.42-6.52,8.59c-1.65,2.54-4.03,8.24-5.5,9.92c0-3.72,0.34-8.09,0.84-11.25c0.5-3.17,2-7.93,2.19-10.2h1.81
		c7.4,0,12.41-4.2,15.59-8.58c4.08-5.61,6.34-12.4,7.68-18.01c0-1.56,1.05-4.48,1.21-6.35c-5.16,2.73-10.07,8.42-14.12,12.47
		c-2.76,2.76-10.5,15.3-10.96,15.63c0.95-4.09,4.56-12.98,6.44-16.53c1.37-2.58,2.5-4.98,3.95-7.53c0.56-0.98,4.41-7.13,4.41-7.37
		c0-1.74-12.39-6.84-12.39-7.86c0-0.47,3.95-7.25,4.53-7.25c1.35,0,2.85,0.91,5.14,0.91h3.02c3.83,0,10.08-2.54,12.69-3.93
		c1.78,0.42,2.98,1.51,5.14,1.51h2.72c2.05,0,5.14-2.44,5.14-3.93v-1.21c0-1.56-2.77-3.32-4.53-3.32c-2.32,0-3.52,2.42-4.53,2.42
		h-0.3c-3.49,0-11.91-8.66-13.6-11.18c1.64-2.46,5.44-4.93,5.44-9.67c2.04-1.37,5.14-5.7,5.14-9.07c1.82-1.22,5.14-5.68,5.14-8.46
		V58.9c0-1.05-1.86-3.02-3.32-3.02h-0.3c-3.54,0-6.22,4.85-6.95,7.86c-0.84,3.49-5.14,4.47-5.14,9.97c-1.61,2.4-5.14,4.83-5.14,8.76
		c-0.99-0.11-5.96-3.57-7.93-4.16c-3.23-0.97-6.04-1.89-10.2-1.89h-1.81c-2.02,0-5.14,1.69-5.14,3.93v1.51
		c0,1.24,1.66,1.81,3.02,1.81l1.52,0.07l2.75-0.36l-0.34,2.71V87c0,3.07,0.79,7.45,1.82,9.37c0.59,1.11,5.13,6.02,5.13,6.35
		c0,0.6-3.56,5.97-4.04,7.76l-12.08-6.61l-5.31,9.41l-1.53-17.2c-2.48,0.66-5.27,5.53-6.86,6.63l-2.51-11.77
		c-3.01,0.81-10.48,14.51-10.88,14.51c-1.34,0-4.23-4.28-4.23-6.35v-0.91c0-1.93,2.32-6.76,3.13-8.36c0.87-1.74,3.85-6.46,4.13-7.66
		c0.68,0.16,0.7,0.3,1.51,0.3h1.81C166.33,82.47,168.24,78.52,168.29,76.43L168.29,76.43L168.29,76.43z M125.43,12.98l1.69-3.09
		l0.8,5.47c-0.01,0.76-1.32,1.95-1.32,3.34v0.61c0,1.2,0.51,1.11,0.6,2.14c0.13,1.39-0.39,0.91-0.29,2.37
		c0.13,2.02,0.98,2.13,1.82,3.34c0.95,1.36,0.94,1.74,2.16,3.28c0.81,1.02,1.77,1.89,2.36,2.77c-0.79,1.08-5.18,3.81-6.87,5.82
		c-0.81,0.96-5.11,7.1-5.22,7.18v-3.02l-0.65-0.87l-0.3-5.2c0.11-0.52,0.34-0.51,0.34-1.19v-0.6c0-1.05-0.6-0.46-0.6-1.51
		c0-1.65,1.51-2.58,1.51-4.23c0-3.16,0.94-3.12,0.91-5.73c-0.03-3.31,0.45-3.52,2.41-4.84v-1.81c0.44-0.65,0.91-1.01,0.91-2.12
		C125.7,14.03,125.47,13.9,125.43,12.98L125.43,12.98L125.43,12.98z M47.11,77.94c0-3.37,2.29-10.04,5.14-10.27
		c0,4.28,3.27,11.73,4.94,14.7c1.37,2.45,2.09,4.02,3.64,6.33c0.87,1.29,3.54,4.7,3.81,5.86l-3.92,0.37
		c-3.23,0.28-8.13-3.95-9.37-5.81l0.38-2.41l-0.07-1.52c0-1.53-2.49-3.88-4.53-3.93V77.94z"/>
	<path id="path3147" class="st2" d="M68.88,121.75c0,0.27,5.29,9.74,5.95,10.98c2.1,3.96,3.26,7.99,5.14,12.09
		c2.26,4.93,6.45,21.1,6.45,28.01v10.88c0,5.78-0.17,13.48-1.08,18.56c-2.17,12.08-6.61,23.42-10.71,34.63
		c0.75,1.12,8.36,3.24,10.23,3.97c3.49,1.37,6.63,2.96,10.14,4.37c6.01,2.41,12.59,7.52,17.77,10.94
		c3.65,2.41,12.29,10.36,14.87,13.84c1.95,2.62,4.19,5.13,6.31,7.9c1.04,1.37,5.3,7.5,5.66,8.85c0.89-0.59,4.53-6.98,5.69-8.51
		c2.08-2.76,3.95-5.41,6.33-7.87c5.06-5.24,8.69-9.3,14.62-13.78c4.76-3.6,11.93-8.43,17.52-10.89c3.39-1.49,6.02-2.95,9.82-4.38
		c1.33-0.5,9.96-3.81,10.69-3.81h0.91c-2.68-9.27-8.56-20.87-10.35-31.35c-0.88-5.12-1.74-13.55-1.74-19.42v-12.09
		c0-8.52,3.66-22.8,6.17-29.19c1.77-4.51,3.41-8.27,5.37-12.47c0.59-1.26,6.3-11.47,6.3-11.53c0-0.21-10.88-6.38-12.03-7.01
		c-1.94-1.07-11.31-6.56-12.75-6.59c-0.45,1.93-5.14,9.22-6.44,12.29l-5.34,13.39c-23.1-5.53-46.05-5.19-68.9,0
		c-3.17-9.18-7.17-17.76-12.09-25.69c-0.62,0.05-11.48,5.83-12.51,6.53C79.16,115.52,68.88,120.61,68.88,121.75L68.88,121.75z"/>
	<path id="path3149" class="st1" d="M93.36,189.14v1.81c0,23.95,20.68,45.63,44.42,45.63h7.25c3.89,0,13.16-3.41,15.92-4.94
		c5.43-3.01,7.75-4.68,11.96-8.89c5.65-5.65,13.22-17.84,13.22-28.78v-3.32c0-14.18-5.49-24.99-12.62-32.11
		c-4.25-4.24-7.17-6.67-12.71-9.65c-3.48-1.87-12.39-4.78-17.58-4.78h-6.04c-12.47,0-24.21,7.5-30.6,13.83
		C100.17,164.28,93.36,176.53,93.36,189.14L93.36,189.14z"/>
	<path id="path3151" class="st2" d="M98.5,179.17v0.91h5.74c1.04,0,2.25-3.78,2.72-4.83c0.8-1.77,1.6-3.31,2.66-4.9
		c1.56-2.34,5.13-6.6,7.31-8.1c5.98-4.14,12.5-8.15,22.67-8.15c6.64,0,14.58,2.33,18.56,5.01c2.54,1.71,11.97,8.91,11.97,11.91
		c0,0.51-4.8,3.33-5.74,3.33c-0.57,0-9.02-13.9-25.38-13.9h-0.6c-6.86,0-12.93,3.12-16.92,6.04c-2.8,2.05-9.37,9.11-9.37,13.6h6.74
		c0.19-0.61,5.64-11.1,15.01-11.79v5.44c-1.59,0.66-5.9,3.53-7.25,6.35h15.72v-12.69c3.9,0,14.41,3.59,18.81,10.84l-4.21,1.9
		l24.09-0.05c0-7.11-8.97-18.77-13.24-22.12c-3.1-2.42-6.8-5.22-10.75-6.78c-3.67-1.45-9.56-3.44-14.39-3.44h-5.44
		c-9.35,0-20.04,5.54-25.01,10.05c-3.63,3.29-5.39,5.22-8.29,9.23C102.71,168.65,98.5,176.95,98.5,179.17L98.5,179.17z"/>
	<path id="path3153" class="st2" d="M114.21,111.17c0.09,1.05,3.06,5.24,3.81,6.47c1.33,2.19,2.29,5.41,3.37,7.15l0.38,2.11
		l17.83-1.22l1.83-0.22l16,1.43c0.47-1.77,2.6-6.69,3.53-8.26c0.71-1.2,4.52-7.04,4.63-7.46c-3.61-0.3-12.02-7.02-12.39-11.48
		c-3.09,0.72-5.2,4.83-12.39,4.83h-2.12c-3.04,0-4.89-0.88-6.95-1.81c-1.58-0.71-5.02-3.21-5.44-3.33
		C126.3,104.32,118.08,110.14,114.21,111.17z"/>
	<path id="path3155" class="st2" d="M135.67,232.96c11.33,0,20.25-1.71,29.92-8.45c4.09-2.86,12.35-12.18,13.59-17.53h-21.46
		c-0.08,0-5.75,3.78-6.85,4.33c-0.86,0.44-8.56,3.38-8.56,1.11v-5.44h-6.95v4.83c0,2.16-5.65-0.7-6.47-1.08
		c-1.29-0.61-5.31-3.75-5.61-3.75h-8.16c0.24,2.88,7.1,7.76,9.43,9.31c3.4,2.26,9.15,3.98,14.75,3.98c5.3,0,10.94-1.8,14.27-3.87
		c2.07-1.29,3.43-2.21,5.2-3.87c0.63-0.6,4.29-4.65,4.41-4.65c1.09,0,5.74,2.53,5.74,3.63c0,2.06-7.58,7.96-9.49,9.25
		c-1.69,1.13-4.14,2.43-6.13,3.23c-3.51,1.41-7.24,2.29-10.97,2.63h-1.81c-8.92,0-14.61-2.46-20.24-5.75
		c-3.55-2.08-11.41-9.64-12.4-13.89h-7.25C101.45,218.84,123.72,232.96,135.67,232.96z"/>
	<path id="path3157" class="st3" d="M179.79,34.41l-3.02-0.3c-0.92,0.62-1.32,1.31-2.44,1.49c-2.09,0.35-1.31,0.07-2.62,1.31
		c-1.09,1.02-1.52,0.61-2.61,1.32c-0.64,0.42-1.33,1.4-1.93,2c-0.91,0.92-1.51,1.1-2.19,1.74c-0.75,0.71-0.41,1.2-1.58,2.34
		c-0.79,0.77-3.55,3.49-3.55,4.6c0,1.18,0.46,0.03,0.6,1.81c1.34-0.36,5.65-4.87,7.25-6.04c1.55-1.14,2.29-1.54,4.05-2.6
		c2.17-1.31,1.9-2.99,3.78-3.16l-0.89,1.82c1.21-0.1,2.43-0.78,3.64-0.73l4.77,0.62l4-1.69l-3.25,2.41l0.22,0.29
		c2.08,0.48,6.43,5,6.95,6.95l0.22-0.33l3.85,2.53l-0.22,0.35l-3.01-1.63l0.68,4.82c0.25,1.58-0.75,1.73-0.12,3.43
		c0.48,1.32,0.98,1.09,0.94,2.97l-1.49-2.05l-0.01,0.32l-3.83,6.1l-0.38-0.23l3.04-6.19l-0.34-0.25l-5.37,3.14
		c1.22-1.82,6.35-4.71,6.35-5.44v-2.42c0-1.84-0.57-2.76-0.91-4.23c-3.03,2.03-4.95,6.92-6.34,7.86l-0.3-0.19l5.74-8.88
		c-0.92-1.73-4.07-5.55-6.4-5.75l-0.55,7.26c-0.45-0.71-0.6-1.53-0.6-2.72l-0.07-1.22l0.37-3.92c-0.59-0.32-0.89-0.6-1.81-0.6h-2.11
		c-1.73,0-2.16,0.48-3.63,0.6l-0.29,0.14l2.16,4.88l-3.08-4.41c-3.35,1.61-10.5,6.67-12.01,9.66l0.53,2.73
		c1.92-0.51,7.38-6.65,10.88-6.65h0.61c1.73,0,2.26,1.43,4.53,1.51c1.86,0.07,3.63,1.36,3.63,2.72v1.21c0,1.11-0.91,0.7-0.91,1.81
		v2.72h0.61v1.51c0,0.81-0.43,0.89-0.91,1.21c-0.68-0.16-0.69-0.3-1.51-0.3c-1.23,0-2.42,1.21-3.32,1.81h-4.23
		c-0.17,0.24-0.61,0.74-0.61,0.91c0,1.95,5.74,5.28,6.35,7.01l5.43-0.37c1.59-0.13,2.45,0.91,3.32,0.91c1.54,0,3.28-2.05,3.93-3.02
		l1.82,0l1.51-2.42h1.51c1.32,0,2.08-1.87,2.12-3.32c2.83-0.66,2.74-0.76,2.72-4.23c-0.02-2.98,0.91-4.78,0.91-6.04v-0.6
		c0-0.73-0.49-0.89-0.91-1.51V46.8c-1.89-2.81-1.19-0.7-2.53-4.72c-0.35-1.06-2.19-4.04-3.52-4.04h-1.51
		c-0.42-1.59-1.25-2.42-3.26-2.49l-1.6-1.28l-5.42-0.77C180.78,33.4,180.11,34.46,179.79,34.41L179.79,34.41z"/>
	<path id="path3159" class="st3" d="M171.33,4.5c-1.35,0.9-1.27,1.46-3.11,2.33c-2.07,0.97-2.09-0.37-3.93,1.51
		c-1.39,1.43-0.71,1.65-3.12,2.32c-1.47,0.41-2.5,1.17-2.54,2.9c-4.81,1.12-0.44,2.53-5.14,3.63v2.72c0,1.29-0.49,1.84-1.51,2.12
		v2.42c0,1.58-0.61,1.75-0.61,3.02c0,1.97-0.09,7.74,0.91,8.47l0.9-4.23h0.6v-0.91c0-2.62,3.02-4.7,3.1-10.25l1.47-3.35l-0.34,2.71
		v1.51c0.62-0.23,3.09-3.11,3.72-3.84c1-1.16,1.21-4.19,2.6-5.24l-0.88,3.63c2.3-1.21,4.42-3.55,7.66-3.84l3.29-3.05l0.22,0.24
		l-1.8,2.73h3.63c2.23,0,3,0.91,4.84,0.91c1.1,0,3.69-1.21,6.35-1.21l-0.03,0.47l-3.86,0.75l-0.2,0.99l6.4,4.14l-0.22,0.35
		l-6.74-3.98l-0.4,0.45l3.55,5.91c-3.8-2.55-3.74-7.86-9.67-7.86h-2.72c0.18,2.15,3.21,3.31,4.23,4.84
		c-2.06-0.48-5.96-4.23-6.35-4.23c-2.53,0-6.85,2.55-7.86,3.93h4.53c-1.7,1.18-3.68,0.17-5.7,0.96c-0.81,0.32-2.81,2.62-3.07,3.58
		h2.42c-1.61,2.2-3.41-0.45-5.86,5.62c-0.68,1.69-2.38,7.8-2.82,8.59l-0.47,2.51l1.91,1.41c0.45-1.92,1.51-2.62,2.32-4.33
		c1.27-2.67,0.63-2.87,1.01-5.94c0.18-1.46,2.05-2.59,2.96-3.99c1.46-2.24,1.48-2.06,4.99-1.96l2.62-2.51l1.83,0.01l0.28-0.91h5.44
		c1.91,0,2.21,1.7,3.91,2.44c1.73,0.75,3.76-0.32,5.39,0.96c0.54,0.42,0.95,1.09,1.51,1.51c1.04,0.77,1.21,0.21,2.29,1.03
		c1.23,0.93,1.89,3.73,2.92,3.73h0.91c0.68,0,4-3.8,4.04-4.25l-0.71-4.82c-0.12-0.76,0.91-1.54,0.91-1.81c0-2.5-2.12-2.31-2.1-5.76
		l-2.13-1.19c-0.15-1.81-1-3.88-2.91-4.02l-1.93-1.95l-3.01-0.38l0.01-1.28l-4.85-0.53V3.29h-3.32
		C175.49,3.29,175.16,4.5,171.33,4.5z"/>
	<path id="path3161" class="st3" d="M146.24-9.41c-3.46,0-2.28,0.51-4.23,1.81h-3.02c-1.39,0.93-1.81,2.93-3.13,3.52
		c-4.06,1.84-1.1,1.68-3.82,3.13l-0.31,3.32c-0.64,0.43-1.51,0.66-1.51,1.51v5.14c-0.91,0.21-1.81,0.17-1.81,1.21v0.91
		c0,1.65,0.61,1.68,0.61,3.32v0.61c0,2.04-1.68,1.87-1.09,5.02c0.41,2.2-0.33,4.1,0.86,5.49c1.41,1.64,1.2,2.36,2.57,3.77
		c1.04,1.07,1.97,2.5,3.09,3.25c0-3.67-1.5-7.14-1.52-10.26c-0.04-4.9-2.31-5.11-2.41-9.38c1.02,1.17,0.98,3.6,2.72,4.23
		c0-1.97,0.88-5.16,0.8-5.63c-0.41-2.47-0.8-2.3-0.8-5.86l0.02,0.1l1.45,4.25l0.34-0.12c0.59-2.54,2.66-4.08,3.88-6.09
		c1.13-1.87,1.52-5.35,3.34-6.61l-1.18,4.24c1.79-1.2,3.53-2.18,4.91-3.85c1.06-1.28,3.3-3.29,5.06-3.7
		c-0.88,1.32-2.56,1.44-2.73,3.28l5.45-0.87v0.3c-1.75,0-5.38,0.78-5.73,2.07l5.13,0.65v0.3c-1.68,0-6.14-0.22-7.51,0.05
		c-1.08,0.21-3.87,2.33-3.97,3.52l4.83,0.36V4.2h-5.74c-1.41,0-4.69,5.19-4.75,7.21l4.75-1.47c-2.21,3.01-6.65-0.12-6.5,7.75
		l4.99-3.82c-0.53,2.26-5.14,4.9-5.14,6.04v3.02c0,2.26,1.3,6.21,1.55,8.89l2.68-0.73v-2.11c0-1.48,1.44-3.98,2.02-5.23
		c0.44-0.94,0.45-1.96,0.94-2.69c0.4-0.61,1.08-1.32,1.57-2.06c0-5,1.65-2.36,3.28-4.88c0.66-1.03,0.4-1.63,1.49-2.44
		c1.6-1.19,0.98-0.03,2.21-2.02c0.57-0.93,1.18-0.45,2.41-1.51c0.6-0.51,1.7-1.6,2.34-1.89c2.23-1.02,2.9-1.76,6.4-1.76l0.01-0.67
		l3.26,0.36l0.35-2.41c0.5-2.94-2.15-5.15-3.74-6.23c-1.39-0.95-1.62-0.37-3.13-1.71c-0.42-0.37-2.5-2.38-2.81-2.38l-2.41,0.35
		v-1.21c-0.81-0.19-0.57-0.3-1.21-0.3c-0.82,0-0.83,0.14-1.51,0.3c-0.21-0.11-1.48-0.91-1.51-0.91
		C147.25-10.31,146.9-9.84,146.24-9.41L146.24-9.41z"/>
	<path id="path3163" class="st3" d="M115.12-4.57c-3.2,0-2.8-0.01-3.93,2.12h-1.81c-1.17,0.78-3.89,2.33-3.97,3.79l-2.38,0.74v4.53
		c0,1.2-1.51,1.07-1.51,3.02v3.32c-0.85,0.07-1.21-0.01-1.21,0.91v1.21c0,1,0.6,0.63,0.6,1.21c0,1.61-1.21,2.02-1.21,3.63
		c0,0.84,0.65,0.81,0.86,1.86c0.17,0.83-0.05,1.64,0.16,2.57c0.33,1.48,1.02,3.01,1.51,4.1l1.05,3.37l0.35-0.11v2.42
		c0,1.24,2.28,2.16,3.21,2.83c1.18,0.86,1.21,2.09,2.95,3.39c1.04,0.78,6.68,4.78,7.44,4.95c-0.02-0.25-3.68-7.13-4.1-7.68
		c-0.96-1.26-6.03-3.96-6.42-5.69l4.87,3.13l0.21-0.33c-0.71-3.04-0.98-4.8-3.08-6.59c-1.25-1.06-4.05-3.89-4.47-5.5l5.44,4.54
		c0-0.9-0.31-6.57-0.49-7.06c-0.73-1.98-1.63-3.04-1.52-5.98l2.01,3.68c1.37-5.9,1.21-5.76,1.21-12.69h0.3l0,2.41l1.33,0.22l3.83-7
		l0.3,0.16l-3.53,7.15l0.42,0.39l4-3.01c-2.48,4.68-6.95,3.39-6.95,12.09l0.21,1.09l5.23-5.93c-0.64,2.73-5.44,6.96-5.44,8.46
		l-0.07,0.91l0.37,5.13c2.18-0.58,3.1-4.47,4.84-5.74c-0.19,2.23-4.23,7.21-4.23,7.25c0,1.76,0.93,4.53,1.51,5.74
		c1.67-0.45,2.21-3.86,3.32-5.14c0,3.51-2.11,5.51-2.11,7.56c0,1.4,4.55,8.26,5.8,9.06l-0.67-10.57c-0.07-0.92-0.6-1.02-0.6-1.81
		c0-0.54,0.73-1.74,1.02-2.31c1-1.96,0.19-1.25,0.19-2.53c0-1.73,1.23-2.62,1.2-5.75c-0.02-2.45,0.99-3.57,2.42-4.53
		c0-2.2,0.91-2.27,0.91-3.33c0-1-0.6-0.63-0.6-1.21c0-1.24,3.32-5.9,3.32-7.25l-0.15-1.82l0.46-5.43v-0.6
		c0-1.11-1.03-0.78-2.12-1.51c0-1.25,0.37-2.42-0.91-2.42c-1.53,0-1.61,0.49-3.02,0.61c-0.03-1.2-0.35-2.42-1.51-2.42h-0.61
		C119.13-6.99,115.51-4.83,115.12-4.57L115.12-4.57z"/>
	<path id="path3165" class="st2" d="M104.84,189.14c0,9.43,4.51,21.52,11.86,27.72c5.3,4.48,13.21,8.54,22.89,8.54
		c7.13,0,12.22-1.82,16.93-4.23c2.81-1.44,10.49-7.03,11.18-9.98l-3.93-2.11c-0.63,0-3.17,3.34-3.85,4.01
		c-1.2,1.19-3.22,2.58-4.61,3.55c-7.75,5.45-18.41,5.77-26.94,2.76c-1.69-0.59-3.2-1.38-4.67-2.28c-2.63-1.61-5.7-4-7.5-6.41
		c-4.01-5.35-7.43-10.81-7.43-20.06c0-10.08,3.6-16.1,8.27-21.65c3.39-4.03,12.97-9.78,20.13-9.78h3.02c5.11,0,11.44,2.47,14.5,4.53
		c1.89,1.27,3.88,2.51,5.52,4.14c0.63,0.63,4.17,5.22,4.45,5.22c0.41,0,3.93-2.08,3.93-2.42c0-2.37-8.89-9.47-11.32-10.73
		c-4.77-2.49-10.31-4.68-17.38-4.68c-9.33,0-17.24,3.59-22.29,7.93c-2.95,2.54-4.99,4.58-7.21,7.91c-1.2,1.8-1.66,3-2.58,4.97
		C105.68,180.64,105.24,184.17,104.84,189.14L104.84,189.14z"/>
	<path id="path3167" class="st3" d="M91.87,40.33c-1.5,0.82-5.41,2.57-5.95,4.18c-0.78,2.31-1.7,1.06-2.84,2.3
		c-1.06,1.15-0.43,1.7-2.41,3.03v1.81c-0.52,0.35-1.21,0.66-1.21,1.51v1.21c0,1.32,0.91,1.82,0.91,3.32c0,1-0.78,2.72-1.51,3.02
		v1.21c0,1.26,1.22,0.94,1.83,2.1c1.14,2.19-0.75,0.85,1.9,2.33c1.1,0.61,0.72,1.57,1.24,2.69c0.46,1,1.45,0.97,2.41,1.82
		c1.99,1.74,1.28,2.71,4.2,3.96c1.12,0.48,5.09,2.21,6.26,2.21h0.6c1.48,0,4.23-0.69,4.23-1.81c0-1.79-0.8-2.56-1.51-3.63
		c0-2.1-0.11-3.17-1.81-3.63v-2.12c0-2.29,1.81-1.93,1.81-5.44c1.17-1.75,6.42-8.16,8.76-8.16c0.92,0,2.49,0.58,4.85,0.59
		c3.09,0.02,1.98,1.31,3.86,1.81l0.36-1.49c-1.61-2.41-5.22-6.2-8.46-6.96l-3.63,3.9l-0.29-0.27l2.14-3.74l-0.33-0.18h-3.32
		c-0.82,0-0.83,0.14-1.51,0.3v2.12c0,2.58-1.04,3.12-1.21,5.14h-0.6l0.27-7.31l-3.9,1.87v5.14c0,1.49-0.3,2.98-0.91,3.93v-7.86
		c-1.27,0.34-5.14,4.87-5.14,5.74c0,0.55,1.51,3.08,1.43,5.77l-1.74-4.67l-0.32,0.1l-1.13,2.13l-0.36,5.13
		c-0.07,0.83,0.87,2.24,0.91,3.93c-0.83-0.61-1.81-3.96-1.81-5.44V60.4c0-1.47,0.77-2.87,0.91-4.53l-0.17-0.26l-3.75,2.38
		c1.42-2.12,2.99-2.87,5.03-4.34c0.92-0.67,3.7-4.08,4.34-5.03l-0.12-0.36l-8.34,2.78c1.12-1.53,7.86-3.93,10.83-4.04l3.68-1.4
		c-0.91-1.25-4.23-0.91-6.35-0.91c0.65-0.45,1-0.6,2.12-0.6l2.4,0.13l6.36,0.47h1.51c1.24,0,1.3,0.6,3.63,0.6
		c-1.11-1.65-8.81-5.74-11.18-5.74l-1.81,0.03L91.87,40.33L91.87,40.33z"/>
	<path id="path3169" class="st1" d="M116.93,75.51c2.35,3.5,15.37,11.18,21.46,11.18h3.02c6.07,0,18.82-7.69,21.15-11.18
		C154.86,64.02,124.6,64.06,116.93,75.51z"/>
	<path id="path3171" class="st1" d="M119.05,112.99c0,0.08,4.98,8.4,5.13,10.26l14.21-0.89l6.36-0.09l10.4,0.91l5.61-10.49
		c-0.18-0.24-4.2-2.94-4.96-3.5c-0.87-0.64-4.26-4.36-4.41-4.36c-1.03,0-6.26,3.02-10.57,3.02h-1.81c-4.68,0-9.66-3.02-10.58-3.02
		c-0.85,0-3.57,3.58-4.47,4.29C122.9,109.93,119.05,111.98,119.05,112.99L119.05,112.99z"/>
	<path id="path3173" class="st4" d="M49.24,169.2c0,1.57,3.31,8.23,4.02,9.88c1.38,3.21,3.29,6.13,5.33,8.57
		c1.95,2.33,4.54,5.2,7.28,6.62c0.99,0.51,1.03,0.89,1.87,1.45c0.87,0.58,1.31,0.34,2.49,1.14c0.67,0.46,4.43,1.65,5.31,1.65h0.91
		v0.6h2.42c-0.19-1.71-1.26-1.1-2.26-1.97c-0.49-0.43-1.93-1.96-2.57-1.96H71.6v-0.61h-1.21v-0.6l1.4-0.18l-2.91-3.45
		c-2.13,0-6.55-1.22-6.94-2.75l3.01,0.64v0.6l1.42-0.19l-4.74-5.55c-1.89-0.04-5.35-1.87-5.78-3.24l3.66,1.43v-0.6h0.6v-1.21
		c0-1.04-0.22-1.17-0.3-2.12l0.35-0.12l1.77,5.15l-0.31,0.11c1.6,1.07,2.94,4.35,5.14,4.53v-0.91c0-1.04-0.22-1.17-0.3-2.11
		l0.52,0.03l0.99,2.5l0.3-0.12c0,3,1.81,5.84,4.3,6.03l-0.38-2.41c0.97,0.26,1.81,1.51,1.81,2.72v0.91
		c0.37,0.15,2.27,1.99,3.41,2.64c1.24,0.71,2.33,1.84,3.85,2.2c-2.32-7.75-12.48-19.43-18.25-24.36c-0.68-0.59-1.04-1.18-1.83-1.5
		c-1.7-0.7-1.02-0.68-2.05-1.28c-2.36-1.37-6.39-3.39-9.91-3.39L49.24,169.2L49.24,169.2z"/>
	<path id="path3175" class="st4" d="M207.93,182.83c-1.6,2.64-3.62,4.75-5.23,7.46c-1.02,1.71-4.07,6.49-4.47,8.22
		c1.1-0.29,4.29-2.4,5.3-3.16c2.91-2.18,1.63-3.66,3.46-5v2.12c1.06-0.25,3.41-2.07,3.71-3.25c0.58-2.32,1.28-3.26,1.73-5.22
		l0.71,0.02l-0.71,3.91l0.45-0.15l4.07-4.42l-0.27-0.2l1.19-0.37c0-2.81,0.79-4.95,2.36-6.06l-0.82,3.97l3.44-4.09l0.33,0.26
		l-2.88,3.88l2.71-0.38c-1.49,2.22-4.04,2.1-5.22,3.24c-1.39,1.35-3,3.17-3.84,4.91l2.72-0.29c-0.35,0.97-3.6,2.12-4.83,2.12
		l-0.75,0.17l-2.49,2.32l0.21,0.23h-0.91v0.61h3.32c-1.21,1.66-4.19,0.84-6.18,1.98c-0.64,0.37-4.47,3.14-4.7,3.46l0.08,0.32
		c10.97,1.06,29.74-20.13,29.84-31.44l-0.11-0.32C222,170.31,212.59,175.18,207.93,182.83z"/>
	<path id="path3177" class="st4" d="M197.32,178.26l0.16,1.43l4.44-3.17l3.3-3.46l1.43-4.86l0.34,0.1l0.14,2.62l4.37-4.89l0.64-3.73
		l0.24,2.75l6.87-7.68l-6.74,8.65l1.93,0.05l-2.79,1.05l-2,2.57l-1.45,2.25h2.12c-0.38,0.72-1.78,1.81-2.72,1.81h-1.81
		c-0.69,2.57-5.9,4.68-6.25,6.57l8.67-3.55c0.26-0.97,4.13-2.87,5.12-3.65c1.14-0.91,3.43-3.33,4.21-4.55
		c0.74-1.15,0.99-0.92,1.76-2.47c0.51-1.02,1.08-1.88,1.6-2.93c2.47-4.93,3.02-8.86,3.02-14.21c-3.32,0.28-13.65,9.58-15.66,12.14
		c-2.19,2.79-3.88,4.91-5.92,7.98C201.69,170.05,197.32,177.69,197.32,178.26L197.32,178.26z"/>
	<path id="path3179" class="st2" d="M143.22,212.41c6.27-0.14,13.65-5.68,16.32-9.67c-0.31-0.42-2.42-1.81-3.02-1.81
		c-0.89,0-3.04,3.01-4.32,3.84c-0.58,0.37-5.04,3.74-5.04,1.3v-11.79c0-0.7,0.21-0.91,0.91-0.91h8.76v-3.32h-8.76
		c-0.69,0-0.91-0.21-0.91-0.91v-15.41c3.97,0.47,8.44,4.53,9.07,5.74l3.54-1.61c-1.73-4.15-11.26-9.14-16.53-9.58V212.41
		L143.22,212.41z"/>
	<path id="path3181" class="st4" d="M55.58,151.07c0,4.06,1.56,8.96,2.83,11.98c1.87,4.46,5.67,8.65,9.56,11.29
		c1.47,1,2.28,1.6,3.96,2.39c2.91,1.37,5.6,2.86,9.03,3.66c-0.58-0.87-4.03-3.36-5.17-4.5c-1.52-1.51-3.94-3.14-6.61-3.36v-0.6h2.11
		l0.27-0.23l-2.09-2.45l-0.3,0.26c-0.22-2.61-4.79-1.91-6.04-3.63h3.32c-0.54-2.05-3.66-5.84-6.04-6.04v-0.6h1.51l0-0.91l1.1,0.57
		l0.71-1.48v3.33c1.48,0.6,1.46,3.86,4.23,3.93v-2.42l0.63,0l0.21,5.2l3.4,3.82l0.29-0.26l0.18-2.8l1.34,2.2v2.42
		c0,1.02,7.2,6.84,8.77,7.25c-1.25-5.33-7.74-14.55-10.87-18.44c-2.42-2.99-12.44-12.08-16.33-12.99L55.58,151.07L55.58,151.07z"/>
	<path id="path3183" class="st2" d="M117.53,189.74v2.42c0,8.53,9.26,18.7,16.92,19.34v-21.46h-6.94v3.32h2.11
		c0.7,0,0.91,0.21,0.91,0.91v10.88c-3.83-0.08-9.06-8.66-9.06-12.99v-3.63c0-2.99,2.56-7.51,3.98-9.31
		c1.05-1.33,1.98-2.23,3.39-3.26c0.89-0.65,2.16-1.92,3.81-2.84v-3.63C125.44,171.18,117.53,180.44,117.53,189.74L117.53,189.74z"/>
	<path id="path3185" class="st4" d="M200.94,214.83l3.63-2.42c4.54,0,2.93-4.39,5.75-5.14l-0.91,2.72c1.6-0.37,2.09-1.44,3.33-2.11
		c2.22-1.2,0.5-2.14,2.11-3.33v1.21c2.12-0.05,2.63-1.55,3.81-2.45l0.73-2.09v1.51h0.61v0.61h1.51v0.3c-2.15,0-5.33,2.09-5.74,3.63
		l1.52,0.01l-0.62,0.89h-1.82c-2.28,0-2.84,2.05-4.23,2.42l-0.03,0.38l3.71,0.48l-6.63,1.07l-5.95,3.2l-0.16,0.31
		c0.49,0,0.98-0.01,1.47-0.02c9.92-0.24,18.95-3.23,25.73-21.14h-3.93c-3.36,0-6.51,0.92-8.64,2.24c-1.44,0.89-2.02,1.35-3.26,2.18
		c-2.14,1.43-1.47,1.4-2.85,2.59c-1.92,1.66-3.94,3.41-5.26,5.63c-0.61,1.02-1.09,2.66-1.78,3.66
		C202.16,212.43,201.44,212.69,200.94,214.83L200.94,214.83z"/>
	<path id="path3187" class="st4" d="M50.75,195.49c0,3.38,5.57,11.54,8.44,13.93c3.17,2.64,7.79,6.63,12.11,6.63h6.65l-0.11-0.4
		l-6.24-3.23c-2.29,0-4.8-0.13-6.04-1.21h3.63v-0.6c-1.15-0.13-2.1-1.47-3.11-2.03c-0.16-0.09-3.77-0.9-4.15-0.99l0.01-0.67
		l2.1,0.37v-0.6c-2.28-0.61-2.61-2.79-5.47-3.19l1-0.2l-2.07-2.49l2.61,1.94v-1.51h0.6v1.51c0,1.03,3.17,3.38,4.23,3.63v-1.21
		c1.14,1.31,0.37,1.51,1.97,2.87c0.92,0.78,2.14,1.43,3.28,1.92l-1-3l1.79,1.23c0.15,1.83,1.38,3.38,2.93,4.02
		c1.92,0.81,2.62,2.15,4.63,2.32c-1.53-3.19-3.3-5.79-5.19-8.71c-3.67-5.67-10.77-10.93-17.78-10.93h-3.93
		C51.16,194.88,50.75,195.07,50.75,195.49z"/>
	<path id="path3189" class="st0" d="M196.11,83.07L195.8,87v2.42c0,6.79,7.77,15.71,13.9,15.71h2.12c2.21,0,4.83-2.17,4.83-3.93
		v-1.81h1.51c1.74,0,2.74,1.51,4.23,1.51h0.3c0.5,0,0.91-0.18,0.91-0.6c0-0.77-1.03-1.39-1.51-2.12c-8.48,0-20.36-9.33-22.06-15.72
		h-1.51C197.45,82.46,196.81,82.72,196.11,83.07z"/>
	<path id="path3191" class="st4" d="M100.97,101.81l-0.36,5.13v1.21c0,5.08,0.46,8.18,2.22,11.68c1.07,2.14,3.92,7.58,4.14,10.14
		l3.32-0.37c-0.15-6.6-3.4-3.91-4.53-8.16c0.48,0.25,1.37,0.91,1.81,0.91h0.91v-2.11h-0.6v-2.12c0-1.16-1.76-1.79-2.9-1.91l-1.35-2
		l3.03,0.88c-0.1-4.43-1.59-3.91-2.72-6.04c0.36,0.1,0.82,0.3,0.91,0.3c1.37,0,1.38-1.11,2.42-1.81c0,1.85-0.6,2.31-0.6,3.93
		c0,1.28,0.78,2.15,1.09,3.81l2.29-2.29l-0.35,2.41c-1.08,0.29-1.21,1.03-1.21,2.42v0.91h0.6v1.21c0,1.04,0.23,1.17,0.3,2.12h0.91
		v-0.91h1.21v0.91c0,1.22-0.91,2.06-0.91,2.42c0,1.46,0.44,3.26,0.91,4.23l1.15-0.01l0.36-4.83c0.53-5.97-1.48-11.4-3.06-15.38
		c-0.9-2.27-5.91-9.8-8.12-10.31C101.54,99.39,101.28,100.6,100.97,101.81L100.97,101.81z"/>
	<path id="path3193" class="st4" d="M167.4,114.8v1.51l-0.55,0.01l-0.36,5.13l0.02,6.91l1.8,0.65c0.28-1.18,0.91-2.94,0.91-4.23
		c0-1.13-1.21-0.91-1.16-4.27l1.52,1.6l1.15-0.96v-1.51c0-1.64,0.67-2.19-0.24-3.39c-1.19-1.57-0.97-0.96-0.91-3.61l2.11,2.39
		l0.26-0.22c0.24-0.46,1.02-2,0.96-2.73l-0.66-5.13c1.17,0.86,0.41,2.11,1.81,2.11h1.51c-0.74,2.05-2.62,1.81-2.68,6.19l2.68-0.75
		v1.21c-0.55,0.05-3.31,1.66-3.5,1.94c-0.2,0.31-1.02,4.11-0.99,4.84l2.67-1.04c-0.33,1.42-1.71,3.19-3.36,3.32l-0.87,4.54h1.21v0.6
		h1.21c1.22,0,3.75-10.88,6.03-12.09l0.32-3.93h0.61v-9.37c0-2.27-0.91-3.47-0.91-6.04C174.62,98.56,167.4,111.27,167.4,114.8
		L167.4,114.8z"/>
	<path id="path3195" class="st2" d="M44.4,71.28c0,2.05-1.41,3.99-1.52,6.94c-0.05,1.38,0.07,2.87,0.03,4.26
		c-0.07,2.04-1.23,2.43-1.23,3.31V87c0,2.34,2.09,3.29,3.88,3.98c0.56,0.21,2.97,3.38,3.7,4.16c1.71,1.84,6.96,5.46,10.89,5.03
		l7.27-1.41l-2.45-3.22l-4.54,0.53h-0.3c-4.45,0-9-6.01-10.28-6.35c0.12-1.49,0.61-1.11,0.61-2.42v-1.51c0-2-2.17-3.58-4.23-3.63
		v-3.63c0-2.54,0.47-5.24,1.16-7c1.06-2.69,2.47-3.15,3.67-4.79c-0.21-0.11-1.48-0.91-1.51-0.91C47.17,65.84,45.7,70.76,44.4,71.28z
		"/>
	<path id="path3197" class="st4" d="M78.25,155.9c-0.19-0.73-3.1-3.1-3.98-3.58c-2.13-1.18-3.84-0.55-5.69-2.16h3.02
		c-0.08-0.99-2.76-4.23-3.63-4.23h-1.21v-0.6h-0.91c-1.05,0-0.42-0.54-1.81-0.91v-0.6c1.78,0.15,0.63,0.6,1.81,0.6h0.91
		c-0.87-3.25-4.63-4.69-5.74-6.35c0.81,0.19,0.57,0.3,1.21,0.3c0.69,0,0.35-0.1,1.21-0.3v-1.51l0.35-0.07l0.68,3.59l3.5,3.74v-2.72
		c1.05,0.77,1.21,2.75,1.25,4.49l3.28,3.06v-1.81c1.23,0.9,1.59,3.25,2.49,4.46c0.68,0.9,2.7,2.83,3.85,3.1
		c-0.1-1.24-4.62-8.87-5.51-9.9c-3.93-4.53-6.84-9.76-11.6-13.49c-1.35-1.06-4.34-3.47-5.56-4.11
		C56.56,138.46,65.46,154.75,78.25,155.9z"/>
	<path id="path3199" class="st4" d="M200.64,154.39l2.04-1.56l-0.22-0.25c2.37-0.2,3.44-3.35,3.93-5.44h0.61v1.51
		c0.99-0.27,2.46-1.83,3.09-2.65c1.35-1.75-0.44-3.22,1.44-4.6v2.42l0.26,0.22l3.36-4.15l0.04-2.98l0.87-0.65v1.81h2.72
		c-0.32,0.89-3.74,2.17-5.66,6.54l2.64-1.1c-0.49,1.84-2.84,1.92-4.42,2.83c-0.86,0.49-3.21,2.97-3.44,3.82h2.72
		c-1.51,1.32-3.58,0.88-5.07,1.88c-0.81,0.54-3.31,2.55-3.39,3.56h1.81c3.2,0,8.98-4.29,10.34-6.28c3.82-5.57,9-15.13,9-22.13
		c-1.87,0.16-5.5,4.27-6.91,5.48c-1.42,1.21-1.81,1.55-3.14,2.91c-1.26,1.28-1.75,2.31-2.82,3.52
		C208.47,141.32,200.88,151.54,200.64,154.39L200.64,154.39z"/>
	<path id="path3201" class="st2" d="M53.47,67.35v1.21c0,0.82,0.14,0.83,0.3,1.51l0.2,0.29l2.52-1.8c-0.16,1.93-1.21,3.39-1.21,5.74
		c0,0.82,0.14,0.83,0.3,1.51c2.29-0.05,1.49-1.09,3.02-2.12c0,2.21-0.91,3.23-0.91,5.44v0.6c0,0.93,0.28,1.81,1.21,1.81h0.3
		c1.46,0,1.61-2.21,2.72-3.02c-0.14,1.63-0.91,2.2-0.91,3.93v3.33c0,0.71,0.5,1.21,1.21,1.21h0.3c1.28,0,1.86-2.69,2.72-3.32
		c-0.16,1.93-1.21,3.39-1.21,5.74c0,0.7,0.34,1.81,0.91,1.81c1.16,0,1.24-0.17,1.51-0.91h0.61c0.07,0.85-0.01,1.21,0.9,1.21h0.3
		c1.31,0,0.93-0.48,2.42-0.6c-0.43-5.2-10.43-24.84-13.6-25.69C56.78,66.43,54.99,67.32,53.47,67.35z"/>
	<path id="path3203" class="st4" d="M109.07,104.22c0,1.37,2.52,4.46,3.08,6.78l3.57-1.64l-0.85-4.54l-0.23,0.23l-2.18-1.73
		l0.24-0.3h2.42v-1.21h1.21v0.91c0,1.07-0.91,0.91-0.91,1.51c0,1.67,0.57,3.1,0.91,4.53c1.1-0.09,3.63-1.82,3.63-2.72v-0.3
		c0-2.42-6.13-10.37-8.52-12.14C109.94,96.27,109.07,101.11,109.07,104.22z"/>
	<path id="path3205" class="st4" d="M159.84,105.73c0,1.14,0.2,0.57,0.34,1.74l3.29,1.28v-0.91c0-1.58,0.6-1.75,0.6-3.02
		c0-0.9-0.6-0.81-0.6-2.12v-0.91c1.35,0.49,0.23,0.91,1.51,0.91h0.91c0.82,0,0.83-0.14,1.51-0.3c-0.23,2.7-3.32,0.88-3.32,6.35
		c0,1.13,2.04,1.78,3.32,1.81c0.26-0.73,3.02-5.64,3.02-5.74c0-2.26-0.7-11.18-2.11-11.18C166.94,93.65,159.84,104.23,159.84,105.73
		L159.84,105.73z"/>
	<path id="path3207" class="st2" d="M216.36,90.02c0,0.31,6.47,7.67,7.33,8.38c2.49,2.09,6.41,4.91,10.8,4.91h0.31
		c2.01,0,4.83-1.66,4.83-3.32c0-1.37-1.44-3.02-2.72-3.02c-2.84,0-3.12,2.12-4.54,2.12h-1.81c-4.12,0-12.15-10.49-13.6-10.88
		C216.77,89.04,216.36,89.43,216.36,90.02z"/>
	<path id="path3209" class="st2" d="M188.85,80.05v1.51c0,0.9,1.1,1.21,1.81,1.21c3.32,0,5.72-1.51,7.86-1.51h2.72
		c3.39,0,8.52,4.41,9.89,4.49l0.99-2.38c-0.77-0.2-5.57-3.21-7.25-3.94c-1.54-0.67-7.37-1.81-9.68-1.81h-2.11
		C191.63,77.63,188.85,78.77,188.85,80.05L188.85,80.05z"/>
	<path id="path3211" class="st2" d="M136.88,39.55v5.14c0,1.35,1.36,4.53,3.02,4.53c1.56,0,3.02-3.94,3.02-5.74v-1.81
		c0-1.99-1.38-6.04-3.02-6.04h-0.3C138.45,35.62,136.88,39.03,136.88,39.55z"/>
	<path id="path3213" class="st2" d="M223.91,63.12l0.07,1.99l3.86,2.24c1.89-1.27,4.53-4.72,4.53-7.86c0-0.75-0.87-2.42-1.81-2.42
		h-1.51C226.81,57.08,225.25,62.58,223.91,63.12z"/>
	<path id="path3215" class="st2" d="M213.64,83.37c0,0.5,3.02,2.11,3.63,2.11c2.07,0,4.83-5.86,4.83-8.46
		c-1.29-0.3-2.9-1.81-3.93-1.81C217,75.21,213.64,81.01,213.64,83.37z"/>
	<path id="path3217" class="st2" d="M218.77,74.31c1.47,0.34,2.95,1.81,3.93,1.81c1.84,0,4.53-5.51,4.53-8.16
		c-1.19-0.1-3.51-1.81-3.63-1.81C221.96,66.15,218.77,71.88,218.77,74.31z"/>
	<path id="path3219" class="st2" d="M129.32,43.18v0.3c0,2.78,2.28,8.46,4.53,8.46h0.91c0.69,0,0.91-0.21,0.91-0.91
		C136.58,46.47,129.32,36.98,129.32,43.18L129.32,43.18z"/>
	<path id="path3221" class="st2" d="M144.13,48.92v2.12c0,0.71,0.5,1.21,1.21,1.21c2.04,0,5.14-6.26,5.14-9.06
		c0-1.1-0.36-1.06-0.61-2.12h-1.21C146.8,41.06,144.13,46.61,144.13,48.92L144.13,48.92z"/>
	<path id="path3223" class="st2" d="M76.44,88.85l-3.63,2.07c0.29,0.43,1.91,3.33,2.11,3.33c1.08,0,2.07-2.08,3.93-2.12v1.21h-0.61
		v1.21c0.68,0.16,0.7,0.3,1.51,0.3h0.6c0.7,0,1.51-0.81,1.51-1.51v-2.12c0-1.14-1.23-2.83-2.13-2.79L76.44,88.85L76.44,88.85z"/>
	<path id="path3225" class="st2" d="M49.24,61.31v0.61c0,0.85,1.26,1.81,2.11,1.81c2.42,0,5.44-0.71,5.44-3.02
		c0-1.72-1.59-3.02-3.32-3.02C51.2,57.68,49.24,59.16,49.24,61.31z"/>
	<path id="path3227" class="st2" d="M149.57,54.66v0.3c0,0.82,0.15,0.83,0.3,1.51h0.91c2.14,0,5.14-5.25,5.14-8.16v-0.3
		c0-0.58-0.54-1.21-0.91-1.21C152.77,46.8,149.57,52.07,149.57,54.66z"/>
	<path id="path3229" class="st2" d="M123.58,48.01v0.91c0,3.51,4.22,6.7,4.53,7.56h1.51c0.16-0.68,0.3-0.7,0.3-1.51
		c0-2.94-2.51-7.86-5.14-7.86h-0.3C123.79,47.11,123.58,47.32,123.58,48.01z"/>
	<path id="path3231" class="st2" d="M66.46,94.86c0,1.23,1.38,2.83,2.11,3.33c1.27-0.3,4.84-1.44,4.84-2.72v-1.21
		c0-0.59-1.35-2.42-1.81-2.42C69.89,91.83,66.46,93.4,66.46,94.86z"/>
	<path id="path3233" class="st2" d="M119.35,54.66c0,2.43,3.11,6.95,5.14,6.95c0.58,0,1.21-0.54,1.21-0.91
		c0-2.31-2.87-6.95-5.44-6.95C119.56,53.75,119.35,53.97,119.35,54.66L119.35,54.66z"/>
	<path id="path3235" class="st2" d="M154.1,60.1c0,0.82,0.14,0.83,0.3,1.51c3.21-0.07,5.74-4.33,5.74-7.86h-1.51
		C157.1,53.75,154.1,58.05,154.1,60.1z"/>
	<path id="path3237" class="st2" d="M46.22,55.87v0.6c0,0.83,1.63,2.42,2.11,2.42c1.19,0,1.26-1.76,3.63-1.81v-1.81
		c0-1-1.41-2.12-2.42-2.12C47.65,53.15,46.22,54.34,46.22,55.87z"/>
	<path id="path3239" class="st2" d="M209.1,91.23c0,1.24,2.42,2.62,3.55,2.68l1.89-3.89l-3.33-1.81
		C210.77,88.51,209.1,90.69,209.1,91.23z"/>
	<path id="path3241" class="st2" d="M148.36,180.08h6.04c-0.5-1.88-4-4.36-6.04-4.83V180.08z"/>
</g>
</svg>
