<?xml version="1.0" encoding="utf-8"?>
<!-- Generator: Adobe Illustrator 26.0.3, SVG Export Plug-In . SVG Version: 6.00 Build 0)  -->
<svg version="1.1" id="Capa_1" xmlns="http://www.w3.org/2000/svg" xmlns:xlink="http://www.w3.org/1999/xlink" x="0px" y="0px"
	 viewBox="0 0 200 200" style="enable-background:new 0 0 200 200;" xml:space="preserve">
<style type="text/css">
	.st0{fill:#FFFFFF;}
	.st1{fill:url(#SVGID_1_);}
	.st2{fill:none;stroke:#000000;stroke-width:2.6474;stroke-linecap:round;stroke-linejoin:round;stroke-miterlimit:10;}
	.st3{fill:none;stroke:#000000;stroke-width:1.9956;stroke-linecap:round;stroke-linejoin:round;stroke-miterlimit:10;}
	.st4{fill:none;stroke:#595959;stroke-width:0.692;stroke-linecap:round;stroke-linejoin:round;stroke-miterlimit:10;}
	.st5{fill:#0069B4;}
</style>
<g>
	<path class="st0" d="M61.29,38.74c-3.83,2.65-7.38,5.64-10.64,8.99c-3.27,3.35-6.2,6.99-8.78,10.91
		c-2.61,3.95-4.81,8.12-6.62,12.51c-3.77,9.12-5.65,18.68-5.65,28.67c0,9.99,1.88,19.55,5.65,28.67c1.81,4.39,4.02,8.56,6.62,12.51
		c2.59,3.92,5.52,7.56,8.78,10.9c3.26,3.35,6.81,6.35,10.64,8.99c3.86,2.68,7.93,4.94,12.21,6.8c8.9,3.86,18.23,5.79,27.98,5.79
		c9.75,0,19.08-1.93,27.98-5.79c4.28-1.85,8.35-4.12,12.21-6.8c3.83-2.65,7.37-5.64,10.64-8.99c3.27-3.35,6.19-6.98,8.78-10.9
		c2.61-3.95,4.82-8.12,6.63-12.51c3.77-9.13,5.65-18.69,5.65-28.67c0-9.99-1.88-19.55-5.65-28.67c-1.81-4.39-4.02-8.56-6.63-12.51
		c-2.58-3.92-5.51-7.56-8.78-10.91c-3.26-3.35-6.81-6.34-10.64-8.99c-3.86-2.67-7.93-4.94-12.21-6.79
		c-8.9-3.86-18.23-5.79-27.98-5.79c-9.75,0-19.08,1.93-27.98,5.79C69.22,33.8,65.14,36.07,61.29,38.74L61.29,38.74z"/>
	<radialGradient id="SVGID_1_" cx="100.2941" cy="99.8235" r="96.4792" gradientUnits="userSpaceOnUse">
		<stop  offset="0.2584" style="stop-color:#D3D2D2"/>
		<stop  offset="0.7865" style="stop-color:#D3D2D2"/>
		<stop  offset="1" style="stop-color:#BEBBBA"/>
	</radialGradient>
	<path class="st1" d="M193.65,80.14c-1.25-6.29-3.11-12.41-5.55-18.33c-2.4-5.81-5.33-11.34-8.79-16.58
		c-3.42-5.2-7.3-10.01-11.64-14.46c-4.34-4.44-9.04-8.42-14.11-11.93c-5.12-3.54-10.51-6.54-16.18-9c-5.77-2.5-11.74-4.4-17.89-5.69
		c-6.31-1.32-12.71-1.98-19.2-1.98c-6.5,0-12.9,0.66-19.2,1.98C74.94,5.44,68.98,7.34,63.2,9.84c-5.67,2.46-11.07,5.46-16.19,9
		c-5.07,3.51-9.77,7.49-14.11,11.93c-4.33,4.44-8.21,9.26-11.64,14.46c-3.46,5.24-6.39,10.77-8.79,16.58
		c-2.44,5.92-4.3,12.03-5.55,18.33C5.65,86.61,5,93.17,5,99.82c0,6.66,0.65,13.22,1.94,19.68c1.26,6.29,3.11,12.41,5.55,18.33
		c2.4,5.81,5.33,11.34,8.79,16.59c3.42,5.19,7.3,10.02,11.64,14.46c4.34,4.44,9.04,8.41,14.11,11.92c5.12,3.54,10.51,6.54,16.19,9
		c5.78,2.51,11.74,4.41,17.89,5.69c6.31,1.32,12.71,1.99,19.2,1.99c6.49,0,12.9-0.67,19.2-1.99c6.15-1.28,12.11-3.19,17.89-5.69
		c5.67-2.46,11.07-5.46,16.18-9c5.07-3.51,9.77-7.49,14.11-11.92c4.33-4.44,8.21-9.26,11.64-14.46c3.46-5.25,6.39-10.78,8.79-16.59
		c2.44-5.92,4.3-12.03,5.55-18.33c1.29-6.46,1.94-13.02,1.94-19.68C195.59,93.17,194.94,86.61,193.65,80.14z M167.71,128.5
		c-1.81,4.39-4.02,8.56-6.63,12.51c-2.59,3.92-5.52,7.56-8.78,10.9c-3.26,3.35-6.81,6.35-10.64,8.99c-3.86,2.68-7.93,4.94-12.21,6.8
		c-8.9,3.86-18.23,5.79-27.98,5.79c-9.75,0-19.08-1.93-27.98-5.79c-4.28-1.85-8.35-4.12-12.21-6.8c-3.83-2.65-7.38-5.64-10.64-8.99
		c-3.27-3.35-6.19-6.98-8.78-10.9c-2.61-3.95-4.81-8.12-6.62-12.51c-3.77-9.13-5.65-18.69-5.65-28.67c0-9.99,1.88-19.55,5.65-28.67
		c1.81-4.39,4.02-8.56,6.62-12.51c2.58-3.92,5.51-7.56,8.78-10.91c3.26-3.35,6.81-6.34,10.64-8.99c3.86-2.67,7.93-4.94,12.21-6.79
		c8.9-3.86,18.23-5.79,27.98-5.79c9.75,0,19.08,1.93,27.98,5.79c4.28,1.85,8.35,4.12,12.21,6.79c3.83,2.65,7.37,5.64,10.64,8.99
		c3.27,3.35,6.2,6.98,8.78,10.91c2.61,3.95,4.82,8.12,6.63,12.51c3.77,9.12,5.65,18.68,5.65,28.67
		C173.36,109.81,171.48,119.37,167.71,128.5z"/>
	<path class="st2" d="M188.1,61.81c-2.4-5.81-5.33-11.34-8.79-16.58c-3.42-5.2-7.3-10.01-11.64-14.46
		c-4.34-4.44-9.04-8.42-14.11-11.93c-5.12-3.54-10.51-6.54-16.18-9c-5.77-2.5-11.74-4.4-17.89-5.69c-6.31-1.32-12.71-1.98-19.2-1.98
		c-6.5,0-12.9,0.66-19.2,1.98C74.94,5.44,68.98,7.34,63.2,9.84c-5.67,2.46-11.07,5.46-16.19,9c-5.07,3.51-9.77,7.49-14.11,11.93
		c-4.33,4.44-8.21,9.26-11.64,14.46c-3.46,5.24-6.39,10.77-8.79,16.58c-2.44,5.92-4.3,12.03-5.55,18.33C5.65,86.61,5,93.17,5,99.82
		c0,6.66,0.65,13.22,1.94,19.68c1.26,6.29,3.11,12.41,5.55,18.33c2.4,5.81,5.33,11.34,8.79,16.59c3.42,5.19,7.3,10.02,11.64,14.46
		c4.34,4.44,9.04,8.41,14.11,11.92c5.12,3.54,10.51,6.54,16.19,9c5.78,2.51,11.74,4.41,17.89,5.69c6.31,1.32,12.71,1.99,19.2,1.99
		c6.49,0,12.9-0.67,19.2-1.99c6.15-1.28,12.11-3.19,17.89-5.69c5.67-2.46,11.07-5.46,16.18-9c5.07-3.51,9.77-7.49,14.11-11.92
		c4.33-4.44,8.21-9.26,11.64-14.46c3.46-5.25,6.39-10.78,8.79-16.59c2.44-5.92,4.3-12.03,5.55-18.33
		c1.29-6.46,1.94-13.02,1.94-19.68c0-6.66-0.65-13.22-1.94-19.68C192.4,73.85,190.55,67.73,188.1,61.81L188.1,61.81z M188.1,61.81
		c-2.4-5.81-5.33-11.34-8.79-16.58c-3.42-5.2-7.3-10.01-11.64-14.46c-4.34-4.44-9.04-8.42-14.11-11.93
		c-5.12-3.54-10.51-6.54-16.18-9c-5.77-2.5-11.74-4.4-17.89-5.69c-6.31-1.32-12.71-1.98-19.2-1.98c-6.5,0-12.9,0.66-19.2,1.98
		C74.94,5.44,68.98,7.34,63.2,9.84c-5.67,2.46-11.07,5.46-16.19,9c-5.07,3.51-9.77,7.49-14.11,11.93
		c-4.33,4.44-8.21,9.26-11.64,14.46c-3.46,5.24-6.39,10.77-8.79,16.58c-2.44,5.92-4.3,12.03-5.55,18.33C5.65,86.61,5,93.17,5,99.82
		c0,6.66,0.65,13.22,1.94,19.68c1.26,6.29,3.11,12.41,5.55,18.33c2.4,5.81,5.33,11.34,8.79,16.59c3.42,5.19,7.3,10.02,11.64,14.46
		c4.34,4.44,9.04,8.41,14.11,11.92c5.12,3.54,10.51,6.54,16.19,9c5.78,2.51,11.74,4.41,17.89,5.69c6.31,1.32,12.71,1.99,19.2,1.99
		c6.49,0,12.9-0.67,19.2-1.99c6.15-1.28,12.11-3.19,17.89-5.69c5.67-2.46,11.07-5.46,16.18-9c5.07-3.51,9.77-7.49,14.11-11.92
		c4.33-4.44,8.21-9.26,11.64-14.46c3.46-5.25,6.39-10.78,8.79-16.59c2.44-5.92,4.3-12.03,5.55-18.33
		c1.29-6.46,1.94-13.02,1.94-19.68c0-6.66-0.65-13.22-1.94-19.68C192.4,73.85,190.55,67.73,188.1,61.81L188.1,61.81z M188.1,61.81
		c-2.4-5.81-5.33-11.34-8.79-16.58c-3.42-5.2-7.3-10.01-11.64-14.46c-4.34-4.44-9.04-8.42-14.11-11.93
		c-5.12-3.54-10.51-6.54-16.18-9c-5.77-2.5-11.74-4.4-17.89-5.69c-6.31-1.32-12.71-1.98-19.2-1.98c-6.5,0-12.9,0.66-19.2,1.98
		C74.94,5.44,68.98,7.34,63.2,9.84c-5.67,2.46-11.07,5.46-16.19,9c-5.07,3.51-9.77,7.49-14.11,11.93
		c-4.33,4.44-8.21,9.26-11.64,14.46c-3.46,5.24-6.39,10.77-8.79,16.58c-2.44,5.92-4.3,12.03-5.55,18.33C5.65,86.61,5,93.17,5,99.82
		c0,6.66,0.65,13.22,1.94,19.68c1.26,6.29,3.11,12.41,5.55,18.33c2.4,5.81,5.33,11.34,8.79,16.59c3.42,5.19,7.3,10.02,11.64,14.46
		c4.34,4.44,9.04,8.41,14.11,11.92c5.12,3.54,10.51,6.54,16.19,9c5.78,2.51,11.74,4.41,17.89,5.69c6.31,1.32,12.71,1.99,19.2,1.99
		c6.49,0,12.9-0.67,19.2-1.99c6.15-1.28,12.11-3.19,17.89-5.69c5.67-2.46,11.07-5.46,16.18-9c5.07-3.51,9.77-7.49,14.11-11.92
		c4.33-4.44,8.21-9.26,11.64-14.46c3.46-5.25,6.39-10.78,8.79-16.59c2.44-5.92,4.3-12.03,5.55-18.33
		c1.29-6.46,1.94-13.02,1.94-19.68c0-6.66-0.65-13.22-1.94-19.68C192.4,73.85,190.55,67.73,188.1,61.81L188.1,61.81z"/>
	<path class="st3" d="M61.29,38.74c-3.83,2.65-7.38,5.64-10.64,8.99c-3.27,3.35-6.2,6.99-8.78,10.91
		c-2.61,3.95-4.81,8.12-6.62,12.51c-3.77,9.12-5.65,18.68-5.65,28.67c0,9.99,1.88,19.55,5.65,28.67c1.81,4.39,4.02,8.56,6.62,12.51
		c2.59,3.92,5.52,7.56,8.78,10.9c3.26,3.35,6.81,6.35,10.64,8.99c3.86,2.68,7.93,4.94,12.21,6.8c8.9,3.86,18.23,5.79,27.98,5.79
		c9.75,0,19.08-1.93,27.98-5.79c4.28-1.85,8.35-4.12,12.21-6.8c3.83-2.65,7.37-5.64,10.64-8.99c3.27-3.35,6.19-6.98,8.78-10.9
		c2.61-3.95,4.82-8.12,6.63-12.51c3.77-9.13,5.65-18.69,5.65-28.67c0-9.99-1.88-19.55-5.65-28.67c-1.81-4.39-4.02-8.56-6.63-12.51
		c-2.58-3.92-5.51-7.56-8.78-10.91c-3.26-3.35-6.81-6.34-10.64-8.99c-3.86-2.67-7.93-4.94-12.21-6.79
		c-8.9-3.86-18.23-5.79-27.98-5.79c-9.75,0-19.08,1.93-27.98,5.79C69.22,33.8,65.14,36.07,61.29,38.74L61.29,38.74z"/>
	<g>
		<path d="M65.79,186.11l4.2-9.05l3.58,1.25l-0.62,3.67l-0.22,1.03l-0.3,1.15l0.2-0.43c0.14-0.41,0.3-0.76,0.46-1.05
			c0.16-0.29,0.27-0.48,0.3-0.55l1.8-3.25l3.57,1.24l-2.33,9.7l-3.02-1.05l1.3-4.79l0.03-0.08l0.29-0.9l0.17-0.5l0.15-0.5
			l-0.23,0.47l-0.24,0.47l-0.44,0.94l-2.29,4.44l-2.08-0.73l0.96-4.9l0.24-1.01l0.21-1.04l-0.19,0.49l-0.17,0.49l-0.31,0.9
			l-0.03,0.08l-1.96,4.56L65.79,186.11z"/>
		<path d="M78.74,190.31l2.05-9.71l6.41,1.35l-0.45,2.14l-3.22-0.49l-0.28,1.34l2.46,0.52l-0.45,2.12l-2.47-0.52l-0.31,1.46
			l3.16,0.86l-0.48,2.28L78.74,190.31z"/>
		<path d="M87.68,192.08l0.97-9.87l3.4,0.34l0.94,4.81l0.15,0.98l0.09,0.62l0.06,0.41l0.02-0.51l0.01-0.52l0.02-0.98l0.45-4.63
			l2.57,0.25l-0.97,9.87l-3.4-0.34l-0.92-4.76l-0.15-1.02l-0.16-1.03l-0.01,0.51l-0.02,0.51l-0.04,0.95l-0.01,0.1l-0.45,4.57
			L87.68,192.08z"/>
		<path d="M98.08,192.95l-0.19-9.92l3.35-0.06c1.51-0.03,2.68,0.33,3.5,1.08c0.82,0.75,1.24,1.9,1.27,3.46
			c0,0.39-0.01,0.81-0.06,1.27c-0.15,1.37-0.6,2.39-1.36,3.07c-0.75,0.67-1.84,1.02-3.25,1.05L98.08,192.95z M101.67,190.51
			c0.32-0.01,0.57-0.13,0.74-0.36c0.17-0.23,0.26-0.6,0.25-1.09l-0.01-0.4l-0.03-1.68l-0.01-0.4c-0.07-0.5-0.18-0.83-0.34-1.01
			c-0.16-0.18-0.43-0.27-0.8-0.26l-0.28,0.01l0.1,5.2L101.67,190.51z"/>
		<path d="M107.7,187.73c-0.18-1.33,0.04-2.55,0.68-3.66c0.67-1.17,1.62-1.84,2.85-2.01c0.05-0.01,0.1-0.01,0.18-0.02
			c0.07-0.01,0.16-0.01,0.25-0.02c1.12-0.03,2.04,0.33,2.78,1.09c0.78,0.8,1.27,1.96,1.48,3.47c0.22,1.61,0.02,2.91-0.59,3.9
			c-0.62,0.99-1.55,1.57-2.81,1.75c-0.12,0.02-0.23,0.03-0.34,0.05c-0.1,0-0.18,0-0.22,0c-1.14,0.04-2.06-0.3-2.77-1.02
			C108.41,190.49,107.92,189.31,107.7,187.73z M111.26,188.61c0.09,0.35,0.16,0.59,0.24,0.76c0.07,0.16,0.15,0.29,0.24,0.39
			c0.14,0.14,0.29,0.2,0.46,0.18c0.18-0.03,0.31-0.12,0.39-0.29c0.06-0.11,0.1-0.25,0.12-0.42c0.02-0.17,0.03-0.44,0.03-0.81
			c-0.05-0.47-0.08-0.83-0.11-1.1c-0.03-0.27-0.05-0.51-0.07-0.74c-0.06-0.45-0.16-0.88-0.31-1.27c-0.14-0.39-0.26-0.64-0.36-0.74
			c-0.13-0.15-0.29-0.21-0.46-0.19c-0.16,0.02-0.29,0.12-0.39,0.31c-0.06,0.11-0.1,0.25-0.12,0.42c-0.03,0.16-0.03,0.44-0.03,0.82
			l0.12,1.36L111.26,188.61z"/>
		<path d="M116.89,183.54l-0.54-2.13l6.61-1.68l0.38,1.5l-1.08,5.89l-0.14,0.4l-0.21,0.41l0.13-0.15c0.09-0.07,0.17-0.13,0.27-0.18
			c0.09-0.05,0.17-0.08,0.25-0.09l2.29-0.39l0.57,2.23l-6.62,1.67l-0.34-1.35l1.13-6.07c0.06-0.26,0.16-0.49,0.3-0.69l0.15-0.18
			c-0.13,0.1-0.26,0.18-0.39,0.25c-0.13,0.07-0.29,0.12-0.47,0.17L116.89,183.54z"/>
		<path d="M126.91,188.94l-1.19-10.15l3.89-1.44l5.71,8.47l-3.09,1.14l-1.13-1.92l-1.51,0.56l0.42,2.18L126.91,188.94z
			 M130.05,183.1l-0.99-1.77l-0.17-0.29l-0.13-0.23c-0.18-0.35-0.32-0.68-0.44-1l0.3,1.05l0.05,0.26l0.08,0.33l0.39,1.99
			L130.05,183.1z"/>
	</g>
	<g>
		<path d="M62.44,18.23l0.44,2.05l-0.27,0.05c-0.66,0.12-1.2,0.3-1.62,0.53c-0.62,0.34-0.94,0.81-0.96,1.43
			c-0.01,0.62,0.25,1.43,0.8,2.44c0.39,0.72,0.78,1.18,1.17,1.38c0.39,0.2,0.79,0.19,1.2-0.03l0.1-0.1l0.13-0.07l0.15-0.08
			l0.07-0.04l0.06-0.03l0.05-0.06l-0.68-1.25l-1.1,0.6l-1-1.84l3.71-2.01l2.42,4.47l-0.25,0.29c-0.44,0.5-0.92,0.96-1.42,1.37
			c-0.5,0.41-0.96,0.73-1.39,0.96c-1.29,0.7-2.49,0.84-3.6,0.42c-1.11-0.42-2.05-1.34-2.83-2.78c-0.77-1.41-1.02-2.71-0.75-3.89
			c0.27-1.18,1.04-2.12,2.32-2.81c0.79-0.43,1.77-0.74,2.95-0.94L62.44,18.23z"/>
		<path d="M66.79,21.1c-0.49-1.25-0.55-2.49-0.19-3.72c0.38-1.29,1.15-2.17,2.31-2.62c0.04-0.02,0.1-0.04,0.17-0.06
			c0.07-0.02,0.15-0.04,0.24-0.07c1.08-0.29,2.07-0.16,2.96,0.42c0.94,0.6,1.69,1.61,2.25,3.03c0.59,1.52,0.7,2.83,0.34,3.94
			c-0.37,1.11-1.14,1.89-2.32,2.35c-0.11,0.05-0.22,0.09-0.32,0.13c-0.1,0.02-0.17,0.04-0.21,0.05c-1.1,0.3-2.07,0.18-2.94-0.35
			C68.14,23.62,67.38,22.59,66.79,21.1z M70.47,21.14c0.16,0.31,0.29,0.54,0.41,0.68c0.11,0.14,0.21,0.25,0.33,0.33
			c0.17,0.1,0.33,0.12,0.48,0.06c0.17-0.07,0.27-0.19,0.31-0.37c0.03-0.12,0.04-0.27,0.02-0.44c-0.02-0.17-0.07-0.44-0.16-0.8
			c-0.16-0.44-0.28-0.79-0.37-1.05c-0.09-0.25-0.17-0.49-0.25-0.7c-0.17-0.43-0.37-0.82-0.6-1.17c-0.23-0.35-0.4-0.56-0.52-0.64
			c-0.16-0.11-0.32-0.14-0.49-0.08c-0.15,0.06-0.25,0.19-0.31,0.39c-0.03,0.12-0.04,0.27-0.02,0.43c0.02,0.17,0.07,0.43,0.17,0.8
			l0.43,1.3L70.47,21.14z"/>
		<path d="M77.56,22.3l-2.45-9.62l3.25-0.83c1.47-0.37,2.69-0.29,3.66,0.25c0.97,0.55,1.64,1.57,2.03,3.08
			c0.1,0.38,0.17,0.79,0.23,1.25c0.17,1.37-0.04,2.47-0.62,3.29c-0.58,0.83-1.56,1.41-2.93,1.76L77.56,22.3z M80.5,19.11
			c0.31-0.08,0.52-0.25,0.64-0.52c0.12-0.27,0.11-0.64-0.01-1.12l-0.1-0.39l-0.42-1.63l-0.1-0.39c-0.18-0.47-0.36-0.77-0.56-0.91
			c-0.2-0.14-0.48-0.16-0.84-0.07l-0.27,0.07l1.29,5.05L80.5,19.11z"/>
		<path d="M85.78,15.22c-0.17-1.33,0.07-2.55,0.71-3.65c0.69-1.16,1.64-1.82,2.88-1.98c0.04-0.01,0.11-0.01,0.18-0.02
			c0.07,0,0.16-0.01,0.25-0.01c1.12-0.02,2.04,0.35,2.77,1.12c0.77,0.81,1.25,1.97,1.44,3.49c0.21,1.61,0,2.91-0.62,3.9
			c-0.63,0.99-1.57,1.56-2.83,1.72c-0.12,0.02-0.23,0.03-0.34,0.04c-0.1-0.01-0.18-0.01-0.22,0c-1.14,0.02-2.06-0.32-2.76-1.05
			C86.46,17.99,85.98,16.8,85.78,15.22z M89.33,16.15c0.08,0.34,0.16,0.59,0.23,0.76c0.07,0.16,0.15,0.29,0.24,0.39
			c0.14,0.14,0.29,0.2,0.46,0.18c0.18-0.02,0.31-0.12,0.39-0.29c0.06-0.11,0.1-0.25,0.13-0.42c0.02-0.17,0.03-0.44,0.03-0.81
			c-0.04-0.47-0.08-0.83-0.1-1.1c-0.02-0.27-0.05-0.51-0.07-0.74c-0.06-0.46-0.16-0.88-0.3-1.28c-0.14-0.39-0.26-0.64-0.35-0.74
			c-0.13-0.15-0.28-0.22-0.46-0.19c-0.15,0.02-0.28,0.12-0.39,0.3c-0.06,0.11-0.1,0.25-0.13,0.42c-0.02,0.16-0.04,0.44-0.04,0.82
			l0.11,1.37L89.33,16.15z"/>
		<path d="M95.06,9.09l3.53-0.04l0.64,2.4c0.03,0.12,0.06,0.29,0.1,0.5c0.04,0.21,0.07,0.43,0.09,0.65l0.03,0.36l0.09-0.77
			l0.13-0.73l0.62-2.41l3.53-0.04l-2.78,6.48l0.03,3.48l-3.29,0.03l-0.04-3.49L95.06,9.09z"/>
		<path d="M117.5,10.92l-0.69,2.01l-0.05-0.02l-0.13-0.05l-0.19-0.09l-0.16-0.05l-0.24-0.05c-0.66-0.11-1.18-0.02-1.54,0.26
			c-0.41,0.32-0.68,0.92-0.82,1.79c-0.02,0.14-0.05,0.27-0.08,0.41c-0.03,0.13-0.05,0.27-0.07,0.39c-0.26,1.58,0.19,2.47,1.35,2.66
			c0.26,0.04,0.56,0.05,0.89,0.02l0.22-0.04l0.16-0.03l0.14-0.03l-0.11,2.23l-0.23,0.03l-0.26,0.03c-0.68,0.06-1.32,0.05-1.91-0.05
			c-1.34-0.22-2.32-0.82-2.96-1.81c-0.64-0.99-0.84-2.25-0.59-3.78c0.05-0.3,0.13-0.65,0.24-1.05c0.39-1.39,1.06-2.37,1.99-2.94
			c0.89-0.55,2-0.71,3.35-0.48l0.48,0.13c0.26,0.07,0.46,0.14,0.6,0.2C117.03,10.67,117.23,10.77,117.5,10.92z"/>
		<path d="M117.36,20.79l2.69-9.55l4.09,1.15c1.07,0.3,1.83,0.76,2.29,1.36c0.45,0.61,0.57,1.3,0.35,2.08
			c-0.04,0.13-0.08,0.26-0.13,0.37c-0.05,0.11-0.09,0.21-0.12,0.29c-0.37,0.72-0.97,1.15-1.8,1.3l-0.15,0.03l-0.13,0.02l1.14,5.26
			l-3.33-0.94l-0.63-4.34l-1.09,3.86L117.36,20.79z M122.44,15.97c0.26,0.07,0.45,0.08,0.59,0.01c0.13-0.07,0.23-0.18,0.3-0.34
			c0.06-0.15,0.11-0.28,0.14-0.39c0.15-0.52-0.03-0.85-0.54-1l-0.28-0.08l-0.48,1.71L122.44,15.97z"/>
		<path d="M127.28,20.78l2.75-6.57l3.03,1.27l-2.69,6.43c-0.1,0.25-0.14,0.44-0.12,0.58c0.02,0.14,0.12,0.26,0.28,0.36l0.18,0.07
			c0.18,0.05,0.33,0.03,0.45-0.05c0.12-0.08,0.23-0.24,0.33-0.49l2.69-6.43l3.02,1.26l-2.75,6.57c-0.34,0.81-0.87,1.34-1.59,1.61
			c-0.72,0.27-1.61,0.23-2.68-0.12l-0.97-0.41c-0.98-0.51-1.64-1.12-1.96-1.82C126.94,22.34,126.94,21.59,127.28,20.78z"/>
		<path d="M138.33,20.23l1.08-1.93l5.96,3.32l-0.75,1.35l-4.83,3.54l-0.38,0.2l-0.43,0.16l0.2-0.02c0.11,0.01,0.22,0.03,0.32,0.05
			c0.1,0.03,0.18,0.06,0.24,0.1l1.94,1.28l-1.12,2.01l-5.96-3.32l0.68-1.22l4.99-3.64c0.22-0.15,0.45-0.25,0.69-0.3l0.24-0.03
			c-0.16-0.01-0.31-0.04-0.46-0.08c-0.15-0.04-0.3-0.11-0.46-0.2L138.33,20.23z"/>
	</g>
	<g>
		<path class="st0" d="M40.65,82.51c0.2,8.32,1.07,15.05,2.6,20.19c1.61,7.21,3.99,14.36,7.15,21.47
			c3.31,7.44,7.35,14.56,12.11,21.36c5.05,7.19,10.77,13.82,17.18,19.87c6.82,6.45,14.27,12.13,22.35,17.03v0.07l0.06-0.04
			l0.07,0.04l0-0.07c15.69-8.09,28.53-19.43,38.49-33.99c4.6-6.74,8.65-14.24,12.14-22.5c3.25-7.72,6.05-16.19,8.39-25.41
			c1.77-6.31,2.66-14.1,2.66-23.4l-0.13-42.65L40.76,34.45L40.65,82.51L40.65,82.51z"/>
		<path class="st4" d="M40.65,82.51c0.2,8.32,1.07,15.05,2.6,20.19c1.61,7.21,3.99,14.36,7.15,21.47
			c3.31,7.44,7.35,14.56,12.11,21.36c5.05,7.19,10.77,13.82,17.18,19.87c6.82,6.45,14.27,12.13,22.35,17.03v0.07l0.06-0.04
			l0.07,0.04l0-0.07c15.69-8.09,28.53-19.43,38.49-33.99c4.6-6.74,8.65-14.24,12.14-22.5c3.25-7.72,6.05-16.19,8.39-25.41
			c1.77-6.31,2.66-14.1,2.66-23.4l-0.13-42.65L40.76,34.45L40.65,82.51L40.65,82.51z"/>
		<path class="st5" d="M163.02,34.59L41.1,34.56L41,82.39c0.2,8.29,1.07,14.98,2.59,20.09c1.6,7.17,3.96,14.29,7.09,21.37
			c3.27,7.41,7.28,14.49,12,21.25c5,7.15,10.68,13.75,17.04,19.78c6.76,6.42,14.15,12.06,22.16,16.94v0.07l0.06-0.04l0.06,0.04
			v-0.07c15.57-8.05,28.29-19.32,38.17-33.82c4.57-6.71,8.58-14.18,12.03-22.39c3.23-7.69,6.01-16.12,8.33-25.29
			c1.76-6.27,2.63-14.03,2.63-23.28L163.02,34.59z M89.55,106.99l3.24-0.92v62.86c-1.09-0.78-2.17-1.59-3.24-2.42V106.99z
			 M89.55,82.3V48.09h3.24v33.29L89.55,82.3z M125.01,48.09v24.15l-3.23,0.92V48.09H125.01z M132.52,48.09h3.23v21.1l-3.23,0.92
			V48.09z M46.73,94.45L47,48.09h2.79v45.49L46.73,94.45z M57.31,48.09l3.23,0v42.44l-3.23,0.92V48.09z M68.06,48.09h3.23v39.39
			l-3.23,0.92V48.09z M78.8,48.09h3.23v36.35l-3.23,0.92V48.09z M100.29,48.09l3.22,0v30.25l-3.22,0.91V48.09z M111.04,48.09h3.22
			v27.2l-3.22,0.91V48.09z M114.26,99.96v67.12c-1.05,0.76-2.13,1.5-3.22,2.23v-68.43L114.26,99.96z M121.78,97.82l3.23-0.92v61.02
			c-1.05,1.05-2.13,2.06-3.23,3.05V97.82z M132.52,94.76l3.23-0.92v51.24c-1.04,1.49-2.12,2.96-3.23,4.37V94.76z M143.27,91.71
			l3.23-0.92v34.95c-1.02,2.34-2.1,4.61-3.23,6.81V91.71z M143.27,67.06V48.09h3.23v18.05L143.27,67.06z M154.01,48.09h3.05
			l-0.04,15.06l-3.01,0.86V48.09z M57.31,124.23v-8.06l3.23-0.92v15.53c-0.98-1.86-1.93-3.75-2.84-5.68
			C57.57,124.81,57.44,124.52,57.31,124.23z M68.06,143.25v-30.14l3.23-0.92v35.55c-0.9-1.2-1.8-2.41-2.67-3.66
			C68.43,143.81,68.24,143.53,68.06,143.25z M78.8,156.66v-46.6l3.23-0.92v50.8C80.93,158.87,79.85,157.78,78.8,156.66z M102,174.69
			l-0.05-0.02l-0.05,0.02v-0.05c-0.54-0.29-1.07-0.59-1.61-0.9v-69.8l3.22-0.92v70.8c-0.5,0.27-1,0.55-1.52,0.81V174.69z
			 M154.01,104.15v-15.5l2.73-0.78c-0.34,5.2-1.07,9.94-2.18,14.23C154.38,102.79,154.2,103.47,154.01,104.15z"/>
		<path class="st0" d="M155.44,83.1V68.75c0-1.1-0.96-1.93-2.12-1.6C134.62,72.45,53.19,95.56,53.19,95.56
			c-1.52,0.43-2.12,1.34-2.12,2.8v14.43c0,1.36,0.72,2,2.06,1.62c13.05-3.71,79.55-22.64,100.19-28.51
			C154.63,85.54,155.44,84.46,155.44,83.1z"/>
		<path class="st0" d="M157.19,42.64c0,0.78-0.63,1.41-1.41,1.41H48.45c-0.78,0-1.41-0.63-1.41-1.41v-2.63
			c0-0.78,0.63-1.41,1.41-1.41h107.33c0.78,0,1.41,0.63,1.41,1.41V42.64z"/>
		<g>
			<path class="st5" d="M110.57,85.63c0.56-0.75,1.27-1.24,2.14-1.49c0.64-0.18,1.18-0.17,1.62,0.04c0.44,0.2,0.74,0.57,0.88,1.1
				l2.37-1.2c-0.26-0.81-0.66-1.38-1.21-1.7c-0.91-0.55-2.08-0.62-3.54-0.2c-1.67,0.48-3.01,1.37-4.02,2.68
				c-1.02,1.29-1.54,2.87-1.55,4.74c0,1.74,0.5,2.98,1.5,3.69c1.02,0.71,2.33,0.84,3.89,0.4c1.27-0.37,2.32-0.96,3.16-1.79
				c0.83-0.83,1.43-1.9,1.78-3.21l-2.32-0.02c-0.21,0.86-0.54,1.56-1,2.07c-0.45,0.5-1,0.85-1.65,1.04c-0.86,0.25-1.56,0.15-2.1-0.3
				c-0.54-0.45-0.8-1.37-0.8-2.76C109.75,87.41,110.03,86.37,110.57,85.63L110.57,85.63z"/>
			<polygon class="st5" points="103.07,94.12 103.05,96.25 105.33,95.61 105.33,93.47 103.07,94.12 			"/>
			<path class="st5" d="M100.86,95.34l0.02-4.41l-5.16,1.46l0,1.88l2.74-0.78v1.41c-0.35,0.37-0.79,0.72-1.3,1.04
				c-0.5,0.33-1.01,0.57-1.51,0.71c-1.02,0.28-1.84,0.19-2.45-0.3c-0.62-0.48-0.93-1.38-0.93-2.69c0.01-1.23,0.33-2.24,0.94-3.03
				c0.62-0.8,1.45-1.35,2.5-1.64c0.7-0.19,1.29-0.2,1.72-0.02c0.45,0.18,0.77,0.51,0.95,1.01l2.37-1.09
				c-0.24-0.96-0.77-1.6-1.59-1.94c-0.82-0.35-1.97-0.3-3.45,0.12c-1.14,0.33-2.08,0.78-2.83,1.36c-1.01,0.77-1.77,1.67-2.28,2.72
				c-0.53,1.05-0.79,2.15-0.8,3.3c0,1.06,0.23,1.98,0.69,2.76c0.45,0.76,1.15,1.26,2.07,1.5c0.93,0.22,2,0.16,3.25-0.2
				c0.99-0.29,1.95-0.74,2.9-1.34C99.64,96.55,100.37,95.94,100.86,95.34L100.86,95.34z"/>
			<polygon class="st5" points="119.63,89.41 119.62,91.54 121.9,90.89 121.91,88.76 119.63,89.41 			"/>
			<polygon class="st5" points="136.2,86.82 138.48,86.17 138.49,84.04 136.22,84.7 136.2,86.82 			"/>
			<path class="st5" d="M134.95,87.17l-4.71-9.74l-2.53,0.72l-4.67,12.4l2.55-0.73l0.98-2.79l4.74-1.35l1.03,2.23L134.95,87.17
				L134.95,87.17z M127.31,84.96l1.62-4.57l1.62,3.65L127.31,84.96L127.31,84.96z"/>
			<polygon class="st5" points="149.44,73.84 149.44,71.96 140.02,74.65 140.02,76.53 143.53,75.53 143.51,84.74 145.89,84.05 
				145.93,74.84 149.44,73.84 			"/>
			<polygon class="st5" points="151.38,82.5 151.38,80.37 149.11,81.02 149.1,83.15 151.38,82.5 			"/>
			<path class="st5" d="M62.07,98.56c0.61-0.19,1.15-0.17,1.61,0.04c0.44,0.2,0.74,0.57,0.88,1.11l2.37-1.21
				c-0.27-0.82-0.67-1.38-1.21-1.69c-0.91-0.54-2.09-0.61-3.53-0.19c-1.66,0.46-3,1.35-4.03,2.67c-1.03,1.31-1.54,2.88-1.54,4.73
				c-0.01,1.74,0.5,2.97,1.51,3.7c1.01,0.7,2.3,0.84,3.87,0.4c1.29-0.37,2.34-0.97,3.17-1.78c0.82-0.81,1.41-1.88,1.78-3.2
				l-2.32-0.03c-0.21,0.86-0.54,1.55-0.99,2.06c-0.46,0.51-1.01,0.85-1.65,1.04c-0.87,0.25-1.57,0.14-2.1-0.29
				c-0.55-0.45-0.81-1.38-0.8-2.77c0-1.31,0.27-2.34,0.83-3.1C60.48,99.29,61.2,98.79,62.07,98.56L62.07,98.56z"/>
			<path class="st5" d="M80.28,91.86c-0.49,0-1.24,0.15-2.26,0.43l-4.39,1.26l-0.03,11.08l4.5-1.29c0.88-0.25,1.59-0.52,2.13-0.83
				c0.7-0.41,1.26-0.86,1.68-1.36c0.55-0.66,0.98-1.43,1.28-2.32c0.25-0.74,0.37-1.56,0.37-2.46c0.01-1.03-0.11-1.87-0.37-2.51
				c-0.26-0.64-0.64-1.13-1.13-1.48C81.55,92.02,80.96,91.85,80.28,91.86L80.28,91.86z M76.03,94.74l1.07-0.3
				c1.01-0.28,1.66-0.44,1.97-0.45c0.44-0.04,0.81,0.03,1.1,0.21c0.28,0.16,0.51,0.46,0.68,0.88c0.16,0.43,0.24,1.06,0.23,1.9
				c0,0.86-0.08,1.56-0.25,2.09c-0.16,0.54-0.37,0.96-0.62,1.26c-0.26,0.28-0.58,0.52-0.97,0.73c-0.28,0.14-0.76,0.31-1.46,0.51
				L76,102.08L76.03,94.74L76.03,94.74z"/>
			<polygon class="st5" points="87.83,98.45 85.56,99.1 85.55,101.22 87.83,100.58 87.83,98.45 			"/>
			<polygon class="st5" points="71.25,105.3 71.26,103.17 68.98,103.81 68.97,105.95 71.25,105.3 			"/>
		</g>
	</g>
</g>
</svg>
