<?xml version="1.0" encoding="utf-8"?>
<!-- Generator: Adobe Illustrator 26.0.3, SVG Export Plug-In . SVG Version: 6.00 Build 0)  -->
<svg version="1.1" id="Capa_1" xmlns="http://www.w3.org/2000/svg" xmlns:xlink="http://www.w3.org/1999/xlink" x="0px" y="0px"
	 viewBox="0 0 200 200" style="enable-background:new 0 0 200 200;" xml:space="preserve">
<style type="text/css">
	.st0{fill:#FFFFFF;}
	.st1{fill:#E5261E;}
</style>
<g>
	<g id="Fondo">
		<g>
			<g>
				<path class="st0" d="M160.91,60.14c0,0.32,0,0.65,0,0.97c-0.21,10.92-2.78,19.45-6.5,26.86c-2.09,4.15-4.56,7.93-7.44,11.31
					c-0.34,0.4-0.46,0.89-0.64,1.44c-4.13,12.48-8.38,24.96-12.52,37.47c-0.17,0.51-0.44,1.07-0.45,1.64
					c-0.02,0.63-0.05,1.32,0.02,2.06c0.26,2.38,0.66,4.84,0.99,7.34c0.56,4.25,1.16,8.53,1.76,12.82c0.09,0.61,0.13,1.24,0.25,1.84
					c0.04,0.16,0.07,0.23,0.2,0.32c0.49,0.37,0.99,0.66,1.44,1.04c1.24,1.04,2.6,2.54,2.51,4.91c-0.06,1.42-0.76,2.57-1.51,3.42
					c-0.8,0.9-1.73,1.5-2.73,2.21c0,0.7,0,1.39,0,2.08c0.94,0.23,2.01,0.13,2.58,0.69c0.25,0.25,0.25,0.85,0.27,1.36
					c0.08,2.36-0.03,4.86-0.12,7.19c-0.02,0.43,0.02,0.81-0.17,1.04c-0.87,1.03-2.11,1.98-3.3,2.83c-3.56,2.54-7.87,4.47-12.52,5.83
					c-6.36,1.86-13.65,2.85-21.6,2.85c-8.11,0-15.31-0.96-21.55-2.9c-6.24-1.95-11.66-4.76-15.6-8.85
					c-0.05-1.27-0.02-2.85-0.02-4.41c0-1.47-0.08-2.94,0-4.14c0.04-0.64,0.74-0.86,1.26-0.99c0.58-0.14,1.11-0.21,1.76-0.22
					c0.06-0.57,0.01-1.25,0.02-1.86c-2.1-1.35-4.23-2.53-4.93-5.13c-0.75-2.8,0.98-4.78,2.48-6c0.17-0.14,0.6-0.43,0.67-0.62
					c0.09-0.25,0.08-0.61,0.12-0.94c1.01-7.09,2.07-14.3,3.03-21.38c0.08-0.59,0.2-1.23,0.2-1.93c0-0.66,0.05-1.35-0.15-1.91
					c-4.22-11.95-8.55-24.04-12.77-36.01c-0.1-0.28-0.18-0.55-0.32-0.74c-0.14-0.19-0.32-0.35-0.5-0.55
					c-3.33-3.76-6.21-7.92-8.66-12.55c-3.92-7.42-6.5-16.07-6.79-27.13c0-0.5,0-1.01,0-1.51c0.02-0.59,0.05-1.26,0.07-1.86
					c0.42-8.95,2.48-16.2,5.43-22.62c3.15-6.84,7.28-12.63,12.27-17.63c4.98-4.98,10.78-9.12,17.63-12.27
					C81.94,2.33,89.91,0.19,99.54,0c0.5,0,1.01,0,1.52,0c9.69,0.18,17.63,2.37,24.5,5.51c6.88,3.14,12.71,7.35,17.68,12.32
					c4.97,4.96,9.14,10.85,12.27,17.73C158.64,42.45,160.75,50.42,160.91,60.14z"/>
			</g>
		</g>
	</g>
	<g id="Globo">
		<g>
			<g>
				<path class="st1" d="M160.91,60.14c0,0.32,0,0.65,0,0.97c-0.21,10.92-2.78,19.45-6.5,26.86c-2.09,4.15-4.56,7.93-7.44,11.31
					c-0.34,0.4-0.46,0.89-0.64,1.44c-4.13,12.48-8.38,24.96-12.52,37.47c-0.17,0.51-0.44,1.07-0.45,1.64
					c-0.02,0.63-0.05,1.32,0.02,2.06c0.26,2.38,0.66,4.84,0.99,7.34c0.56,4.25,1.16,8.53,1.76,12.82c0.09,0.61,0.13,1.24,0.25,1.84
					c0.04,0.16,0.07,0.23,0.2,0.32c0.49,0.37,0.99,0.66,1.44,1.04c1.24,1.04,2.6,2.54,2.51,4.91c-0.06,1.42-0.76,2.57-1.51,3.42
					c-0.8,0.9-1.73,1.5-2.73,2.21c0,0.7,0,1.39,0,2.08c0.94,0.23,2.01,0.13,2.58,0.69c0.25,0.25,0.25,0.85,0.27,1.36
					c0.08,2.36-0.03,4.86-0.12,7.19c-0.02,0.43,0.02,0.81-0.17,1.04c-0.87,1.03-2.11,1.98-3.3,2.83c-3.56,2.54-7.87,4.47-12.52,5.83
					c-6.36,1.86-13.65,2.85-21.6,2.85c-8.11,0-15.31-0.96-21.55-2.9c-6.24-1.95-11.66-4.76-15.6-8.85
					c-0.05-1.27-0.02-2.85-0.02-4.41c0-1.47-0.08-2.94,0-4.14c0.04-0.64,0.74-0.86,1.26-0.99c0.58-0.14,1.11-0.21,1.76-0.22
					c0.06-0.57,0.01-1.25,0.02-1.86c-2.1-1.35-4.23-2.53-4.93-5.13c-0.75-2.8,0.98-4.78,2.48-6c0.17-0.14,0.6-0.43,0.67-0.62
					c0.09-0.25,0.08-0.61,0.12-0.94c1.01-7.09,2.07-14.3,3.03-21.38c0.08-0.59,0.2-1.23,0.2-1.93c0-0.66,0.05-1.35-0.15-1.91
					c-4.22-11.95-8.55-24.04-12.77-36.01c-0.1-0.28-0.18-0.55-0.32-0.74c-0.14-0.19-0.32-0.35-0.5-0.55
					c-3.33-3.76-6.21-7.92-8.66-12.55c-3.92-7.42-6.5-16.07-6.79-27.13c0-0.5,0-1.01,0-1.51c0.02-0.59,0.05-1.26,0.07-1.86
					c0.42-8.95,2.48-16.2,5.43-22.62c3.15-6.84,7.28-12.63,12.27-17.63c4.98-4.98,10.78-9.12,17.63-12.27
					C81.94,2.33,89.91,0.19,99.54,0c0.5,0,1.01,0,1.52,0c9.69,0.18,17.63,2.37,24.5,5.51c6.88,3.14,12.71,7.35,17.68,12.32
					c4.97,4.96,9.14,10.85,12.27,17.73C158.64,42.45,160.75,50.42,160.91,60.14z M157.46,60.38c0-5.37-0.8-10.25-1.91-14.48
					c0-0.02,0-0.03-0.02-0.03c-3.22,4.81-6.39,9.66-9.62,14.46c1.61,2.43,3.22,4.92,4.86,7.37c1.57,2.34,3.12,4.8,4.73,7.09
					c0.03,0.04,0.06,0.18,0.15,0.15C156.78,70.69,157.46,65.73,157.46,60.38z M154.09,80.02c0.09-0.25,0.26-0.61,0.25-0.72
					c-0.01-0.1-0.2-0.31-0.32-0.5c-3.42-5.13-6.77-10.26-10.17-15.3c-0.52,0.7-1.1,1.6-1.64,2.41c-1.31,1.97-2.63,3.96-3.94,5.95
					c-0.26,0.4-0.63,0.81-0.79,1.19c-0.15,0.37-0.23,0.81-0.34,1.22c-3.71,12.48-7.77,25.19-11.43,37.57
					c6.74-3.31,12.47-7.84,17.33-13.24C147.65,93.46,151.49,87.2,154.09,80.02z M154.21,41.56c0-0.11-0.14-0.39-0.22-0.62
					c-0.09-0.22-0.19-0.46-0.25-0.62c-4.9-12.87-13.55-22.47-24.6-29.06c-3.27,2.8-6.95,5.19-11.16,7.04
					c8.6,12.99,17.22,25.97,25.86,38.93c3.24-4.86,6.48-9.78,9.75-14.66C153.78,42.31,154.21,41.77,154.21,41.56z M135.96,171.73
					c0.65-0.61,1.49-1.52,0.94-2.61c-0.49-0.97-1.53-1.65-2.51-2.23c-2.52-1.52-5.84-2.56-9.03-3.32
					c-1.55,4.47-3.02,9.03-4.54,13.54c3.32-0.57,6.44-1.33,9.38-2.36C132.27,174.03,134.48,173.1,135.96,171.73z M141.77,60.38
					c-1.9-2.91-3.81-5.8-5.75-8.66c-2.02,2.98-4.1,5.89-6.1,8.88c2.02,2.84,3.99,5.73,6.02,8.56
					C137.87,66.23,139.82,63.3,141.77,60.38z M130.14,138.37c3.63-10.98,7.36-22,10.96-32.93c-4.82,4.38-10.35,8.05-16.76,10.84
					c-2.24,7.37-4.49,14.73-6.72,22.09C121.79,138.37,125.96,138.37,130.14,138.37z M134.08,72.48c-2.09-2.86-4.16-5.95-6.27-8.88
					c-3.16,4.57-6.35,9.26-9.52,13.74c0-2,0-4,0-6c2.46-3.6,4.97-7.15,7.42-10.76c-2.32-3.32-4.64-6.59-6.97-9.92
					c-0.16-0.23-0.45-0.57-0.45-0.74c0-1.91,0-3.87,0-5.88c3.2,4.49,6.34,9.04,9.52,13.54c2.05-2.99,4.1-5.97,6.17-8.93
					c-6.41-9.7-12.84-19.38-19.29-29.04c-1.65,0.59-3.39,1.11-5.24,1.51c2.16,6.63,4.4,13.29,6.5,19.89c-1.2,0-2.4,0-3.6,0
					c-2.1-6.42-4.22-12.81-6.3-19.25c-3.59,0.55-8.17,0.64-11.9,0.15c-1.94,6.35-3.82,12.76-5.78,19.1
					c-1.18-0.02-2.43,0.03-3.57-0.02c1.98-6.54,3.94-13.11,5.93-19.64c-2.16-0.44-4.17-1.03-6.1-1.71
					c-6.25,9.28-12.48,18.57-18.7,27.87c2.47,3.3,4.95,6.59,7.41,9.89c3.5-4.63,6.9-9.49,10.37-14.06c0,1.92,0,3.83,0,5.75
					c-1.35,1.87-2.73,3.75-4.09,5.63c-1.37,1.88-2.79,3.7-4.07,5.6c2.57,3.4,5.08,6.79,7.66,10.22c0.18,0.23,0.46,0.52,0.5,0.72
					c0.08,0.42,0,0.94,0,1.41c0,1.46,0,2.8,0,4.24c-3.45-4.56-6.86-9.15-10.32-13.71c-1.83,2.49-3.58,4.91-5.43,7.42
					c-0.14,0.2-0.73,0.85-0.74,1.09c0,0.12,0.15,0.4,0.23,0.64c4.32,13.94,8.7,28.07,12.99,41.88c4.13,1.53,8.71,2.73,13.81,3.2
					c-3.2-12.8-6.38-25.62-9.55-38.46c1.18,0,2.36,0,3.54,0c3.18,12.94,6.42,25.82,9.6,38.76c2.1,0.1,4.34,0.05,6.37-0.08
					c3.25-12.78,6.35-25.71,9.52-38.56c1.18,0,2.35,0,3.52,0c-3.09,12.76-6.23,25.48-9.37,38.19c5.05-0.68,9.52-1.93,13.62-3.57
					C125.72,100,129.87,86.2,134.08,72.48z M132.69,162.23c-0.65-4.9-1.31-9.79-2-14.66c-1.41,4.24-2.83,8.47-4.24,12.7
					C128.63,160.82,130.73,161.45,132.69,162.23z M128.97,141.82c-3.57,0-7.12,0-10.69,0c-0.04,0.01-0.02,0.05,0,0.08
					c1.38,5.59,2.83,11.46,4.24,17.11c0.06,0.24,0.03,0.39,0.22,0.47c0.09,0.04,0.14,0.01,0.27,0.05c0.32-0.7,0.53-1.45,0.77-2.18
					C125.5,152.17,127.28,147,128.97,141.82z M125.65,9.67c0.08-0.07,0.25-0.13,0.2-0.2c-5.04-2.52-10.73-4.52-17.33-5.4
					c2.53,3.77,5,7.59,7.56,11.33C119.61,13.88,122.85,11.9,125.65,9.67z M125.72,189.38c0-0.78,0.1-1.61,0-2.33
					c-0.1-0.72-0.61-1.54-1.09-1.96c-0.44-0.38-1.08-0.65-1.86-0.59c-1.28,0.09-2.44,0.86-3.32,1.51c-0.24,0.18-0.8,0.49-0.87,0.72
					c-0.06,0.2,0,0.55,0,0.85c0,2.05,0,3.98,0,5.97c2.4-0.59,4.76-1.22,7.14-1.83C125.72,190.94,125.72,190.16,125.72,189.38z
					 M118.93,158.83c-1.13-4.55-2.23-9.12-3.4-13.64c-1.29,4.28-2.6,8.54-3.89,12.82C114.13,158.22,116.57,158.48,118.93,158.83z
					 M116.99,177.7c1.67-4.95,3.32-9.9,4.96-14.88c-3.57-0.68-7.36-1.13-11.31-1.44c-1.8,5.69-3.51,11.46-5.26,17.21
					C109.46,178.5,113.29,178.16,116.99,177.7z M114.02,138.37c2.07-6.83,4.16-13.65,6.23-20.48c-3.97,1.34-8.38,2.45-13.24,2.98
					c-1.3,5.14-2.65,10.52-3.95,15.72c-0.17,0.7-0.36,1.17-0.07,1.79C106.66,138.37,110.34,138.37,114.02,138.37z M112.95,141.82
					c-3.02,0-6.05,0-9.07,0c-0.03,0-0.02,0.04-0.02,0.08c1.28,5.13,2.59,10.38,3.87,15.52c0.05,0.22,0.04,0.4,0.27,0.37
					c0.15-0.02,0.18-0.17,0.25-0.4C109.82,152.16,111.41,146.99,112.95,141.82z M108.42,17.85c1.48-0.35,2.92-0.74,4.31-1.19
					c-2.67-4.05-5.45-8.26-8.16-12.32c-0.15-0.22-0.44-0.75-0.59-0.79c-0.09-0.02-0.19,0.02-0.27,0c-0.04,0.01,0.01,0.03,0,0.08
					C105.29,8.35,106.79,13.16,108.42,17.85z M105.59,190.47c0-0.48,0.1-1.38,0-1.81c-0.06-0.26-0.5-0.66-0.75-0.92
					c-0.77-0.81-2.03-1.69-3.47-1.59c-1.51,0.11-2.66,0.86-3.57,1.69c-0.26,0.23-0.78,0.61-0.84,0.89c-0.11,0.5,0,1.23,0,1.79
					c0,1.83,0,3.55,0,5.36c2.83,0.06,5.76,0.01,8.63,0.03C105.59,194.08,105.59,192.28,105.59,190.47z M104.94,18.45
					c-1.42-4.39-2.88-8.81-4.32-13.14c-0.21-0.62-0.34-1.27-0.64-1.86c-0.08,0-0.17,0-0.25,0c-0.04,0.01-0.03,0.06-0.05,0.08
					c-1.49,5.03-3.03,10.01-4.51,15.05C98.25,18.92,101.99,18.86,104.94,18.45z M104.22,157.64c-1.08-4.3-2.12-8.63-3.22-12.92
					c-1.09,4.32-2.17,8.64-3.28,12.94C99.88,157.61,102.04,157.61,104.22,157.64z M101.74,178.67c1.79-5.81,3.55-11.66,5.33-17.48
					c-3.3-0.15-6.86-0.16-10.22-0.05c-1.46,5.74-2.93,11.47-4.36,17.24C95.48,178.56,98.55,178.67,101.74,178.67z M101.05,130.49
					c0.74-3.13,1.56-6.19,2.3-9.33c-1.5,0.08-3.14,0.08-4.63,0.08C99.52,124.3,100.23,127.44,101.05,130.49z M99.06,138.37
					c0.26-0.66,0.1-1.12-0.08-1.81c-1.29-5.18-2.59-10.46-3.87-15.55c-4.93-0.41-9.29-1.39-13.37-2.66c0-0.09-0.06,0.08,0,0.05
					c2.06,6.67,4.13,13.31,6.2,19.96C91.66,138.37,95.36,138.37,99.06,138.37z M98.17,141.82c-3.04,0-6.08,0-9.12,0
					c-0.04,0.01-0.02,0.05,0,0.08c1.59,5.14,3.22,10.37,4.81,15.47c0.04,0.14,0.03,0.38,0.22,0.44c0.14-0.1,0.14-0.3,0.17-0.44
					C95.55,152.19,96.9,147.01,98.17,141.82z M96.04,3.77c0.02-0.19,0.02-0.15-0.08-0.17c-0.15-0.04-0.39,0.09-0.62,0.05
					c-2.9,4.36-5.84,8.67-8.73,13.04c1.63,0.52,3.29,1.01,5.11,1.34c1.32-4.32,2.74-9.14,4.09-13.59
					C95.88,4.24,96.01,3.96,96.04,3.77z M93.21,161.51c0.06-0.3,0.01-0.18-0.15-0.18c-3.5,0.16-6.97,0.64-10.24,1.12
					c-1.31,4.68-2.58,9.39-3.87,14.08c3.17,0.69,6.54,1.18,10.04,1.54c1.25-4.9,2.51-9.8,3.75-14.73
					C92.87,162.86,93.12,162.03,93.21,161.51z M90.73,4.37c0.04-0.08,0.1-0.11-0.02-0.13c-0.16-0.02-0.4,0.09-0.62,0.13
					c-6.11,1.13-11.38,3-16.07,5.45c2.65,2.19,5.84,4.07,9.25,5.58c0.67-0.89,1.28-1.83,1.91-2.78c1.55-2.35,3.14-4.7,4.71-7.04
					C90.11,5.25,90.54,4.72,90.73,4.37z M90.46,158.06c-1.15-3.66-2.24-7.38-3.44-10.99c-1.04,3.94-2.15,7.82-3.2,11.75
					C85.96,158.5,88.2,158.27,90.46,158.06z M84.93,189.16c0-0.54,0.08-1.12,0-1.58c-0.06-0.36-0.38-0.85-0.57-1.14
					c-0.65-1.01-1.65-2-3.29-1.89c-1.3,0.09-2.31,0.71-3.23,1.34c-0.27,0.18-0.78,0.45-0.84,0.67c-0.08,0.29,0,0.86,0,1.19
					c0,1.26,0,2.42,0,3.65c2.67,0.79,5.27,1.66,7.93,2.46C84.93,192.3,84.93,190.69,84.93,189.16z M84.91,141.82
					c-3.76,0-7.53,0-11.29,0c1.94,5.57,4.08,11.5,6.07,17.16c0.06,0.16,0.14,0.5,0.27,0.5c0.13-0.01,0.2-0.36,0.22-0.47
					C81.74,153.25,83.36,147.5,84.91,141.82z M72.43,138.37c3.96,0,7.93,0,11.91,0c-2.21-7.18-4.46-14.33-6.68-21.5
					c-6.24-2.51-11.69-5.95-16.44-9.87c1.85,5.22,3.75,10.47,5.61,15.72c1.72,4.9,3.49,9.83,5.21,14.71
					C72.15,137.75,72.24,138.09,72.43,138.37z M75.61,175.72c1.14-4.17,2.34-8.41,3.42-12.55c-3.74,0.84-7.5,1.87-10.49,3.59
					c-0.97,0.56-2.02,1.23-2.58,2.11c-0.22,0.34-0.4,0.77-0.3,1.29c0.17,0.88,1.09,1.62,1.76,2.11
					C69.71,173.93,72.67,174.85,75.61,175.72z M75.98,112.38c0.1,0.05,0.21,0.12,0.32,0.1c-3.02-9.86-6.27-19.95-9.27-29.88
					c-1.01-3.35-2.04-6.68-3.1-9.97c-0.08-0.25-0.34-0.51-0.5-0.74c-2.29-3.44-4.65-6.95-6.92-10.29c-0.47,0.57-0.95,1.37-1.42,2.06
					c-3.12,4.69-6.33,9.36-9.4,14.04c2.66,8.19,6.66,15.16,11.85,20.88c2.59,2.85,5.38,5.53,8.51,7.86
					C69.09,108.68,72.41,110.72,75.98,112.38z M81.36,18.3c-3.99-1.76-7.46-4.05-10.62-6.65C59.79,18.41,51.59,27.9,46.67,40.69
					c3.26,4.92,6.55,9.8,9.85,14.68C64.78,43,73.1,30.68,81.36,18.3z M76.47,160.24c-1.58-4.61-3.29-9.31-4.94-13.94
					c-0.76,5.42-1.53,10.82-2.28,16.25C71.5,161.61,73.89,160.84,76.47,160.24z M65.26,68.44c2.03-2.67,4-5.41,5.98-8.13
					c-2.47-3.24-4.88-6.54-7.36-9.77c-1.75,2.66-3.54,5.28-5.3,7.93C60.81,61.79,63.04,65.11,65.26,68.44z M54.43,58.45
					c-3.06-4.49-6.06-9.06-9.13-13.54c-0.56,1.98-1.09,4.22-1.46,6.57c-1.09,6.9-0.92,15.39,0.67,21.72
					C47.81,68.38,51.13,63.36,54.43,58.45z"/>
			</g>
			<path class="st1" d="M107.3,42.75c3.08,0,6.17,0,9.25,0c-0.01,11.53,0.04,23.13-0.02,34.62c-3.05,0-6.1,0-9.15,0
				c0-4.56,0-9.13,0-13.69c-4.43,0-8.86,0-13.29,0c-0.06,4.47-0.01,9.05-0.02,13.57c-2.87,0-5.74,0-8.6,0c0-11.47,0-22.95,0-34.42
				c0-0.04-0.01-0.07,0.02-0.07c2.88,0,5.75,0,8.63,0c0,4.08,0,8.15,0,12.23c4.39,0,8.78,0,13.17,0
				C107.33,50.95,107.28,46.82,107.3,42.75z"/>
		</g>
	</g>
</g>
</svg>
