<?xml version="1.0" encoding="utf-8"?>
<!-- Generator: Adobe Illustrator 28.0.0, SVG Export Plug-In . SVG Version: 6.00 Build 0)  -->
<svg version="1.1" id="Capa_1" xmlns="http://www.w3.org/2000/svg" xmlns:xlink="http://www.w3.org/1999/xlink" x="0px" y="0px"
	 viewBox="0 0 400 400" style="enable-background:new 0 0 400 400;" xml:space="preserve">
<style type="text/css">
	.st0{fill:#FFFFFF;}
	.st1{fill:#1A171B;}
	.st2{fill:#003E72;}
	.st3{fill-rule:evenodd;clip-rule:evenodd;fill:#FFFFFF;}
	.st4{fill:none;stroke:#FFFFFF;stroke-width:1.3773;stroke-linecap:round;stroke-linejoin:round;stroke-miterlimit:3.864;}
	.st5{fill:none;stroke:#FFFFFF;stroke-width:1.7251;stroke-linecap:round;stroke-linejoin:round;stroke-miterlimit:3.864;}
</style>
<g>
	<path class="st0" d="M29.8,200C29.8,106,106,29.8,200,29.8c94,0,170.2,76.2,170.2,170.2c0,94-76.2,170.2-170.2,170.2
		C106,370.2,29.8,294,29.8,200"/>
	<g>
		<path class="st1" d="M200,400C89.7,400,0,310.3,0,200C0,89.7,89.7,0,200,0c110.3,0,200,89.7,200,200C400,310.3,310.3,400,200,400z
			 M200,59.6c-77.4,0-140.4,63-140.4,140.4c0,77.4,63,140.4,140.4,140.4c77.4,0,140.4-63,140.4-140.4
			C340.4,122.6,277.4,59.6,200,59.6z"/>
	</g>
	<g>
		<g>
			
				<ellipse transform="matrix(0.9966 -8.247989e-02 8.247989e-02 0.9966 -15.8145 17.1776)" class="st2" cx="200" cy="200" rx="170.2" ry="170.2"/>
			<path class="st0" d="M200,382.8c-100.8,0-182.8-82-182.8-182.8S99.2,17.2,200,17.2s182.8,82,182.8,182.8S300.8,382.8,200,382.8z
				 M200,42.4c-86.9,0-157.6,70.7-157.6,157.6S113.1,357.6,200,357.6c86.9,0,157.6-70.7,157.6-157.6S286.9,42.4,200,42.4z"/>
		</g>
	</g>
	<path class="st3" d="M221.1,163.4h50.2c12.6,0,23.3,0.6,23.3,13.1c0,13-10.7,13.6-23.3,13.6h-50.2V163.4 M199.9,261.9h20.5v-46.1
		h50.9c10.7,20.9,21,37.3,24.5,45.5h28.3c-5-7.2-18.2-34.7-27.8-51.8v-0.4c14.3-5.8,20.4-17.1,20.4-32.3c0-19.5-9.8-35.5-32.9-35.5
		h-83.8V261.9z"/>
	<g>
		<g>
			<path class="st4" d="M221.1,163.4h50.2c12.6,0,23.3,0.6,23.3,13.1c0,13-10.7,13.6-23.3,13.6h-50.2V163.4z M199.9,261.9h20.5
				v-46.1h50.9c10.7,20.9,21,37.3,24.5,45.5h28.3c-5-7.2-18.2-34.7-27.8-51.8v-0.4c14.3-5.8,20.4-17.1,20.4-32.3
				c0-19.5-9.8-35.5-32.9-35.5h-83.8V261.9z"/>
		</g>
	</g>
	<path class="st3" d="M265.3,221.9h-30.5c0,0,5.4,10.2,4.8,29.3c-0.6,19.1-30,32.2-53.2,31.1c-12.6-0.6-28.5-4.2-59.8-26.9
		l-10.8,22.7c51.4,28.7,71.2,26.3,71.2,26.3c27,0,44.3-5.4,64-24.5c19.7-19.2,14.4-40.1,14.4-40.1V221.9z"/>
	<path class="st5" d="M265.3,221.9h-30.5c0,0,5.4,10.2,4.8,29.3c-0.6,19.1-30,32.2-53.2,31.1c-12.6-0.6-28.5-4.2-59.8-26.9
		l-10.8,22.7c51.4,28.7,71.2,26.3,71.2,26.3c27,0,44.3-5.4,64-24.5c19.7-19.2,14.4-40.1,14.4-40.1V221.9z"/>
	<g>
		<g>
			<path class="st0" d="M248.5,114.8c-1.8-6-23.9-22.1-50.8-23.9c-35.1-2.3-77.8,19.1-73.6,60.4c3.5,34.2,26.3,37.7,56.2,44.9
				c46.5,11.2,56.2-6,20.9-19.2c-23.2-8.7-53.8-4.9-53.8-29.9c0-26.4,22.1-29.3,38.3-31.1c26.3-2.9,33.5,2.4,49,15.6L248.5,114.8z"
				/>
			<path class="st5" d="M248.5,114.8c-1.8-6-23.9-22.1-50.8-23.9c-35.1-2.3-77.8,19.1-73.6,60.4c3.5,34.2,26.3,37.7,56.2,44.9
				c46.5,11.2,56.2-6,20.9-19.2c-23.2-8.7-53.8-4.9-53.8-29.9c0-26.4,22.1-29.3,38.3-31.1c26.3-2.9,33.5,2.4,49,15.6L248.5,114.8z"
				/>
		</g>
	</g>
	<polygon class="st0" points="160,139.3 183.9,139.3 183.9,165 160,158.5 	"/>
	<polygon class="st4" points="160,139.3 183.9,139.3 183.9,165 160,158.5 	"/>
	<g>
		<g>
			<polygon class="st0" points="160,263.7 183.9,263.7 183.9,206.3 160,199.7 			"/>
			<polygon class="st4" points="160,263.7 183.9,263.7 183.9,206.3 160,199.7 			"/>
		</g>
	</g>
	<path class="st0" d="M297.6,288.6c6.8,4.6,5.3,11.7,5.3,11.7c-0.4,1.5-1.7,3.8-4,6.4c0.1-0.1,0.3-0.2,0.4-0.4
		c-0.3,0.3-0.7,0.8-1.4,1.6l0,0c-12.5,13.7-47.6,36.9-101,36.9c-79.9,0-145-65-145-145c0-79.9,65-145,145-145
		c69.4,0,99,33.2,108.7,44.2c0.7,0.8,1.3,1.5,1.7,1.9c-0.2-0.2-0.4-0.4-0.6-0.5l-14.4,19.2c-1.6-1.2-2.9-2.6-4.7-4.7
		c-8.8-9.9-32.2-36.1-90.8-36.1c-66.7,0-121,54.3-121,121c0,66.7,54.3,121,121,121c48.5,0,76.1-22.3,83.1-28.8
		C284.1,288.4,290.8,284,297.6,288.6z"/>
</g>
</svg>
