<?xml version="1.0" encoding="utf-8"?>
<!-- Generator: Adobe Illustrator 26.0.3, SVG Export Plug-In . SVG Version: 6.00 Build 0)  -->
<svg version="1.1" id="Capa_1" xmlns="http://www.w3.org/2000/svg" xmlns:xlink="http://www.w3.org/1999/xlink" x="0px" y="0px"
	 viewBox="0 0 200 200" style="enable-background:new 0 0 200 200;" xml:space="preserve">
<style type="text/css">
	.st0{fill:#FFFFFF;}
	.st1{fill:#E30613;}
</style>
<g>
	<g>
		<path d="M194.97,31.37l-0.59-10.97h-10.99c-6.77,0-12.92-3.43-16.44-9.17l-7.1-11.58h-1.54l-9.45,9.44
			c-5.39,5.39-12.56,8.35-20.18,8.35c-7.62,0-14.79-2.97-20.19-8.36l-8.2-8.2l-8.2,8.2c-5.39,5.39-12.56,8.36-20.19,8.36
			c-7.62,0-14.79-2.97-20.18-8.35l-9.44-9.44h-1.54l-7.1,11.58c-3.52,5.74-9.67,9.17-16.44,9.17H6.21L5.62,31.37
			c-2.4,44.39,7.85,82.99,30.46,114.71c18.87,26.47,42.39,42.37,58.79,51.05l5.42,2.87l5.42-2.87
			c16.41-8.68,39.92-24.58,58.79-51.05C187.13,114.36,197.37,75.76,194.97,31.37z"/>
	</g>
	<g>
		<g>
			<path class="st0" d="M100.29,193.7l-2.82-1.49c-15.87-8.4-38.62-23.78-56.86-49.37C18.75,112.18,8.84,74.77,11.18,31.67l0.31-5.7
				h5.71c8.73,0,16.65-4.42,21.19-11.83l4-6.52l5.41,5.4c6.44,6.44,15.01,9.98,24.11,9.98c9.11,0,17.68-3.55,24.13-9.99l4.26-4.27
				l4.26,4.27c6.44,6.44,15.01,9.99,24.12,9.99c9.11,0,17.67-3.55,24.11-9.98l5.41-5.4l4,6.52c4.54,7.41,12.46,11.83,21.19,11.83
				h5.71l0.31,5.7c2.33,43.1-7.57,80.51-29.44,111.17c-18.24,25.58-40.99,40.96-56.86,49.36L100.29,193.7z"/>
		</g>
		<g>
			<path class="st1" d="M183.39,32c-11.15,0-20.92-5.89-26.33-14.71c-15.68,15.67-41.09,15.66-56.77-0.01
				c-8.32,8.32-19.37,12.22-30.26,11.72l96.98,90.44C178.24,96.88,185.35,68.19,183.39,32z"/>
			<path class="st1" d="M100.29,186.75c9.6-5.08,22.05-12.81,34.4-24.26L17.07,52.8C20.66,134.06,72.47,172.03,100.29,186.75z"/>
		</g>
		<path d="M107.32,115.96c-0.66-1.54-1.71-3.8-2.03-6.58l-3.34-28.33c-0.07-0.65,0.04-0.66,0.73-1.01c0.63-0.31,1.06-1.85,0.08-2.76
			L88.13,63.65c-1.47-1.47-2.7-0.35-2.21,1.59c0.54,2.12,0,0,0.54,2.12c0.37,1.47,0.72,3.12,0.07,4.54c-6.76,14.76,0,0-6.76,14.76
			c-0.61,1.33-0.98,1.32-2.64,1.32c-1.28,0-1.73,1.44-1.13,2c0,0,5.25,4.85,5.98,5.57c0.72,0.73,1.71-0.66,1.04-2.22
			c-0.66-1.54-0.66-1.54,0.56-4.2l10.78,10.05c0,0,0,0,0.27,2.28c0.12,1.01-0.02,1.25-1.69,1.25c-1.28,0-1.73,1.44-1.13,2
			c0,0,13.82,12.84,14.54,13.56l-0.07-0.11C107,118.9,107.98,117.52,107.32,115.96z M85.06,85.89l5.69-12.43
			c0.55,0.57,0.68,1.09,0.86,2.48l2.13,18.05L85.06,85.89z"/>
		<g>
			<path d="M66.87,57.23c-2.83,0.44-2.89,1.35-2.8,2.65c0.3,4.24-0.69,6.29-3.71,6.29c-3.74,0-5.48-3.82-5.07-18.14
				c0.08-2.69,1.46-5.1,4.13-5.1c2.67,0,3.87,3.3,4.44,6.67c0.22,1.28,0.74,2.21,3.57,2.65c2.82,0.43,3.29-0.67,3.26-1.85
				c-1.65-10.11-6.88-14.51-13.97-14.51c-7.8,0-14.12,5.84-14.12,17.55c0,11.71,6.32,17.55,14.12,17.55
				c6.27,0,10.73-2.66,13.43-11.34C70.38,58.32,70.13,56.72,66.87,57.23z"/>
		</g>
		<path d="M135.13,113.56c0-1.15,0.99-1.35,1.75-1.58c0.75-0.22,1.26-1.62,0.1-2.78l-12.42-11.61c-1.47-1.47-2.82,0.4-1.93,2.19
			c0.88,1.77,1.98,4.09,1.98,6.24v23.18c0,1.16-0.99,1.36-1.75,1.58c-0.75,0.22-1.26,1.62-0.1,2.78l12.42,11.61
			c1.47,1.47,2.82-0.4,1.93-2.19c-0.88-1.77-1.98-4.09-1.98-6.24V113.56z"/>
		<path d="M41.35,35.94c0,1.75-1.42,3.16-3.16,3.16c-1.74,0-3.16-1.42-3.16-3.16c0-1.75,1.42-3.16,3.16-3.16
			C39.94,32.77,41.35,34.19,41.35,35.94z"/>
		<path d="M77.98,70.03c0,1.75-1.42,3.16-3.16,3.16c-1.75,0-3.16-1.42-3.16-3.16s1.42-3.16,3.16-3.16
			C76.57,66.87,77.98,68.28,77.98,70.03z"/>
		<path d="M117.64,107.04c0,1.75-1.42,3.16-3.16,3.16s-3.16-1.42-3.16-3.16c0-1.75,1.42-3.16,3.16-3.16S117.64,105.29,117.64,107.04
			z"/>
		<path d="M148.65,135.95c0,1.75-1.42,3.16-3.16,3.16c-1.75,0-3.17-1.42-3.17-3.16c0-1.75,1.42-3.16,3.17-3.16
			C147.23,132.79,148.65,134.21,148.65,135.95z"/>
	</g>
</g>
</svg>
