<?xml version="1.0" encoding="utf-8"?>
<!-- Generator: Adobe Illustrator 27.0.0, SVG Export Plug-In . SVG Version: 6.00 Build 0)  -->
<svg version="1.1" id="Capa_1" xmlns="http://www.w3.org/2000/svg" xmlns:xlink="http://www.w3.org/1999/xlink" x="0px" y="0px"
	 viewBox="0 0 200 200" style="enable-background:new 0 0 200 200;" xml:space="preserve">
<style type="text/css">
	.st0{fill:#FFFFFF;}
	.st1{clip-path:url(#SVGID_00000015354974633749921520000015296332257418381997_);fill:#9C0D15;}
	.st2{clip-path:url(#SVGID_00000015354974633749921520000015296332257418381997_);fill:#FFFFFF;}
	
		.st3{clip-path:url(#SVGID_00000015354974633749921520000015296332257418381997_);fill:none;stroke:#9C0D15;stroke-width:7.2416;stroke-miterlimit:3.864;}
	.st4{clip-path:url(#SVGID_00000015354974633749921520000015296332257418381997_);}
	.st5{fill:#D3011D;}
	.st6{clip-path:url(#SVGID_00000015354974633749921520000015296332257418381997_);fill:#D3011D;}
	
		.st7{clip-path:url(#SVGID_00000015354974633749921520000015296332257418381997_);fill:none;stroke:#D3011D;stroke-width:7.2416;stroke-miterlimit:3.864;}
	
		.st8{clip-path:url(#SVGID_00000065056949222418854270000010405312434916916377_);fill:none;stroke:#1A171B;stroke-width:5.1716;stroke-miterlimit:3.864;}
</style>
<g>
	<polyline class="st0" points="7.9,16.6 68.6,16.6 68.6,27.4 130.3,27.4 130.3,16.6 192.1,16.6 192.1,84.8 133.6,183.4 65.3,183.4 
		7.9,84.8 7.9,16.6 	"/>
	<g>
		<defs>
			<polyline id="SVGID_1_" points="7.9,16.6 68.6,16.6 68.6,27.4 130.3,27.4 130.3,16.6 192.1,16.6 192.1,84.8 133.6,183.4 
				65.3,183.4 7.9,84.8 7.9,16.6 			"/>
		</defs>
		<clipPath id="SVGID_00000068645813720580143860000016573319171997142445_">
			<use xlink:href="#SVGID_1_"  style="overflow:visible;"/>
		</clipPath>
		
			<rect x="7.9" y="16.6" style="clip-path:url(#SVGID_00000068645813720580143860000016573319171997142445_);fill:#9C0D15;" width="21.2" height="166.8"/>
		
			<rect x="48" y="16.6" style="clip-path:url(#SVGID_00000068645813720580143860000016573319171997142445_);fill:#9C0D15;" width="22.1" height="166.8"/>
		
			<rect x="88.9" y="16.6" style="clip-path:url(#SVGID_00000068645813720580143860000016573319171997142445_);fill:#9C0D15;" width="22.1" height="166.8"/>
		
			<rect x="129.9" y="16.6" style="clip-path:url(#SVGID_00000068645813720580143860000016573319171997142445_);fill:#9C0D15;" width="22.1" height="166.8"/>
		
			<rect x="170.8" y="16.6" style="clip-path:url(#SVGID_00000068645813720580143860000016573319171997142445_);fill:#9C0D15;" width="21.2" height="166.8"/>
		<polygon style="clip-path:url(#SVGID_00000068645813720580143860000016573319171997142445_);fill:#FFFFFF;" points="15.6,113.9 
			202.1,18.5 202.1,60.4 15.6,155.8 		"/>
		
			<polygon style="clip-path:url(#SVGID_00000068645813720580143860000016573319171997142445_);fill:none;stroke:#9C0D15;stroke-width:7.2416;stroke-miterlimit:3.864;" points="
			15.6,113.9 202.1,18.5 202.1,60.4 15.6,155.8 		"/>
		<g style="clip-path:url(#SVGID_00000068645813720580143860000016573319171997142445_);">
			<path class="st5" d="M71.1,97.7l8,15.6l-2.6,1.3l-8-15.6L71.1,97.7z"/>
		</g>
		<g style="clip-path:url(#SVGID_00000068645813720580143860000016573319171997142445_);">
			<path class="st5" d="M88.2,102.5l0.4,6l-2.7,1.4l-1.1-19.1l3.2-1.6l14.9,12.1l-2.8,1.4l-4.7-3.8L88.2,102.5z M94,97.6l-4.3-3.5
				c-1-0.8-1.7-1.6-2.5-2.3l-0.1,0c0.2,1.1,0.3,2.2,0.4,3.4l0.3,5.5L94,97.6z"/>
			<path class="st5" d="M122.3,90.7c-0.8,0.9-2.5,2.2-5,3.5c-5.7,2.9-11.5,2.3-14.1-2.8c-2.5-4.9,0.1-10.4,6.4-13.6
				c2.5-1.3,4.3-1.7,5.2-1.8l0.2,2c-1.2,0.1-2.7,0.6-4.4,1.4c-4.8,2.4-6.7,6.4-4.6,10.5c2,3.8,6.1,4.8,11,2.3
				c1.6-0.8,3.1-1.9,3.9-2.8L122.3,90.7z"/>
			<path class="st5" d="M142.4,80.4c-0.8,0.9-2.5,2.2-5,3.5c-5.7,2.9-11.5,2.3-14.1-2.8c-2.5-4.9,0.1-10.4,6.4-13.6
				c2.5-1.3,4.3-1.7,5.2-1.8l0.2,2c-1.2,0.1-2.7,0.6-4.4,1.4c-4.8,2.4-6.7,6.4-4.6,10.5c2,3.8,6.1,4.8,11,2.3
				c1.6-0.8,3.1-1.9,3.9-2.8L142.4,80.4z"/>
		</g>
		
			<rect x="7.9" y="16.6" style="clip-path:url(#SVGID_00000068645813720580143860000016573319171997142445_);fill:#D3011D;" width="21.2" height="166.8"/>
		
			<rect x="48" y="16.6" style="clip-path:url(#SVGID_00000068645813720580143860000016573319171997142445_);fill:#D3011D;" width="22.1" height="166.8"/>
		
			<rect x="88.9" y="16.6" style="clip-path:url(#SVGID_00000068645813720580143860000016573319171997142445_);fill:#D3011D;" width="22.1" height="166.8"/>
		
			<rect x="129.9" y="16.6" style="clip-path:url(#SVGID_00000068645813720580143860000016573319171997142445_);fill:#D3011D;" width="22.1" height="166.8"/>
		
			<rect x="170.8" y="16.6" style="clip-path:url(#SVGID_00000068645813720580143860000016573319171997142445_);fill:#D3011D;" width="21.2" height="166.8"/>
		<polygon style="clip-path:url(#SVGID_00000068645813720580143860000016573319171997142445_);fill:#FFFFFF;" points="15.6,113.9 
			202.1,18.5 202.1,60.4 15.6,155.8 		"/>
		
			<polygon style="clip-path:url(#SVGID_00000068645813720580143860000016573319171997142445_);fill:none;stroke:#D3011D;stroke-width:7.2416;stroke-miterlimit:3.864;" points="
			15.6,113.9 202.1,18.5 202.1,60.4 15.6,155.8 		"/>
		<g style="clip-path:url(#SVGID_00000068645813720580143860000016573319171997142445_);">
			<path class="st5" d="M67.4,98.1l4.7-2.4l8.6,16.8l-4.7,2.4L67.4,98.1z"/>
		</g>
		<g style="clip-path:url(#SVGID_00000068645813720580143860000016573319171997142445_);">
			<path class="st5" d="M90.1,86.6l16.1,12.9l-4.7,2.4l-3.4-2.8l-8.6,4.4l0.2,4.4l-4.5,2.3l-0.7-20.8L90.1,86.6z M95.5,97l-6.7-5.6
				l0.4,8.8L95.5,97z"/>
			<path class="st5" d="M118,79.3c-0.4-0.5-1.9-2.8-5-1.1c-3.5,1.8-3.5,5.3-1.7,8.7c0.5,1,2.9,5.7,7.5,3.4c1.9-1,3.3-2.9,2.3-5.2
				l4.9-2.5c0.4,1,1.1,2.7,0,4.9c-1.1,2.5-3.4,4.1-5.4,5.1c-7.5,3.8-12.1,0.8-14.2-3.3c-2.7-5.3-0.7-10.8,5.5-13.9
				c4.8-2.4,9.2-1.9,10.9,1.4L118,79.3z"/>
			<path class="st5" d="M140.7,67.7c-0.4-0.5-1.9-2.8-5-1.1c-3.5,1.8-3.5,5.3-1.7,8.7c0.5,1,2.9,5.7,7.5,3.4c2-1,3.3-2.9,2.3-5.2
				l4.9-2.5c0.4,1,1.1,2.7,0.1,4.9c-1.1,2.5-3.4,4.1-5.4,5.1c-7.5,3.8-12.1,0.8-14.2-3.4c-2.7-5.3-0.6-10.8,5.5-13.9
				c4.8-2.4,9.2-1.9,10.9,1.4L140.7,67.7z"/>
		</g>
	</g>
	<g>
		<defs>
			<rect id="SVGID_00000174599948713599654640000014567195615723890572_" x="5" y="13.7" width="190" height="172.5"/>
		</defs>
		<clipPath id="SVGID_00000163059070228432237100000015444634806916894124_">
			<use xlink:href="#SVGID_00000174599948713599654640000014567195615723890572_"  style="overflow:visible;"/>
		</clipPath>
		
			<polygon style="clip-path:url(#SVGID_00000163059070228432237100000015444634806916894124_);fill:none;stroke:#1A171B;stroke-width:5.1716;stroke-miterlimit:3.864;" points="
			7.9,16.6 68.6,16.6 68.6,27.4 130.3,27.4 130.3,16.6 192.1,16.6 192.1,84.8 133.6,183.4 65.3,183.4 7.9,84.8 		"/>
	</g>
</g>
</svg>
