<?xml version="1.0" encoding="utf-8"?>
<!-- Generator: Adobe Illustrator 26.0.3, SVG Export Plug-In . SVG Version: 6.00 Build 0)  -->
<svg version="1.1" id="Capa_1" xmlns="http://www.w3.org/2000/svg" xmlns:xlink="http://www.w3.org/1999/xlink" x="0px" y="0px"
	 viewBox="0 0 200 200" style="enable-background:new 0 0 200 200;" xml:space="preserve">
<style type="text/css">
	.st0{fill-rule:evenodd;clip-rule:evenodd;fill:#73202A;}
	.st1{fill:#FFFFFF;}
	.st2{fill-rule:evenodd;clip-rule:evenodd;fill:#7B202C;}
	.st3{fill-rule:evenodd;clip-rule:evenodd;fill:#FFFFFF;}
	.st4{fill:#C0983E;}
</style>
<g>
	<g>
		<path class="st0" d="M19.24,122.82c0.31,4.56,3.06,7.48,6.25,9.64c-1.91,2.86-3.57,6.46-2.03,11.11c1.48,4.48,4.81,6.4,8.52,7.68
			c-1.68,2.66-2.02,6.94,0.91,11.28c2.9,4.28,7.31,5.2,10.34,5.2c-0.39,3.24,0.03,7.5,3.71,10.67c3.46,2.98,7.53,3.07,11.31,2.35
			c0.68,3.38,1.97,7.15,6.34,9.34c4.22,2.12,7.95,1.09,11.47-0.63c0.71,3.07,3.47,6.37,8.62,7.36c5.07,0.98,8.9-1.41,11-3.56
			c2.03,2.56,5.31,5.18,10.14,4.84c4.83-0.33,7.72-3.38,9.36-6.21c2.39,1.83,6.51,3.67,11.4,1.99c4.97-1.7,7.23-5.34,7.51-8.49
			c3.73,1.22,7.57,1.71,11.44-0.97c4.02-2.78,4.78-6.7,4.98-10.13c3.85,0.19,7.87-0.46,10.88-3.9c3.19-3.65,3.02-7.93,2.19-11.09
			c2.99-0.4,7.24-1.93,9.51-6.57c2.3-4.71,1.36-8.89-0.67-11.3c3.5-1.77,6.52-4.15,7.39-8.78c0.87-4.82-1.27-8.15-3.56-10.73
			c2.85-2.58,5.17-5.86,4.85-10.42c-0.32-4.56-3.07-7.49-6.25-9.65c1.9-2.86,3.57-6.47,2.03-11.11c-1.49-4.48-4.83-6.4-8.54-7.67
			c1.69-2.67,2.03-6.94-0.91-11.28c-2.89-4.28-7.31-5.21-10.32-5.2c0.38-3.25-0.04-7.51-3.71-10.68c-3.45-2.99-7.54-3.07-11.32-2.35
			c-0.67-3.37-1.97-7.15-6.35-9.34c-4.22-2.12-7.96-1.09-11.47,0.64c-0.7-3.08-3.46-6.37-8.61-7.36c-5.07-0.98-8.9,1.41-11.02,3.55
			c-2.02-2.56-5.31-5.18-10.13-4.84c-4.83,0.34-7.71,3.39-9.35,6.21c-2.39-1.83-6.52-3.66-11.4-1.98c-4.96,1.7-7.25,5.34-7.51,8.49
			c-3.73-1.22-7.57-1.72-11.45,0.96c-4.04,2.78-4.78,6.7-4.99,10.13c-3.84-0.19-7.87,0.47-10.88,3.91
			c-3.19,3.64-3.02,7.92-2.19,11.08c-2.99,0.4-7.23,1.93-9.49,6.58c-2.31,4.71-1.38,8.89,0.66,11.31c-3.49,1.76-6.53,4.14-7.38,8.79
			c-0.89,4.82,1.27,8.15,3.56,10.73C21.23,114.98,18.92,118.26,19.24,122.82L19.24,122.82z"/>
		<path class="st1" d="M95.87,190.41l1.32,1.68c2.34,2.97,5.14,4.36,8.52,4.13c3.32-0.22,5.96-2,7.86-5.27l1.06-1.85l1.7,1.29
			c1.11,0.84,3.41,2.26,6.4,2.26c1.09,0,2.18-0.19,3.25-0.56c4.32-1.47,6.06-4.51,6.26-6.87l0.2-2.37l2.25,0.73
			c1.88,0.61,3.37,0.89,4.73,0.89c1.84,0,3.5-0.53,5.06-1.62c3.37-2.32,4-5.55,4.19-8.69l0.11-1.86l1.86,0.09
			c0.35,0.03,0.72,0.03,1.08,0.03c3.69,0,6.33-1.05,8.29-3.28c2.17-2.48,2.77-5.64,1.78-9.38l-0.54-2.06l2.12-0.29
			c2.13-0.28,6.03-1.39,8.06-5.54c2-4.09,1.09-7.47-0.41-9.27l-1.53-1.82l2.12-1.07c3.92-1.99,5.77-4.15,6.39-7.45
			c0.75-4.13-1.15-6.93-3.12-9.14l-1.23-1.4l1.38-1.24c3.12-2.82,4.46-5.64,4.24-8.9c-0.23-3.25-1.95-5.86-5.44-8.22l-1.54-1.05
			l1.03-1.55c1.64-2.45,3.13-5.49,1.81-9.48c-1.05-3.18-3.19-5.05-7.36-6.48l-2.25-0.77l1.27-2.01c1.24-1.99,1.67-5.45-0.89-9.22
			c-2.57-3.8-6.54-4.37-8.67-4.37h-2.12l0.15-2.1c0.45-3.85-0.58-6.88-3.07-9.04c-2.48-2.12-5.49-2.74-9.75-1.92l-1.83,0.35
			l-0.37-1.83c-0.61-3.09-1.69-6.2-5.34-8.02c-3.02-1.51-5.7-1.37-9.8,0.65l-2.14,1.05l-0.52-2.32c-0.53-2.3-2.68-5.07-7.14-5.92
			c-0.66-0.13-1.32-0.2-1.97-0.2c-3.62,0-6.16,2.02-7.35,3.22l-1.48,1.51l-1.32-1.68c-2.35-2.96-5.13-4.36-8.53-4.13
			c-3.3,0.23-5.94,2.01-7.87,5.28l-1.06,1.83l-1.69-1.28c-1.11-0.84-3.42-2.25-6.4-2.25c-1.08,0-2.18,0.18-3.25,0.55
			c-4.31,1.47-6.06,4.51-6.26,6.87l-0.2,2.36l-2.26-0.73c-1.86-0.61-3.36-0.9-4.73-0.9c-1.83,0-3.49,0.53-5.06,1.62
			c-3.36,2.31-3.99,5.55-4.18,8.69l-0.11,1.86l-1.86-0.09c-0.36-0.02-0.7-0.03-1.06-0.03c-3.71,0-6.34,1.05-8.31,3.29
			c-2.17,2.47-2.77,5.63-1.79,9.37l0.54,2.05L37,76.87c-2.14,0.29-6.02,1.39-8.07,5.54c-2.01,4.1-1.1,7.47,0.41,9.27l1.54,1.81
			l-2.12,1.08c-3.93,1.99-5.78,4.14-6.39,7.44c-0.76,4.13,1.15,6.94,3.11,9.14l1.23,1.39l-1.39,1.26c-3.11,2.82-4.45,5.64-4.23,8.89
			c0.22,3.24,1.95,5.85,5.43,8.22l1.55,1.04l-1.03,1.56c-1.64,2.45-3.13,5.51-1.81,9.48c1.05,3.18,3.18,5.06,7.35,6.49l2.25,0.77
			l-1.27,2.01c-1.24,1.99-1.67,5.44,0.88,9.22c2.57,3.8,6.57,4.37,8.72,4.37h2.13l-0.2,2.1c-0.45,3.84,0.58,6.88,3.07,9.03
			c2.48,2.13,5.48,2.75,9.73,1.93l1.84-0.35l0.36,1.82c0.63,3.1,1.7,6.21,5.35,8.04c3.01,1.51,5.69,1.37,9.79-0.65l2.14-1.05
			l0.54,2.31c0.51,2.31,2.68,5.07,7.13,5.95c0.67,0.12,1.32,0.19,1.96,0.19c3.63,0,6.16-2.02,7.36-3.22L95.87,190.41z M104.99,200
			c-3.56,0-6.79-1.41-9.45-4.11c-1.88,1.47-4.75,3.01-8.53,3.01c-0.89,0-1.78-0.08-2.68-0.25c-4.99-0.97-7.95-3.8-9.34-6.68
			c-1.57,0.63-3.49,1.16-5.56,1.16c-1.93,0-3.83-0.46-5.67-1.38c-4.32-2.17-6.06-5.68-6.94-8.9c-4.46,0.52-8.15-0.5-11.11-3.04
			c-2.99-2.58-4.51-6.12-4.48-10.34c-3.02-0.36-7.05-1.7-9.89-5.9c-2.85-4.22-2.95-8.3-1.91-11.3c-3.06-1.33-6.25-3.57-7.77-8.12
			c-1.54-4.66-0.24-8.46,1.3-11.21c-3.5-2.8-5.34-6.08-5.62-10c-0.27-3.92,1.09-7.42,4.17-10.68c-1.92-2.51-3.74-6.1-2.84-10.93
			c0.86-4.72,3.71-7.37,6.55-9.11c-1.45-2.83-1.92-6.89,0.33-11.47c2.24-4.58,6.05-6.46,8.96-7.23c-0.61-4.16,0.4-7.88,3-10.84
			c2.59-2.96,6.05-4.45,10.57-4.57c0.41-3.3,1.65-7.02,5.64-9.77c3.25-2.24,6.67-2.85,11.08-1.78c0.98-3.04,3.51-6.25,8.33-7.9
			c1.46-0.5,2.97-0.77,4.47-0.77c2.91,0,5.31,0.96,7,1.93c2.48-3.32,5.82-5.2,9.76-5.48c4.02-0.3,7.52,1.14,10.43,4.06
			c1.87-1.46,4.75-3,8.52-3c0.88,0,1.79,0.09,2.68,0.26c4.99,0.96,7.95,3.79,9.33,6.66c1.57-0.62,3.49-1.16,5.57-1.16
			c1.93,0,3.83,0.47,5.67,1.39c4.33,2.17,6.07,5.68,6.93,8.9c4.48-0.52,8.17,0.5,11.12,3.04c2.99,2.58,4.51,6.13,4.47,10.34
			c3.03,0.36,7.04,1.69,9.89,5.9c2.86,4.21,2.96,8.31,1.92,11.3c3.06,1.33,6.25,3.56,7.76,8.1c1.54,4.68,0.25,8.48-1.31,11.22
			c3.51,2.8,5.35,6.08,5.63,10c0.26,3.92-1.11,7.43-4.18,10.68c1.92,2.51,3.73,6.09,2.87,10.93c-0.89,4.73-3.73,7.38-6.58,9.11
			c1.45,2.82,1.91,6.89-0.32,11.46c-2.24,4.59-6.05,6.47-8.96,7.22c0.48,3.24,0.13,7.29-3,10.86c-2.6,2.96-6.06,4.45-10.57,4.56
			c-0.42,3.3-1.65,7.03-5.64,9.78c-3.26,2.25-6.66,2.86-11.09,1.78c-0.98,3.04-3.5,6.26-8.33,7.91c-1.47,0.5-2.97,0.76-4.47,0.76
			c-2.91,0-5.31-0.96-7-1.93c-1.92,2.59-5.01,5.15-9.77,5.48C105.64,199.99,105.32,200,104.99,200z"/>
		<path class="st2" d="M19.24,122.81c0.31,4.56,3.06,7.48,6.25,9.64c-1.92,2.86-3.58,6.47-2.03,11.11c1.48,4.49,4.82,6.41,8.52,7.68
			c-1.68,2.67-2.03,6.93,0.91,11.29c2.89,4.28,7.31,5.2,10.34,5.18c-0.39,3.25,0.04,7.51,3.71,10.68c3.46,2.98,7.53,3.07,11.31,2.35
			c0.68,3.38,1.97,7.15,6.34,9.34c4.22,2.12,7.95,1.09,11.48-0.63c0.7,3.07,3.46,6.37,8.61,7.36c5.07,0.98,8.9-1.41,11-3.56
			c2.03,2.56,5.3,5.18,10.15,4.84c4.82-0.33,7.71-3.38,9.34-6.2c2.39,1.83,6.52,3.67,11.4,1.99c4.96-1.7,7.23-5.34,7.5-8.5
			c3.73,1.22,7.58,1.72,11.45-0.96c4.02-2.78,4.78-6.7,4.98-10.13c3.84,0.19,7.87-0.47,10.88-3.9c3.19-3.65,3.02-7.93,2.2-11.09
			c2.98-0.4,7.23-1.93,9.49-6.57c2.31-4.71,1.37-8.89-0.66-11.3c3.5-1.77,6.53-4.14,7.38-8.78c0.89-4.82-1.27-8.16-3.55-10.73
			c2.85-2.58,5.17-5.86,4.85-10.42c-0.33-4.56-3.07-7.49-6.25-9.65c1.9-2.86,3.56-6.47,2.03-11.11c-1.49-4.48-4.83-6.41-8.54-7.67
			c1.69-2.67,2.03-6.95-0.91-11.28c-2.89-4.28-7.31-5.21-10.32-5.19c0.38-3.25-0.05-7.51-3.71-10.68
			c-3.45-2.98-7.54-3.07-11.32-2.35c-0.68-3.37-1.98-7.15-6.35-9.34c-4.22-2.11-7.96-1.09-11.48,0.64
			c-0.69-3.08-3.46-6.37-8.61-7.36c-5.06-0.98-8.89,1.41-11.02,3.54c-2.01-2.56-5.3-5.18-10.13-4.84c-4.83,0.34-7.7,3.39-9.35,6.2
			c-2.4-1.82-6.51-3.66-11.41-1.99c-4.96,1.7-7.24,5.35-7.5,8.5c-3.73-1.23-7.57-1.72-11.45,0.96c-4.03,2.77-4.78,6.7-4.99,10.13
			c-3.84-0.19-7.87,0.47-10.88,3.9c-3.19,3.64-3.02,7.92-2.19,11.08c-2.99,0.4-7.24,1.93-9.49,6.57c-2.31,4.71-1.38,8.89,0.66,11.31
			c-3.5,1.76-6.54,4.14-7.39,8.78c-0.89,4.82,1.27,8.16,3.56,10.73C21.23,114.98,18.92,118.26,19.24,122.81L19.24,122.81z"/>
		<path class="st1" d="M104.99,198.13c-1.99,0-3.87-0.52-5.57-1.54c-1.35-0.8-2.61-1.93-3.72-3.33c-1.4,1.41-4.37,3.77-8.69,3.77
			c-0.76,0-1.53-0.08-2.31-0.23c-5.35-1.04-7.96-4.47-8.62-7.36c-2.57,1.26-4.62,1.82-6.64,1.82c-1.66,0-3.25-0.39-4.84-1.19
			c-4.37-2.19-5.66-5.95-6.35-9.33c-1.31,0.25-2.51,0.37-3.63,0.37c-3.03,0-5.55-0.89-7.68-2.73c-3.72-3.22-4.08-7.57-3.71-10.67
			h-0.04c-2.53,0-7.23-0.68-10.28-5.2c-3.07-4.53-2.49-8.79-0.94-11.28c-3.33-1.15-6.95-2.97-8.51-7.69
			c-1.59-4.77,0.24-8.44,2.01-11.11c-3.98-2.71-5.98-5.78-6.24-9.64c-0.27-3.87,1.27-7.19,4.85-10.42
			c-2.13-2.4-4.46-5.79-3.55-10.73c0.9-4.9,4.23-7.19,7.37-8.78c-1.89-2.26-3.05-6.41-0.66-11.31c2.41-4.94,6.98-6.25,9.5-6.59
			c-0.79-3.02-1.04-7.38,2.2-11.08c2.33-2.65,5.51-3.94,9.74-3.94c0.36,0,0.74,0.02,1.13,0.03c0.21-3.45,0.97-7.35,5-10.13
			c1.9-1.32,3.92-1.95,6.14-1.95c1.58,0,3.26,0.31,5.31,0.98c0.25-2.95,2.35-6.72,7.51-8.48c1.28-0.43,2.59-0.66,3.88-0.66
			c3.52,0,6.23,1.65,7.54,2.64c1.53-2.64,4.39-5.85,9.35-6.19c0.29-0.02,0.56-0.03,0.85-0.03c4.51,0,7.54,2.64,9.29,4.86
			c1.39-1.41,4.39-3.77,8.69-3.77c0.77,0,1.55,0.08,2.33,0.23c5.34,1.03,7.96,4.47,8.61,7.35c2.58-1.26,4.62-1.82,6.63-1.82
			c1.67,0,3.25,0.39,4.85,1.19c4.37,2.19,5.67,5.95,6.35,9.33c1.32-0.25,2.51-0.37,3.64-0.37c3.04,0,5.55,0.89,7.68,2.73
			c3.71,3.21,4.08,7.58,3.71,10.67h0.08c2.51,0,7.18,0.68,10.24,5.2c3.06,4.52,2.49,8.79,0.93,11.28c3.34,1.14,6.96,2.95,8.52,7.67
			c1.58,4.77-0.24,8.44-2.02,11.11c3.99,2.71,5.98,5.77,6.25,9.65c0.27,3.87-1.27,7.19-4.85,10.42c2.13,2.41,4.46,5.8,3.55,10.73
			c-0.89,4.89-4.22,7.19-7.37,8.78c1.89,2.25,3.05,6.4,0.65,11.3c-2.4,4.93-6.97,6.24-9.49,6.58c0.79,3.02,1.04,7.39-2.2,11.09
			c-2.31,2.65-5.5,3.93-9.72,3.93c-0.37,0-0.76-0.01-1.15-0.03c-0.2,3.44-0.95,7.34-4.99,10.13c-1.9,1.3-3.91,1.94-6.14,1.94
			c-1.57,0-3.25-0.31-5.31-0.97c-0.25,2.95-2.35,6.72-7.5,8.49c-1.28,0.44-2.58,0.66-3.87,0.66c-3.54,0-6.23-1.65-7.54-2.64
			c-1.53,2.64-4.41,5.86-9.34,6.2C105.56,198.12,105.27,198.13,104.99,198.13z M95.7,193.23l0.02,0.01
			c1.76,2.22,4.79,4.87,9.28,4.87c0.28,0,0.57-0.02,0.85-0.03c4.93-0.34,7.8-3.56,9.33-6.2l0.01-0.01l0.01,0.01
			c1.29,0.99,3.99,2.65,7.53,2.65c1.29,0,2.58-0.22,3.86-0.66c5.14-1.76,7.23-5.53,7.48-8.48l0.01-0.01h0.02
			c2.05,0.68,3.74,0.99,5.31,0.99c2.24,0,4.23-0.64,6.12-1.94c4.04-2.8,4.79-6.68,4.99-10.12v-0.02h0.01
			c0.4,0.02,0.79,0.03,1.16,0.03c4.22,0,7.39-1.28,9.7-3.91c3.23-3.71,2.98-8.07,2.19-11.09l-0.01-0.01l0.02-0.01
			c2.51-0.33,7.08-1.63,9.49-6.57c2.4-4.9,1.24-9.04-0.65-11.29l-0.02-0.01l0.03-0.01c3.14-1.59,6.47-3.88,7.37-8.77
			c0.9-4.92-1.42-8.31-3.55-10.71l-0.01-0.01l0.01,0c3.56-3.23,5.11-6.54,4.83-10.41c-0.27-3.86-2.25-6.93-6.24-9.64l-0.01-0.01
			l0.01-0.02c1.77-2.66,3.6-6.33,2.03-11.1c-1.56-4.71-5.19-6.51-8.52-7.65l-0.02-0.02l0.01-0.01c1.56-2.48,2.13-6.75-0.91-11.26
			c-3.06-4.51-7.72-5.19-10.22-5.19h-0.11l0.01-0.02c0.35-3.09,0.01-7.45-3.72-10.66c-2.12-1.83-4.62-2.72-7.65-2.72
			c-1.13,0-2.32,0.12-3.64,0.38l-0.01,0.01v-0.02c-0.69-3.38-1.99-7.14-6.35-9.32c-1.59-0.8-3.16-1.18-4.83-1.18
			c-2.01,0-4.05,0.56-6.63,1.82l-0.02,0.01l-0.01-0.01c-0.65-2.88-3.24-6.32-8.6-7.35c-0.77-0.15-1.55-0.22-2.32-0.22
			c-4.3,0-7.28,2.36-8.68,3.77l-0.01,0.01l0-0.01c-1.75-2.22-4.78-4.86-9.28-4.86c-0.28,0-0.56,0.01-0.85,0.03
			c-4.94,0.35-7.8,3.56-9.34,6.2v0.01l-0.02-0.01c-1.3-0.99-4-2.64-7.52-2.64c-1.29,0-2.58,0.22-3.86,0.66
			c-5.15,1.76-7.25,5.53-7.49,8.48v0.01l-0.03,0c-2.05-0.68-3.73-0.99-5.31-0.99c-2.21,0-4.22,0.63-6.12,1.95
			c-4.02,2.78-4.77,6.68-4.97,10.12v0.01h-0.02C49.42,60.02,49.04,60,48.67,60c-4.22,0-7.4,1.29-9.73,3.93
			c-3.24,3.69-2.97,8.06-2.17,11.07v0.01h-0.02c-2.5,0.34-7.08,1.64-9.49,6.58c-2.4,4.9-1.23,9.04,0.66,11.28l0.02,0.01l-0.02,0.02
			c-3.15,1.59-6.48,3.87-7.37,8.77c-0.91,4.93,1.42,8.31,3.54,10.71v0.01v0.01c-3.58,3.23-5.11,6.54-4.85,10.41
			c0.28,3.87,2.26,6.91,6.25,9.63l0.01,0l-0.01,0.02c-1.78,2.66-3.62,6.33-2.03,11.09c1.57,4.71,5.19,6.52,8.53,7.67l0.02,0
			L32,151.26c-1.56,2.48-2.14,6.74,0.93,11.25c3.05,4.52,7.75,5.19,10.25,5.19h0.08l-0.01,0.01c-0.36,3.1-0.02,7.45,3.71,10.67
			c2.12,1.83,4.63,2.71,7.65,2.71c1.13,0,2.33-0.12,3.65-0.38h0.01v0.02c0.69,3.38,1.97,7.14,6.34,9.33
			c1.59,0.79,3.16,1.18,4.82,1.18c2.02,0,4.07-0.56,6.64-1.82l0.02-0.01v0.02c0.66,2.87,3.25,6.32,8.6,7.35
			c0.78,0.15,1.55,0.22,2.31,0.22C91.33,197.01,94.3,194.65,95.7,193.23L95.7,193.23z"/>
		<path class="st2" d="M19.24,122.81c0.31,4.56,3.06,7.48,6.25,9.64c-1.92,2.86-3.58,6.47-2.03,11.11c1.48,4.49,4.82,6.41,8.52,7.68
			c-1.68,2.67-2.03,6.93,0.91,11.29c2.89,4.28,7.31,5.2,10.34,5.18c-0.39,3.25,0.04,7.51,3.71,10.68c3.46,2.98,7.53,3.07,11.31,2.35
			c0.68,3.38,1.97,7.15,6.34,9.34c4.22,2.12,7.95,1.09,11.48-0.63c0.7,3.07,3.46,6.37,8.61,7.36c5.07,0.98,8.9-1.41,11-3.56
			c2.03,2.56,5.3,5.18,10.15,4.84c4.82-0.33,7.71-3.38,9.34-6.2c2.39,1.83,6.52,3.67,11.4,1.99c4.96-1.7,7.23-5.34,7.5-8.5
			c3.73,1.22,7.58,1.72,11.45-0.96c4.02-2.78,4.78-6.7,4.98-10.13c3.84,0.19,7.87-0.47,10.88-3.9c3.19-3.65,3.02-7.93,2.2-11.09
			c2.98-0.4,7.23-1.93,9.49-6.57c2.31-4.71,1.37-8.89-0.66-11.3c3.5-1.77,6.53-4.14,7.38-8.78c0.89-4.82-1.27-8.16-3.55-10.73
			c2.85-2.58,5.17-5.86,4.85-10.42c-0.33-4.56-3.07-7.49-6.25-9.65c1.9-2.86,3.56-6.47,2.03-11.11c-1.49-4.48-4.83-6.41-8.54-7.67
			c1.69-2.67,2.03-6.95-0.91-11.28c-2.89-4.28-7.31-5.21-10.32-5.19c0.38-3.25-0.05-7.51-3.71-10.68
			c-3.45-2.98-7.54-3.07-11.32-2.35c-0.68-3.37-1.98-7.15-6.35-9.34c-4.22-2.11-7.96-1.09-11.48,0.64
			c-0.69-3.08-3.46-6.37-8.61-7.36c-5.06-0.98-8.89,1.41-11.02,3.54c-2.01-2.56-5.3-5.18-10.13-4.84c-4.83,0.34-7.7,3.39-9.35,6.2
			c-2.4-1.82-6.51-3.66-11.41-1.99c-4.96,1.7-7.24,5.35-7.5,8.5c-3.73-1.23-7.57-1.72-11.45,0.96c-4.03,2.77-4.78,6.7-4.99,10.13
			c-3.84-0.19-7.87,0.47-10.88,3.9c-3.19,3.64-3.02,7.92-2.19,11.08c-2.99,0.4-7.24,1.93-9.49,6.57c-2.31,4.71-1.38,8.89,0.66,11.31
			c-3.5,1.76-6.54,4.14-7.39,8.78c-0.89,4.82,1.27,8.16,3.56,10.73C21.23,114.98,18.92,118.26,19.24,122.81L19.24,122.81z"/>
		<path class="st1" d="M104.99,198.13c-1.99,0-3.87-0.52-5.57-1.54c-1.35-0.8-2.61-1.93-3.72-3.33c-1.4,1.41-4.37,3.77-8.69,3.77
			c-0.76,0-1.53-0.08-2.31-0.23c-5.35-1.04-7.96-4.47-8.62-7.36c-2.57,1.26-4.62,1.82-6.64,1.82c-1.66,0-3.25-0.39-4.84-1.19
			c-4.37-2.19-5.66-5.95-6.35-9.33c-1.31,0.25-2.51,0.37-3.63,0.37c-3.03,0-5.55-0.89-7.68-2.73c-3.72-3.22-4.08-7.57-3.71-10.67
			h-0.04c-2.53,0-7.23-0.68-10.28-5.2c-3.07-4.53-2.49-8.79-0.94-11.28c-3.33-1.15-6.95-2.97-8.51-7.69
			c-1.59-4.77,0.24-8.44,2.01-11.11c-3.98-2.71-5.98-5.78-6.24-9.64c-0.27-3.87,1.27-7.19,4.85-10.42
			c-2.13-2.4-4.46-5.79-3.55-10.73c0.9-4.9,4.23-7.19,7.37-8.78c-1.89-2.26-3.05-6.41-0.66-11.31c2.41-4.94,6.98-6.25,9.5-6.59
			c-0.79-3.02-1.04-7.38,2.2-11.08c2.33-2.65,5.51-3.94,9.74-3.94c0.36,0,0.74,0.02,1.13,0.03c0.21-3.45,0.97-7.35,5-10.13
			c1.9-1.32,3.92-1.95,6.14-1.95c1.58,0,3.26,0.31,5.31,0.98c0.25-2.95,2.35-6.72,7.51-8.48c1.28-0.43,2.59-0.66,3.88-0.66
			c3.52,0,6.23,1.65,7.54,2.64c1.53-2.64,4.39-5.85,9.35-6.19c0.29-0.02,0.56-0.03,0.85-0.03c4.51,0,7.54,2.64,9.29,4.86
			c1.39-1.41,4.39-3.77,8.69-3.77c0.77,0,1.55,0.08,2.33,0.23c5.34,1.03,7.96,4.47,8.61,7.35c2.58-1.26,4.62-1.82,6.63-1.82
			c1.67,0,3.25,0.39,4.85,1.19c4.37,2.19,5.67,5.95,6.35,9.33c1.32-0.25,2.51-0.37,3.64-0.37c3.04,0,5.55,0.89,7.68,2.73
			c3.71,3.21,4.08,7.58,3.71,10.67h0.08c2.51,0,7.18,0.68,10.24,5.2c3.06,4.52,2.49,8.79,0.93,11.28c3.34,1.14,6.96,2.95,8.52,7.67
			c1.58,4.77-0.24,8.44-2.02,11.11c3.99,2.71,5.98,5.77,6.25,9.65c0.27,3.87-1.27,7.19-4.85,10.42c2.13,2.41,4.46,5.8,3.55,10.73
			c-0.89,4.89-4.22,7.19-7.37,8.78c1.89,2.25,3.05,6.4,0.65,11.3c-2.4,4.93-6.97,6.24-9.49,6.58c0.79,3.02,1.04,7.39-2.2,11.09
			c-2.31,2.65-5.5,3.93-9.72,3.93c-0.37,0-0.76-0.01-1.15-0.03c-0.2,3.44-0.95,7.34-4.99,10.13c-1.9,1.3-3.91,1.94-6.14,1.94
			c-1.57,0-3.25-0.31-5.31-0.97c-0.25,2.95-2.35,6.72-7.5,8.49c-1.28,0.44-2.58,0.66-3.87,0.66c-3.54,0-6.23-1.65-7.54-2.64
			c-1.53,2.64-4.41,5.86-9.34,6.2C105.56,198.12,105.27,198.13,104.99,198.13z M95.7,193.23l0.02,0.01
			c1.76,2.22,4.79,4.87,9.28,4.87c0.28,0,0.57-0.02,0.85-0.03c4.93-0.34,7.8-3.56,9.33-6.2l0.01-0.01l0.01,0.01
			c1.29,0.99,3.99,2.65,7.53,2.65c1.29,0,2.58-0.22,3.86-0.66c5.14-1.76,7.23-5.53,7.48-8.48l0.01-0.01h0.02
			c2.05,0.68,3.74,0.99,5.31,0.99c2.24,0,4.23-0.64,6.12-1.94c4.04-2.8,4.79-6.68,4.99-10.12v-0.02h0.01
			c0.4,0.02,0.79,0.03,1.16,0.03c4.22,0,7.39-1.28,9.7-3.91c3.23-3.71,2.98-8.07,2.19-11.09l-0.01-0.01l0.02-0.01
			c2.51-0.33,7.08-1.63,9.49-6.57c2.4-4.9,1.24-9.04-0.65-11.29l-0.02-0.01l0.03-0.01c3.14-1.59,6.47-3.88,7.37-8.77
			c0.9-4.92-1.42-8.31-3.55-10.71l-0.01-0.01l0.01,0c3.56-3.23,5.11-6.54,4.83-10.41c-0.27-3.86-2.25-6.93-6.24-9.64l-0.01-0.01
			l0.01-0.02c1.77-2.66,3.6-6.33,2.03-11.1c-1.56-4.71-5.19-6.51-8.52-7.65l-0.02-0.02l0.01-0.01c1.56-2.48,2.13-6.75-0.91-11.26
			c-3.06-4.51-7.72-5.19-10.22-5.19h-0.11l0.01-0.02c0.35-3.09,0.01-7.45-3.72-10.66c-2.12-1.83-4.62-2.72-7.65-2.72
			c-1.13,0-2.32,0.12-3.64,0.38l-0.01,0.01v-0.02c-0.69-3.38-1.99-7.14-6.35-9.32c-1.59-0.8-3.16-1.18-4.83-1.18
			c-2.01,0-4.05,0.56-6.63,1.82l-0.02,0.01l-0.01-0.01c-0.65-2.88-3.24-6.32-8.6-7.35c-0.77-0.15-1.55-0.22-2.32-0.22
			c-4.3,0-7.28,2.36-8.68,3.77l-0.01,0.01l0-0.01c-1.75-2.22-4.78-4.86-9.28-4.86c-0.28,0-0.56,0.01-0.85,0.03
			c-4.94,0.35-7.8,3.56-9.34,6.2v0.01l-0.02-0.01c-1.3-0.99-4-2.64-7.52-2.64c-1.29,0-2.58,0.22-3.86,0.66
			c-5.15,1.76-7.25,5.53-7.49,8.48v0.01l-0.03,0c-2.05-0.68-3.73-0.99-5.31-0.99c-2.21,0-4.22,0.63-6.12,1.95
			c-4.02,2.78-4.77,6.68-4.97,10.12v0.01h-0.02C49.42,60.02,49.04,60,48.67,60c-4.22,0-7.4,1.29-9.73,3.93
			c-3.24,3.69-2.97,8.06-2.17,11.07v0.01h-0.02c-2.5,0.34-7.08,1.64-9.49,6.58c-2.4,4.9-1.23,9.04,0.66,11.28l0.02,0.01l-0.02,0.02
			c-3.15,1.59-6.48,3.87-7.37,8.77c-0.91,4.93,1.42,8.31,3.54,10.71v0.01v0.01c-3.58,3.23-5.11,6.54-4.85,10.41
			c0.28,3.87,2.26,6.91,6.25,9.63l0.01,0l-0.01,0.02c-1.78,2.66-3.62,6.33-2.03,11.09c1.57,4.71,5.19,6.52,8.53,7.67l0.02,0
			L32,151.26c-1.56,2.48-2.14,6.74,0.93,11.25c3.05,4.52,7.75,5.19,10.25,5.19h0.08l-0.01,0.01c-0.36,3.1-0.02,7.45,3.71,10.67
			c2.12,1.83,4.63,2.71,7.65,2.71c1.13,0,2.33-0.12,3.65-0.38h0.01v0.02c0.69,3.38,1.97,7.14,6.34,9.33
			c1.59,0.79,3.16,1.18,4.82,1.18c2.02,0,4.07-0.56,6.64-1.82l0.02-0.01v0.02c0.66,2.87,3.25,6.32,8.6,7.35
			c0.78,0.15,1.55,0.22,2.31,0.22C91.33,197.01,94.3,194.65,95.7,193.23L95.7,193.23z"/>
		<path class="st3" d="M99.94,53.59c-35.01,0-63.57,28.56-63.57,63.56c0,35.01,28.55,63.57,63.57,63.57
			c35,0,63.56-28.56,63.56-63.57C163.5,82.15,134.94,53.59,99.94,53.59z M129.21,113.81H91.37V94.3h37.84
			c-2.4,2.69-3.84,6.08-3.84,9.76C125.37,107.74,126.81,111.13,129.21,113.81z M144.02,119.84c0,0.09,0,0.17,0,0.27
			c0,9.6-3.24,18.48-8.68,25.65H91.37v-25.92H144.02z M99.94,176.98c-32.95,0-59.83-26.88-59.83-59.83
			c0-27.91,19.3-51.47,45.24-58.01V73.1H72c-15.44,9.08-25.79,25.44-25.79,44.05c0,10.57,3.34,20.4,9.04,28.61h-4.84
			c1.22,2.08,2.56,4.1,4.04,6.01h5.7c1.15,1.21,2.36,2.38,3.61,3.49v6.16c1.91,1.57,3.93,3,6.03,4.31v-5.9
			c2.81,1.84,5.82,3.42,8.97,4.74l2.6-5.4c-4.2-1.71-8.09-3.97-11.58-6.69v-0.72h60c-4.69,4.2-10.28,7.42-16.47,9.32l2.61,5.44
			c8.72-2.85,16.37-8.01,22.2-14.76h4.93c1.54-1.91,2.94-3.91,4.22-6.01l0,0h-4.68c4.68-7.47,7.4-16.26,7.4-25.65
			c0-2.13-0.15-4.23-0.4-6.29h-7.38c-6.08-0.44-10.87-4.65-10.87-9.75c0-5.12,4.83-9.33,10.94-9.76h5.81
			c-1.09-2.08-2.31-4.1-3.67-6.01H91.37v-9.17h44.82c-2.56-2.25-5.34-4.27-8.32-6.02h-36.5V57.96c2.8-0.41,5.66-0.63,8.57-0.63
			c32.95,0,59.82,26.88,59.82,59.82C159.76,150.1,132.89,176.98,99.94,176.98z M69.78,113.81V94.3h15.56v19.51H69.78z M85.34,119.84
			v25.92H69.78v-25.92H85.34z M63.01,88.29c3.04-3.54,6.61-6.63,10.61-9.17h11.73v9.17H63.01z M63.76,94.3v51.45h-0.98
			c-6.62-7.84-10.6-17.79-10.6-28.61c0-8.31,2.36-16.12,6.45-22.85H63.76z"/>
	</g>
	<g>
		<polygon class="st4" points="26.68,26.33 30.41,34.75 38.75,35.1 32.71,40.98 34.14,49.29 26.68,45.37 19.22,49.29 20.64,40.98 
			14.61,35.1 22.95,34.75 		"/>
		<polygon class="st4" points="55.92,7.03 59.65,15.44 67.99,15.79 61.95,21.68 63.38,29.98 55.92,26.07 48.46,29.98 49.88,21.68 
			43.85,15.79 52.18,15.44 		"/>
		<polygon class="st4" points="84.67,-0.12 80.93,8.3 72.6,8.65 78.64,14.53 77.21,22.84 84.67,18.92 92.13,22.84 90.7,14.53 
			96.74,8.65 88.4,8.3 		"/>
		<polygon class="st4" points="145.39,7.96 141.66,16.38 133.32,16.73 139.36,22.61 137.93,30.92 145.39,27 152.86,30.92 
			151.43,22.61 157.47,16.73 149.13,16.38 		"/>
		<polygon class="st4" points="115.71,-0.35 119.44,8.07 127.78,8.42 121.74,14.3 123.16,22.61 115.71,18.68 108.25,22.61 
			109.68,14.3 103.64,8.42 111.98,8.07 		"/>
		<polygon class="st4" points="173.91,26.33 177.64,34.75 185.98,35.1 179.94,40.98 181.37,49.29 173.91,45.37 166.45,49.29 
			167.87,40.98 161.83,35.1 170.17,34.75 		"/>
	</g>
</g>
</svg>
