<?xml version="1.0" encoding="utf-8"?>
<!-- Generator: Adobe Illustrator 26.0.3, SVG Export Plug-In . SVG Version: 6.00 Build 0)  -->
<svg version="1.1" id="Capa_1" xmlns="http://www.w3.org/2000/svg" xmlns:xlink="http://www.w3.org/1999/xlink" x="0px" y="0px"
	 viewBox="0 0 200 200" style="enable-background:new 0 0 200 200;" xml:space="preserve">
<style type="text/css">
	.st0{fill:#FFFFFF;}
	.st1{fill:#E30613;}
</style>
<g>
	<path class="st0" d="M181.63,68.93c-0.09,14.65-1.91,28.33-5.39,40.67c-3.44,12.16-8.86,24.37-15.68,35.32
		c-6.36,10.23-14.63,20.29-24.57,29.9c-10.42,10.07-21.4,18.08-32.62,23.8l-1.61,0.82l-0.1,0.05c-0.41,0.21-0.87,0.33-1.36,0.33
		c-0.5,0-0.96-0.12-1.37-0.34l-0.08-0.04l-1.62-0.82c-11.22-5.73-22.2-13.74-32.62-23.8c-9.94-9.61-18.21-19.67-24.58-29.9
		c-6.81-10.95-12.23-23.16-15.67-35.32c-3.49-12.34-5.3-26.02-5.39-40.67c-0.1-17.15,2.95-34.56,5.82-49.53l1.13-5.9l0.04-0.23
		c0.26-1.04,1.17-1.82,2.27-1.82c0.35,0,0.69,0.08,0.98,0.23l0.16,0.08l5.27,2.74c7.32,3.79,15.21,5.72,23.43,5.72
		c14.18,0,27.42-5.75,37.29-16.19l3.26-3.45l0.1-0.1c0.41-0.41,0.97-0.66,1.58-0.66c0.62,0,1.17,0.25,1.58,0.65l0.12,0.12l3.25,3.44
		c9.87,10.44,23.11,16.19,37.29,16.19c8.23,0,16.11-1.93,23.43-5.72l5.27-2.74l0.16-0.08c0.3-0.14,0.63-0.23,0.99-0.23
		c1.1,0,2.01,0.77,2.26,1.82l0.04,0.23l1.13,5.9C178.68,34.37,181.73,51.78,181.63,68.93"/>
	<path class="st1" d="M100.3,9.1c10.66,11.04,25.6,17.92,42.15,17.92c9.54,0,18.54-2.29,26.5-6.34c3.04,15.54,5.78,31.51,5.68,47.05
		c-0.08,12.86-1.62,25.79-5.12,37.9c-3.32,11.5-8.51,22.78-14.85,32.75c-6.52,10.26-14.65,19.59-23.46,27.92
		c-9.17,8.67-19.69,16.5-30.91,22.12l0,0c-11.22-5.61-21.75-13.45-30.91-22.12c-8.81-8.33-16.94-17.66-23.46-27.92
		c-6.34-9.97-11.52-21.24-14.85-32.75c-3.49-12.11-5.03-25.04-5.11-37.9c-0.09-15.55,2.64-31.51,5.68-47.05
		c7.96,4.04,16.96,6.34,26.5,6.34C74.7,27.01,89.64,20.14,100.3,9.1"/>
	<path class="st1" d="M100.3,9.1c10.66,11.04,25.6,17.92,42.15,17.92c9.54,0,18.54-2.29,26.5-6.34c3.04,15.54,5.78,31.51,5.68,47.05
		c-0.08,12.86-1.62,25.79-5.12,37.9c-3.32,11.5-8.51,22.78-14.85,32.75c-6.52,10.26-14.65,19.59-23.46,27.92
		c-9.17,8.67-19.69,16.5-30.91,22.12l0,0c-11.22-5.61-21.75-13.45-30.91-22.12c-8.81-8.33-16.94-17.66-23.46-27.92
		c-6.34-9.97-11.52-21.24-14.85-32.75c-3.49-12.11-5.03-25.04-5.11-37.9c-0.09-15.55,2.64-31.51,5.68-47.05
		c7.96,4.04,16.96,6.34,26.5,6.34C74.7,27.01,89.64,20.14,100.3,9.1"/>
	<path class="st1" d="M100.3,9.1C89.64,20.14,74.7,27.01,58.14,27.01c-9.54,0-18.54-2.29-26.5-6.34
		c-3.04,15.54-5.78,31.51-5.68,47.05c0.08,12.86,1.61,25.79,5.11,37.9c3.33,11.5,8.51,22.78,14.85,32.75
		c6.52,10.26,14.65,19.59,23.46,27.92c9.16,8.67,19.69,16.5,30.91,22.12l0,0V9.1z"/>
	<path d="M100.3,9.1c10.66,11.04,25.6,17.92,42.15,17.92c9.54,0,18.54-2.29,26.5-6.34c3.04,15.54,5.78,31.51,5.68,47.05
		c-0.08,12.86-1.62,25.79-5.12,37.9c-3.32,11.5-8.51,22.78-14.85,32.75c-6.52,10.26-14.65,19.59-23.46,27.92
		c-9.17,8.67-19.69,16.5-30.91,22.12l0,0V9.1z"/>
	<polygon class="st0" points="69.23,98.75 57.75,80.72 57.75,98.75 48.93,98.75 48.93,62.89 56.64,62.89 68.12,80.92 68.12,62.89 
		76.94,62.89 76.94,98.75 	"/>
	<path class="st0" d="M110.74,95.02c-2.62,2.62-5.65,4.03-10.02,4.03c-4.38,0-7.4-1.41-10.02-4.03c-3.78-3.78-4.35-8.82-4.35-14.2
		c0-5.39,0.57-10.43,4.35-14.21c2.62-2.62,5.64-4.03,10.02-4.03c4.38,0,7.4,1.41,10.02,4.03c3.78,3.78,4.35,8.82,4.35,14.21
		C115.09,86.21,114.52,91.25,110.74,95.02 M104.24,72.01c-0.65-0.85-1.91-1.56-3.52-1.56c-1.61,0-2.87,0.7-3.53,1.56
		c-0.81,1.06-1.67,2.27-1.67,8.82c0,6.55,0.86,7.71,1.67,8.77c0.66,0.85,1.91,1.61,3.53,1.61c1.61,0,2.87-0.76,3.52-1.61
		c0.81-1.06,1.67-2.22,1.67-8.77C105.91,74.27,105.05,73.06,104.24,72.01"/>
	<path class="st0" d="M140.48,98.75H124.5V62.89H139c7.45,0,11.43,4.18,11.43,10.37c0,4.08-2.82,6.35-3.93,7.1
		c1.46,0.91,5.15,2.77,5.15,7.81C151.66,95.02,146.87,98.75,140.48,98.75 M138.45,70.8h-5.13v5.84h5.13c2.42,0,3.18-1.51,3.18-2.92
		C141.62,72.31,140.87,70.8,138.45,70.8 M139.62,84.55h-6.3v6.3h6.3c2.42,0,3.23-1.66,3.23-3.17
		C142.84,86.16,142.03,84.55,139.62,84.55"/>
</g>
</svg>
