<?xml version="1.0" encoding="utf-8"?>
<!-- Generator: Adobe Illustrator 26.0.3, SVG Export Plug-In . SVG Version: 6.00 Build 0)  -->
<svg version="1.1" id="Capa_1" xmlns="http://www.w3.org/2000/svg" xmlns:xlink="http://www.w3.org/1999/xlink" x="0px" y="0px"
	 viewBox="0 0 200 200" style="enable-background:new 0 0 200 200;" xml:space="preserve">
<style type="text/css">
	.st0{fill-rule:evenodd;clip-rule:evenodd;fill:#6B4433;}
	.st1{fill:none;stroke:#A85D49;stroke-width:0.0864;stroke-miterlimit:61.2904;}
	.st2{fill-rule:evenodd;clip-rule:evenodd;fill:#FFFFFF;}
</style>
<g>
	<path class="st0" d="M98.11,1.89c-19.38,18.33-42.75,26.5-71.47,24.94l-3.09-0.17l-0.25,3.08c-0.66,7.78-0.99,15.45-1,22.8
		c-0.05,33.23,6.61,62.52,19.77,87.08c12.64,23.57,31.66,43.47,56.52,59.15l1.69,1.06l1.7-1.06c24.85-15.68,43.87-35.57,56.51-59.13
		c13.18-24.55,19.84-53.83,19.79-87.04c-0.01-7.37-0.34-15.05-1-22.85l-0.27-3.09l-3.08,0.17c-28.72,1.56-52.09-6.59-71.47-24.94
		l-2.19-2.06L98.11,1.89L98.11,1.89z"/>
	<path class="st1" d="M98.11,1.89c-19.38,18.33-42.75,26.5-71.47,24.94l-3.09-0.17l-0.25,3.08c-0.66,7.78-0.99,15.45-1,22.8
		c-0.05,33.23,6.61,62.52,19.77,87.08c12.64,23.57,31.66,43.47,56.52,59.15l1.69,1.06l1.7-1.06c24.85-15.68,43.87-35.57,56.51-59.13
		c13.18-24.55,19.84-53.83,19.79-87.04c-0.01-7.37-0.34-15.05-1-22.85l-0.27-3.09l-3.08,0.17c-28.72,1.56-52.09-6.59-71.47-24.94
		l-2.19-2.06L98.11,1.89L98.11,1.89z"/>
	<path class="st2" d="M100.3,192.26c23.07-14.9,40.76-33.61,52.6-55.63c9.4-17.54,15.35-37.64,17.78-59.99L57.86,152.78
		C68.88,167.93,83.09,181.15,100.3,192.26L100.3,192.26z"/>
	<path class="st2" d="M100.29,8.5C80.97,25.79,57.14,34.1,29.42,33.27c-0.49,6.57-0.75,13.05-0.76,19.28c0,0.11,0,0.23,0,0.34
		c0,14.38,1.29,27.98,3.86,40.74l98.52-66.5C119.82,22.98,109.54,16.76,100.29,8.5L100.29,8.5z"/>
	<path class="st2" d="M88.06,103.47l-8.86,2.68l0.22,0.61c0.97,2.57,1.21,4.78,0.72,6.56c-0.49,1.8-1.53,3.22-3.17,4.34
		c-2.23,1.51-4.53,1.92-6.99,1.25c-2.48-0.66-5.05-2.96-7.67-6.84c-2.46-3.64-3.53-6.78-3.18-9.31c0.33-2.51,1.64-4.56,3.9-6.08
		c1.63-1.1,3.32-1.59,5.03-1.47c1.72,0.11,3.3,0.82,4.68,2.13l0.44,0.41l6.33-6.82l-0.49-0.41c-2.54-2.12-5.09-3.37-7.58-3.73
		c-4.17-0.63-8.35,0.43-12.45,3.2c-4.68,3.15-7.48,7.28-8.33,12.23c-0.83,4.95,0.57,10.2,4.2,15.61c3.44,5.09,7.65,8.21,12.51,9.25
		c4.88,1.03,9.6,0.04,14.04-2.96c3.58-2.42,6.01-5.34,7.18-8.67c1.17-3.33,1.06-7.16-0.34-11.4L88.06,103.47L88.06,103.47z"/>
	<path class="st2" d="M94.4,66.85l-7.28,4.92l9.01,41.6l8.06-5.43c0,0-2.01-8.28-2.19-9.03c0.65-0.43,11.69-7.89,12.33-8.31
		c0.62,0.42,7.7,5.3,7.7,5.3l8.24-5.56l-35.54-23.7L94.4,66.85L94.4,66.85z M94.4,66.85L94.4,66.85L94.4,66.85z M107.55,85.91
		c-1.12,0.76-6.32,4.28-7.42,5.03c-0.33-1.35-2.41-10.02-2.98-12.36C99.11,79.96,106.41,85.11,107.55,85.91L107.55,85.91z"/>
	<path class="st2" d="M145.59,54.76c-0.17-1.91-0.96-3.91-2.33-5.94c-1.77-2.63-3.92-4.36-6.37-5.14c-2.46-0.78-4.87-0.76-7.17,0.06
		c-1.5,0.52-4.21,2.11-8.28,4.85l-11.03,7.46l22.09,32.77l7.57-5.1c0,0-7.46-11.07-8.07-12c0.77-0.53,3.77-2.55,3.77-2.55
		c2.98-2.01,5.2-3.74,6.6-5.13c1.04-1.08,1.88-2.42,2.52-3.99c0.5-1.25,0.75-2.61,0.75-4.06C145.65,55.58,145.63,55.17,145.59,54.76
		L145.59,54.76z M145.59,54.76L145.59,54.76L145.59,54.76z M136.37,56.72c0,0.03,0,0.05,0,0.07c-0.02,0.92-0.32,1.78-0.89,2.61
		c-0.6,0.85-2.18,2.14-4.72,3.84c0,0-2.34,1.59-3.09,2.09c-0.57-0.84-4.83-7.17-5.4-8.01c0.71-0.48,2.67-1.8,2.67-1.8
		c2.38-1.62,3.94-2.57,4.78-2.93c1.06-0.48,2.13-0.59,3.2-0.34c1.06,0.25,1.92,0.88,2.61,1.9C136.1,54.98,136.37,55.81,136.37,56.72
		L136.37,56.72z"/>
</g>
</svg>
