<?xml version="1.0" encoding="utf-8"?>
<!-- Generator: Adobe Illustrator 26.0.3, SVG Export Plug-In . SVG Version: 6.00 Build 0)  -->
<svg version="1.1" id="Capa_1" xmlns="http://www.w3.org/2000/svg" xmlns:xlink="http://www.w3.org/1999/xlink" x="0px" y="0px"
	 viewBox="0 0 200 200" style="enable-background:new 0 0 200 200;" xml:space="preserve">
<style type="text/css">
	.st0{fill:#00263A;}
	.st1{fill:#009CDE;}
	.st2{fill:#FFFFFF;}
</style>
<g>
	<path class="st0" d="M100.29,199.82l-3.92-3.91c-9.24-9.2-22.37-14.06-37.98-14.06h-0.37c-1.09,0-10.89-0.08-20.76-3
		c-16.78-5-19.29-14.51-19.29-19.73V-0.18h164.65v159.44c0,22.39-39.71,22.65-40.11,22.65h-0.22c-15.31,0-28.82,4.98-38.05,14.03
		L100.29,199.82L100.29,199.82z"/>
	<g>
		<path class="st1" d="M23.57,5.43v153.69c0,8.11,8.31,12.29,15.27,14.36c9.26,2.74,18.77,2.77,19.17,2.77h0.37
			c17.18,0,31.61,5.41,41.93,15.69c10.3-10.1,25.09-15.63,41.97-15.63h0.22c0.35,0,34.51-0.54,34.51-17.04V5.43H23.57z"/>
		<g>
			<path class="st2" d="M45.33,49.47l0.01,120.19c6.71,1.31,12.43,1.33,12.73,1.33h0.37c3.03,0,5.99,0.16,8.89,0.49V49.47
				C59.35,49.47,51.9,49.47,45.33,49.47z"/>
			<path class="st2" d="M89.31,49.47v128.36c0,0,0-0.75,0,0.02c4.02,2.04,7.73,4.5,11.07,7.41c3.29-2.78,6.95-5.18,10.9-7.17V49.47
				C103.99,49.47,96.6,49.47,89.31,49.47z"/>
			<path class="st2" d="M133.28,49.47V170v1.57c2.96-0.36,6-0.54,9.07-0.54h0.22c3.41-0.03,8.05-0.44,12.69-1.35V49.47
				C148.69,49.47,141.22,49.47,133.28,49.47z"/>
		</g>
		<g>
			<path class="st2" d="M49.2,29.02l-0.02,0.06l7.16,8.22h-5.93l-5.46-7.23h-5.65v7.23h-4.9v-20.3h10.69c6.17,0,9.31,2.36,9.31,6.36
				C54.4,26.1,52.53,28.49,49.2,29.02z M44.92,20.66h-5.63v6.09h5.44c3.2,0,4.55-0.99,4.55-3.17
				C49.28,21.63,48.06,20.66,44.92,20.66z"/>
			<path class="st2" d="M76.92,33.19H64.39l-2.01,4.12h-5.24l10.88-20.3h5.43l10.97,20.3H78.9L76.92,33.19z M69.78,22.23l-3.61,7.34
				h9.01l-3.52-7.34l-0.88-2H70.7L69.78,22.23z"/>
			<path class="st2" d="M103.54,21.58c-1.64-0.51-3.78-0.95-6.25-0.95c-5.86,0-7.92,2-7.92,6.47c0,4.71,2.14,6.63,8.04,6.63
				c2.32,0,4.4-0.46,6.14-1.16l0.63,3.57c-2.03,0.89-4.77,1.57-7.36,1.57c-8.44,0-12.58-3.94-12.58-10.61c0-6.19,3.95-10.5,13-10.5
				c2.49,0,5.15,0.49,6.86,1.09L103.54,21.58z"/>
			<path class="st2" d="M107.92,17.01h4.95v20.3h-4.95V17.01z"/>
			<path class="st2" d="M137.28,37.31l-13.21-12.59l-1.54-1.54l-0.08,0.02l0.05,2.19v11.91h-4.47v-20.3h4.12l12.35,12.08l1.55,1.57
				l0.05-0.06l-0.05-2.17V17.01h4.43v20.3H137.28z"/>
			<path class="st2" d="M165.87,36.44c-2.16,0.79-5.36,1.3-8.33,1.3c-9.34,0-13.32-4.03-13.32-10.53c0-6.49,4.01-10.61,13.32-10.61
				c2.76,0,5.7,0.41,7.88,1.12l-0.49,3.94c-2.09-0.67-4.59-1.08-7.15-1.08c-6.13,0-8.41,1.88-8.41,6.55c0,4.56,2.05,6.61,8.01,6.61
				c1.63,0,3.03-0.19,4.25-0.54v-6.44h4.25V36.44z"/>
		</g>
	</g>
</g>
</svg>
