<?xml version="1.0" encoding="utf-8"?>
<!-- Generator: Adobe Illustrator 28.0.0, SVG Export Plug-In . SVG Version: 6.00 Build 0)  -->
<svg version="1.1" id="Capa_1" xmlns="http://www.w3.org/2000/svg" xmlns:xlink="http://www.w3.org/1999/xlink" x="0px" y="0px"
	 viewBox="0 0 400 400" style="enable-background:new 0 0 400 400;" xml:space="preserve">
<style type="text/css">
	.st0{fill-rule:evenodd;clip-rule:evenodd;fill:#1A171B;}
	.st1{fill-rule:evenodd;clip-rule:evenodd;fill:#FFFFFF;}
</style>
<g>
	<path class="st0" d="M230.7,1.3h-61.4c-4,17.8-34.3,26.4-90.8,25.8L28.2,68.8c25.9,47,30.7,94.5,14.6,142.7
		c-16.3,48.1,1.7,83.9,53.9,107.2c46.5,20.9,80.9,47.5,103.3,80c22.3-32.4,56.8-59.1,103.5-80c52-23.3,69.9-59.1,53.7-107.2
		c-16.1-48.2-11.3-95.7,14.6-142.7l-50.3-41.7C265,27.7,234.7,19.1,230.7,1.3L230.7,1.3z"/>
	<path class="st1" d="M174.7,8.7h50.6c8.1,17.6,39.3,26.2,93.6,25.8l43.6,36.2c-24.5,47.3-28.6,94.9-12.3,143.2
		c14.6,44-2.1,76.6-49.8,98.1c-43.9,19.8-77.4,44.5-100.3,74.2c-23-29.7-56.5-54.4-100.4-74.2c-47.8-21.5-64.4-54.1-49.9-98.1
		c16.3-48.2,12.2-95.9-12.3-143.2l43.7-36.2C135.5,34.8,166.6,26.2,174.7,8.7L174.7,8.7z"/>
	<path class="st0" d="M218.8,19.7h-37.4c-12.2,17-44.2,25.6-96.2,25.8L51.3,73.6c22.2,47.4,25.3,95.3,9,143.8v-0.1
		c-12.1,37.8,2.5,66.1,43.9,84.7c0.3,0.1,0.6,0.3,1,0.5c40.1,18,71.6,40.1,94.9,66.4c23.2-26.3,54.9-48.4,95-66.4
		c0.2-0.3,0.5-0.4,0.9-0.5c41.3-18.6,56-46.8,43.9-84.7v0.1c-16.3-48.5-13.4-96.4,9-143.8l-33.9-28.1
		C262.8,45.4,230.8,36.8,218.8,19.7L218.8,19.7z"/>
	<path class="st1" d="M185,27.1h30.1c13.9,16.8,46.3,25.5,97.1,25.8l27.5,22.8c-9,20.2-14.6,40.5-16.7,61c-2.8,27.5,0.4,55.1,9.8,83
		c0,0.1,0,0.4,0.1,0.5c1.4,4.3,2.2,8.3,2.9,12.4c3.5,27.3-10.8,48.1-42.9,62.5h-0.1c-0.5,0.3-1.1,0.5-1.5,0.7
		c-37.8,17.1-68.3,37.8-91.3,62c-23.1-24.2-53.6-44.9-91.4-62c-0.4-0.2-1-0.5-1.4-0.7C75,280.8,60.8,260,64.4,232.7
		c0.5-4,1.3-8.1,2.7-12.4c0.1-0.1,0.1-0.4,0.2-0.5c9.3-27.9,12.5-55.5,9.6-83c-2-20.5-7.6-40.8-16.5-61l27.4-22.9
		C138.7,52.6,171.1,43.9,185,27.1L185,27.1z"/>
	<path class="st0" d="M322.9,136.7H77c2.9,27.5-0.3,55.2-9.6,83c-0.1,0.1-0.1,0.4-0.3,0.5c-1.4,4.3-2.2,8.3-2.7,12.4h271.3
		c-0.7-4-1.5-8.1-2.9-12.4c-0.1-0.1-0.1-0.4-0.1-0.5C323.3,191.9,320.2,164.2,322.9,136.7L322.9,136.7z"/>
	<polygon class="st0" points="246.2,93.1 246.2,87.1 258.8,87.1 258.8,79.8 237.8,79.8 237.8,114.2 246.2,114.2 246.2,100.2 
		257,100.2 257,93.1 246.2,93.1 	"/>
	<path class="st0" d="M146,79.8h-9.3l-10.4,34.4h8.9l1.3-5.7h9.6l1.5,5.7h8.9L146,79.8L146,79.8z M146,79.8L146,79.8L146,79.8z
		 M144.3,100.9h-6.1l3.1-12.1L144.3,100.9L144.3,100.9z"/>
	<polygon class="st0" points="167,114.2 167,104.6 158.8,104.6 158.8,114.2 167,114.2 	"/>
	<polygon class="st0" points="265.3,114.2 265.3,104.6 257,104.6 257,114.2 265.3,114.2 	"/>
	<polygon class="st0" points="276.8,280.3 268.6,280.3 268.6,289.9 276.8,289.9 276.8,280.3 	"/>
	<path class="st0" d="M154.5,280c-0.1-2.1-0.4-3.9-1.3-5.4c-1-1.5-2.5-2.5-4.3-2.9c1.2-0.8,2.2-1.6,2.9-2.5c1.1-1.5,1.6-3.2,1.6-5.2
		c-0.1-1-0.2-2-0.3-2.9c-0.4-1.2-1.1-2.3-1.9-3.2c-1.2-1.6-3-2.4-5.4-2.5c-0.2-0.1-0.5-0.1-0.8,0h-15.8v34.4h14.6
		c0.7,0,2-0.1,3.9-0.4c1.5-0.3,2.6-0.7,3.3-1.2c1.1-0.9,2.1-2,2.7-3.4C154.2,283.4,154.5,281.7,154.5,280L154.5,280z M154.5,280
		L154.5,280L154.5,280z M144.3,263.2c0.4,0.5,0.5,1.1,0.6,2c0,0.1,0,0.4,0,0.5c0,1.1-0.2,1.9-0.6,2.3c-0.6,0.7-1.6,1-3,1.1h-3.7
		v-6.7h3.9C142.8,262.3,143.7,262.6,144.3,263.2L144.3,263.2z M144.3,263.2L144.3,263.2L144.3,263.2z M146,278.8
		c0,1.1-0.2,2-0.7,2.6c-0.6,0.6-1.7,1-3.2,1.1h-4.4v-7.1h4.4c1.5-0.1,2.6,0.3,3.2,1C145.8,277.1,146,278,146,278.8L146,278.8z"/>
	<polygon class="st0" points="167.6,280.3 159.4,280.3 159.4,289.9 167.6,289.9 167.6,280.3 	"/>
	<path class="st0" d="M255.5,255.4c-1.2-0.4-2.6-0.5-4.2-0.5c-1.6,0-3,0.1-4.3,0.5c-2.5,0.7-4.5,2.1-6.1,4.1
		c-0.3,0.3-0.5,0.5-0.6,0.8c-2.1,3.1-3.2,7.2-3.1,12.5c-0.1,4.3,0.6,7.8,2.1,10.4c1.3,2.9,2.9,4.7,4.9,5.8c2,1.1,4.4,1.6,7.5,1.6
		c2.3-0.1,4.4-0.6,6.1-1.4c1.5-0.9,2.9-2.1,4-4c1.1-1.8,1.8-3.9,2.2-6.4l-7.4-2.8c-0.4,2.1-1,3.8-1.8,5c-0.8,1.1-2.1,1.6-3.6,1.6
		c-1.9-0.1-3.2-0.8-4.1-2.1c-0.8-1.5-1.3-4.2-1.3-8c0-3.1,0.3-5.3,1.2-6.7c0-0.1,0-0.2,0.1-0.3c1-1.8,2.3-2.6,4.2-2.6
		c0.9,0,1.6,0.3,2.4,0.6c0.7,0.5,1.1,1.1,1.8,2c0.3,0.3,0.6,1.1,0.8,2.2l7.5-2c-0.7-2.1-1.2-3.8-2.1-5.2c-0.7-1.2-1.6-2.2-2.5-3.1
		C258.3,256.5,257,255.8,255.5,255.4L255.5,255.4z"/>
	<path class="st1" d="M104.4,175c-1.1-1.6-2.5-2.8-3.9-3.5c-1.6-1-3.7-1.5-6.2-1.5H81.7v34.4h12.6c1.5,0,3.2-0.3,5.2-1
		c1.3-0.3,2.7-1.2,3.9-2.6c1.1-1.5,2.1-3.2,2.7-5.2c0.7-2.1,0.9-4.9,1-8.5c0-2.3-0.3-4.6-0.7-6.8C106,178.3,105.2,176.7,104.4,175
		L104.4,175z M104.4,175L104.4,175L104.4,175z M90.1,177.9h2.3c2.1,0,3.7,0.6,4.7,2c0.8,1.4,1.4,3.8,1.4,7.6c0,2.6-0.2,4.6-0.6,5.8
		c-0.4,1.3-1,2.2-1.7,2.5c-0.9,0.6-2.1,0.8-4,0.8h-2.1V177.9L90.1,177.9z"/>
	<path class="st1" d="M157,170.8c-1.4-0.6-3.3-0.8-5.9-0.8h-14.4v34.4h8.7v-14h0.6c0.9,0,1.5,0.3,2.1,0.8c0.5,0.4,1,1.2,1.6,2.9
		l4.6,10.3h9.7l-4.1-10c-0.2-0.6-0.7-1.2-1.3-2c-0.6-1-1-1.6-1.2-1.8c-0.7-0.6-1.4-1-2.4-1.4c1.4-0.3,2.4-0.8,2.9-1.4
		c1.1-0.9,2.1-1.9,2.7-3.2c0.6-1.5,1-3.2,1-5.1c0-2.3-0.4-4.2-1.2-5.5C159.7,172.6,158.4,171.5,157,170.8L157,170.8z M157,170.8
		L157,170.8L157,170.8z M152.3,177.9c0.7,0.6,0.9,1.4,0.9,2.5c-0.1,0.8-0.3,1.4-0.5,2c-0.4,0.5-1,0.8-1.4,1
		c-1.1,0.3-1.9,0.6-2.2,0.6h-3.6v-7h3.7C150.7,177,151.8,177.2,152.3,177.9L152.3,177.9z"/>
	<polygon class="st1" points="118.8,194.8 110.6,194.8 110.6,204.4 118.8,204.4 118.8,194.8 	"/>
	<polygon class="st1" points="190.3,182.9 190.3,177.5 204.7,177.5 204.7,170 181.7,170 181.7,204.4 205.1,204.4 205.1,196.7 
		190.3,196.7 190.3,189.9 203.5,189.9 203.5,182.9 190.3,182.9 	"/>
	<polygon class="st1" points="175.7,170 167.2,170 167.2,204.4 175.7,204.4 175.7,170 	"/>
	<polygon class="st1" points="235.6,178.6 244.2,178.6 244.2,204.4 252.7,204.4 252.7,178.6 261.3,178.6 261.3,170 235.6,170 
		235.6,178.6 	"/>
	<path class="st1" d="M228.9,172.1c-1.8-1.8-4.5-2.7-8.1-2.7c-2.8,0-5.2,0.5-6.8,1.4c-1.7,0.9-2.9,2.2-3.7,3.8
		c-0.9,1.4-1.2,3.1-1.2,4.9c-0.2,2.7,0.7,5,2.3,6.7c1.6,1.8,4.3,3.1,8.1,4.2c2.2,0.7,3.7,1.2,4.3,2.1c0.7,0.7,1,1.4,1,2.2
		c0,1-0.3,1.9-1,2.6c-0.7,0.6-1.7,1-2.9,1c-1.6,0-2.9-0.6-3.8-2c-0.6-1-1-2.2-1.1-3.9l-8.2,0.7c0.4,3.5,1.4,6.3,3,8.6
		c1.8,2.2,5,3.3,9.8,3.3c2.6,0,4.9-0.5,6.7-1.4c1.8-1,3.2-2.3,4.2-4.2c1-1.8,1.4-4,1.4-6.3c0-1.9-0.3-3.6-1-5.1
		c-0.9-1.6-2-2.8-3.6-3.7c-1.6-1.1-4.3-2.2-7.9-3.3c-1.6-0.3-2.5-0.7-2.9-1.1c-0.4-0.4-0.6-0.9-0.6-1.5c-0.1-0.9,0.1-1.4,0.8-2
		c0.3-0.6,1.2-0.8,2.3-0.7c1.2-0.1,2.2,0.2,2.8,1.1c0.7,0.6,1.2,1.7,1.5,3.2l8-0.7C231.9,176.1,230.8,173.7,228.9,172.1L228.9,172.1
		z"/>
	<path class="st1" d="M288.9,174.1c-0.9-1.4-2-2.6-3.4-3.2c-1.5-0.6-3.4-0.8-6-0.8h-14.2v34.4h8.7v-14h0.6c0.8,0,1.5,0.3,2.1,0.8
		c0.5,0.4,1,1.2,1.6,2.9l4.5,10.3h9.7l-4-10c-0.3-0.6-0.7-1.2-1.4-2c-0.6-1-1-1.6-1.2-1.8c-0.7-0.6-1.4-1-2.4-1.4
		c1.3-0.3,2.4-0.8,2.9-1.4c1.1-0.9,2.1-1.9,2.7-3.2c0.7-1.5,1-3.2,1-5.1C290.1,177.2,289.7,175.4,288.9,174.1L288.9,174.1z
		 M288.9,174.1L288.9,174.1L288.9,174.1z M281.6,180.4c0,0.8-0.1,1.4-0.4,2c-0.5,0.5-1,0.8-1.5,1c-1.1,0.3-2,0.6-2.4,0.6H274v-7h3.6
		c1.5,0,2.6,0.2,3.2,0.9C281.4,178.5,281.6,179.3,281.6,180.4L281.6,180.4z"/>
	<path class="st1" d="M301.2,204.4l1.4-5.5h9.6l1.5,5.5h8.9L312.2,170h-9.3l-10.4,34.4H301.2L301.2,204.4z M301.2,204.4L301.2,204.4
		L301.2,204.4z M307.4,179.1l3.1,12.1h-6.2L307.4,179.1L307.4,179.1z"/>
</g>
</svg>
