<?xml version="1.0" encoding="utf-8"?>
<!-- Generator: Adobe Illustrator 26.0.3, SVG Export Plug-In . SVG Version: 6.00 Build 0)  -->
<svg version="1.1" id="Capa_1" xmlns="http://www.w3.org/2000/svg" xmlns:xlink="http://www.w3.org/1999/xlink" x="0px" y="0px"
	 viewBox="0 0 200 200" style="enable-background:new 0 0 200 200;" xml:space="preserve">
<style type="text/css">
	.st0{fill:#FFFFFF;}
	.st1{fill:#E1251B;}
</style>
<g>
	<path class="st0" d="M97.6,196.48c-4.54-1.85-16.38-7.51-28.3-20.09c-19.49-20.6-30.73-50.73-32.5-87.13
		c-1.42-29.18-8.84-47.21-11.96-53.61l-2.29-4.68L51.57,2.32l4.53,2.16c4.22,2.01,16.98,6.7,44.2,6.74
		c27.2-0.04,39.97-4.73,44.19-6.74l4.53-2.16l29.02,28.65l-2.29,4.68c-3.13,6.4-10.55,24.43-11.97,53.61
		c-1.76,36.41-13,66.54-32.49,87.13c-11.91,12.59-23.76,18.25-28.3,20.09l-2.7,1.1L97.6,196.48z"/>
	<g>
		<g>
			<g>
				<path class="st1" d="M100.29,39.42c21.42,0,39.48,14.4,45.15,34.09l24.3-42.11L147.93,9.87l-0.54,0.26
					c-5.56,2.65-18.69,7.04-44.63,7.33L89.29,40.74C92.82,39.88,96.5,39.42,100.29,39.42z"/>
				<path class="st1" d="M100.29,133.97c-21.46,0-39.54-14.45-45.19-34.2l-8.66,14.96c4.63,23.28,13.99,42.77,27.63,57.18
					c3.26,3.44,6.5,6.31,9.56,8.71l27.68-47.97C107.78,133.5,104.09,133.97,100.29,133.97z"/>
			</g>
			<g>
				<path d="M128.83,56c-2.12-1.99-4.44-3.76-6.93-5.28v9.51v52.93v9.51c2.49-1.52,4.81-3.29,6.93-5.28v-8.32
					c0,0,13.31-5.51,13.31-22.38C142.14,74.59,137,63.68,128.83,56z M128.83,99.55V67.96c3.52,5.39,5.58,11.82,5.58,18.73
					C134.41,97.13,128.83,99.55,128.83,99.55z"/>
			</g>
			<g>
				<path d="M87.54,54.9c2.2-0.9,4.52-1.55,6.93-1.97v-7.89c-2.38,0.34-4.69,0.87-6.93,1.59c-16.85,5.44-29.09,21.34-29.09,40.06
					c0,18.73,12.23,34.63,29.09,40.06c2.23,0.72,4.55,1.25,6.93,1.59v-7.89c-2.4-0.42-4.72-1.08-6.93-1.97
					c-12.51-5.09-21.36-17.41-21.36-31.79C66.17,72.31,75.03,59.99,87.54,54.9z"/>
			</g>
			<g>
				<path d="M87.54,59.68c-10.05,4.82-17.02,15.1-17.02,27.01c0,10.08,5,18.97,12.61,24.39v-10.82c-2.26-2.88-3.83-6.32-4.44-10.09
					h8.85v14.38v9.16c2.18,1.05,4.49,1.86,6.93,2.34v-8.16V90.18v-6.97V65.49v-8.16C92.03,57.82,89.72,58.63,87.54,59.68z
					 M87.54,83.21H78.7c0.94-5.9,4.2-11.02,8.83-14.38V83.21z"/>
			</g>
		</g>
		<g>
			<path d="M111.64,105.44c0.11-0.06,0.21-0.13,0.32-0.2c0.25-0.16,0.5-0.32,0.74-0.49c0.04-0.02,0.07-0.05,0.1-0.07
				c0.24-0.17,0.47-0.34,0.71-0.52c2.31-1.81,4.2-4.31,4.2-8.16c0-5.15,0-13.11,0-20.76l0,0c0-8.91,0-18.38,0-21.23
				c0-6.67-5.03-7.75-10.05-8.71c-4.64-0.89-9.07-0.63-9.07-0.63v84.05c0.56,0.02,1.13,0.04,1.7,0.04c1.77,0,3.51-0.12,5.23-0.34
				v-20.41l8.04,18.58c2.25-0.76,4.42-1.69,6.48-2.81L111.64,105.44z M105.52,52.84c1.8,0.28,3.56,0.68,5.25,1.23v41.79
				c-1.42,1.64-3.22,2.95-5.25,3.78V52.84z"/>
		</g>
	</g>
	<path d="M96.82,198.41c-4.66-1.9-16.83-7.71-29.02-20.59c-19.84-20.96-31.27-51.55-33.06-88.46c-1.4-28.8-8.69-46.51-11.76-52.8
		l-2.94-6.03L51.15-0.18l5.83,2.78c4.1,1.95,16.52,6.5,43.31,6.54c26.79-0.04,39.2-4.59,43.3-6.54l5.83-2.78l31.11,30.72l-2.94,6.03
		c-3.07,6.28-10.36,24-11.76,52.8c-1.79,36.91-13.22,67.5-33.06,88.46c-12.19,12.88-24.35,18.69-29.02,20.59l-3.47,1.42
		L96.82,198.41z M100.49,195.37l1.97-0.8c4.43-1.8,15.97-7.33,27.62-19.63c19.17-20.25,30.22-49.95,31.96-85.88
		c1.43-29.55,8.98-47.87,12.16-54.38l1.67-3.41l-27.05-26.7l-3.3,1.58c-5.39,2.57-18.41,6.89-45.03,6.93
		c-26.62-0.04-39.64-4.36-45.03-6.93l-3.3-1.58l-27.05,26.7l1.67,3.41c3.18,6.51,10.73,24.83,12.16,54.38
		c1.74,35.93,12.79,65.63,31.96,85.88c11.65,12.3,23.19,17.83,27.62,19.63L100.49,195.37z"/>
</g>
</svg>
