<?xml version="1.0" encoding="utf-8"?>
<!-- Generator: Adobe Illustrator 26.0.3, SVG Export Plug-In . SVG Version: 6.00 Build 0)  -->
<svg version="1.1" id="Capa_1" xmlns="http://www.w3.org/2000/svg" xmlns:xlink="http://www.w3.org/1999/xlink" x="0px" y="0px"
	 viewBox="0 0 200 200" style="enable-background:new 0 0 200 200;" xml:space="preserve">
<style type="text/css">
	.st0{fill:#FFFFFF;}
	.st1{fill-rule:evenodd;clip-rule:evenodd;fill:#FAE032;}
	.st2{fill-rule:evenodd;clip-rule:evenodd;fill:#173B6A;}
</style>
<g>
	<path class="st0" d="M97.55,197.58c-8.77,0-18.04-1.43-26.1-4.02c-13.36-4.3-25.13-11.99-34.06-22.24
		c-4.46-5.12-8.42-11.09-11.78-17.74c-4.55-8.99-7.63-18.25-9.4-28.31c-2.12-11.98-2.48-25.18-1.06-38.16
		c1.75-15.94,5.92-29.49,13.11-42.64c7.08-12.95,16.3-22.83,28.19-30.23c6.86-4.27,14.09-7.39,22.09-9.54
		c6.57-1.76,12.81-2.62,19.08-2.62c5,0,9.9,0.54,14.95,1.66c5.51,1.22,10.44,2.84,15.06,4.96c4.71,2.16,9.08,4.77,13.52,7.49
		l0.28,0.17c0.74,0.46,2.11,1.31,3.32,1.87c0.27,0.13,0.47,0.21,0.63,0.28c0.16-0.3,0.32-0.64,0.4-0.8
		c0.26-0.55,0.47-1.06,0.56-1.28c1.24-3.09,2.95-7.32,8.1-8.77c0.91-0.26,1.86-0.39,2.81-0.39c2.77,0,5.42,1.09,7.46,3.06
		c3.1,3,3.36,6.44,3.36,9.45l0,7.19c2.45,2.05,4.5,4.83,6,8.13c1.8-2.34,3.71-4.14,5.94-6.23c0.46-0.43,0.93-0.87,1.42-1.34
		c0.43-0.4,0.98-0.62,1.55-0.62c0.26,0,0.52,0.04,0.77,0.13c0.8,0.29,1.37,1.01,1.47,1.86l0.06,0.56
		c0.84,7.29,1.57,13.58-0.21,20.26c-2.46,9.23-7.06,13.95-13.28,18.94c0.74,1.07,1.41,2.22,2.01,3.45c1.89-2.54,3.9-4.42,6.25-6.63
		l1.39-1.31c0.43-0.4,0.98-0.62,1.55-0.62c0.26,0,0.52,0.04,0.77,0.13c0.8,0.29,1.37,1.01,1.47,1.86l0.07,0.57
		c0.88,7.65,1.64,14.25-0.53,21.34c-2.63,8.61-6.92,13-12.64,17.59c0.67,1.02,1.28,2.11,1.82,3.26c1.85-2.44,3.8-4.28,6.09-6.43
		l1.4-1.32c0.43-0.4,0.98-0.62,1.55-0.62c0.26,0,0.52,0.04,0.77,0.13c0.8,0.29,1.37,1.01,1.47,1.85l0.07,0.57
		c0.88,7.65,1.64,14.26-0.53,21.35c-2.4,7.86-6.17,12.32-12.1,17.15c0.58,0.96,1.1,1.97,1.57,3.04c1.75-2.25,3.62-4,5.78-6.03
		c0.46-0.43,0.94-0.88,1.43-1.35c0.43-0.4,0.98-0.62,1.55-0.62c0.26,0,0.52,0.04,0.77,0.14c0.8,0.29,1.37,1.01,1.47,1.86l0.07,0.58
		c0.91,7.94,1.71,14.8-0.81,22.23c-3.26,9.63-8.43,13.66-15.59,19.24c-0.24,0.19-0.52,0.32-0.8,0.4c-0.01,1.77-0.13,3.42-0.94,5.36
		c-1.64,3.9-5.52,6.55-9.64,6.59c-0.01,0-0.12,0-0.13,0c-2.39,0-4.6-0.74-6.4-2.15c-2.5-1.95-3.66-4.68-4.68-7.09
		c0,0-0.28-0.67-0.39-0.92c-0.15-0.35-0.33-0.8-0.48-1.1c-0.13,0.05-0.31,0.13-0.55,0.24c-0.64,0.32-1.28,0.72-1.77,1.03
		c-1.06,0.66-2.01,1.27-2.97,1.89c-0.98,0.63-1.97,1.27-2.96,1.89c-2.41,1.49-4.89,2.8-7.57,4c-9.35,4.19-17.93,6.53-26.23,7.15
		C101.47,197.51,99.52,197.58,97.55,197.58"/>
	<path class="st0" d="M97.62,4.32c4.77,0,9.57,0.52,14.47,1.61c5.08,1.12,9.88,2.64,14.61,4.81c4.6,2.11,8.96,4.72,13.28,7.36
		c0.66,0.41,2.33,1.47,3.83,2.16c0.91,0.43,1.54,0.66,2.02,0.66c0.84,0,1.24-0.69,1.98-2.25c0.29-0.61,0.52-1.16,0.62-1.41
		c1.37-3.39,2.77-6.36,6.63-7.45c0.73-0.2,1.46-0.3,2.19-0.3c2.18,0,4.3,0.88,5.9,2.43c2.31,2.23,2.67,4.78,2.67,7.83v8.28
		c3.48,2.54,6.23,6.81,7.65,12c2.76-4.86,5.58-7.17,9.5-10.9c0.85,7.44,1.62,13.56-0.09,19.98c-2.48,9.33-7.15,13.6-14.24,19.13
		c2.01,2.33,3.62,5.33,4.65,8.75c2.81-5.05,5.63-7.38,9.68-11.23c0.9,7.83,1.71,14.2-0.38,21c-2.65,8.65-6.9,12.61-13.58,17.83
		c1.9,2.33,3.41,5.28,4.37,8.62c2.79-4.95,5.6-7.27,9.59-11.06c0.9,7.84,1.71,14.2-0.38,21.01c-2.46,8.04-6.46,12.27-12.96,17.34
		c1.73,2.36,3.09,5.26,3.94,8.5c2.73-4.75,5.55-7.07,9.4-10.74c0.94,8.15,1.77,14.71-0.64,21.83c-3.02,8.91-7.67,12.59-14.84,18.19
		l0.08-2.75c-0.56,0.54-1.14,1.03-1.75,1.48v3.05c0,1.79-0.06,3.2-0.77,4.89c-1.28,3.04-4.27,5.18-7.59,5.22c-0.04,0-0.07,0-0.11,0
		c-1.84,0-3.55-0.53-5.01-1.67c-2.08-1.63-3.06-3.98-4.06-6.34c-0.83-1.95-1.19-3.34-2.54-3.34c-0.48,0-1.08,0.18-1.87,0.57
		c-0.74,0.37-1.46,0.81-1.99,1.16l-0.03,0.02l-0.03,0.01c-1.96,1.22-3.88,2.51-5.85,3.72c-2.37,1.47-4.76,2.72-7.3,3.87
		c-8.06,3.61-16.63,6.3-25.48,6.96c-1.85,0.14-3.73,0.2-5.64,0.2c-8.55,0-17.49-1.36-25.42-3.91c-12.81-4.12-24.2-11.41-33.05-21.58
		c-4.56-5.24-8.34-11.08-11.47-17.28c-4.47-8.83-7.48-17.95-9.2-27.69c-2.17-12.29-2.39-25.14-1.03-37.53
		c1.66-15.11,5.51-28.4,12.84-41.81c6.7-12.26,15.52-22,27.41-29.4c6.81-4.24,13.74-7.2,21.48-9.28
		C85.35,5.19,91.46,4.32,97.62,4.32 M97.62-0.18v4.49V-0.18c-6.47,0-12.9,0.88-19.66,2.7c-8.21,2.21-15.63,5.41-22.69,9.8
		c-12.23,7.61-21.71,17.76-28.98,31.06C18.95,56.8,14.7,70.62,12.92,86.86c-1.47,13.38-1.11,26.44,1.08,38.8
		c1.82,10.28,4.96,19.74,9.61,28.93c3.45,6.81,7.52,12.93,12.09,18.2c9.19,10.57,21.32,18.49,35.06,22.91
		c8.28,2.66,17.79,4.13,26.79,4.13c2.02,0,4.03-0.07,5.97-0.22c8.56-0.64,17.39-3.03,26.98-7.34c2.77-1.24,5.34-2.6,7.83-4.15
		c1.01-0.63,2-1.27,3-1.91c0.94-0.61,1.89-1.22,2.84-1.81c0.02-0.01,0.08-0.05,0.1-0.06c0.01-0.01,0.02-0.01,0.02-0.02
		c1.06,2.48,2.41,5.48,5.26,7.72c2.2,1.72,4.89,2.63,7.78,2.63h0.16c5.08-0.06,9.67-3.18,11.68-7.97c0.75-1.77,1-3.35,1.08-4.88
		c7.17-5.59,12.84-10.02,16.31-20.27c2.68-7.91,1.86-15.01,0.92-23.22l-0.07-0.57c-0.19-1.69-1.33-3.13-2.93-3.71
		c-0.5-0.18-1.02-0.27-1.53-0.27c-0.14,0-0.27,0.01-0.41,0.02c1.77-2.64,3.2-5.64,4.33-9.31c2.31-7.54,1.52-14.36,0.61-22.27
		l-0.07-0.57c-0.19-1.69-1.33-3.13-2.93-3.71c-0.5-0.18-1.02-0.27-1.53-0.27c-0.19,0-0.38,0.01-0.57,0.04
		c1.79-2.62,3.3-5.71,4.49-9.62c2.31-7.54,1.52-14.36,0.61-22.26l-0.07-0.57c-0.19-1.69-1.33-3.13-2.93-3.71
		c-0.5-0.18-1.02-0.27-1.53-0.27c-0.26,0-0.51,0.02-0.77,0.07c2.12-2.98,3.81-6.5,5.02-11.07c1.89-7.09,1.14-13.57,0.27-21.08
		l-0.07-0.57c-0.19-1.69-1.33-3.13-2.93-3.71c-0.5-0.18-1.02-0.27-1.53-0.27c-1.13,0-2.25,0.43-3.1,1.24
		c-0.48,0.46-0.95,0.9-1.41,1.33c-1.39,1.31-2.71,2.54-3.97,3.9c-1.2-1.97-2.61-3.71-4.19-5.17l0-6.17c0-3.54-0.48-7.62-4.04-11.06
		c-2.46-2.38-5.67-3.69-9.03-3.69c-1.15,0-2.3,0.16-3.41,0.47c-6.13,1.73-8.26,6.84-9.52,9.97c-0.66-0.37-1.28-0.76-1.69-1.01
		l-0.29-0.18c-4.5-2.75-8.93-5.4-13.75-7.61c-4.77-2.19-9.85-3.86-15.51-5.11C107.91,0.4,102.72-0.18,97.62-0.18"/>
	<path class="st1" d="M182.55,103.32c-1.48,1.39-2.99,2.78-4.37,4.26c-1.7,1.83-3.09,3.73-4.32,5.91l-0.64,1.14l-0.36-1.26
		c-0.87-3.03-2.27-5.98-4.27-8.43l-0.35-0.44l0.44-0.35c6.73-5.25,10.82-9.14,13.39-17.55c2-6.55,1.25-13.03,0.48-19.69
		c-1.5,1.41-3.03,2.82-4.43,4.32c-1.72,1.86-3.12,3.8-4.35,6.02l-0.63,1.14l-0.37-1.25c-0.93-3.09-2.42-6.1-4.54-8.55l-0.38-0.44
		l0.46-0.35c7.14-5.57,11.64-9.77,14.05-18.84c1.65-6.19,0.93-12.43,0.2-18.69c-1.47,1.38-2.95,2.74-4.32,4.21
		c-1.68,1.8-3.06,3.67-4.28,5.82l-0.66,1.15l-0.35-1.28c-1.22-4.44-3.66-8.94-7.45-11.7l-0.22-0.16v-8.56c0-2.9-0.32-5.32-2.5-7.43
		c-2-1.93-4.87-2.75-7.57-1.99c-3.65,1.03-4.95,3.87-6.26,7.12c-0.2,0.49-0.4,0.97-0.63,1.44c-1.29,2.7-1.91,3.17-4.73,1.86
		c-1.35-0.63-2.61-1.42-3.88-2.19c-4.3-2.63-8.63-5.23-13.22-7.33c-4.67-2.14-9.49-3.67-14.5-4.77c-11.09-2.45-21.75-2.01-32.7,0.93
		c-7.63,2.05-14.63,5.04-21.34,9.21c-11.8,7.34-20.57,17.03-27.22,29.2c-7.24,13.24-11.14,26.64-12.78,41.61
		c-1.36,12.36-1.14,25.11,1.03,37.37c1.7,9.64,4.72,18.8,9.14,27.53c3.11,6.15,6.87,11.96,11.4,17.16
		c8.78,10.09,20.09,17.33,32.8,21.42c9.68,3.11,20.71,4.43,30.85,3.68c8.78-0.65,17.29-3.32,25.29-6.91
		c2.5-1.12,4.91-2.39,7.24-3.83c1.96-1.22,3.89-2.5,5.84-3.72l0.05-0.03c0.66-0.43,1.34-0.84,2.05-1.19
		c0.92-0.45,2.13-0.92,3.12-0.38c1.05,0.58,1.6,2.38,2.05,3.43c0.96,2.25,1.91,4.56,3.9,6.12c1.39,1.09,3.02,1.57,4.78,1.55
		c3.1-0.03,5.9-2.04,7.09-4.88c0.67-1.59,0.73-2.98,0.73-4.68v-3.32l0.23-0.16c0.59-0.44,1.16-0.91,1.69-1.43l0.97-0.94l-0.08,2.94
		c6.53-5.11,10.89-8.82,13.74-17.21c2.32-6.86,1.56-13.51,0.75-20.5c-1.45,1.36-2.91,2.7-4.27,4.15c-1.66,1.77-3.03,3.61-4.24,5.71
		l-0.67,1.16l-0.34-1.3c-0.77-2.96-2.04-5.84-3.85-8.31l-0.32-0.43l0.42-0.33c6.39-4.99,10.35-9.14,12.77-17.06
		C184.08,116.46,183.32,109.98,182.55,103.32"/>
	<path class="st2" d="M152.32,74.94c-0.27,0.69-0.51,1.4-0.73,2.13c-2.82-5.09-5.65-7.42-9.72-11.29
		c-0.64,5.56-1.29,10.26-0.79,15.11c0.55,5.39,2.81,11.31,6.07,15.66c2.33,3.1,5.06,5.24,8.77,8.14c-2.17,2.4-3.64,5.55-4.4,8.68
		c-2.68-4.82-5.75-7.47-9.66-11.19c-1.35,11.74-2.2,20.8,5.58,31.08c-0.28,1.14-0.5,2.3-0.83,3.44c-2.26,7.84-5.9,15.34-11.15,21.62
		c-3.4,4.07-7.3,7.56-11.94,10.17c-11.81,6.63-27.63,7.43-39.49,0.47c-7.7-4.51-13.8-11.67-18.3-19.29
		c-5.65-9.56-9.17-20.56-10.85-31.51c-1.76-11.47-1.5-23.48,0.23-34.94c0.93-6.11,2.32-12.08,4.04-18.01
		c1.61-4.78,3.44-9.52,5.79-13.99c4.86-9.25,12.05-17.36,21.76-21.63c3.03-1.33,6.22-2.26,9.49-2.78c7.71-1.22,15.76-0.21,22.96,2.8
		c4.94,2.06,9.48,5.02,13.47,8.58c5.86,5.23,10.97,12.17,13.53,19.63c0.91,2.64,1.45,5.35,1.98,8.08c0.59,2.99,1.12,6.37,3.51,8.53
		C151.89,74.6,152.1,74.78,152.32,74.94 M180.4,109.26c0,0-8.85,8.41-9.35,25.87C171.05,135.14,182.36,126.33,180.4,109.26
		 M180.4,72.88c0,0-8.85,8.41-9.35,25.87C171.05,98.75,182.36,89.94,180.4,72.88 M180.4,36.23c0,0-8.85,8.41-9.35,25.88
		C171.05,62.11,182.36,53.3,180.4,36.23 M144.45,72.88c0,0,8.85,8.41,9.34,25.87C153.8,98.75,142.49,89.94,144.45,72.88
		 M144.45,109.26c0,0,6.89,6.56,8.85,20.1c0.46-0.34,0.99-0.62,1.63-0.83c0.26-0.09,0.53-0.15,0.85-0.2
		c-0.05-0.2-0.12-0.46-0.21-0.75c-1.87-5.68-2-12.42,0.89-17.79c1.34-2.49,3.25-4.63,6-5.57v68.44c0,2.47,0,4.94,0,7.4
		c0,1.29,0.02,2.34-0.51,3.58c-0.76,1.8-2.55,3.13-4.53,3.16c-5.12,0.06-5.33-6.07-7.9-9.47c-1.08-1.44-2.4-2.14-4.2-1.93
		c-1.84,0.22-3.76,1.33-5.28,2.31c-4.92,3.05-7.15,4.86-12.75,7.37c-7.7,3.45-15.9,6.04-24.35,6.67
		c-9.67,0.72-20.57-0.59-29.78-3.55c-12.21-3.93-23.09-10.87-31.54-20.58c-4.27-4.91-7.91-10.46-11.01-16.59
		c-4.38-8.65-7.23-17.37-8.88-26.75c-2.11-11.93-2.32-24.55-1-36.57c1.56-14.24,5.06-27.05,12.45-40.56
		C39.64,35.34,48.05,26.07,59.42,19c6.62-4.11,13.07-6.87,20.58-8.88c10.62-2.86,20.7-3.26,31.37-0.9
		c11.01,2.43,17.36,5.94,26.86,11.75c2.31,1.41,6.04,3.87,8.8,3.19c2.38-0.59,3.68-3.55,4.52-5.64c0.92-2.28,1.79-4.73,4.42-5.47
		c1.75-0.49,3.55,0.06,4.85,1.31c1.53,1.48,1.64,3.25,1.64,5.41c0,3.56,0,7.12,0,10.68v65.38c-0.01,1.86-0.03,3.72-0.05,5.59v0.02
		c-1.4-1.07-5.22-4.53-6.89-11.66c-1.27-5.41-1.35-11.8,1.67-16.64c-1.39-0.08-2.45-0.47-3.24-1.19c-1.61-1.46-2.06-4.61-2.47-6.68
		c-0.63-3.22-1.17-5.8-2.1-8.53c-2.75-8-8.19-15.44-14.48-21.05c-4.29-3.83-9.15-6.97-14.41-9.17c-7.78-3.25-16.46-4.33-24.79-3.02
		c-3.57,0.56-7.02,1.57-10.32,3.02C74.95,31.08,67.22,39.7,61.99,49.64c-2.35,4.47-4.26,9.29-6.02,14.55
		c-1.88,6.46-3.23,12.39-4.16,18.51c-1.78,11.76-2.04,24.17-0.23,35.95c1.76,11.47,5.46,22.87,11.28,32.72
		c4.89,8.28,11.41,15.74,19.49,20.48c12.89,7.56,29.98,6.79,42.84-0.44c4.67-2.62,8.91-6.2,12.87-10.94
		c5.55-6.64,9.41-14.55,11.8-22.85c0.48-1.68,0.75-3.51,1.31-5.11C147.97,128.74,143.11,120.93,144.45,109.26 M180.4,145.37
		c0,0-8.85,8.41-9.35,25.87C171.05,171.25,182.36,162.44,180.4,145.37 M140.64,162.63c-3.93,4.7-8.45,8.71-13.81,11.72
		c-13.91,7.81-32.26,8.58-46.2,0.41c-8.7-5.11-15.59-13.05-20.69-21.67c-6.09-10.31-9.9-22.11-11.71-33.92
		c-1.86-12.14-1.61-24.84,0.23-36.97c0.97-6.43,2.44-12.71,4.26-18.95l0.02-0.07l0.02-0.06c1.73-5.15,3.71-10.23,6.24-15.05
		c5.59-10.62,13.88-19.77,25-24.66c3.56-1.57,7.31-2.66,11.15-3.26c8.94-1.41,18.26-0.25,26.61,3.24c5.63,2.35,10.8,5.71,15.35,9.77
		c6.72,6,12.48,13.9,15.42,22.46c0.74,2.17,1.27,4.36,1.74,6.58c0.24,1.13,0.43,2.32,0.66,3.48c0.21,1.05,0.54,3.17,1.47,3.73
		c0.47,0.28,1.17,0.34,1.67,0.13c0.74-0.31,0.92-1.1,0.97-1.83c0.04-0.57,0.01-1.18,0.02-1.68c0-1.87,0.01-3.74,0.01-5.62
		c0-0.91,0-1.82,0-2.72c0-9.08,0-18.17-0.01-27.25c0-3.56,0-7.12,0-10.68c0-0.91,0.1-2.29-0.62-2.99c-0.43-0.41-1.01-0.65-1.59-0.49
		c-1.14,0.32-1.8,2.48-2.21,3.48c-1.31,3.24-3.14,6.74-6.84,7.65c-4.02,0.99-8.09-1.58-11.37-3.59c-4.08-2.5-8.22-4.99-12.57-6.98
		c-4.3-1.97-8.64-3.34-13.26-4.35c-10.15-2.24-19.74-1.83-29.76,0.87c-7.1,1.91-13.43,4.61-19.68,8.49
		c-10.9,6.78-18.91,15.67-25.06,26.91c-6.91,12.64-10.5,25.08-12.06,39.32c-1.29,11.76-1.09,23.97,0.97,35.62
		c1.6,9.08,4.4,17.58,8.57,25.82c2.88,5.7,6.35,11.08,10.55,15.9c8.04,9.24,18.39,15.85,30.03,19.59c8.87,2.85,19.21,4.09,28.5,3.4
		c8.06-0.6,15.88-3.1,23.22-6.38c2.28-1.02,4.4-2.14,6.51-3.45c1.95-1.21,3.86-2.49,5.82-3.7c2.02-1.3,4.27-2.52,6.68-2.81
		c3-0.35,5.48,0.86,7.28,3.24c0.97,1.29,1.63,2.74,2.26,4.22c0.4,0.94,1.21,3.04,2.02,3.67c0.27,0.21,0.56,0.25,0.9,0.24
		c0.63-0.01,1.23-0.54,1.46-1.1c0.29-0.69,0.24-1.54,0.24-2.27v-7.4v-24.23c0-3.33-0.01-6.62-0.01-9.95c0-1.41-0.03-3.34-0.23-4.8
		c-0.03-0.2-0.06-0.4-0.09-0.58c-0.16-0.83-0.39-1.48-0.91-1.81c-0.28-0.18-0.65-0.27-1.15-0.24c-1.66,0.1-1.99,1.33-2.41,2.74
		c-0.88,2.98-1.38,5.71-2.45,8.74C149.29,149.81,145.61,156.68,140.64,162.63 M101.45,30.96l2.67,8.26l8.68-0.02l-7.04,5.09
		l2.7,8.25l-7.02-5.12l-7.01,5.12l2.7-8.25l-7.03-5.09l8.68,0.02L101.45,30.96z M118.95,39.92l-1.81,5.61l-5.9-0.01l4.78,3.46
		l-1.83,5.61l4.77-3.48l4.77,3.48l-1.83-5.61l4.78-3.46l-5.9,0.01L118.95,39.92z M83.96,39.92l1.81,5.61l5.9-0.01l-4.78,3.46
		l1.83,5.61l-4.77-3.48l-4.77,3.48l1.83-5.61l-4.78-3.46l5.9,0.01L83.96,39.92z M130.18,51.71l-1.81,5.61l-5.9-0.01l4.78,3.46
		l-1.83,5.61l4.77-3.48l4.77,3.48l-1.83-5.61l4.78-3.46l-5.9,0.01L130.18,51.71z M72.72,51.71l1.81,5.61l5.9-0.01l-4.78,3.46
		l1.83,5.61l-4.77-3.48l-4.77,3.48l1.83-5.61l-4.78-3.46l5.9,0.01L72.72,51.71z M101.45,163.05c-1.51-1.15-2.96-2.22-4.36-3.21
		c-10.06-7.13-13.88-6.44-23.01-10.96c-5.18-2.56-7.89-6.41-7.89-12.55V79.22c0-2.43-0.34-4.7-0.95-6.84
		c13.45-2.06,26.3-7.51,36.21-16.97c9.91,9.46,22.75,14.9,36.21,16.97c-0.61,2.14-0.95,4.41-0.95,6.84v57.11
		c0,6.14-2.71,9.98-7.89,12.55c-9.13,4.52-12.95,3.83-23.01,10.96C104.42,160.84,102.96,161.9,101.45,163.05 M82.01,79.04l2.2-1.91
		c-0.49-0.74-1.18-1.46-1.88-2c-0.55-0.42-1.14-0.76-1.77-1.01c-1.74-0.69-3.91-0.72-5.68-0.09c-1.91,0.68-3.54,2.16-4.42,3.98
		c-0.97,2-1.01,4.46-0.16,6.51c0.79,1.92,2.32,3.49,4.32,4.29c2.16,0.86,4.76,0.73,6.79-0.42c1.04-0.59,2.14-1.59,2.81-2.58
		l-2.2-1.91c-0.18,0.3-0.43,0.62-0.71,0.93c-0.74,0.81-1.49,1.34-2.57,1.58c-0.89,0.2-1.9,0.15-2.77-0.14
		c-1.22-0.41-2.32-1.41-2.9-2.57c-0.57-1.14-0.65-2.58-0.27-3.8c0.42-1.33,1.47-2.51,2.75-3.06c1.18-0.52,2.65-0.56,3.86-0.1
		C80.48,77.14,81.46,78.02,82.01,79.04 M130.89,79.04l2.2-1.91c-0.49-0.74-1.18-1.46-1.88-2c-0.55-0.43-1.14-0.76-1.77-1.01
		c-1.74-0.7-3.91-0.72-5.68-0.09c-1.91,0.68-3.54,2.16-4.42,3.98c-0.97,2-1.01,4.46-0.16,6.51c0.79,1.92,2.32,3.49,4.32,4.29
		c2.16,0.86,4.76,0.73,6.79-0.42c1.04-0.59,2.14-1.59,2.81-2.58l-2.2-1.91c-0.18,0.3-0.43,0.62-0.71,0.93
		c-0.74,0.81-1.49,1.34-2.57,1.58c-0.89,0.2-1.9,0.15-2.77-0.14c-1.22-0.41-2.32-1.41-2.9-2.57c-0.57-1.14-0.65-2.58-0.27-3.8
		c0.42-1.33,1.47-2.51,2.75-3.06c1.18-0.52,2.65-0.56,3.86-0.1C129.35,77.14,130.33,78.02,130.89,79.04 M104.2,62.91V89.3h2.86v-4.7
		c0.77-0.05,1.52-0.27,2.29-0.51l1.95,5.21h3.06l-2.43-6.36c5.15-3.56,5.16-7.94,0-13.14C109.83,67.69,106.59,64.91,104.2,62.91
		 M107.06,69.24c1.68,1.46,3.35,2.82,4.66,4.72c0.8,1.16,1.2,2.16,1.14,3.1c-0.1,1.53-1.69,3.08-2.96,3.78
		c-0.82,0.46-1.75,0.73-2.84,0.86V69.24z M98.44,62.83c-1.33,1.05-2.72,2.06-4.13,3.03c-1.78,1.21-3.57,2.35-5.48,3.34v20.16h2.86
		v-3.81h3.9v3.81h2.86V62.83z M90.8,93.35h-7.1v55.94l1.52,0.56c2,0.73,3.82,1.51,5.58,2.36V93.35z M105,93.35h-7.1v63.03
		c0.37,0.25,0.73,0.5,1.11,0.77c0.82,0.58,1.63,1.17,2.44,1.77c0.81-0.6,1.62-1.19,2.45-1.77c0.37-0.26,0.74-0.52,1.11-0.77V93.35z
		 M119.21,93.35h-7.1v58.87c1.75-0.86,3.58-1.63,5.58-2.36l1.52-0.56V93.35z M133.41,93.35h-7.1v53.07c0.35-0.16,0.7-0.33,1.05-0.5
		c4.19-2.07,6.05-4.85,6.05-9.56V93.35z M76.6,93.35h-7.1v43.01c0.01,4.71,1.87,7.49,6.05,9.56c0.35,0.17,0.7,0.34,1.05,0.5V93.35z
		 M91.69,70.87c1.34-0.77,2.61-1.59,3.9-2.43V82.7h-3.9V70.87z M167.49,178.3l0.08-2.76c-0.56,0.54-1.14,1.04-1.75,1.48v3.05
		c0,1.78-0.06,3.2-0.77,4.89c-1.28,3.04-4.27,5.18-7.59,5.22c-1.88,0.02-3.63-0.51-5.12-1.67c-2.08-1.63-3.06-3.98-4.06-6.33
		c-1.13-2.65-1.39-4.27-4.41-2.78c-0.74,0.36-1.45,0.81-1.99,1.16l-0.03,0.02l-0.03,0.02c-1.96,1.22-3.88,2.5-5.85,3.72
		c-2.37,1.47-4.76,2.72-7.3,3.87c-8.06,3.61-16.63,6.3-25.48,6.95c-10.15,0.75-21.36-0.59-31.06-3.7
		c-12.81-4.12-24.2-11.41-33.05-21.58c-4.56-5.24-8.34-11.08-11.47-17.27c-4.47-8.83-7.48-17.96-9.2-27.69
		c-2.17-12.29-2.4-25.13-1.04-37.53c1.66-15.11,5.51-28.4,12.85-41.81c6.7-12.26,15.52-22.01,27.41-29.4
		c6.81-4.23,13.74-7.2,21.48-9.28c11.07-2.98,21.75-3.42,32.96-0.94c5.08,1.12,9.88,2.64,14.61,4.81c4.6,2.11,8.96,4.72,13.28,7.36
		c0.66,0.41,2.32,1.47,3.83,2.16c2.5,1.17,2.84,0.86,4.01-1.59c0.29-0.61,0.52-1.16,0.62-1.41c1.37-3.39,2.76-6.36,6.62-7.45
		c2.89-0.81,5.95,0.05,8.1,2.12c2.31,2.23,2.67,4.78,2.67,7.83v8.28c3.49,2.54,6.23,6.81,7.65,12c2.76-4.86,5.58-7.18,9.5-10.91
		c0.86,7.44,1.62,13.56-0.09,19.98c-2.48,9.33-7.15,13.6-14.24,19.13c2.01,2.33,3.62,5.32,4.65,8.75c2.81-5.05,5.63-7.38,9.68-11.23
		c0.9,7.83,1.7,14.2-0.38,21c-2.65,8.65-6.89,12.61-13.58,17.83c1.9,2.33,3.41,5.28,4.37,8.62c2.79-4.95,5.6-7.27,9.59-11.06
		c0.9,7.84,1.71,14.2-0.38,21.01c-2.46,8.04-6.46,12.27-12.96,17.34c1.73,2.36,3.09,5.26,3.94,8.5c2.73-4.75,5.55-7.07,9.4-10.73
		c0.94,8.15,1.77,14.71-0.64,21.83C179.31,169.02,174.66,172.71,167.49,178.3"/>
</g>
</svg>
