<?xml version="1.0" encoding="utf-8"?>
<!-- Generator: Adobe Illustrator 26.0.3, SVG Export Plug-In . SVG Version: 6.00 Build 0)  -->
<svg version="1.1" id="Capa_1" xmlns="http://www.w3.org/2000/svg" xmlns:xlink="http://www.w3.org/1999/xlink" x="0px" y="0px"
	 viewBox="0 0 200 200" style="enable-background:new 0 0 200 200;" xml:space="preserve">
<style type="text/css">
	.st0{fill:#110D0B;}
	.st1{fill:#E6292E;}
	.st2{fill:#313C59;}
	.st3{clip-path:url(#SVGID_00000168818107335147269020000013243365883195291034_);}
	.st4{fill:#FFFFFF;}
	.st5{fill:none;}
</style>
<g>
	<g>
		<path class="st0" d="M182.29,17.76c0,0-14.28,8.74-37.9,7.18c-23.97-1.58-41.81-14.01-43.95-25.12h-0.28
			C98.01,10.94,80.17,23.37,56.2,24.95c-23.62,1.55-37.9-7.18-37.9-7.18s-37.92,123.03,81.93,182.06h0.14
			C220.21,140.79,182.29,17.76,182.29,17.76z"/>
		<path class="st1" d="M100.3,195.72c-25.93-13.05-46.2-30.26-60.26-51.17c-11.46-17.05-18.86-36.61-22.01-58.15
			c-4.21-28.86,0.44-53.7,2.71-63.31c5.45,2.34,15.77,5.75,29.87,5.75c1.93,0,3.89-0.07,5.83-0.2C77.5,27.26,93.4,18.24,100.3,8.36
			c6.89,9.88,22.79,18.9,43.85,20.28c1.95,0.13,3.91,0.2,5.84,0.2c14.09,0,24.42-3.4,29.87-5.75c2.27,9.61,6.92,34.45,2.71,63.31
			c-3.15,21.54-10.55,41.1-22.01,58.15C146.5,165.46,126.23,182.67,100.3,195.72z"/>
		<path class="st0" d="M182.29,17.76c0,0-14.28,8.74-37.9,7.18c-23.97-1.58-41.81-14.01-43.95-25.12h-0.28
			C98.01,10.94,80.17,23.37,56.2,24.95c-23.62,1.55-37.9-7.18-37.9-7.18s-37.92,123.03,81.93,182.06h0.14
			C220.21,140.79,182.29,17.76,182.29,17.76z"/>
		<path class="st1" d="M100.3,195.72c-25.93-13.05-46.2-30.26-60.26-51.17c-11.46-17.05-18.86-36.61-22.01-58.15
			c-4.21-28.86,0.44-53.7,2.71-63.31c5.45,2.34,15.77,5.75,29.87,5.75c1.93,0,3.89-0.07,5.83-0.2C77.5,27.26,93.4,18.24,100.3,8.36
			c6.89,9.88,22.79,18.9,43.85,20.28c1.95,0.13,3.91,0.2,5.84,0.2c14.09,0,24.42-3.4,29.87-5.75c2.27,9.61,6.92,34.45,2.71,63.31
			c-3.15,21.54-10.55,41.1-22.01,58.15C146.5,165.46,126.23,182.67,100.3,195.72z"/>
		<path class="st2" d="M100.3,189.53C76.33,177.14,57.56,161,44.48,141.55c-10.93-16.25-17.99-34.92-21-55.5
			c-3.48-23.81-0.65-44.8,1.57-56c6.38,2.18,15.25,4.17,26.32,4.17c1.99,0,4.01-0.07,6.02-0.2c17.71-1.16,33.58-7.74,42.9-17.54
			c9.32,9.79,25.19,16.38,42.9,17.54c2.01,0.13,4.04,0.2,6.02,0.2c11.07,0,19.94-1.99,26.32-4.17c2.22,11.19,5.05,32.19,1.57,56
			c-3,20.58-10.07,39.25-20.99,55.5C143.03,161,124.26,177.14,100.3,189.53z"/>
		<path class="st1" d="M100.3,185.28c-22.63-11.91-40.4-27.3-52.8-45.76c-10.54-15.68-17.35-33.69-20.25-53.56
			c-3.12-21.38-0.95-40.5,1-51.43c7.47,2.23,15.5,3.35,23.92,3.35c2.02,0,4.06-0.07,6.09-0.2c16.75-1.1,32.24-7.12,42.04-16.23
			c9.81,9.11,25.29,15.12,42.04,16.23c2.03,0.13,4.08,0.2,6.1,0.2c8.42,0,16.45-1.12,23.92-3.35c1.95,10.93,4.11,30.05,0.99,51.43
			c-2.9,19.87-9.72,37.88-20.25,53.56C140.69,157.98,122.93,173.37,100.3,185.28z"/>
		<g>
			<defs>
				<path id="SVGID_1_" d="M100.3,185.28c-22.63-11.91-40.4-27.3-52.8-45.76c-10.54-15.68-17.35-33.69-20.25-53.56
					c-3.12-21.38-0.95-40.5,1-51.43c7.47,2.23,15.5,3.35,23.92,3.35c2.02,0,4.06-0.07,6.09-0.2c16.75-1.1,32.24-7.12,42.04-16.23
					c9.81,9.11,25.29,15.12,42.04,16.23c2.03,0.13,4.08,0.2,6.1,0.2c8.42,0,16.45-1.12,23.92-3.35c1.95,10.93,4.11,30.05,0.99,51.43
					c-2.9,19.87-9.72,37.88-20.25,53.56C140.69,157.98,122.93,173.37,100.3,185.28z"/>
			</defs>
			<clipPath id="SVGID_00000127738982237439429180000004622452202579563963_">
				<use xlink:href="#SVGID_1_"  style="overflow:visible;"/>
			</clipPath>
			<g style="clip-path:url(#SVGID_00000127738982237439429180000004622452202579563963_);">
				<rect x="20.53" y="29.42" class="st2" width="16.62" height="102.15"/>
				<rect x="55.39" y="29.42" class="st2" width="17.63" height="142.48"/>
				<rect x="127.14" y="29.42" class="st2" width="17.63" height="142.48"/>
				<rect x="162.81" y="29.42" class="st2" width="17.63" height="142.48"/>
				<rect x="91.35" y="12.19" class="st2" width="17.74" height="177.34"/>
			</g>
		</g>
	</g>
	<path class="st4" d="M145.27,95.54c0,24.84-20.14,44.98-44.98,44.98c-24.84,0-44.98-20.14-44.98-44.98
		c0-24.84,20.13-44.98,44.98-44.98C125.14,50.56,145.27,70.7,145.27,95.54z"/>
	<path class="st2" d="M100.3,53.87c-23.01,0-41.67,18.66-41.67,41.67c0,23.01,18.66,41.67,41.67,41.67
		c23.01,0,41.67-18.66,41.67-41.67C141.97,72.52,123.31,53.87,100.3,53.87z"/>
	<path class="st4" d="M100.3,136.44c-22.59,0-40.9-18.32-40.9-40.9c0-22.59,18.31-40.9,40.9-40.9c22.59,0,40.89,18.31,40.89,40.9
		C141.19,118.12,122.88,136.44,100.3,136.44z"/>
	<g>
		<path class="st5" d="M127.14,86.46v6.4h1.36h3.77c-0.45-5.47-2.28-10.55-5.13-14.9V86.46z"/>
		<path class="st4" d="M83.52,77.72c-4.26,4.01-7.08,9.54-7.6,15.71h7.6V77.72z"/>
		<path class="st2" d="M110.09,117.97V73.1v-4.15c-1.72-0.63-3.51-1.1-5.36-1.39v3.91v48.14v3.91c1.86-0.29,3.65-0.76,5.36-1.39
			c3.06-1.13,5.88-2.78,8.34-4.83v-5.32C116.12,114.52,113.28,116.57,110.09,117.97z"/>
		<path class="st2" d="M100.3,127.62c-4.8,0-9.35-1.06-13.43-2.94c-1.16-0.53-2.27-1.13-3.35-1.79
			c-9.18-5.65-15.31-15.78-15.31-27.36s6.13-21.71,15.31-27.36c1.26-0.77,2.57-1.46,3.94-2.06c3.93-1.72,8.27-2.68,12.84-2.68
			c1.5,0,2.98,0.11,4.43,0.31c1.84,0.25,3.63,0.66,5.36,1.22v-5.01c-1.74-0.47-3.53-0.83-5.36-1.05c-1.45-0.17-2.93-0.26-4.43-0.26
			c-20.37,0-36.89,16.51-36.89,36.89c0,20.37,16.51,36.89,36.89,36.89c1.5,0,2.98-0.1,4.43-0.26c1.83-0.22,3.62-0.57,5.36-1.05
			v-5.01c-1.73,0.55-3.52,0.96-5.36,1.22C103.28,127.52,101.8,127.62,100.3,127.62z"/>
		<path class="st2" d="M83.52,72.71c-6.48,4.77-10.85,12.22-11.47,20.72c-0.05,0.69-0.08,1.39-0.08,2.1c0,0.61,0.02,1.23,0.06,1.83
			c0.29,4.52,1.64,8.74,3.8,12.43h4.59c-2.55-3.55-4.18-7.81-4.52-12.43h7.63v15.98v5.01c1.24,0.91,2.55,1.73,3.94,2.43v-4.42v-19
			v-3.93V74.7v-4.42C86.07,70.98,84.75,71.8,83.52,72.71z M75.91,93.44c0.52-6.18,3.34-11.7,7.6-15.71v15.71H75.91z"/>
		<path class="st2" d="M137.08,92.86c-0.62-8.73-4.29-16.62-9.94-22.61c-1.05-1.11-2.17-2.16-3.34-3.14
			c-0.65-0.54-1.33-1.06-2.02-1.55v6.15v5.37v6.73v9.06v5.07v9.35v6.73c0.72-0.84,1.4-1.73,2.02-2.64c1.4-2.07,2.53-4.34,3.34-6.75
			v-6.69h1.38h3.77c-0.41,5.58-2.25,10.77-5.15,15.19c-0.34,0.52-0.7,1.03-1.07,1.53c-0.71,0.95-1.47,1.87-2.28,2.73
			c-1.61,1.73-3.41,3.28-5.36,4.63v5.65c1.9-1.07,3.69-2.31,5.36-3.7c7.6-6.29,12.64-15.57,13.31-26.04
			c0.05-0.79,0.08-1.58,0.08-2.39C137.18,94.63,137.15,93.74,137.08,92.86z M128.5,92.86h-1.36v-6.4v-8.5
			c2.85,4.35,4.68,9.43,5.13,14.9H128.5z"/>
	</g>
	<path class="st2" d="M102.75,118.99V99.44h-0.02c-0.15-2.2-1.43-3.42-1.43-3.42s-3.49-3.79-5.34-5.68
		c-1.16-1.17-1.37-2.18-1.4-2.62V75.57c0,0,0.2-0.92,1.67-0.92c0,0,1.66-0.04,1.66,0.92v8.96h4.85V72.49c0,0,0.05-4.99-6.51-4.99
		c-6.57,0-6.52,4.99-6.52,4.99v17.74l0,0c0,0.35,0.12,1.44,1.4,2.74c1.86,1.88,5.35,5.68,5.35,5.68s1.38,1.32,1.44,3.69v12.93
		c0,0,0,1.44-1.66,1.44c-1.67,0-1.67-1.55-1.67-1.55v-7.12v-3.24h-4.85v3.24v8.07c0,0-0.23,6.7,6.62,7.49
		C103.19,124.38,102.75,118.99,102.75,118.99z"/>
	<g>
		<polygon class="st2" points="118.1,96.15 120.15,96.15 120.15,94.42 118.1,94.42 118.1,92.98 120.34,92.98 120.34,91.27 
			116.73,91.27 116.73,99.43 120.34,99.43 120.34,97.6 118.1,97.6 		"/>
	</g>
	<path class="st2" d="M116.11,94.83L116.11,94.83c0-0.03,0-0.05,0-0.07v-0.09h0c-0.07-3.27-2.14-3.39-2.14-3.39h-2.67v8.16h2.67
		V99.4c0,0,2.08-0.12,2.14-3.42h0v-0.06c0-0.03,0-0.05,0-0.08h0V94.83z"/>
	<path class="st4" d="M114.69,95.56v-0.42V94.9v-0.19c0-1.61-1.2-1.65-1.2-1.65h-0.79v4.59l0.79,0.01l0.01-0.01
		c0,0,1.2-0.04,1.2-1.64L114.69,95.56L114.69,95.56z"/>
</g>
</svg>
