<?xml version="1.0" encoding="utf-8"?>
<!-- Generator: Adobe Illustrator 26.0.3, SVG Export Plug-In . SVG Version: 6.00 Build 0)  -->
<svg version="1.1" id="Capa_1" xmlns="http://www.w3.org/2000/svg" xmlns:xlink="http://www.w3.org/1999/xlink" x="0px" y="0px"
	 viewBox="0 0 200 200" style="enable-background:new 0 0 200 200;" xml:space="preserve">
<style type="text/css">
	.st0{fill:#1D5F2D;}
	.st1{fill:#FFFFFF;}
	.st2{fill:#FFFFFF;stroke:#FFFFFF;stroke-width:0.2907;stroke-miterlimit:10;}
</style>
<g>
	<path class="st0" d="M175.1,18.12C163.63,9.73,164.3,0.91,164.3,0.91s-29.82,15.33-64.01,15.33c-34.56,0-64.01-15.33-64.01-15.33
		s0.67,8.82-10.79,17.21c-11.87,8.68-25.2,8.56-25.2,8.56s0.35,55.42,18.27,89.88c33.61,64.64,80.94,82.17,80.94,82.17h1.58
		c0,0,47.32-17.42,80.93-82.06c17.92-34.47,18.28-89.41,18.28-89.41S186.96,26.8,175.1,18.12z"/>
	<path class="st1" d="M154.91,22.51c2.56,3.45,5.8,6.76,9.86,9.73c5.85,4.28,11.9,7.06,17.32,8.88
		c-1.32,17.29-5.05,46.66-15.59,66.94c-23.49,45.17-54.3,64.59-66.26,70.76c-12.01-6.11-42.42-25.21-66.15-70.86
		C24.14,88.83,19.96,60,18.48,41.05c5.43-1.76,11.47-4.52,17.34-8.81c4.04-2.95,7.28-6.26,9.83-9.69
		c13.46,5.35,33.09,11.2,54.65,11.2C121.7,33.75,141.4,27.87,154.91,22.51 M158.69,9.25l-7.81,3.09
		c-12.04,4.77-30.59,10.47-50.59,10.47c-20.16,0-38.64-5.67-50.61-10.42l-7.8-3.1l-5.01,6.73c-2.06,2.77-4.58,5.25-7.51,7.39
		c-4.25,3.11-9.05,5.54-14.26,7.24l-8.19,2.66l0.67,8.59c1.33,17.04,5.28,48.93,16.81,71.09c25.19,48.45,57.97,68.98,70.9,75.56
		l5,2.54l4.98-2.57c13.04-6.73,46.05-27.57,70.94-75.43c11.02-21.19,15.21-50.39,16.79-71.15l0.65-8.5l-8.08-2.7
		c-5.27-1.76-10.09-4.23-14.33-7.33c-2.94-2.15-5.47-4.65-7.53-7.41L158.69,9.25L158.69,9.25z"/>
	<g>
		<path class="st2" d="M81.29,43.73v16.41h-1.36c-1.03-4.29-2.93-7.57-5.73-9.85c-2.79-2.28-5.96-3.42-9.5-3.42
			c-2.96,0-5.67,0.85-8.14,2.55c-2.46,1.7-4.27,3.93-5.41,6.67c-1.47,3.52-2.2,7.43-2.2,11.74c0,4.24,0.54,8.1,1.61,11.58
			c1.07,3.48,2.75,6.11,5.03,7.89c2.28,1.78,5.24,2.67,8.87,2.67c2.98,0,5.71-0.65,8.19-1.95c2.48-1.3,5.09-3.55,7.84-6.74v4.09
			c-2.65,2.77-5.42,4.78-8.29,6.02c-2.88,1.24-6.23,1.86-10.07,1.86c-5.05,0-9.54-1.01-13.46-3.04c-3.92-2.03-6.95-4.94-9.08-8.73
			c-2.13-3.79-3.2-7.83-3.2-12.12c0-4.52,1.18-8.8,3.55-12.85c2.36-4.05,5.55-7.2,9.56-9.43c4.02-2.24,8.28-3.35,12.8-3.35
			c3.33,0,6.85,0.72,10.55,2.16c2.14,0.84,3.5,1.26,4.09,1.26c0.74,0,1.39-0.28,1.93-0.82c0.55-0.54,0.9-1.41,1.06-2.6H81.29z"/>
	</g>
	<g>
		<path class="st2" d="M148.2,43.71l0.39,15.78h-1.43c-0.68-3.95-2.33-7.14-4.98-9.55c-2.65-2.41-5.5-3.62-8.57-3.62
			c-2.38,0-4.26,0.63-5.64,1.9c-1.39,1.27-2.07,2.73-2.07,4.38c0,1.05,0.24,1.98,0.73,2.8c0.67,1.1,1.75,2.18,3.24,3.25
			c1.09,0.77,3.62,2.13,7.57,4.08c5.54,2.72,9.28,5.3,11.21,7.72c1.91,2.42,2.86,5.19,2.86,8.31c0,3.96-1.54,7.36-4.62,10.21
			c-3.09,2.85-7.01,4.28-11.75,4.28c-1.49,0-2.9-0.15-4.23-0.46c-1.32-0.3-2.99-0.87-4.99-1.71c-1.11-0.47-2.04-0.7-2.76-0.7
			c-0.6,0-1.25,0.23-1.92,0.7c-0.67,0.47-1.22,1.17-1.64,2.13h-1.3V75.35h1.3c1.02,5.03,2.99,8.87,5.92,11.51
			c2.92,2.64,6.07,3.96,9.45,3.96c2.6,0,4.69-0.71,6.23-2.13c1.54-1.42,2.32-3.07,2.32-4.96c0-1.12-0.3-2.2-0.89-3.25
			c-0.6-1.04-1.5-2.04-2.71-2.98c-1.21-0.94-3.35-2.17-6.43-3.69c-4.3-2.12-7.4-3.92-9.29-5.41c-1.88-1.49-3.33-3.15-4.34-4.99
			c-1.01-1.84-1.52-3.86-1.52-6.07c0-3.78,1.38-6.99,4.15-9.64c2.77-2.66,6.26-3.98,10.48-3.98c1.54,0,3.03,0.19,4.47,0.56
			c1.1,0.28,2.43,0.8,4,1.56c1.57,0.75,2.67,1.13,3.3,1.13c0.6,0,1.08-0.18,1.43-0.56c0.34-0.37,0.67-1.27,0.98-2.69H148.2z"/>
	</g>
	<g>
		<path class="st2" d="M104.14,135.21H87.41l-1.99,4.61c-0.66,1.54-0.98,2.81-0.98,3.8c0,1.33,0.53,2.31,1.6,2.93
			c0.63,0.38,2.18,0.65,4.65,0.84v1.29H74.95v-1.29c1.7-0.25,3.09-0.96,4.18-2.11c1.1-1.15,2.45-3.53,4.05-7.14l16.94-37.79h0.66
			l17.08,38.84c1.63,3.68,2.97,5.99,4.02,6.94c0.79,0.72,1.91,1.14,3.35,1.26v1.29h-22.91v-1.29h0.94c1.84,0,3.13-0.25,3.87-0.77
			c0.51-0.37,0.77-0.91,0.77-1.6c0-0.42-0.07-0.85-0.21-1.3c-0.05-0.21-0.4-1.08-1.05-2.62L104.14,135.21z M102.95,132.62
			l-7.06-16.31l-7.26,16.31H102.95z"/>
	</g>
</g>
</svg>
