<?xml version="1.0" encoding="utf-8"?>
<!-- Generator: Adobe Illustrator 26.0.3, SVG Export Plug-In . SVG Version: 6.00 Build 0)  -->
<svg version="1.1" id="Capa_1" xmlns="http://www.w3.org/2000/svg" xmlns:xlink="http://www.w3.org/1999/xlink" x="0px" y="0px"
	 viewBox="0 0 200 200" style="enable-background:new 0 0 200 200;" xml:space="preserve">
<style type="text/css">
	.st0{fill:#FFFFFF;}
	.st1{fill:#2B1F4A;}
</style>
<g>
	<path class="st0" d="M26.88,9.48L0.29,45.95c0,0,23.73,11.04,23.73,27.63c0,21.75-20.6,22.03-20.6,56.66c0,0,0,33.48,26.33,40.63
		c0,0,10.04,4.58,38.66,6.87c28.62,2.29,33.2,12.43,33.2,12.43c8.58-13.62,42.92-12.14,69.25-19.29
		c26.33-7.15,26.33-40.63,26.33-40.63c0-34.63-20.6-34.91-20.6-56.66c0-16.6,23.73-27.63,23.73-27.63L173.71,9.48H26.88z"/>
	<path class="st1" d="M101.58,184.84c-4.14-3.74-13.32-8.96-32.91-10.52c-27.69-2.22-37.41-6.53-37.51-6.57l-0.25-0.12l-0.27-0.07
		c-23.52-6.39-23.79-37.01-23.79-37.32c0-18.18,5.8-25.98,11.4-33.53c4.52-6.09,9.2-12.38,9.2-23.13
		c0-14.45-14.93-24.73-22.05-28.81l23.22-31.85h143.33l23.22,31.85c-7.12,4.08-22.05,14.36-22.05,28.81
		c0,10.75,4.68,17.04,9.2,23.13c5.61,7.55,11.4,15.35,11.4,33.53c0,0.07-0.06,8.04-3.16,16.66c-3.98,11.07-10.92,18.02-20.64,20.66
		c-8.81,2.39-18.61,3.81-28.08,5.18C124.63,175.23,109.45,177.42,101.58,184.84z"/>
	<g>
		<path class="st0" d="M54.84,27.15c0-4.75,2.67-5.87,7.15-5.87h5.85c7.08,0,8,1.53,7.96,6.12h-4.98v-0.45c0-1.17-0.85-1.5-2.33-1.5
			h-5.43c-2.62,0-3.12,1.23-3.12,3.25v1.75c0,2.35,0.49,3.25,2.85,3.25h5.31c2.24,0,2.92-0.22,2.92-2.24h4.98v1.53
			c0,2.73-0.99,4.89-5.99,4.89H62c-4.48,0-7.15-1.12-7.15-5.87V27.15z"/>
		<path class="st0" d="M80.51,33.12h4.71v4.57h-4.71V33.12z"/>
		<path class="st0" d="M97.28,21.46h6.48l8.92,16.23h-5.54l-1.55-2.87H95.51l-1.46,2.87h-5.56L97.28,21.46z M97.37,31.32h6.37
			l-3.23-6.1L97.37,31.32z"/>
		<path class="st0" d="M115.96,33.12h4.71v4.57h-4.71V33.12z"/>
		<path class="st0" d="M124.34,21.46h18.97v4.04h-6.99v12.2h-4.98V25.5h-6.99V21.46z"/>
	</g>
	<g>
		<path class="st0" d="M33.2,48.5v114.18c1.28,0.62,6.94,3.19,19.02,5.29V48.5H33.2z"/>
		<path class="st0" d="M71.5,48.5v121.76c7.86,0.78,14.09,2.16,19.02,3.82V48.5H71.5z"/>
		<path class="st0" d="M109.8,48.5v126.58c5.49-2.1,11.94-3.51,19.02-4.7V48.5H109.8z"/>
		<path class="st0" d="M148.11,48.5v118.85c6.51-1.2,13.01-2.74,19.02-4.34V48.5H148.11z"/>
	</g>
</g>
</svg>
