<?xml version="1.0" encoding="utf-8"?>
<!-- Generator: Adobe Illustrator 26.0.3, SVG Export Plug-In . SVG Version: 6.00 Build 0)  -->
<svg version="1.1" id="Capa_1" xmlns="http://www.w3.org/2000/svg" xmlns:xlink="http://www.w3.org/1999/xlink" x="0px" y="0px"
	 viewBox="0 0 200 200" style="enable-background:new 0 0 200 200;" xml:space="preserve">
<style type="text/css">
	.st0{fill:none;}
	.st1{opacity:0.25;}
	.st2{fill:#13120D;}
	.st3{fill:#223B83;}
	.st4{fill:#E51E30;}
	.st5{fill:#ECECED;}
	.st6{fill-rule:evenodd;clip-rule:evenodd;fill:#DEA900;}
	.st7{fill:#FFFFFF;}
</style>
<g>
	<rect x="39.07" y="54.06" class="st0" width="122.45" height="0.09"/>
	<path class="st0" d="M97.82,191.21C97.82,191.2,97.82,191.2,97.82,191.21c-0.3-0.31-0.6-0.6-0.92-0.86
		c-2.54-2.14-5.53-2.73-6.98-2.9c2.89,0.47,8.93,2.38,10.37,10.13l0,0.02c0,0,0-0.01,0-0.01c0,0,0,0,0,0.01l0-0.02
		c0.09-0.47,0.2-0.91,0.31-1.33C99.99,194.08,98.99,192.44,97.82,191.21z"/>
	<g class="st1">
		<path class="st2" d="M97.82,191.2C97.82,191.2,97.82,191.2,97.82,191.2C97.82,191.2,97.82,191.2,97.82,191.2z"/>
	</g>
	<g>
		<g>
			<g>
				<path class="st3" d="M118.38,90.55v96.75c0.32,0,0.64,0,0.98,0c6.92,0,17.69,0,26.95,0c15.04,0,15.21-14.25,15.21-14.25V91.51
					v-0.96H118.38z"/>
			</g>
			<g>
				<path class="st3" d="M39.07,91.51v81.54c0,0,0.17,14.25,15.21,14.25c9.44,0,20.46,0,27.36,0c0.35,0,0.7,0,1.03,0V90.55h-43.6
					V91.51z"/>
			</g>
		</g>
	</g>
	<g>
		<path class="st0" d="M39.07,90.55v0.96v81.54c0,0,0.17,14.25,15.21,14.25c9.44,0,20.46,0,27.36,0c0.35,0,0.7,0,1.03,0V90.55H39.07
			z"/>
		<path class="st0" d="M118.38,187.29c0.32,0,0.64,0,0.98,0c6.92,0,17.69,0,26.95,0c15.04,0,15.21-14.25,15.21-14.25V91.51v-0.96
			h-43.14V187.29z"/>
		<rect x="39.07" y="54.06" class="st0" width="122.45" height="0.09"/>
		<path class="st4" d="M39.07,90.55h43.6v96.75c3.5,0,5.7,0,5.7,0s0.61,0,1.55,0.15c0,0,0,0,0,0c2.89,0.47,8.93,2.38,10.37,10.13
			l0,0.02c0,0,0-0.01,0-0.01c0,0,0,0,0,0.01l0-0.02c0.09-0.47,0.2-0.91,0.31-1.33c2.49-8.94,11.61-8.95,11.61-8.95s2.4,0,6.16,0
			V90.55h43.14v-36.4H39.07V90.55z"/>
		<path class="st5" d="M37.02,52.01v121.06c0.07,5.63,3.76,16.27,17.25,16.27h34.09c0.34,0,8.28,0.1,9.89,8.54
			c0.05,1.08,0.92,1.94,2.01,1.94c1.07,0,1.94-0.84,2.01-1.9h0.01c1.64-8.27,9.59-8.58,9.92-8.58h34.09
			c13.49,0,17.19-10.64,17.25-16.29V52.01H37.02z M161.52,54.15v36.4v0.96v81.54c0,0-0.17,14.25-15.21,14.25
			c-9.25,0-20.03,0-26.95,0c-0.34,0-0.66,0-0.98,0c-3.76,0-6.16,0-6.16,0s-9.12,0.01-11.61,8.95c-0.12,0.43-0.23,0.86-0.31,1.33
			l0,0.02c0,0,0-0.01,0-0.01c0,0,0,0,0,0.01l0-0.02c-1.44-7.75-7.48-9.66-10.37-10.13c0,0,0,0,0,0c-0.94-0.15-1.55-0.15-1.55-0.15
			s-2.2,0-5.7,0c-0.33,0-0.67,0-1.03,0c-6.9,0-17.92,0-27.36,0c-15.04,0-15.21-14.25-15.21-14.25V91.51v-0.96v-36.4v-0.09h122.45
			V54.15z"/>
	</g>
	<g class="st1">
		<path class="st2" d="M118.38,187.29c0.32,0,0.64,0,0.98,0V91.51h42.16v-0.96h-43.14V187.29z"/>
	</g>
	<g class="st1">
		<path class="st2" d="M39.07,90.55v0.96h42.57v95.79c0.35,0,0.7,0,1.03,0V90.55H39.07z"/>
	</g>
	<g>
		<g>
			<polygon class="st6" points="100.41,-0.18 105.45,15.54 122.03,15.54 108.53,25.31 113.77,40.96 100.27,31.45 87.04,40.96 
				92.14,25.4 78.56,15.54 95.32,15.5 100.41,-0.18 			"/>
		</g>
	</g>
	<g>
		<polygon class="st7" points="53.82,84.14 59.57,84.14 59.57,66.24 64.35,66.24 64.35,60.68 49.02,60.68 49.02,66.24 53.82,66.24 
					"/>
		<rect x="70.91" y="60.68" class="st7" width="5.75" height="23.46"/>
		<path class="st7" d="M94.89,84.54c3.36,0,6.18-1.25,8.37-3.71c0.97-1.1,1.67-2.31,2.09-3.61c0.41-1.32,0.61-2.85,0.61-4.54v-1.99
			H94.74v5.56h4.8c-0.27,0.54-0.67,1.03-1.2,1.48c-1,0.85-2.09,1.26-3.34,1.26c-1.5,0-2.88-0.58-4.2-1.76
			c-1.39-1.26-2.07-2.82-2.07-4.78c0-1.91,0.61-3.45,1.87-4.71c1.25-1.28,2.76-1.89,4.63-1.89c2.04,0,3.75,0.95,5.22,2.9l0.88,1.17
			l4.2-4.02l-0.82-0.94c-1.42-1.61-2.89-2.81-4.41-3.55c-1.58-0.74-3.3-1.12-5.12-1.12c-3.38,0-6.29,1.2-8.65,3.55
			c-2.36,2.35-3.56,5.25-3.56,8.62c0,3.3,1.17,6.17,3.49,8.53C88.79,83.34,91.62,84.54,94.89,84.54z"/>
		<path class="st7" d="M119.62,77.62l5.42,6.52h8.44l-8.27-9.55c1.06-0.45,1.97-1.07,2.74-1.87c1.23-1.29,1.85-2.85,1.85-4.62
			c0-2.28-1-4.15-2.97-5.56c-1.77-1.25-4.42-1.86-8.12-1.86h-5.95v23.46h6.86V77.62z M119.62,66.24c3.42,0.05,3.42,1.25,3.42,1.9
			c0,0.72,0,2.03-3.42,2.11V66.24z"/>
		<polygon class="st7" points="151.56,78.58 143.2,78.58 143.2,74.21 151.32,74.21 151.32,68.65 143.2,68.65 143.2,66.24 
			151.56,66.24 151.56,60.68 137.45,60.68 137.45,84.14 151.56,84.14 		"/>
	</g>
</g>
</svg>
