<?xml version="1.0" encoding="utf-8"?>
<!-- Generator: Adobe Illustrator 26.0.3, SVG Export Plug-In . SVG Version: 6.00 Build 0)  -->
<svg version="1.1" id="Capa_1" xmlns="http://www.w3.org/2000/svg" xmlns:xlink="http://www.w3.org/1999/xlink" x="0px" y="0px"
	 viewBox="0 0 200 200" style="enable-background:new 0 0 200 200;" xml:space="preserve">
<style type="text/css">
	.st0{fill:#E01914;}
	.st1{fill:#DF1D14;}
	.st2{fill:#FFFFFF;}
</style>
<g>
	<g>
		<path class="st0" d="M100.66-0.18c0.45,0.69,1,1.39,1.5,2.06c2.21,3.03,5.62,6.54,8.45,9.24c0.34,0.32,0.57,0.64,0.85,0.93
			l4.63,4.17c4.79,3.55,12.03,5.72,17.91,6.69c3.84,0.64,7.9,0.97,11.95,0.97c4.75,0,9.5-0.45,13.89-1.38
			c5.5-1.16,10.67-3.29,15.9-5.23l5.11-1.9c0.37,0.38,1.04,1.43,1.35,1.92c1.64,2.56,3.4,16.21,3.73,19.13
			c0.7,6.3,1.28,11.64,1.68,17.98c0.06,0.97,0.04,5.75,0.26,6.21v6c-0.17,0.37-0.28,6.23-0.31,6.64c-0.15,2.21-0.29,4.28-0.5,6.42
			c-2.18,22.11-8.95,43.49-20.31,62.35c-2.94,4.87-5,7.86-8.24,12.44l-9.8,11.81l-6.32,6.5c-0.34,0.34-0.61,0.51-0.94,0.84
			c-0.28,0.28-0.56,0.61-0.85,0.84c-0.41,0.33-0.53,0.45-0.92,0.85l-12.27,10.1c-2.68,1.9-5.35,3.66-8.32,5.44
			c-2.86,1.72-5.75,3.26-9.01,4.75c-0.75,0.34-9.06,3.92-9.47,4.25h-0.37c-0.37-0.28-1.94-0.79-2.49-1.01
			c-9.91-3.89-20-9.85-28.4-16.32c-2.29-1.77-4.52-3.85-6.59-5.47l-4.41-4.11c-1.16-1.18-2.29-2.33-3.46-3.46l-3.25-3.58
			c-0.43-0.57-2.58-2.77-3.27-3.65l-7.51-9.62c-3.55-4.57-9.17-13.82-11.8-19.08c-6.23-12.46-11.5-27.44-13.84-41.19
			c-0.69-4.05-1.23-7.93-1.7-12.07c-0.23-2.05-0.39-4.2-0.5-6.3c-0.05-1-0.12-6.05-0.29-6.5v-5.61c0.16-0.37,0.19-5.34,0.25-6.26
			c0.41-6.38,0.87-11.48,1.76-17.88c0.79-5.77,1.75-11.18,2.81-16.85c0.34-1.81,0.8-3.64,1.09-5.48c0.64,0.02,4.62,1.37,5.52,1.66
			c1.83,0.61,3.6,1.29,5.34,1.87c3.54,1.19,7.2,2.5,10.96,3.35c4.92,1.11,9.93,1.72,15.01,1.72c3.62,0,7.27-0.31,10.94-0.97
			c5.81-1.05,13.53-3.32,18.28-6.88c0.35-0.26,0.67-0.49,0.99-0.79c0.21-0.2,0.31-0.25,0.51-0.42L97.04,4.24
			c0.59-0.62,1.43-1.79,1.97-2.43l1.58-1.99H100.66 M101.15-1.07h-0.48h-0.08h-0.43l-0.27,0.34l-1.58,1.99
			c-0.2,0.23-0.47,0.58-0.75,0.94c-0.4,0.51-0.84,1.08-1.17,1.43L85.58,14.25c-0.06,0.05-0.11,0.09-0.16,0.13
			c-0.11,0.08-0.21,0.16-0.36,0.3c-0.27,0.26-0.56,0.47-0.89,0.71c-5.72,4.28-15.17,6.23-17.93,6.73
			c-3.53,0.64-7.15,0.96-10.78,0.96c-4.83,0-9.82-0.57-14.81-1.7c-3.19-0.72-6.34-1.79-9.39-2.82l-1.49-0.5
			c-0.85-0.28-1.71-0.59-2.58-0.91c-0.91-0.32-1.82-0.65-2.75-0.96l-0.27-0.09c-3.97-1.33-5.07-1.61-5.51-1.62l-0.78-0.02
			l-0.12,0.77c-0.17,1.05-0.4,2.13-0.62,3.17c-0.16,0.76-0.33,1.53-0.47,2.29c-0.97,5.2-1.99,10.84-2.82,16.89
			c-0.94,6.84-1.39,12.12-1.76,17.94c-0.02,0.33-0.04,1.08-0.06,2.03c-0.03,1.24-0.08,3.51-0.15,4l-0.04,0.1v0.19v5.61v0.16
			l0.04,0.11c0.09,0.49,0.16,3.1,0.19,4.51c0.02,0.8,0.04,1.47,0.05,1.77c0.12,2.29,0.3,4.43,0.51,6.35
			c0.49,4.29,1.03,8.14,1.71,12.13c2.23,13.08,7.3,28.19,13.92,41.44c2.6,5.2,8.24,14.53,11.89,19.23l7.51,9.62
			c0.39,0.5,1.18,1.35,1.93,2.17c0.57,0.61,1.16,1.25,1.33,1.47l0.02,0.03l0.03,0.03l3.25,3.58l0.02,0.02l0.02,0.02
			c1.08,1.05,2.11,2.1,3.21,3.2l0.24,0.25l4.43,4.14l0.03,0.03l0.03,0.02c0.96,0.75,1.94,1.59,2.98,2.48c1.17,1,2.38,2.04,3.62,2.99
			c8.89,6.86,19.06,12.7,28.62,16.45c0.15,0.06,0.36,0.13,0.6,0.22c0.44,0.16,1.46,0.53,1.68,0.67l0.23,0.15l0.3,0.02h0.37h0.31
			l0.21-0.17c0.59-0.35,5.53-2.5,7.65-3.43c0.85-0.37,1.48-0.65,1.66-0.73c3.13-1.43,6.02-2.95,9.1-4.8
			c2.82-1.69,5.48-3.43,8.37-5.48l0.03-0.02l0.02-0.02l12.27-10.1l0.03-0.03l0.03-0.03c0.39-0.39,0.48-0.49,0.85-0.78
			c0.26-0.21,0.49-0.45,0.71-0.68c0.07-0.08,0.15-0.16,0.22-0.23c0.14-0.14,0.27-0.25,0.4-0.36c0.16-0.13,0.34-0.28,0.53-0.48
			l6.32-6.51l0.02-0.02l0.02-0.03l9.8-11.81l0.02-0.03l0.02-0.03c3.14-4.44,5.26-7.49,8.28-12.49
			c11.14-18.51,18.21-40.2,20.43-62.72c0.22-2.23,0.37-4.41,0.5-6.45c0.01-0.1,0.02-0.51,0.03-1.08c0.03-1.3,0.13-4.69,0.23-5.33
			l0.05-0.1v-0.2v-6v-0.2l-0.06-0.12c-0.1-0.5-0.13-2.82-0.15-4.08c-0.01-0.85-0.02-1.52-0.04-1.85
			c-0.39-6.25-0.94-11.41-1.68-18.02c-0.02-0.16-1.89-16.43-3.86-19.51c-0.51-0.8-1.07-1.66-1.47-2.07l-0.4-0.41l-0.54,0.2
			l-5.11,1.9c-0.87,0.32-1.73,0.65-2.6,0.97c-4.25,1.61-8.65,3.26-13.18,4.22c-4.27,0.9-8.88,1.36-13.71,1.36
			c-4.02,0-7.99-0.32-11.81-0.95c-6.99-1.16-13.53-3.59-17.49-6.51l-4.6-4.14c-0.08-0.08-0.19-0.2-0.29-0.33
			c-0.15-0.18-0.32-0.37-0.54-0.58c-2.56-2.45-6.08-6.02-8.34-9.12c-0.14-0.19-0.29-0.39-0.43-0.58c-0.36-0.48-0.73-0.97-1.04-1.44
			L101.15-1.07L101.15-1.07z"/>
	</g>
	<path class="st1" d="M55.76,26.76c-12.2,0.01-20.15-2.63-30.96-6.54c-0.91-0.33-3.13-1.19-4.02-1.31
		c-0.17,1.54-0.68,3.53-0.97,5.11c-0.32,1.76-0.64,3.48-0.94,5.25c-1.78,10.49-3.32,22.88-3.32,33.45c0,11.02,0.5,17.48,2.32,28.46
		c1.64,9.9,5.37,21.99,9.19,31.23c1.34,3.24,2.72,6.22,4.22,9.25c1.49,3.01,3.15,5.93,4.8,8.68c2.42,4.01,5.29,8.51,8.16,12.05
		c2.63,3.24,5.03,6.76,7.87,9.81c0.16,0.17,0.22,0.29,0.38,0.47l1.61,1.76c0.26,0.34,0.53,0.54,0.81,0.88
		c1.69,2.16,9.37,9.55,12.02,11.56l3.69,3.04c8.26,6.39,18.02,12.24,27.69,16.1c0.43,0.17,0.79,0.31,1.21,0.48
		c0.58,0.24,0.68,0.4,1.24,0.15c1.56-0.68,3.07-1.41,4.65-2.1c5.21-2.29,8.45-3.71,13.39-6.82c1.38-0.87,2.8-1.71,4.1-2.63
		c3.02-2.13,4.83-3.4,7.75-5.72c1.93-1.54,2.84-2.39,4.54-3.88l1.83-1.54c0.33-0.37,0.52-0.52,0.87-0.82l10.8-11.1l5.37-6.42
		c1.98-2.37,3.85-5.12,5.72-7.85c6.9-10.11,13.36-22.57,17.77-36.13c4.58-14.08,7.5-30.58,7.5-46.48c0-9.9-0.53-15.9-1.6-25.73
		c-0.39-3.6-0.84-7.21-1.4-10.76c-0.37-2.36-1.34-8.15-2.22-9.91c-1.07,0.3-6.15,2.28-7.55,2.83c-9.19,3.54-16.34,5.09-26.6,5.1
		c-9.65,0.01-20.22-1.93-27.68-5.99c-2.27-1.24-4.53-2.71-6.1-4.38c-0.39-0.42-0.67-0.56-1.12-1.03c-0.7-0.72-1.11-0.99-2.12-2.09
		c-0.69-0.75-1.36-1.4-2.08-2.13l-2.11-2.09c-0.91-0.97-3.23-3.52-3.89-4.51l-8.15,8.55c-0.37,0.36-0.66,0.66-1.04,1.02
		c-2.4,2.27-5.47,5.01-8.32,6.46C75.36,24.37,65.65,26.75,55.76,26.76z"/>
	<path class="st0" d="M91.27,22.43l-0.02,163.46c1.21,0.81,2.87,1.57,4.31,2.18c0.61,0.26,4.35,1.88,4.67,1.9
		c0.35,0.03,8.33-3.59,9.15-4.01l-0.04-163.53c-0.27-0.28-0.32-0.33-0.59-0.55c-0.82-0.68-3.5-3.32-4-3.86l-3.25-3.44
		c-0.36-0.35-0.6-0.89-1.12-1.13l-3.26,3.51c-1.86,1.94-3.32,3.17-5.23,4.89C91.64,22.09,91.5,22.11,91.27,22.43z"/>
	<path class="st2" d="M109.38,185.96l4.78-2.67c3.56-2.02,10.11-6.58,13.35-9.35l-0.02-143.19c-1.48-0.48-3.2-0.85-5.07-1.47
		c-3.97-1.32-8.87-3.5-12.13-6.13c-0.25-0.21-0.71-0.59-0.95-0.71L109.38,185.96z"/>
	<path class="st2" d="M73.12,30.74l0.01,143.2c0.9,1.02,7.68,5.74,8.63,6.35l7.02,4.27c0.56,0.33,1.88,1.14,2.46,1.34l0.02-163.46
		l-1.86,1.36c-0.62,0.44-1.34,0.9-2.03,1.31c-2.79,1.67-6,3.06-9.15,4.13C76.55,29.81,74.79,30.19,73.12,30.74z"/>
	<path class="st0" d="M127.5,173.94c0.17-0.18,0.34-0.28,0.58-0.48l3.06-2.63c1.64-1.34,4.5-4.06,5.94-5.45
		c0.37-0.35,0.75-0.85,1.09-1.17c0.21-0.2,0.38-0.3,0.58-0.5c0.22-0.22,0.35-0.38,0.56-0.61c0.39-0.41,0.71-0.75,1.08-1.18
		c0.54-0.6,1.48-1.47,2.18-2.34c0.58-0.72,1.2-1.3,2.08-2.44c0.12-0.16,0.91-1.17,1.06-1.21c-0.16-0.28-0.12-0.64-0.11-0.96
		c0-0.33,0-0.67,0-0.99V40.55c0-2.42-0.14-5.3,0.01-7.66c-3.28-0.17-6.22-0.22-9.5-0.62c-1.48-0.18-2.96-0.39-4.4-0.65
		c-1.43-0.25-2.85-0.63-4.24-0.87L127.5,173.94z"/>
	<path class="st0" d="M55.01,32.96l0.01,123.15c0.22,0.4,0.69,0.84,1,1.21c0.34,0.4,0.66,0.82,1.05,1.21l2.13,2.39
		c1.09,1.28,6.72,6.89,7.82,7.82l6.11,5.21l-0.01-143.2c-1.38,0.25-2.79,0.66-4.21,0.93c-1.46,0.27-2.88,0.5-4.37,0.69
		C61.27,32.77,58.3,32.81,55.01,32.96z"/>
	<path class="st2" d="M36.88,128.91c0.27,0.85,3.52,6.57,3.98,7.34c2.85,4.78,5.75,9.22,9.1,13.59c0.85,1.11,1.64,2.12,2.5,3.19
		c0.56,0.71,2.01,2.55,2.57,3.07L55.01,32.96c-3.34-0.14-6.25-0.18-9.55-0.63c-2.84-0.38-5.91-0.96-8.56-1.71L36.88,128.91z"/>
	<path class="st2" d="M145.63,32.9c-0.16,2.36-0.01,5.24-0.01,7.66v113.42c0,0.33,0,0.66,0,0.99c-0.01,0.32-0.05,0.68,0.11,0.96
		c1.17-1.5,2.56-2.98,3.83-4.65c0.42-0.56,0.79-1.01,1.22-1.58c2.95-3.89,6.57-9.29,9-13.59c0.67-1.18,1.36-2.33,2.02-3.57
		c0.4-0.74,1.76-3.08,1.94-3.76l-0.01-97.92c-1.34,0.22-2.76,0.6-4.14,0.87c-1.42,0.27-2.92,0.48-4.4,0.65
		C151.93,32.75,148.93,32.84,145.63,32.9z"/>
	<path class="st0" d="M163.73,30.86l0.01,97.92c0.49-0.71,2.01-4.04,2.47-5.04c0.8-1.74,1.53-3.42,2.27-5.23
		c4.48-10.81,7.71-24.01,9.2-35.82c1.19-9.46,1.43-18.98,0.89-28.6c-0.35-6.31-1.86-21.04-3.07-27.05L166.81,30
		C165.88,30.29,164.59,30.53,163.73,30.86z"/>
	<path class="st0" d="M36.88,128.91l0.02-98.29c-3.9-0.94-7.51-2.35-11.2-3.49c-0.3,0.64-0.95,5.28-1.13,6.34
		c-2.77,16.82-3.85,31.81-1.75,49.06c1.03,8.45,2.92,17.12,5.39,24.8c1.96,6.09,3.65,10.77,6.17,16.51
		C34.76,124.75,36.44,128.4,36.88,128.91z"/>
	<g>
		<path class="st0" d="M81.97,109.92l9.86,0.01c0.18-0.05,0.68-1.66,0.78-1.92c0.25-0.69,0.48-1.32,0.72-1.97
			c0.24-0.66,0.47-1.3,0.72-1.98c0.24-0.65,0.53-1.36,0.73-2.01h12.2c0.3,0.63,1.88,4.98,2.26,5.93c0.08,0.21,0.65,1.9,0.81,1.95
			h10.01c-0.13-0.4-0.3-0.73-0.44-1.12l-2.77-6.93c-0.16-0.39-0.31-0.74-0.47-1.15L115,97.26c-0.71-1.87-1.6-3.94-2.31-5.78
			c-0.14-0.36-0.32-0.8-0.47-1.15c-0.55-1.29-1.32-3.48-1.85-4.62c-0.16-0.35-0.33-0.8-0.47-1.16l-4.63-11.54
			c-0.76-0.09-6.87-0.01-8.38-0.01c-0.88-0.01-0.5-0.14-1.23,1.61l-1.06,2.71c-0.69,1.83-1.42,3.63-2.11,5.44
			c-0.7,1.83-1.43,3.61-2.11,5.43l-6.32,16.27c-0.36,0.94-0.72,1.8-1.05,2.72c-0.19,0.5-0.34,0.88-0.54,1.36L81.97,109.92
			L81.97,109.92z M97.8,93.87c-0.01-0.23,1.26-3.53,1.46-4.09c0.44-1.29,1.08-2.84,1.5-4.1l3.07,8.2L97.8,93.87z"/>
		<path class="st0" d="M134.79,152.72h2.65l0.84-0.07c0.28-0.03,0.56-0.05,0.83-0.07c0.55-0.06,1.1-0.14,1.6-0.25
			c8.83-2.44,9.99-7.38,9.99-14.5v-22.64h-9.34c0.01,5.79,0,11.58,0,17.37c0,2.27,0,6.44-0.28,8.4c-0.18,1.25-0.84,2.13-1.69,2.67
			c-1.69,1.08-5.92,1.12-7.66-0.63c-0.23-0.23-0.29-0.31-0.49-0.59c-0.3-0.42-0.56-0.88-0.7-1.46c-0.27-1.1-0.31-2.76-0.31-4.08
			v-21.68h-9.38l0.06,22.64c-0.06,2.65,0.07,5.56,1.4,8.12c1.09,2.1,2.08,3.13,3.72,4.31c0.88,0.63,1.18,0.74,2.06,1.17
			c1.48,0.72,4.28,1.22,5.98,1.25c0.13,0,0.26-0.01,0.39-0.01C134.67,152.66,134.67,152.64,134.79,152.72z"/>
		<path class="st0" d="M48.05,57.99v1.65c0.04,0.06,0.11,1.61,0.14,1.82c0.17,1.77,0.45,3.33,1.02,4.98c0.27,0.8,0.8,2.07,1.21,2.78
			c1.42,2.44,3.37,4.72,5.87,6.1c0.22,0.12,0.38,0.25,0.62,0.35c0.79,0.36,1.08,0.59,2.1,0.93c1.03,0.35,2.08,0.64,3.24,0.8
			c5.52,0.72,10.37-0.58,13.78-3.76c0.68-0.64,0.87-0.95,1.37-1.59c0.16-0.2,0.29-0.39,0.44-0.59c0.45-0.61,1.14-1.91,1.44-2.56
			l0.58-1.41c0.21-0.62,0.82-2.49,0.93-3.15c-0.34-0.06-0.77-0.22-1.12-0.33l-3.39-1.04c-0.77-0.22-1.48-0.49-2.27-0.7
			c-0.4-0.11-2.03-0.68-2.29-0.66c-0.5,1.96-0.83,3.95-2.26,5.6c-1.22,1.41-3.12,2.3-5.72,1.93c-1.41-0.2-2.11-0.65-3.07-1.35
			c-2.34-1.71-2.99-5.43-3.05-8.3c-0.1-4.5,0.28-9.26,4.59-11.18c2.33-1.04,5.69-0.6,7.47,1.3l0.41,0.55c1.31,1.93,1,2.82,1.41,3.62
			c0.28,0,0.86-0.18,1.16-0.25c1.9-0.42,3.85-0.96,5.76-1.37l2.28-0.56c0-0.34-0.58-2.06-0.74-2.53c-0.5-1.56-0.91-2.14-1.6-3.35
			c-0.2-0.35-0.46-0.67-0.7-0.97l-0.55-0.69c-0.07-0.08-0.14-0.15-0.21-0.22c-0.8-0.79-1.85-1.58-2.78-2.18l-1.08-0.6
			c-0.32-0.17-0.8-0.37-1.16-0.51c-1.24-0.48-2.63-0.84-4-0.98c-0.17-0.02-1.46-0.13-1.49-0.15h-1.98c-0.02,0.01-1.73,0.18-1.92,0.2
			c-1.71,0.21-3.61,0.8-5.08,1.52c-1.15,0.56-2.37,1.33-3.27,2.17c-0.13,0.12-0.12,0.12-0.3,0.24l-1.09,1.06
			c-1.59,1.93-2.58,3.38-3.44,5.89c-0.4,1.16-0.66,2.22-0.89,3.49c-0.1,0.56-0.21,1.32-0.25,1.93
			C48.18,56.15,48.07,57.96,48.05,57.99z"/>
		<path class="st2" d="M83.68,108.75l7.42,0.01l2.86-7.87h13.85l2.99,7.85l7.53,0.01L104.5,74.19h-7.38L83.68,108.75L83.68,108.75z
			 M96.08,95.03l4.64-12.71c0.18,0.21,1.05,2.71,1.23,3.18c0.3,0.78,3.49,9.17,3.56,9.54L96.08,95.03z"/>
		<path class="st2" d="M129.07,137.49v-21.12h-6.99v21.45c0,2.25-0.01,0.79,0.23,3.07c0.33,3.16,0.8,4.7,2.74,6.96
			c0.68,0.79,1.67,1.51,2.79,2.12c2.29,1.27,5.15,1.55,8.14,1.57c2.98,0.02,5.87-0.39,8.11-1.65c4.94-2.78,5.38-5.04,5.45-12.07
			v-21.45h-7.05l0.01,21.45c0,1.85,0.03,1.93-0.32,3.69c-0.34,1.7-1.53,2.89-2.87,3.49c-1.46,0.65-3.93,0.7-5.58,0.32
			c-2.64-0.6-4.23-2.57-4.5-5.04C129.15,139.54,128.99,138.18,129.07,137.49z"/>
		<path class="st2" d="M79.34,65.17l-6.74-1.99c-0.1,0.23-0.05,0.19-0.2,0.72c-0.53,1.88-1.32,3.54-2.74,4.8
			c-1.59,1.4-3.98,2.13-6.73,1.49c-2.31-0.54-3.98-2.07-4.91-3.71c-1.99-3.52-2.02-10.92-0.58-14.69c0.78-2.05,2.26-3.63,4.15-4.47
			c3.08-1.37,7.36-0.78,9.44,2.11c0.3,0.42,0.55,0.83,0.8,1.36c0.12,0.25,0.22,0.51,0.31,0.78c0.07,0.22,0.15,0.59,0.25,0.82
			c0.76,0,5.57-1.4,6.88-1.59c-0.13-1.3-1.51-3.92-2.3-5.02c-2.13-2.96-5.83-4.67-9.62-5.04c-6.28-0.62-11.89,1.65-15.15,6.63
			c-3.96,6.06-4.04,17.19,0.39,23.01c1.89,2.49,4.62,4.83,8.97,5.71c4.34,0.88,8.98,0.05,12.04-2c2.21-1.48,3.81-3.67,4.85-6.15
			C78.66,67.36,79.28,65.79,79.34,65.17z"/>
	</g>
</g>
</svg>
