<?xml version="1.0" encoding="utf-8"?>
<!-- Generator: Adobe Illustrator 26.0.3, SVG Export Plug-In . SVG Version: 6.00 Build 0)  -->
<svg version="1.1" id="Capa_1" xmlns="http://www.w3.org/2000/svg" xmlns:xlink="http://www.w3.org/1999/xlink" x="0px" y="0px"
	 viewBox="0 0 200 200" style="enable-background:new 0 0 200 200;" xml:space="preserve">
<style type="text/css">
	.st0{fill:#F7AE0C;}
	.st1{fill:#FFFFFF;stroke:#FFFFFF;stroke-width:7.5303;stroke-linecap:square;stroke-linejoin:round;stroke-miterlimit:10;}
	.st2{fill:#35388D;}
</style>
<g>
	<polygon class="st0" points="100.29,1.43 104.68,10.31 114.48,11.73 107.39,18.65 109.06,28.41 100.29,23.8 91.53,28.41 
		93.2,18.65 86.11,11.73 95.91,10.31 	"/>
	<g>
		<g>
			<path class="st1" d="M167.34,53.71c0,0-26.93,6.23-37.71-11.25h-0.02c-6.93,9.96-17.63,16.29-29.32,16.29
				c-11.69,0-22.39-6.34-29.32-16.29h-0.02C60.18,59.94,33.25,53.71,33.25,53.71c-3.95,112.5,67,141.87,67,141.87h0.1
				C100.35,195.59,171.29,166.21,167.34,53.71z"/>
		</g>
		<g>
			<path class="st2" d="M167.34,53.71c0,0-26.93,6.23-37.71-11.25h-0.02c-6.93,9.96-17.63,16.29-29.32,16.29
				c-11.69,0-22.39-6.34-29.32-16.29h-0.02C60.18,59.94,33.24,53.71,33.24,53.71c-3.95,112.5,67,141.87,67,141.87h0.1
				C100.35,195.59,171.29,166.21,167.34,53.71z M100.34,189.08h-0.05h-0.04c0,0-55.64-21.84-61.73-112.93l61.77,62.28l61.79-62.31
				C155.99,167.23,100.34,189.08,100.34,189.08z M162.61,59.63l-62.32,62.99L37.98,59.65c0-0.01,0-0.02,0-0.03
				c0,0,21.1,3.81,33.04-9.81c8.75,8.81,17.43,13.98,29.26,13.98h0.04c11.83,0,20.5-5.17,29.26-13.98
				C141.51,63.43,162.61,59.62,162.61,59.63C162.61,59.63,162.61,59.63,162.61,59.63z"/>
			<polygon class="st2" points="66.87,72.98 96.55,72.98 96.55,67.35 53.64,67.35 96.66,113.88 96.66,105.57 			"/>
			<path class="st2" d="M119.58,97.87l28.35-30.56h-45.17v46.07l5.76-5.54v-24.5h17.09L115.32,94.2L119.58,97.87z M108.52,72.98
				h26.17l-5.29,5.7h-20.88V72.98z"/>
			<path class="st2" d="M91.73,171.05c-10.53-9.56-23.77-25.38-33.43-48.08l-6.64-4.24c12.52,34.7,33.06,54.29,45.16,63.05v-38.48
				l-5.09-5.37V171.05z"/>
			<path class="st2" d="M132.82,148.58c0,0,5.28-9.26,1.9-13.76c0,0-2.77-3.9-7.62,0.09c0,0-6.84,5.71-13.24,13.93
				c0,0-2.08,3.29-4.33,3.03c0,0-2.16-0.52-0.95-3.55c0,0,6.39-11.4,19.89-21.44l0.11-5.99c0,0-14.45,9.35-23.45,24.06
				c0,0-2.94,5.63-0.87,10.3c0,0,1.99,4.15,6.84,2.59c0,0,1.56-0.09,5.45-4.85l10.64-12.46c0,0,3.03-2.86,3.46,0.95
				c0,0,0,2.51-3.2,7.01c0,0-11.77,17.83-24.32,25.36v6.4C103.14,180.25,126.94,161.47,132.82,148.58z"/>
		</g>
	</g>
</g>
</svg>
